<svg xmlns="http://www.w3.org/2000/svg" width="1050" height="720" viewBox="0 0 1050 720"><rect width="1050" height="720" fill="white"/><text x="80.0" y="28.0" font-family="sans-serif" font-size="16" text-anchor="start" fill="#111" font-weight="bold">Read bandwidth vs time, per RRT — QD1/psync (small multiples)</text><rect x="80.0" y="50.0" width="720.0" height="96.0" fill="#fbfbfb" stroke="#888" stroke-width="1.0" opacity="1.0"/><line x1="80.0" y1="146.0" x2="800.0" y2="146.0" stroke="#e3e3e3" stroke-width="1.0" opacity="1.0"/><text x="74.0" y="150.0" font-family="sans-serif" font-size="11" text-anchor="end" fill="#444" font-weight="normal">500</text><line x1="80.0" y1="126.8" x2="800.0" y2="126.8" stroke="#e3e3e3" stroke-width="1.0" opacity="1.0"/><text x="74.0" y="130.8" font-family="sans-serif" font-size="11" text-anchor="end" fill="#444" font-weight="normal">600</text><line x1="80.0" y1="107.6" x2="800.0" y2="107.6" stroke="#e3e3e3" stroke-width="1.0" opacity="1.0"/><text x="74.0" y="111.6" font-family="sans-serif" font-size="11" text-anchor="end" fill="#444" font-weight="normal">700</text><line x1="80.0" y1="88.4" x2="800.0" y2="88.4" stroke="#e3e3e3" stroke-width="1.0" opacity="1.0"/><text x="74.0" y="92.4" font-family="sans-serif" font-size="11" text-anchor="end" fill="#444" font-weight="normal">800</text><line x1="80.0" y1="69.2" x2="800.0" y2="69.2" stroke="#e3e3e3" stroke-width="1.0" opacity="1.0"/><text x="74.0" y="73.2" font-family="sans-serif" font-size="11" text-anchor="end" fill="#444" font-weight="normal">900</text><line x1="80.0" y1="50.0" x2="800.0" y2="50.0" stroke="#e3e3e3" stroke-width="1.0" opacity="1.0"/><text x="74.0" y="54.0" font-family="sans-serif" font-size="11" text-anchor="end" fill="#444" font-weight="normal">1000</text><line x1="80.0" y1="50.0" x2="80.0" y2="146.0" stroke="#e3e3e3" stroke-width="1.0" opacity="1.0"/><text x="80.0" y="162.0" font-family="sans-serif" font-size="11" text-anchor="middle" fill="#444" font-weight="normal">0</text><line x1="200.0" y1="50.0" x2="200.0" y2="146.0" stroke="#e3e3e3" stroke-width="1.0" opacity="1.0"/><text x="200.0" y="162.0" font-family="sans-serif" font-size="11" text-anchor="middle" fill="#444" font-weight="normal">30</text><line x1="320.0" y1="50.0" x2="320.0" y2="146.0" stroke="#e3e3e3" stroke-width="1.0" opacity="1.0"/><text x="320.0" y="162.0" font-family="sans-serif" font-size="11" text-anchor="middle" fill="#444" font-weight="normal">60</text><line x1="440.0" y1="50.0" x2="440.0" y2="146.0" stroke="#e3e3e3" stroke-width="1.0" opacity="1.0"/><text x="440.0" y="162.0" font-family="sans-serif" font-size="11" text-anchor="middle" fill="#444" font-weight="normal">90</text><line x1="560.0" y1="50.0" x2="560.0" y2="146.0" stroke="#e3e3e3" stroke-width="1.0" opacity="1.0"/><text x="560.0" y="162.0" font-family="sans-serif" font-size="11" text-anchor="middle" fill="#444" font-weight="normal">120</text><line x1="680.0" y1="50.0" x2="680.0" y2="146.0" stroke="#e3e3e3" stroke-width="1.0" opacity="1.0"/><text x="680.0" y="162.0" font-family="sans-serif" font-size="11" text-anchor="middle" fill="#444" font-weight="normal">150</text><line x1="800.0" y1="50.0" x2="800.0" y2="146.0" stroke="#e3e3e3" stroke-width="1.0" opacity="1.0"/><text x="800.0" y="162.0" font-family="sans-serif" font-size="11" text-anchor="middle" fill="#444" font-weight="normal">180</text><line x1="80.0" y1="58.8" x2="800.0" y2="58.8" stroke="#999" stroke-width="1.0" stroke-dasharray="2,3" opacity="1.0"/><polyline points="81.00,60.42 82.00,56.27 83.00,56.53 84.00,56.43 85.00,56.62 86.00,56.82 87.00,56.84 88.00,56.62 89.00,56.62 90.00,56.91 91.00,56.62 92.00,56.62 93.00,56.62 94.00,56.53 95.00,57.97 96.00,60.85 97.00,56.72 98.00,56.53 99.00,57.58 100.00,61.62 101.00,60.75 102.00,60.85 103.00,60.75 104.00,60.85 105.00,60.75 106.00,60.85 107.00,60.75 108.00,60.85 109.00,60.75 110.00,60.85 111.00,61.04 112.00,60.75 113.00,60.99 114.00,57.01 115.00,57.20 116.00,57.10 117.00,57.10 118.00,56.91 119.00,56.82 120.00,56.82 121.00,56.82 122.00,57.01 123.00,56.82 124.00,57.97 125.00,59.31 126.00,56.82 127.00,56.72 128.00,56.72 129.00,56.72 130.00,56.62 131.00,57.30 132.00,56.82 133.00,56.82 134.00,56.72 135.00,56.72 136.00,56.84 137.00,56.72 138.00,56.82 139.00,56.72 140.00,60.56 141.00,61.33 142.00,59.79 143.00,62.38 144.00,57.87 145.00,56.72 146.00,56.43 147.00,56.91 148.00,56.72 149.00,57.97 150.00,56.62 151.00,57.30 152.00,56.82 153.00,56.91 154.00,56.72 155.00,56.82 156.00,57.39 157.00,58.35 158.00,60.94 159.00,60.94 160.00,61.57 161.00,61.62 162.00,62.00 163.00,61.52 164.00,61.81 165.00,60.85 166.00,60.75 167.00,60.75 168.00,60.75 169.00,60.66 170.00,60.94 171.00,60.94 172.00,60.75 173.00,60.85 174.00,60.85 175.00,60.85 176.00,60.75 177.00,59.98 178.00,56.82 179.00,56.82 180.00,57.30 181.00,57.20 182.00,57.10 183.00,57.87 184.00,62.29 185.00,61.52 186.00,58.06 187.00,56.72 188.00,56.62 189.00,57.30 190.00,56.62 191.00,57.20 192.00,57.33 193.00,60.46 194.00,61.33 195.00,61.42 196.00,61.71 197.00,61.42 198.00,62.00 199.00,62.10 200.00,62.00 201.00,58.45 202.00,57.01 203.00,56.53 204.00,56.53 205.00,56.82 206.00,56.91 207.00,56.72 208.00,60.94 209.00,61.71 210.00,60.75 211.00,60.75 212.00,61.33 213.00,61.14 214.00,61.14 215.00,62.10 216.00,62.10 217.00,61.90 218.00,62.10 219.00,61.81 220.00,61.23 221.00,61.71 222.00,62.38 223.00,61.37 224.00,61.52 225.00,61.81 226.00,61.33 227.00,61.42 228.00,57.30 229.00,56.82 230.00,57.10 231.00,56.72 232.00,56.82 233.00,56.91 234.00,56.82 235.00,56.82 236.00,57.01 237.00,57.30 238.00,56.82 239.00,56.91 240.00,56.91 241.00,56.91 242.00,57.01 243.00,57.20 244.00,56.82 245.00,57.01 246.00,57.30 247.00,57.10 248.00,56.82 249.00,56.82 250.00,56.91 251.00,56.91 252.00,56.82 253.00,56.91 254.00,56.91 255.00,56.91 256.00,57.01 257.00,56.91 258.00,56.91 259.00,56.94 260.00,57.01 261.00,56.91 262.00,57.01 263.00,58.83 264.00,61.62 265.00,61.52 266.00,61.52 267.00,61.62 268.00,61.52 269.00,61.04 270.00,60.85 271.00,60.85 272.00,62.00 273.00,59.89 274.00,56.82 275.00,56.91 276.00,56.82 277.00,56.82 278.00,56.82 279.00,56.91 280.00,56.82 281.00,57.01 282.00,57.01 283.00,56.82 284.00,61.14 285.00,60.75 286.00,59.12 287.00,57.01 288.00,57.10 289.00,56.72 290.00,56.91 291.00,56.75 292.00,56.91 293.00,56.82 294.00,56.82 295.00,56.91 296.00,56.91 297.00,56.82 298.00,56.91 299.00,59.50 300.00,60.75 301.00,57.49 302.00,56.91 303.00,56.82 304.00,57.68 305.00,57.58 306.00,56.82 307.00,56.72 308.00,61.23 309.00,61.52 310.00,60.94 311.00,60.75 312.00,60.94 313.00,61.52 314.00,60.66 315.00,56.91 316.00,56.82 317.00,56.91 318.00,56.91 319.00,57.20 320.00,56.91 321.00,56.82 322.00,56.91 323.00,56.82 324.00,56.91 325.00,57.30 326.00,56.91 327.00,57.33 328.00,56.72 329.00,56.72 330.00,56.72 331.00,56.72 332.00,56.72 333.00,56.72 334.00,58.35 335.00,60.75 336.00,61.04 337.00,61.52 338.00,61.33 339.00,61.33 340.00,61.14 341.00,61.42 342.00,61.42 343.00,59.70 344.00,57.30 345.00,57.20 346.00,57.39 347.00,57.01 348.00,57.49 349.00,56.91 350.00,56.72 351.00,57.39 352.00,58.35 353.00,57.23 354.00,56.53 355.00,56.91 356.00,56.53 357.00,57.20 358.00,56.53 359.00,56.62 360.00,56.72 361.00,57.01 362.00,56.91 363.00,56.53 364.00,58.16 365.00,57.20 366.00,61.33 367.00,59.70 368.00,61.52 369.00,61.81 370.00,61.62 371.00,62.19 372.00,61.52 373.00,61.62 374.00,61.81 375.00,60.75 376.00,61.42 377.00,60.89 378.00,60.75 379.00,60.94 380.00,62.00 381.00,61.33 382.00,60.75 383.00,60.85 384.00,60.94 385.00,60.85 386.00,57.87 387.00,57.30 388.00,56.82 389.00,57.01 390.00,56.72 391.00,56.72 392.00,56.62 393.00,57.20 394.00,56.82 395.00,56.72 396.00,59.70 397.00,61.52 398.00,61.42 399.00,62.29 400.00,60.85 401.00,60.75 402.00,60.94 403.00,60.75 404.00,60.70 405.00,60.85 406.00,60.75 407.00,60.75 408.00,60.75 409.00,60.75 410.00,60.66 411.00,60.66 412.00,60.66 413.00,60.66 414.00,60.75 415.00,60.80 416.00,60.66 417.00,60.66 418.00,60.75 419.00,60.66 420.00,60.66 421.00,60.70 422.00,60.75 423.00,60.75 424.00,60.66 425.00,57.68 426.00,56.91 427.00,58.93 428.00,61.37 429.00,60.66 430.00,59.60 431.00,56.91 432.00,56.62 433.00,56.72 434.00,56.72 435.00,56.65 436.00,56.72 437.00,56.72 438.00,56.72 439.00,56.62 440.00,57.97 441.00,61.14 442.00,61.76 443.00,61.33 444.00,61.62 445.00,61.52 446.00,61.23 447.00,59.98 448.00,57.49 449.00,57.23 450.00,57.01 451.00,56.82 452.00,57.10 453.00,57.20 454.00,57.10 455.00,56.91 456.00,56.91 457.00,56.62 458.00,56.62 459.00,56.91 460.00,57.49 461.00,57.23 462.00,57.10 463.00,56.82 464.00,56.82 465.00,56.91 466.00,56.82 467.00,60.94 468.00,61.33 469.00,57.39 470.00,56.72 471.00,57.10 472.00,56.62 473.00,56.82 474.00,57.20 475.00,56.84 476.00,56.82 477.00,57.01 478.00,56.91 479.00,56.91 480.00,56.91 481.00,57.01 482.00,57.01 483.00,56.91 484.00,57.01 485.00,57.01 486.00,56.91 487.00,56.91 488.00,56.82 489.00,57.20 490.00,56.91 491.00,56.91 492.00,57.49 493.00,59.31 494.00,60.85 495.00,61.04 496.00,60.94 497.00,61.52 498.00,61.52 499.00,61.42 500.00,61.23 501.00,61.52 502.00,61.42 503.00,61.42 504.00,62.00 505.00,61.23 506.00,61.33 507.00,59.41 508.00,56.72 509.00,60.08 510.00,62.19 511.00,61.37 512.00,61.52 513.00,58.35 514.00,56.91 515.00,56.82 516.00,56.91 517.00,56.91 518.00,56.82 519.00,57.01 520.00,58.54 521.00,57.68 522.00,56.82 523.00,57.01 524.00,57.30 525.00,57.97 526.00,57.10 527.00,56.91 528.00,56.82 529.00,56.91 530.00,61.71 531.00,61.42 532.00,61.42 533.00,61.23 534.00,56.72 535.00,56.72 536.00,56.62 537.00,57.68 538.00,56.82 539.00,56.91 540.00,56.82 541.00,57.01 542.00,56.84 543.00,56.91 544.00,58.35 545.00,60.85 546.00,57.39 547.00,56.82 548.00,56.82 549.00,56.72 550.00,57.20 551.00,56.34 552.00,56.53 553.00,56.53 554.00,56.43 555.00,60.08 556.00,60.94 557.00,60.85 558.00,59.02 559.00,56.94 560.00,56.91 561.00,56.72 562.00,56.72 563.00,56.82 564.00,57.39 565.00,60.08 566.00,57.01 567.00,56.53 568.00,57.39 569.00,57.10 570.00,57.20 571.00,57.39 572.00,57.78 573.00,58.26 574.00,56.82 575.00,56.84 576.00,56.82 577.00,56.91 578.00,56.82 579.00,56.82 580.00,56.82 581.00,59.22 582.00,60.75 583.00,60.75 584.00,60.75 585.00,60.75 586.00,60.75 587.00,61.23 588.00,61.52 589.00,58.83 590.00,59.79 591.00,60.94 592.00,58.26 593.00,56.91 594.00,56.82 595.00,56.82 596.00,57.23 597.00,56.82 598.00,56.82 599.00,60.37 600.00,59.31 601.00,61.90 602.00,60.94 603.00,60.75 604.00,60.75 605.00,61.33 606.00,61.52 607.00,62.10 608.00,60.85 609.00,60.75 610.00,60.66 611.00,61.04 612.00,57.20 613.00,56.82 614.00,56.65 615.00,56.82 616.00,57.39 617.00,56.82 618.00,56.72 619.00,57.39 620.00,56.72 621.00,57.10 622.00,56.82 623.00,56.82 624.00,56.82 625.00,60.27 626.00,61.90 627.00,60.85 628.00,60.85 629.00,60.75 630.00,60.75 631.00,61.14 632.00,57.49 633.00,56.62 634.00,56.82 635.00,56.53 636.00,56.72 637.00,56.62 638.00,56.53 639.00,56.53 640.00,56.34 641.00,56.46 642.00,56.82 643.00,57.39 644.00,58.06 645.00,60.75 646.00,60.75 647.00,60.75 648.00,60.75 649.00,60.94 650.00,60.66 651.00,60.75 652.00,60.18 653.00,56.53 654.00,56.72 655.00,56.72 656.00,57.10 657.00,56.53 658.00,57.49 659.00,56.46 660.00,56.82 661.00,57.68 662.00,56.43 663.00,56.53 664.00,56.53 665.00,56.24 666.00,56.34 667.00,56.34 668.00,56.62 669.00,57.97 670.00,60.66 671.00,60.75 672.00,60.75 673.00,60.94 674.00,60.66 675.00,60.75 676.00,60.66 677.00,60.80 678.00,60.75 679.00,60.75 680.00,60.75 681.00,60.75 682.00,60.75 683.00,58.45 684.00,58.26 685.00,61.81 686.00,60.75 687.00,60.85 688.00,60.85 689.00,60.94 690.00,61.04 691.00,60.66 692.00,60.85 693.00,61.33 694.00,61.47 695.00,58.93 696.00,56.72 697.00,57.39 698.00,61.71 699.00,60.66 700.00,60.75 701.00,62.00 702.00,60.75 703.00,61.52 704.00,60.94 705.00,60.75 706.00,61.14 707.00,61.52 708.00,61.23 709.00,61.42 710.00,61.47 711.00,61.33 712.00,62.00 713.00,62.19 714.00,60.75 715.00,61.62 716.00,61.90 717.00,62.00 718.00,60.75 719.00,60.75 720.00,61.14 721.00,60.75 722.00,60.75 723.00,61.81 724.00,61.52 725.00,59.50 726.00,56.82 727.00,56.91 728.00,56.82 729.00,56.82 730.00,56.91 731.00,57.20 732.00,56.91 733.00,56.82 734.00,56.91 735.00,56.91 736.00,56.91 737.00,56.82 738.00,56.82 739.00,56.82 740.00,59.70 741.00,56.91 742.00,56.84 743.00,56.91 744.00,56.82 745.00,57.30 746.00,56.82 747.00,56.82 748.00,56.82 749.00,56.82 750.00,56.72 751.00,56.72 752.00,56.82 753.00,56.82 754.00,56.82 755.00,56.91 756.00,56.91 757.00,58.45 758.00,60.66 759.00,60.66 760.00,60.66 761.00,60.94 762.00,60.66 763.00,61.42 764.00,61.42 765.00,60.85 766.00,61.42 767.00,61.04 768.00,61.90 769.00,60.85 770.00,61.52 771.00,62.10 772.00,61.71 773.00,60.75 774.00,60.75 775.00,61.33 776.00,61.42 777.00,60.85 778.00,60.80 779.00,60.75 780.00,60.75 781.00,60.85 782.00,60.75 783.00,60.75 784.00,60.85 785.00,60.85 786.00,60.75 787.00,60.75 788.00,59.41 789.00,57.30 790.00,56.91 791.00,56.91 792.00,56.82 793.00,56.82 794.00,56.82 795.00,56.72 796.00,60.56 797.00,60.85 798.00,61.33 799.00,61.23" fill="none" stroke="#555555" stroke-width="1.3" opacity="1.0" stroke-linejoin="round"/><text x="816.0" y="66.0" font-family="sans-serif" font-size="13" text-anchor="start" fill="#555555" font-weight="bold">RRT=OFF (1e9)</text><text x="816.0" y="86.0" font-family="sans-serif" font-size="11" text-anchor="start" fill="#444" font-weight="normal">reclaims/inst: 0</text><text x="816.0" y="103.0" font-family="sans-serif" font-size="11" text-anchor="start" fill="#444" font-weight="normal">avg 954.3 MiB/s</text><text x="816.0" y="120.0" font-family="sans-serif" font-size="11" text-anchor="start" fill="#444" font-weight="normal">min(dip) 935.5</text><text x="816.0" y="137.0" font-family="sans-serif" font-size="11" text-anchor="start" fill="#444" font-weight="normal">dips: 0/719 intervals</text><rect x="80.0" y="176.0" width="720.0" height="96.0" fill="#fbfbfb" stroke="#888" stroke-width="1.0" opacity="1.0"/><line x1="80.0" y1="272.0" x2="800.0" y2="272.0" stroke="#e3e3e3" stroke-width="1.0" opacity="1.0"/><text x="74.0" y="276.0" font-family="sans-serif" font-size="11" text-anchor="end" fill="#444" font-weight="normal">500</text><line x1="80.0" y1="252.8" x2="800.0" y2="252.8" stroke="#e3e3e3" stroke-width="1.0" opacity="1.0"/><text x="74.0" y="256.8" font-family="sans-serif" font-size="11" text-anchor="end" fill="#444" font-weight="normal">600</text><line x1="80.0" y1="233.6" x2="800.0" y2="233.6" stroke="#e3e3e3" stroke-width="1.0" opacity="1.0"/><text x="74.0" y="237.6" font-family="sans-serif" font-size="11" text-anchor="end" fill="#444" font-weight="normal">700</text><line x1="80.0" y1="214.4" x2="800.0" y2="214.4" stroke="#e3e3e3" stroke-width="1.0" opacity="1.0"/><text x="74.0" y="218.4" font-family="sans-serif" font-size="11" text-anchor="end" fill="#444" font-weight="normal">800</text><line x1="80.0" y1="195.2" x2="800.0" y2="195.2" stroke="#e3e3e3" stroke-width="1.0" opacity="1.0"/><text x="74.0" y="199.2" font-family="sans-serif" font-size="11" text-anchor="end" fill="#444" font-weight="normal">900</text><line x1="80.0" y1="176.0" x2="800.0" y2="176.0" stroke="#e3e3e3" stroke-width="1.0" opacity="1.0"/><text x="74.0" y="180.0" font-family="sans-serif" font-size="11" text-anchor="end" fill="#444" font-weight="normal">1000</text><line x1="80.0" y1="176.0" x2="80.0" y2="272.0" stroke="#e3e3e3" stroke-width="1.0" opacity="1.0"/><text x="80.0" y="288.0" font-family="sans-serif" font-size="11" text-anchor="middle" fill="#444" font-weight="normal">0</text><line x1="200.0" y1="176.0" x2="200.0" y2="272.0" stroke="#e3e3e3" stroke-width="1.0" opacity="1.0"/><text x="200.0" y="288.0" font-family="sans-serif" font-size="11" text-anchor="middle" fill="#444" font-weight="normal">30</text><line x1="320.0" y1="176.0" x2="320.0" y2="272.0" stroke="#e3e3e3" stroke-width="1.0" opacity="1.0"/><text x="320.0" y="288.0" font-family="sans-serif" font-size="11" text-anchor="middle" fill="#444" font-weight="normal">60</text><line x1="440.0" y1="176.0" x2="440.0" y2="272.0" stroke="#e3e3e3" stroke-width="1.0" opacity="1.0"/><text x="440.0" y="288.0" font-family="sans-serif" font-size="11" text-anchor="middle" fill="#444" font-weight="normal">90</text><line x1="560.0" y1="176.0" x2="560.0" y2="272.0" stroke="#e3e3e3" stroke-width="1.0" opacity="1.0"/><text x="560.0" y="288.0" font-family="sans-serif" font-size="11" text-anchor="middle" fill="#444" font-weight="normal">120</text><line x1="680.0" y1="176.0" x2="680.0" y2="272.0" stroke="#e3e3e3" stroke-width="1.0" opacity="1.0"/><text x="680.0" y="288.0" font-family="sans-serif" font-size="11" text-anchor="middle" fill="#444" font-weight="normal">150</text><line x1="800.0" y1="176.0" x2="800.0" y2="272.0" stroke="#e3e3e3" stroke-width="1.0" opacity="1.0"/><text x="800.0" y="288.0" font-family="sans-serif" font-size="11" text-anchor="middle" fill="#444" font-weight="normal">180</text><line x1="80.0" y1="184.8" x2="800.0" y2="184.8" stroke="#999" stroke-width="1.0" stroke-dasharray="2,3" opacity="1.0"/><polyline points="81.00,188.38 82.00,187.57 83.00,187.52 84.00,187.52 85.00,187.23 86.00,187.33 87.00,187.23 88.00,187.28 89.00,187.42 90.00,187.42 91.00,188.96 92.00,186.75 93.00,186.80 94.00,187.71 95.00,187.62 96.00,186.75 97.00,186.85 98.00,187.33 99.00,187.76 100.00,187.62 101.00,184.74 102.00,182.72 103.00,182.53 104.00,182.27 105.00,182.62 106.00,182.62 107.00,182.62 108.00,182.43 109.00,183.20 110.00,183.33 111.00,183.20 112.00,182.53 113.00,182.82 114.00,183.01 115.00,183.01 116.00,182.43 117.00,182.72 118.00,182.84 119.00,182.43 120.00,183.39 121.00,182.82 122.00,183.10 123.00,183.33 124.00,183.30 125.00,182.72 126.00,182.82 127.00,183.10 128.00,182.43 129.00,182.55 130.00,182.72 131.00,183.01 132.00,183.20 133.00,183.87 134.00,182.72 135.00,182.75 136.00,182.72 137.00,182.72 138.00,182.72 139.00,182.82 140.00,182.72 141.00,182.94 142.00,182.72 143.00,182.72 144.00,182.72 145.00,182.62 146.00,182.82 147.00,182.65 148.00,182.62 149.00,182.91 150.00,182.72 151.00,182.72 152.00,182.82 153.00,182.94 154.00,182.72 155.00,182.62 156.00,182.72 157.00,182.82 158.00,187.04 159.00,187.04 160.00,187.28 161.00,187.42 162.00,187.33 163.00,187.33 164.00,187.33 165.00,187.42 166.00,187.47 167.00,187.90 168.00,187.42 169.00,186.56 170.00,183.30 171.00,182.94 172.00,183.20 173.00,186.08 174.00,187.14 175.00,187.52 176.00,187.33 177.00,186.99 178.00,188.00 179.00,188.00 180.00,187.90 181.00,187.23 182.00,185.31 183.00,182.84 184.00,182.72 185.00,182.72 186.00,182.72 187.00,182.72 188.00,182.75 189.00,183.01 190.00,182.82 191.00,183.39 192.00,187.23 193.00,186.75 194.00,183.04 195.00,183.39 196.00,182.62 197.00,182.72 198.00,182.72 199.00,183.10 200.00,183.04 201.00,183.01 202.00,182.72 203.00,182.72 204.00,182.62 205.00,182.94 206.00,183.20 207.00,183.01 208.00,182.91 209.00,182.62 210.00,182.55 211.00,182.34 212.00,182.62 213.00,185.89 214.00,187.23 215.00,182.91 216.00,182.27 217.00,184.93 218.00,187.23 219.00,187.33 220.00,187.33 221.00,187.37 222.00,187.42 223.00,184.83 224.00,182.91 225.00,182.91 226.00,187.37 227.00,187.23 228.00,187.33 229.00,187.42 230.00,187.33 231.00,187.28 232.00,187.33 233.00,187.42 234.00,186.18 235.00,182.34 236.00,182.24 237.00,185.83 238.00,185.98 239.00,182.91 240.00,182.82 241.00,182.65 242.00,183.01 243.00,182.72 244.00,182.72 245.00,182.53 246.00,183.01 247.00,182.94 248.00,182.53 249.00,188.19 250.00,187.90 251.00,185.31 252.00,187.62 253.00,186.60 254.00,186.75 255.00,186.94 256.00,186.66 257.00,186.66 258.00,186.60 259.00,186.66 260.00,187.42 261.00,187.14 262.00,186.75 263.00,186.60 264.00,183.58 265.00,182.91 266.00,183.20 267.00,182.91 268.00,182.84 269.00,182.82 270.00,183.10 271.00,182.82 272.00,182.91 273.00,182.84 274.00,183.01 275.00,184.35 276.00,186.94 277.00,187.71 278.00,187.37 279.00,187.33 280.00,187.14 281.00,187.23 282.00,187.23 283.00,187.33 284.00,187.57 285.00,186.56 286.00,186.56 287.00,186.66 288.00,188.00 289.00,186.85 290.00,184.16 291.00,182.84 292.00,182.82 293.00,182.82 294.00,183.30 295.00,182.82 296.00,183.04 297.00,182.72 298.00,183.20 299.00,182.72 300.00,182.62 301.00,182.75 302.00,186.27 303.00,185.89 304.00,182.82 305.00,182.82 306.00,182.75 307.00,182.72 308.00,182.82 309.00,182.72 310.00,182.91 311.00,182.84 312.00,182.72 313.00,182.72 314.00,182.72 315.00,182.82 316.00,182.84 317.00,182.72 318.00,182.72 319.00,182.82 320.00,182.72 321.00,182.72 322.00,182.72 323.00,182.84 324.00,182.53 325.00,182.62 326.00,182.72 327.00,182.82 328.00,182.62 329.00,182.75 330.00,182.72 331.00,182.62 332.00,182.72 333.00,183.01 334.00,182.75 335.00,183.39 336.00,186.56 337.00,188.19 338.00,186.27 339.00,185.60 340.00,188.00 341.00,187.57 342.00,187.33 343.00,186.56 344.00,184.26 345.00,182.53 346.00,182.65 347.00,182.53 348.00,182.53 349.00,182.62 350.00,182.53 351.00,182.55 352.00,183.49 353.00,186.66 354.00,187.42 355.00,187.62 356.00,187.81 357.00,187.76 358.00,185.31 359.00,182.62 360.00,182.72 361.00,186.46 362.00,187.28 363.00,187.52 364.00,187.23 365.00,187.42 366.00,184.26 367.00,182.75 368.00,183.01 369.00,183.20 370.00,183.01 371.00,183.10 372.00,182.75 373.00,186.85 374.00,187.90 375.00,186.46 376.00,187.52 377.00,187.52 378.00,183.10 379.00,183.13 380.00,182.72 381.00,182.72 382.00,183.01 383.00,183.10 384.00,183.04 385.00,182.72 386.00,183.30 387.00,182.72 388.00,182.72 389.00,182.72 390.00,182.84 391.00,182.62 392.00,182.62 393.00,182.72 394.00,182.72 395.00,182.65 396.00,182.62 397.00,182.72 398.00,184.74 399.00,187.23 400.00,186.66 401.00,186.60 402.00,186.66 403.00,187.23 404.00,187.81 405.00,188.00 406.00,187.81 407.00,187.95 408.00,184.16 409.00,182.62 410.00,182.62 411.00,183.10 412.00,182.94 413.00,182.72 414.00,182.91 415.00,182.82 416.00,182.82 417.00,182.82 418.00,183.04 419.00,183.01 420.00,182.72 421.00,182.62 422.00,182.72 423.00,182.65 424.00,182.62 425.00,182.62 426.00,182.72 427.00,182.72 428.00,182.62 429.00,182.94 430.00,183.01 431.00,182.91 432.00,182.72 433.00,185.45 434.00,184.64 435.00,182.72 436.00,182.53 437.00,183.39 438.00,183.01 439.00,183.71 440.00,182.62 441.00,182.62 442.00,182.53 443.00,182.91 444.00,187.28 445.00,186.75 446.00,188.10 447.00,186.66 448.00,186.85 449.00,186.75 450.00,184.29 451.00,182.91 452.00,182.53 453.00,182.91 454.00,187.71 455.00,187.14 456.00,186.66 457.00,186.60 458.00,186.75 459.00,186.56 460.00,188.10 461.00,186.85 462.00,185.12 463.00,183.13 464.00,182.91 465.00,182.91 466.00,182.91 467.00,182.82 468.00,182.82 469.00,183.13 470.00,182.82 471.00,182.91 472.00,182.72 473.00,182.72 474.00,182.62 475.00,183.13 476.00,182.62 477.00,182.82 478.00,182.91 479.00,182.72 480.00,182.91 481.00,182.65 482.00,183.10 483.00,182.72 484.00,182.72 485.00,182.75 486.00,182.82 487.00,183.78 488.00,182.62 489.00,182.72 490.00,182.82 491.00,182.65 492.00,182.82 493.00,182.82 494.00,182.72 495.00,182.72 496.00,182.75 497.00,182.72 498.00,183.01 499.00,182.82 500.00,182.82 501.00,182.91 502.00,182.75 503.00,182.62 504.00,183.10 505.00,182.62 506.00,182.82 507.00,182.75 508.00,182.72 509.00,182.72 510.00,182.72 511.00,182.72 512.00,182.82 513.00,182.75 514.00,182.72 515.00,182.82 516.00,182.82 517.00,182.72 518.00,182.84 519.00,182.72 520.00,182.72 521.00,183.20 522.00,182.82 523.00,182.72 524.00,182.75 525.00,182.72 526.00,182.72 527.00,182.82 528.00,182.65 529.00,182.62 530.00,183.01 531.00,182.72 532.00,182.72 533.00,182.75 534.00,182.62 535.00,182.72 536.00,182.72 537.00,182.82 538.00,185.98 539.00,187.18 540.00,187.33 541.00,188.00 542.00,188.00 543.00,187.04 544.00,182.82 545.00,182.72 546.00,182.75 547.00,182.62 548.00,182.53 549.00,182.62 550.00,183.01 551.00,183.13 552.00,182.62 553.00,185.79 554.00,185.41 555.00,186.27 556.00,187.33 557.00,187.18 558.00,184.45 559.00,183.01 560.00,182.82 561.00,182.82 562.00,183.20 563.00,183.90 564.00,184.26 565.00,182.72 566.00,182.72 567.00,182.62 568.00,182.62 569.00,182.75 570.00,182.82 571.00,183.01 572.00,182.82 573.00,182.82 574.00,182.91 575.00,182.65 576.00,182.62 577.00,182.82 578.00,182.72 579.00,182.62 580.00,183.04 581.00,182.82 582.00,183.10 583.00,182.72 584.00,182.82 585.00,182.62 586.00,182.36 587.00,182.82 588.00,183.01 589.00,183.01 590.00,183.01 591.00,182.62 592.00,182.65 593.00,185.89 594.00,187.81 595.00,186.75 596.00,187.14 597.00,183.87 598.00,182.65 599.00,183.10 600.00,182.72 601.00,182.62 602.00,183.01 603.00,182.75 604.00,182.62 605.00,183.49 606.00,187.42 607.00,187.14 608.00,183.90 609.00,182.53 610.00,182.72 611.00,182.34 612.00,182.72 613.00,185.54 614.00,187.42 615.00,187.90 616.00,187.33 617.00,187.52 618.00,187.52 619.00,187.18 620.00,187.23 621.00,187.33 622.00,186.46 623.00,183.49 624.00,187.71 625.00,182.72 626.00,188.82 627.00,251.26 628.00,251.36 629.00,251.65 630.00,203.55 631.00,187.14 632.00,187.76 633.00,188.29 634.00,186.94 635.00,186.94 636.00,182.72 637.00,182.82 638.00,182.65 639.00,185.60 640.00,187.14 641.00,183.68 642.00,183.20 643.00,183.23 644.00,183.01 645.00,182.62 646.00,182.72 647.00,182.62 648.00,182.62 649.00,182.65 650.00,182.82 651.00,182.62 652.00,182.62 653.00,185.79 654.00,186.56 655.00,186.89 656.00,186.94 657.00,183.20 658.00,183.20 659.00,182.82 660.00,182.82 661.00,182.75 662.00,183.30 663.00,182.72 664.00,183.68 665.00,187.81 666.00,187.52 667.00,186.41 668.00,186.66 669.00,187.33 670.00,187.42 671.00,187.33 672.00,188.29 673.00,185.35 674.00,182.53 675.00,182.34 676.00,182.34 677.00,182.53 678.00,182.53 679.00,182.36 680.00,182.43 681.00,184.35 682.00,187.04 683.00,187.33 684.00,187.47 685.00,188.10 686.00,186.85 687.00,187.14 688.00,187.14 689.00,187.33 690.00,183.81 691.00,182.72 692.00,183.01 693.00,183.49 694.00,182.62 695.00,183.01 696.00,183.33 697.00,182.82 698.00,182.82 699.00,183.20 700.00,182.62 701.00,183.30 702.00,182.75 703.00,182.34 704.00,182.34 705.00,182.82 706.00,183.58 707.00,187.52 708.00,186.60 709.00,187.62 710.00,186.66 711.00,187.33 712.00,187.14 713.00,183.23 714.00,182.62 715.00,182.82 716.00,182.72 717.00,182.82 718.00,182.75 719.00,182.72 720.00,182.82 721.00,182.82 722.00,182.82 723.00,183.23 724.00,182.62 725.00,182.82 726.00,186.46 727.00,188.00 728.00,187.76 729.00,184.26 730.00,182.82 731.00,182.43 732.00,186.37 733.00,187.37 734.00,187.42 735.00,187.14 736.00,186.56 737.00,186.85 738.00,186.85 739.00,187.14 740.00,187.47 741.00,187.42 742.00,187.33 743.00,186.75 744.00,186.46 745.00,187.81 746.00,187.28 747.00,186.66 748.00,186.75 749.00,186.85 750.00,186.56 751.00,186.66 752.00,186.70 753.00,187.23 754.00,187.90 755.00,187.04 756.00,185.41 757.00,182.72 758.00,182.75 759.00,182.72 760.00,182.72 761.00,182.82 762.00,182.62 763.00,182.75 764.00,182.72 765.00,182.82 766.00,182.72 767.00,183.10 768.00,182.75 769.00,183.39 770.00,183.20 771.00,182.91 772.00,182.72 773.00,183.04 774.00,183.30 775.00,182.72 776.00,182.82 777.00,183.01 778.00,182.84 779.00,183.39 780.00,182.72 781.00,182.72 782.00,185.02 783.00,188.00 784.00,187.37 785.00,187.23 786.00,186.66 787.00,186.75 788.00,186.46 789.00,185.31 790.00,183.61 791.00,183.30 792.00,182.91 793.00,183.01 794.00,182.62 795.00,182.62 796.00,182.55 797.00,182.62 798.00,182.82 799.00,182.62" fill="none" stroke="#1f77b4" stroke-width="1.3" opacity="1.0" stroke-linejoin="round"/><text x="816.0" y="192.0" font-family="sans-serif" font-size="13" text-anchor="start" fill="#1f77b4" font-weight="bold">RRT=1024</text><text x="816.0" y="212.0" font-family="sans-serif" font-size="11" text-anchor="start" fill="#444" font-weight="normal">reclaims/inst: 256</text><text x="816.0" y="229.0" font-family="sans-serif" font-size="11" text-anchor="start" fill="#444" font-weight="normal">avg 955.2 MiB/s</text><text x="816.0" y="246.0" font-family="sans-serif" font-size="11" text-anchor="start" fill="#444" font-weight="normal">min(dip) 606.0</text><text x="816.0" y="263.0" font-family="sans-serif" font-size="11" text-anchor="start" fill="#444" font-weight="normal">dips: 4/719 intervals</text><rect x="80.0" y="302.0" width="720.0" height="96.0" fill="#fbfbfb" stroke="#888" stroke-width="1.0" opacity="1.0"/><line x1="80.0" y1="398.0" x2="800.0" y2="398.0" stroke="#e3e3e3" stroke-width="1.0" opacity="1.0"/><text x="74.0" y="402.0" font-family="sans-serif" font-size="11" text-anchor="end" fill="#444" font-weight="normal">500</text><line x1="80.0" y1="378.8" x2="800.0" y2="378.8" stroke="#e3e3e3" stroke-width="1.0" opacity="1.0"/><text x="74.0" y="382.8" font-family="sans-serif" font-size="11" text-anchor="end" fill="#444" font-weight="normal">600</text><line x1="80.0" y1="359.6" x2="800.0" y2="359.6" stroke="#e3e3e3" stroke-width="1.0" opacity="1.0"/><text x="74.0" y="363.6" font-family="sans-serif" font-size="11" text-anchor="end" fill="#444" font-weight="normal">700</text><line x1="80.0" y1="340.4" x2="800.0" y2="340.4" stroke="#e3e3e3" stroke-width="1.0" opacity="1.0"/><text x="74.0" y="344.4" font-family="sans-serif" font-size="11" text-anchor="end" fill="#444" font-weight="normal">800</text><line x1="80.0" y1="321.2" x2="800.0" y2="321.2" stroke="#e3e3e3" stroke-width="1.0" opacity="1.0"/><text x="74.0" y="325.2" font-family="sans-serif" font-size="11" text-anchor="end" fill="#444" font-weight="normal">900</text><line x1="80.0" y1="302.0" x2="800.0" y2="302.0" stroke="#e3e3e3" stroke-width="1.0" opacity="1.0"/><text x="74.0" y="306.0" font-family="sans-serif" font-size="11" text-anchor="end" fill="#444" font-weight="normal">1000</text><line x1="80.0" y1="302.0" x2="80.0" y2="398.0" stroke="#e3e3e3" stroke-width="1.0" opacity="1.0"/><text x="80.0" y="414.0" font-family="sans-serif" font-size="11" text-anchor="middle" fill="#444" font-weight="normal">0</text><line x1="200.0" y1="302.0" x2="200.0" y2="398.0" stroke="#e3e3e3" stroke-width="1.0" opacity="1.0"/><text x="200.0" y="414.0" font-family="sans-serif" font-size="11" text-anchor="middle" fill="#444" font-weight="normal">30</text><line x1="320.0" y1="302.0" x2="320.0" y2="398.0" stroke="#e3e3e3" stroke-width="1.0" opacity="1.0"/><text x="320.0" y="414.0" font-family="sans-serif" font-size="11" text-anchor="middle" fill="#444" font-weight="normal">60</text><line x1="440.0" y1="302.0" x2="440.0" y2="398.0" stroke="#e3e3e3" stroke-width="1.0" opacity="1.0"/><text x="440.0" y="414.0" font-family="sans-serif" font-size="11" text-anchor="middle" fill="#444" font-weight="normal">90</text><line x1="560.0" y1="302.0" x2="560.0" y2="398.0" stroke="#e3e3e3" stroke-width="1.0" opacity="1.0"/><text x="560.0" y="414.0" font-family="sans-serif" font-size="11" text-anchor="middle" fill="#444" font-weight="normal">120</text><line x1="680.0" y1="302.0" x2="680.0" y2="398.0" stroke="#e3e3e3" stroke-width="1.0" opacity="1.0"/><text x="680.0" y="414.0" font-family="sans-serif" font-size="11" text-anchor="middle" fill="#444" font-weight="normal">150</text><line x1="800.0" y1="302.0" x2="800.0" y2="398.0" stroke="#e3e3e3" stroke-width="1.0" opacity="1.0"/><text x="800.0" y="414.0" font-family="sans-serif" font-size="11" text-anchor="middle" fill="#444" font-weight="normal">180</text><line x1="80.0" y1="310.8" x2="800.0" y2="310.8" stroke="#999" stroke-width="1.0" stroke-dasharray="2,3" opacity="1.0"/><polyline points="81.00,311.50 82.00,310.26 83.00,314.96 84.00,312.41 85.00,312.56 86.00,312.46 87.00,312.37 88.00,312.46 89.00,313.71 90.00,312.37 91.00,313.04 92.00,313.08 93.00,310.26 94.00,309.20 95.00,308.62 96.00,308.53 97.00,308.53 98.00,312.18 99.00,312.41 100.00,309.97 101.00,309.20 102.00,308.72 103.00,308.53 104.00,308.34 105.00,308.43 106.00,309.10 107.00,308.24 108.00,308.17 109.00,308.72 110.00,308.82 111.00,309.01 112.00,308.34 113.00,309.39 114.00,309.30 115.00,308.46 116.00,308.43 117.00,308.43 118.00,309.01 119.00,308.53 120.00,308.34 121.00,308.72 122.00,309.10 123.00,308.91 124.00,308.75 125.00,312.75 126.00,313.62 127.00,313.42 128.00,312.94 129.00,313.14 130.00,313.14 131.00,309.71 132.00,312.18 133.00,308.62 134.00,308.43 135.00,308.43 136.00,308.55 137.00,308.43 138.00,308.53 139.00,308.82 140.00,309.01 141.00,309.39 142.00,309.33 143.00,309.10 144.00,308.62 145.00,308.91 146.00,309.10 147.00,308.43 148.00,308.34 149.00,310.77 150.00,313.14 151.00,313.04 152.00,311.02 153.00,308.34 154.00,308.24 155.00,308.72 156.00,308.36 157.00,308.43 158.00,309.30 159.00,309.01 160.00,308.82 161.00,309.01 162.00,308.62 163.00,308.46 164.00,308.62 165.00,309.01 166.00,308.91 167.00,308.53 168.00,308.53 169.00,308.53 170.00,308.43 171.00,308.46 172.00,308.43 173.00,308.53 174.00,308.62 175.00,313.04 176.00,309.81 177.00,308.53 178.00,308.34 179.00,308.53 180.00,308.62 181.00,308.43 182.00,308.72 183.00,309.42 184.00,309.20 185.00,312.85 186.00,313.52 187.00,313.62 188.00,312.66 189.00,313.23 190.00,313.23 191.00,309.10 192.00,308.94 193.00,308.34 194.00,308.43 195.00,308.72 196.00,308.72 197.00,308.72 198.00,309.39 199.00,308.34 200.00,308.62 201.00,309.10 202.00,308.82 203.00,308.43 204.00,308.36 205.00,308.82 206.00,309.10 207.00,313.23 208.00,312.46 209.00,312.75 210.00,310.74 211.00,310.16 212.00,308.27 213.00,311.12 214.00,308.24 215.00,338.00 216.00,377.26 217.00,377.36 218.00,374.96 219.00,308.84 220.00,308.53 221.00,308.43 222.00,308.72 223.00,308.34 224.00,308.91 225.00,308.91 226.00,310.74 227.00,312.70 228.00,308.62 229.00,308.82 230.00,309.97 231.00,313.81 232.00,313.23 233.00,313.14 234.00,314.00 235.00,312.85 236.00,312.37 237.00,312.51 238.00,312.37 239.00,312.56 240.00,313.42 241.00,313.14 242.00,310.19 243.00,309.20 244.00,308.72 245.00,308.72 246.00,308.62 247.00,312.94 248.00,313.14 249.00,313.62 250.00,309.39 251.00,308.46 252.00,308.43 253.00,308.53 254.00,308.53 255.00,308.72 256.00,308.53 257.00,308.43 258.00,308.55 259.00,308.43 260.00,308.53 261.00,308.53 262.00,308.53 263.00,308.43 264.00,308.43 265.00,308.43 266.00,308.46 267.00,308.43 268.00,308.43 269.00,313.71 270.00,313.90 271.00,313.23 272.00,313.71 273.00,313.81 274.00,311.25 275.00,308.43 276.00,308.62 277.00,309.01 278.00,308.43 279.00,308.53 280.00,308.53 281.00,308.62 282.00,308.75 283.00,308.53 284.00,308.53 285.00,308.72 286.00,308.82 287.00,308.62 288.00,311.93 289.00,312.85 290.00,312.18 291.00,308.62 292.00,308.53 293.00,308.62 294.00,308.53 295.00,308.62 296.00,308.55 297.00,308.53 298.00,309.20 299.00,308.53 300.00,308.53 301.00,308.62 302.00,308.65 303.00,312.56 304.00,313.14 305.00,313.52 306.00,312.27 307.00,313.52 308.00,312.85 309.00,313.33 310.00,313.33 311.00,314.00 312.00,313.66 313.00,313.62 314.00,313.81 315.00,314.00 316.00,313.42 317.00,312.94 318.00,312.08 319.00,308.53 320.00,308.36 321.00,309.01 322.00,309.10 323.00,308.72 324.00,308.91 325.00,312.37 326.00,312.99 327.00,312.56 328.00,312.46 329.00,313.23 330.00,312.46 331.00,312.37 332.00,312.41 333.00,312.94 334.00,310.16 335.00,308.62 336.00,308.62 337.00,311.89 338.00,312.27 339.00,312.46 340.00,313.23 341.00,312.75 342.00,313.28 343.00,309.97 344.00,308.53 345.00,308.62 346.00,313.14 347.00,312.94 348.00,313.04 349.00,313.86 350.00,313.14 351.00,313.14 352.00,316.02 353.00,313.14 354.00,364.50 355.00,377.95 356.00,377.65 357.00,353.74 358.00,313.81 359.00,310.83 360.00,308.53 361.00,308.55 362.00,309.10 363.00,313.62 364.00,313.52 365.00,308.62 366.00,308.46 367.00,308.53 368.00,308.43 369.00,308.91 370.00,308.72 371.00,309.10 372.00,308.53 373.00,308.72 374.00,308.55 375.00,308.53 376.00,308.62 377.00,308.62 378.00,308.62 379.00,308.43 380.00,308.84 381.00,308.53 382.00,308.53 383.00,308.53 384.00,308.53 385.00,308.84 386.00,308.62 387.00,308.62 388.00,308.62 389.00,308.91 390.00,309.49 391.00,308.55 392.00,308.53 393.00,308.43 394.00,308.62 395.00,308.53 396.00,308.62 397.00,308.94 398.00,308.43 399.00,308.53 400.00,308.43 401.00,308.62 402.00,308.55 403.00,308.53 404.00,308.43 405.00,311.60 406.00,312.46 407.00,312.41 408.00,312.46 409.00,312.46 410.00,312.37 411.00,311.41 412.00,313.62 413.00,313.57 414.00,313.23 415.00,313.33 416.00,313.23 417.00,313.23 418.00,313.14 419.00,313.14 420.00,313.18 421.00,313.14 422.00,313.14 423.00,313.23 424.00,313.04 425.00,313.08 426.00,313.23 427.00,311.50 428.00,313.14 429.00,312.46 430.00,312.27 431.00,312.41 432.00,313.42 433.00,313.14 434.00,313.71 435.00,313.42 436.00,312.08 437.00,309.10 438.00,309.23 439.00,309.01 440.00,308.53 441.00,308.53 442.00,308.72 443.00,308.55 444.00,308.82 445.00,308.82 446.00,308.34 447.00,308.82 448.00,310.67 449.00,312.66 450.00,313.52 451.00,310.26 452.00,313.90 453.00,313.90 454.00,313.14 455.00,309.71 456.00,308.24 457.00,308.53 458.00,309.01 459.00,308.43 460.00,308.24 461.00,308.36 462.00,308.14 463.00,308.24 464.00,308.14 465.00,309.10 466.00,308.65 467.00,308.82 468.00,308.43 469.00,308.62 470.00,309.10 471.00,308.46 472.00,309.10 473.00,308.82 474.00,309.01 475.00,308.62 476.00,308.46 477.00,308.34 478.00,308.34 479.00,311.79 480.00,312.46 481.00,312.70 482.00,309.01 483.00,308.72 484.00,308.62 485.00,308.91 486.00,308.65 487.00,308.53 488.00,310.06 489.00,308.62 490.00,310.06 491.00,308.62 492.00,345.47 493.00,371.02 494.00,371.02 495.00,347.50 496.00,308.43 497.00,308.53 498.00,308.94 499.00,308.62 500.00,308.53 501.00,308.62 502.00,308.53 503.00,308.53 504.00,308.55 505.00,308.91 506.00,308.53 507.00,308.53 508.00,308.62 509.00,308.53 510.00,308.46 511.00,308.53 512.00,308.53 513.00,311.50 514.00,309.87 515.00,308.53 516.00,308.72 517.00,309.04 518.00,308.82 519.00,308.24 520.00,308.53 521.00,308.53 522.00,308.72 523.00,308.82 524.00,308.17 525.00,308.82 526.00,308.53 527.00,308.53 528.00,308.14 529.00,308.36 530.00,308.53 531.00,308.34 532.00,308.24 533.00,308.62 534.00,308.84 535.00,308.43 536.00,308.53 537.00,308.43 538.00,308.34 539.00,308.36 540.00,308.24 541.00,308.24 542.00,309.01 543.00,308.53 544.00,308.46 545.00,308.24 546.00,308.43 547.00,308.82 548.00,308.24 549.00,308.36 550.00,308.72 551.00,308.72 552.00,308.05 553.00,308.24 554.00,308.55 555.00,308.72 556.00,308.24 557.00,308.24 558.00,308.53 559.00,308.84 560.00,308.24 561.00,308.82 562.00,308.82 563.00,309.49 564.00,308.43 565.00,308.43 566.00,308.62 567.00,309.68 568.00,308.43 569.00,308.36 570.00,308.53 571.00,308.34 572.00,308.14 573.00,308.34 574.00,310.06 575.00,313.14 576.00,312.18 577.00,308.65 578.00,309.01 579.00,308.43 580.00,312.85 581.00,313.23 582.00,312.46 583.00,313.42 584.00,312.51 585.00,313.71 586.00,313.90 587.00,312.66 588.00,312.85 589.00,312.66 590.00,312.46 591.00,314.86 592.00,309.71 593.00,313.04 594.00,312.46 595.00,315.15 596.00,313.62 597.00,309.30 598.00,312.08 599.00,312.46 600.00,310.67 601.00,309.20 602.00,308.72 603.00,308.53 604.00,308.53 605.00,308.62 606.00,308.62 607.00,308.55 608.00,308.43 609.00,308.53 610.00,308.72 611.00,308.53 612.00,308.62 613.00,308.53 614.00,308.75 615.00,310.06 616.00,313.14 617.00,312.46 618.00,312.37 619.00,311.22 620.00,312.18 621.00,313.23 622.00,312.41 623.00,313.14 624.00,312.37 625.00,313.14 626.00,312.46 627.00,313.62 628.00,313.33 629.00,313.18 630.00,363.25 631.00,373.23 632.00,373.23 633.00,337.23 634.00,312.37 635.00,312.51 636.00,313.42 637.00,312.27 638.00,312.66 639.00,312.46 640.00,313.23 641.00,314.34 642.00,312.56 643.00,312.66 644.00,313.71 645.00,310.26 646.00,308.91 647.00,309.49 648.00,313.86 649.00,312.75 650.00,313.52 651.00,312.37 652.00,312.46 653.00,312.46 654.00,309.30 655.00,308.55 656.00,310.26 657.00,311.50 658.00,308.62 659.00,309.20 660.00,311.50 661.00,313.62 662.00,313.23 663.00,312.99 664.00,312.46 665.00,312.75 666.00,313.42 667.00,313.04 668.00,312.08 669.00,311.98 670.00,308.65 671.00,308.72 672.00,308.82 673.00,308.82 674.00,308.62 675.00,309.30 676.00,308.72 677.00,309.04 678.00,308.72 679.00,308.72 680.00,308.72 681.00,308.72 682.00,308.62 683.00,309.10 684.00,309.39 685.00,311.50 686.00,312.41 687.00,310.54 688.00,309.30 689.00,308.91 690.00,308.62 691.00,308.43 692.00,308.62 693.00,309.39 694.00,308.91 695.00,308.91 696.00,308.27 697.00,309.01 698.00,308.62 699.00,308.62 700.00,308.62 701.00,308.82 702.00,312.75 703.00,311.70 704.00,314.19 705.00,313.23 706.00,313.18 707.00,312.94 708.00,313.14 709.00,313.23 710.00,313.33 711.00,313.04 712.00,312.75 713.00,312.66 714.00,313.81 715.00,312.70 716.00,312.94 717.00,314.29 718.00,310.74 719.00,308.91 720.00,308.53 721.00,308.82 722.00,308.94 723.00,308.62 724.00,308.82 725.00,309.01 726.00,308.62 727.00,308.62 728.00,309.49 729.00,309.87 730.00,308.65 731.00,308.62 732.00,308.72 733.00,308.62 734.00,309.01 735.00,308.72 736.00,308.62 737.00,309.30 738.00,309.10 739.00,308.62 740.00,308.53 741.00,308.72 742.00,308.91 743.00,308.75 744.00,309.58 745.00,308.72 746.00,308.72 747.00,308.43 748.00,309.01 749.00,308.82 750.00,309.10 751.00,312.27 752.00,312.85 753.00,312.80 754.00,313.62 755.00,313.14 756.00,312.94 757.00,313.33 758.00,313.14 759.00,309.68 760.00,308.72 761.00,308.24 762.00,309.23 763.00,308.34 764.00,310.06 765.00,308.43 766.00,311.02 767.00,308.34 768.00,342.03 769.00,377.26 770.00,377.55 771.00,369.78 772.00,308.62 773.00,308.62 774.00,310.54 775.00,312.75 776.00,308.62 777.00,308.75 778.00,308.14 779.00,309.20 780.00,308.53 781.00,309.01 782.00,308.62 783.00,308.62 784.00,309.68 785.00,313.04 786.00,312.31 787.00,313.90 788.00,313.04 789.00,313.23 790.00,312.56 791.00,313.23 792.00,313.33 793.00,312.99 794.00,313.23 795.00,313.14 796.00,313.14 797.00,309.97 798.00,308.72 799.00,308.82" fill="none" stroke="#2ca02c" stroke-width="1.3" opacity="1.0" stroke-linejoin="round"/><text x="816.0" y="318.0" font-family="sans-serif" font-size="13" text-anchor="start" fill="#2ca02c" font-weight="bold">RRT=256</text><text x="816.0" y="338.0" font-family="sans-serif" font-size="11" text-anchor="start" fill="#444" font-weight="normal">reclaims/inst: 1,280</text><text x="816.0" y="355.0" font-family="sans-serif" font-size="11" text-anchor="start" fill="#444" font-weight="normal">avg 949.3 MiB/s</text><text x="816.0" y="372.0" font-family="sans-serif" font-size="11" text-anchor="start" fill="#444" font-weight="normal">min(dip) 604.4</text><text x="816.0" y="389.0" font-family="sans-serif" font-size="11" text-anchor="start" fill="#444" font-weight="normal">dips: 20/719 intervals</text><rect x="80.0" y="428.0" width="720.0" height="96.0" fill="#fbfbfb" stroke="#888" stroke-width="1.0" opacity="1.0"/><line x1="80.0" y1="524.0" x2="800.0" y2="524.0" stroke="#e3e3e3" stroke-width="1.0" opacity="1.0"/><text x="74.0" y="528.0" font-family="sans-serif" font-size="11" text-anchor="end" fill="#444" font-weight="normal">500</text><line x1="80.0" y1="504.8" x2="800.0" y2="504.8" stroke="#e3e3e3" stroke-width="1.0" opacity="1.0"/><text x="74.0" y="508.8" font-family="sans-serif" font-size="11" text-anchor="end" fill="#444" font-weight="normal">600</text><line x1="80.0" y1="485.6" x2="800.0" y2="485.6" stroke="#e3e3e3" stroke-width="1.0" opacity="1.0"/><text x="74.0" y="489.6" font-family="sans-serif" font-size="11" text-anchor="end" fill="#444" font-weight="normal">700</text><line x1="80.0" y1="466.4" x2="800.0" y2="466.4" stroke="#e3e3e3" stroke-width="1.0" opacity="1.0"/><text x="74.0" y="470.4" font-family="sans-serif" font-size="11" text-anchor="end" fill="#444" font-weight="normal">800</text><line x1="80.0" y1="447.2" x2="800.0" y2="447.2" stroke="#e3e3e3" stroke-width="1.0" opacity="1.0"/><text x="74.0" y="451.2" font-family="sans-serif" font-size="11" text-anchor="end" fill="#444" font-weight="normal">900</text><line x1="80.0" y1="428.0" x2="800.0" y2="428.0" stroke="#e3e3e3" stroke-width="1.0" opacity="1.0"/><text x="74.0" y="432.0" font-family="sans-serif" font-size="11" text-anchor="end" fill="#444" font-weight="normal">1000</text><line x1="80.0" y1="428.0" x2="80.0" y2="524.0" stroke="#e3e3e3" stroke-width="1.0" opacity="1.0"/><text x="80.0" y="540.0" font-family="sans-serif" font-size="11" text-anchor="middle" fill="#444" font-weight="normal">0</text><line x1="200.0" y1="428.0" x2="200.0" y2="524.0" stroke="#e3e3e3" stroke-width="1.0" opacity="1.0"/><text x="200.0" y="540.0" font-family="sans-serif" font-size="11" text-anchor="middle" fill="#444" font-weight="normal">30</text><line x1="320.0" y1="428.0" x2="320.0" y2="524.0" stroke="#e3e3e3" stroke-width="1.0" opacity="1.0"/><text x="320.0" y="540.0" font-family="sans-serif" font-size="11" text-anchor="middle" fill="#444" font-weight="normal">60</text><line x1="440.0" y1="428.0" x2="440.0" y2="524.0" stroke="#e3e3e3" stroke-width="1.0" opacity="1.0"/><text x="440.0" y="540.0" font-family="sans-serif" font-size="11" text-anchor="middle" fill="#444" font-weight="normal">90</text><line x1="560.0" y1="428.0" x2="560.0" y2="524.0" stroke="#e3e3e3" stroke-width="1.0" opacity="1.0"/><text x="560.0" y="540.0" font-family="sans-serif" font-size="11" text-anchor="middle" fill="#444" font-weight="normal">120</text><line x1="680.0" y1="428.0" x2="680.0" y2="524.0" stroke="#e3e3e3" stroke-width="1.0" opacity="1.0"/><text x="680.0" y="540.0" font-family="sans-serif" font-size="11" text-anchor="middle" fill="#444" font-weight="normal">150</text><line x1="800.0" y1="428.0" x2="800.0" y2="524.0" stroke="#e3e3e3" stroke-width="1.0" opacity="1.0"/><text x="800.0" y="540.0" font-family="sans-serif" font-size="11" text-anchor="middle" fill="#444" font-weight="normal">180</text><line x1="80.0" y1="436.8" x2="800.0" y2="436.8" stroke="#999" stroke-width="1.0" stroke-dasharray="2,3" opacity="1.0"/><polyline points="81.00,438.85 82.00,438.94 83.00,439.66 84.00,438.37 85.00,435.97 86.00,434.72 87.00,435.20 88.00,434.91 89.00,434.84 90.00,434.91 91.00,434.91 92.00,434.91 93.00,434.91 94.00,434.91 95.00,434.84 96.00,434.91 97.00,437.31 98.00,439.23 99.00,437.89 100.00,435.13 101.00,434.91 102.00,435.20 103.00,434.82 104.00,434.91 105.00,434.82 106.00,434.65 107.00,434.72 108.00,435.68 109.00,434.72 110.00,437.41 111.00,437.93 112.00,438.46 113.00,499.62 114.00,504.80 115.00,505.47 116.00,473.50 117.00,439.14 118.00,439.14 119.00,438.51 120.00,435.01 121.00,434.82 122.00,434.72 123.00,434.72 124.00,434.82 125.00,434.72 126.00,434.75 127.00,434.72 128.00,435.01 129.00,434.82 130.00,435.39 131.00,434.84 132.00,434.82 133.00,435.20 134.00,434.72 135.00,434.65 136.00,434.62 137.00,434.82 138.00,435.30 139.00,434.82 140.00,434.91 141.00,434.94 142.00,434.82 143.00,434.72 144.00,435.58 145.00,434.82 146.00,437.35 147.00,434.72 148.00,469.28 149.00,502.02 150.00,502.21 151.00,490.88 152.00,434.84 153.00,434.62 154.00,437.31 155.00,438.46 156.00,438.75 157.00,438.51 158.00,436.93 159.00,438.37 160.00,439.14 161.00,439.14 162.00,439.23 163.00,440.05 164.00,440.29 165.00,439.71 166.00,439.71 167.00,439.71 168.00,439.90 169.00,439.81 170.00,439.81 171.00,439.66 172.00,438.56 173.00,438.37 174.00,438.46 175.00,438.37 176.00,438.56 177.00,435.90 178.00,434.72 179.00,438.37 180.00,436.93 181.00,434.34 182.00,436.06 183.00,434.65 184.00,481.38 185.00,497.02 186.00,497.12 187.00,463.52 188.00,434.62 189.00,434.46 190.00,434.14 191.00,434.43 192.00,434.53 193.00,434.43 194.00,434.43 195.00,434.65 196.00,434.53 197.00,434.62 198.00,434.34 199.00,435.68 200.00,438.51 201.00,438.37 202.00,438.85 203.00,438.46 204.00,438.75 205.00,439.18 206.00,439.14 207.00,439.23 208.00,439.14 209.00,439.14 210.00,438.08 211.00,435.33 212.00,434.82 213.00,435.58 214.00,435.10 215.00,436.26 216.00,434.91 217.00,437.54 218.00,434.82 219.00,460.06 220.00,497.70 221.00,497.31 222.00,485.35 223.00,434.82 224.00,434.72 225.00,434.72 226.00,434.62 227.00,434.65 228.00,434.72 229.00,434.62 230.00,434.72 231.00,435.01 232.00,434.72 233.00,434.75 234.00,434.62 235.00,434.72 236.00,434.72 237.00,434.72 238.00,434.75 239.00,436.54 240.00,439.04 241.00,438.46 242.00,438.37 243.00,438.66 244.00,439.95 245.00,439.04 246.00,438.46 247.00,438.46 248.00,439.52 249.00,438.51 250.00,440.38 251.00,438.56 252.00,441.25 253.00,438.56 254.00,438.46 255.00,503.47 256.00,504.99 257.00,504.80 258.00,467.26 259.00,438.46 260.00,439.47 261.00,440.00 262.00,437.70 263.00,434.43 264.00,434.82 265.00,434.82 266.00,434.94 267.00,434.34 268.00,434.43 269.00,434.62 270.00,434.43 271.00,434.53 272.00,434.46 273.00,434.53 274.00,434.34 275.00,434.82 276.00,434.82 277.00,434.43 278.00,434.36 279.00,434.62 280.00,434.43 281.00,435.39 282.00,438.56 283.00,439.23 284.00,440.05 285.00,439.14 286.00,441.73 287.00,439.23 288.00,476.29 289.00,502.99 290.00,502.11 291.00,487.71 292.00,435.01 293.00,434.62 294.00,435.20 295.00,434.65 296.00,435.01 297.00,434.91 298.00,434.72 299.00,434.91 300.00,434.91 301.00,434.91 302.00,435.04 303.00,434.34 304.00,434.53 305.00,435.10 306.00,434.72 307.00,434.75 308.00,434.82 309.00,434.82 310.00,437.98 311.00,439.04 312.00,436.26 313.00,434.82 314.00,434.84 315.00,434.91 316.00,434.82 317.00,434.82 318.00,435.49 319.00,439.33 320.00,439.18 321.00,439.81 322.00,435.20 323.00,448.54 324.00,497.50 325.00,498.27 326.00,497.31 327.00,435.61 328.00,435.30 329.00,435.10 330.00,434.72 331.00,434.82 332.00,435.10 333.00,434.94 334.00,434.72 335.00,434.91 336.00,435.01 337.00,434.82 338.00,434.84 339.00,434.82 340.00,435.01 341.00,434.82 342.00,434.72 343.00,438.12 344.00,438.66 345.00,439.14 346.00,439.52 347.00,438.27 348.00,435.20 349.00,434.82 350.00,434.84 351.00,434.82 352.00,434.72 353.00,435.30 354.00,436.26 355.00,434.65 356.00,436.16 357.00,434.72 358.00,434.62 359.00,497.02 360.00,496.72 361.00,497.12 362.00,448.35 363.00,434.72 364.00,435.10 365.00,434.91 366.00,434.75 367.00,434.72 368.00,434.82 369.00,435.39 370.00,435.87 371.00,434.91 372.00,434.94 373.00,434.72 374.00,434.72 375.00,434.72 376.00,434.82 377.00,435.23 378.00,435.30 379.00,437.12 380.00,438.75 381.00,438.94 382.00,439.28 383.00,439.23 384.00,438.66 385.00,439.33 386.00,437.98 387.00,435.04 388.00,435.01 389.00,434.72 390.00,436.16 391.00,435.39 392.00,439.33 393.00,439.66 394.00,482.72 395.00,504.99 396.00,504.99 397.00,489.06 398.00,439.33 399.00,439.86 400.00,439.62 401.00,439.81 402.00,438.75 403.00,434.34 404.00,435.01 405.00,438.02 406.00,439.33 407.00,439.33 408.00,439.81 409.00,437.70 410.00,435.04 411.00,434.53 412.00,434.82 413.00,434.62 414.00,434.72 415.00,434.72 416.00,434.75 417.00,434.62 418.00,434.62 419.00,434.72 420.00,434.62 421.00,434.62 422.00,435.23 423.00,435.39 424.00,434.72 425.00,436.64 426.00,434.82 427.00,437.64 428.00,435.10 429.00,440.96 430.00,502.30 431.00,502.69 432.00,501.83 433.00,450.56 434.00,434.82 435.00,434.82 436.00,434.82 437.00,434.75 438.00,434.82 439.00,435.10 440.00,434.72 441.00,434.72 442.00,434.62 443.00,434.75 444.00,434.82 445.00,434.82 446.00,434.72 447.00,434.72 448.00,434.84 449.00,434.62 450.00,434.62 451.00,434.72 452.00,434.72 453.00,434.65 454.00,434.82 455.00,434.62 456.00,434.72 457.00,434.72 458.00,435.49 459.00,434.75 460.00,437.12 461.00,434.72 462.00,434.72 463.00,497.79 464.00,497.30 465.00,497.12 466.00,447.20 467.00,434.62 468.00,434.72 469.00,434.72 470.00,434.55 471.00,434.72 472.00,434.82 473.00,434.62 474.00,438.85 475.00,436.19 476.00,434.72 477.00,434.62 478.00,434.82 479.00,434.62 480.00,434.75 481.00,434.72 482.00,435.01 483.00,434.82 484.00,435.20 485.00,434.55 486.00,437.02 487.00,436.06 488.00,434.72 489.00,434.53 490.00,434.43 491.00,434.55 492.00,434.82 493.00,435.58 494.00,434.53 495.00,437.02 496.00,435.23 497.00,434.62 498.00,490.21 499.00,497.22 500.00,498.08 501.00,455.94 502.00,434.84 503.00,434.24 504.00,434.62 505.00,434.82 506.00,434.62 507.00,435.52 508.00,436.83 509.00,437.12 510.00,435.39 511.00,434.62 512.00,434.72 513.00,435.04 514.00,434.72 515.00,434.72 516.00,435.01 517.00,434.91 518.00,435.23 519.00,436.64 520.00,438.46 521.00,438.85 522.00,438.37 523.00,434.65 524.00,434.82 525.00,435.10 526.00,435.01 527.00,434.72 528.00,434.65 529.00,435.58 530.00,434.43 531.00,437.41 532.00,434.72 533.00,481.40 534.00,503.46 535.00,503.84 536.00,483.97 537.00,434.43 538.00,434.91 539.00,434.84 540.00,434.62 541.00,434.72 542.00,435.01 543.00,435.01 544.00,435.20 545.00,434.55 546.00,434.43 547.00,434.82 548.00,435.87 549.00,434.62 550.00,434.46 551.00,434.72 552.00,434.72 553.00,435.10 554.00,434.53 555.00,434.65 556.00,434.62 557.00,435.10 558.00,434.62 559.00,434.62 560.00,435.33 561.00,434.82 562.00,434.62 563.00,434.53 564.00,436.48 565.00,434.72 566.00,436.35 567.00,434.43 568.00,462.37 569.00,501.73 570.00,501.74 571.00,497.31 572.00,435.01 573.00,434.53 574.00,434.72 575.00,434.65 576.00,434.82 577.00,434.72 578.00,434.62 579.00,435.01 580.00,434.82 581.00,434.53 582.00,434.55 583.00,434.53 584.00,434.82 585.00,434.53 586.00,438.37 587.00,438.46 588.00,438.66 589.00,435.01 590.00,434.72 591.00,435.39 592.00,434.75 593.00,434.62 594.00,434.82 595.00,435.01 596.00,434.72 597.00,435.68 598.00,435.04 599.00,436.26 600.00,434.72 601.00,437.02 602.00,435.01 603.00,442.40 604.00,497.60 605.00,497.59 606.00,497.70 607.00,440.48 608.00,435.01 609.00,437.50 610.00,438.56 611.00,438.85 612.00,439.42 613.00,439.18 614.00,439.14 615.00,437.31 616.00,434.43 617.00,435.01 618.00,434.62 619.00,434.53 620.00,434.72 621.00,434.55 622.00,434.62 623.00,434.53 624.00,434.62 625.00,434.53 626.00,434.53 627.00,434.55 628.00,434.62 629.00,435.10 630.00,438.75 631.00,439.42 632.00,439.90 633.00,439.71 634.00,441.40 635.00,435.87 636.00,434.72 637.00,490.88 638.00,497.12 639.00,497.02 640.00,454.21 641.00,434.72 642.00,434.65 643.00,434.72 644.00,435.49 645.00,434.91 646.00,438.18 647.00,438.46 648.00,438.56 649.00,438.89 650.00,437.12 651.00,434.62 652.00,434.91 653.00,434.53 654.00,435.49 655.00,438.27 656.00,434.94 657.00,434.82 658.00,434.43 659.00,434.34 660.00,434.53 661.00,435.30 662.00,434.43 663.00,435.10 664.00,435.01 665.00,435.13 666.00,434.82 667.00,434.91 668.00,436.06 669.00,434.82 670.00,437.79 671.00,435.39 672.00,483.10 673.00,505.57 674.00,505.38 675.00,489.54 676.00,439.57 677.00,439.90 678.00,439.71 679.00,439.52 680.00,439.71 681.00,439.71 682.00,439.81 683.00,439.95 684.00,439.62 685.00,439.90 686.00,439.62 687.00,438.56 688.00,438.37 689.00,438.51 690.00,438.46 691.00,438.56 692.00,438.46 693.00,438.37 694.00,439.14 695.00,440.14 696.00,439.90 697.00,434.82 698.00,438.66 699.00,438.56 700.00,438.46 701.00,438.46 702.00,438.41 703.00,438.46 704.00,435.87 705.00,434.53 706.00,437.22 707.00,434.34 708.00,483.97 709.00,502.41 710.00,501.92 711.00,478.21 712.00,438.56 713.00,438.37 714.00,438.56 715.00,435.20 716.00,434.91 717.00,434.43 718.00,434.75 719.00,434.53 720.00,437.31 721.00,438.66 722.00,438.46 723.00,438.85 724.00,435.42 725.00,435.58 726.00,435.10 727.00,435.58 728.00,435.10 729.00,435.30 730.00,435.20 731.00,436.77 732.00,439.90 733.00,439.14 734.00,439.04 735.00,439.14 736.00,439.14 737.00,439.18 738.00,439.04 739.00,440.96 740.00,439.42 741.00,440.96 742.00,439.62 743.00,441.73 744.00,499.62 745.00,499.04 746.00,499.71 747.00,453.44 748.00,439.90 749.00,439.71 750.00,439.23 751.00,439.04 752.00,440.10 753.00,439.18 754.00,439.14 755.00,438.75 756.00,434.82 757.00,435.20 758.00,434.53 759.00,434.43 760.00,434.53 761.00,435.39 762.00,434.53 763.00,434.72 764.00,434.62 765.00,434.84 766.00,434.53 767.00,434.53 768.00,434.82 769.00,434.72 770.00,435.58 771.00,434.43 772.00,435.20 773.00,435.10 774.00,434.36 775.00,435.87 776.00,434.43 777.00,437.12 778.00,434.43 779.00,476.67 780.00,497.70 781.00,497.98 782.00,467.74 783.00,434.62 784.00,434.72 785.00,434.94 786.00,435.10 787.00,434.82 788.00,434.82 789.00,434.82 790.00,434.91 791.00,434.34 792.00,434.91 793.00,435.68 794.00,435.30 795.00,434.82 796.00,434.91 797.00,434.91 798.00,434.82 799.00,434.82" fill="none" stroke="#ff7f0e" stroke-width="1.3" opacity="1.0" stroke-linejoin="round"/><text x="816.0" y="444.0" font-family="sans-serif" font-size="13" text-anchor="start" fill="#ff7f0e" font-weight="bold">RRT=64</text><text x="816.0" y="464.0" font-family="sans-serif" font-size="11" text-anchor="start" fill="#444" font-weight="normal">reclaims/inst: 5,120</text><text x="816.0" y="481.0" font-family="sans-serif" font-size="11" text-anchor="start" fill="#444" font-weight="normal">avg 927.0 MiB/s</text><text x="816.0" y="498.0" font-family="sans-serif" font-size="11" text-anchor="start" fill="#444" font-weight="normal">min(dip) 596.0</text><text x="816.0" y="515.0" font-family="sans-serif" font-size="11" text-anchor="start" fill="#444" font-weight="normal">dips: 79/719 intervals</text><rect x="80.0" y="554.0" width="720.0" height="96.0" fill="#fbfbfb" stroke="#888" stroke-width="1.0" opacity="1.0"/><line x1="80.0" y1="650.0" x2="800.0" y2="650.0" stroke="#e3e3e3" stroke-width="1.0" opacity="1.0"/><text x="74.0" y="654.0" font-family="sans-serif" font-size="11" text-anchor="end" fill="#444" font-weight="normal">500</text><line x1="80.0" y1="630.8" x2="800.0" y2="630.8" stroke="#e3e3e3" stroke-width="1.0" opacity="1.0"/><text x="74.0" y="634.8" font-family="sans-serif" font-size="11" text-anchor="end" fill="#444" font-weight="normal">600</text><line x1="80.0" y1="611.6" x2="800.0" y2="611.6" stroke="#e3e3e3" stroke-width="1.0" opacity="1.0"/><text x="74.0" y="615.6" font-family="sans-serif" font-size="11" text-anchor="end" fill="#444" font-weight="normal">700</text><line x1="80.0" y1="592.4" x2="800.0" y2="592.4" stroke="#e3e3e3" stroke-width="1.0" opacity="1.0"/><text x="74.0" y="596.4" font-family="sans-serif" font-size="11" text-anchor="end" fill="#444" font-weight="normal">800</text><line x1="80.0" y1="573.2" x2="800.0" y2="573.2" stroke="#e3e3e3" stroke-width="1.0" opacity="1.0"/><text x="74.0" y="577.2" font-family="sans-serif" font-size="11" text-anchor="end" fill="#444" font-weight="normal">900</text><line x1="80.0" y1="554.0" x2="800.0" y2="554.0" stroke="#e3e3e3" stroke-width="1.0" opacity="1.0"/><text x="74.0" y="558.0" font-family="sans-serif" font-size="11" text-anchor="end" fill="#444" font-weight="normal">1000</text><line x1="80.0" y1="554.0" x2="80.0" y2="650.0" stroke="#e3e3e3" stroke-width="1.0" opacity="1.0"/><text x="80.0" y="666.0" font-family="sans-serif" font-size="11" text-anchor="middle" fill="#444" font-weight="normal">0</text><line x1="200.0" y1="554.0" x2="200.0" y2="650.0" stroke="#e3e3e3" stroke-width="1.0" opacity="1.0"/><text x="200.0" y="666.0" font-family="sans-serif" font-size="11" text-anchor="middle" fill="#444" font-weight="normal">30</text><line x1="320.0" y1="554.0" x2="320.0" y2="650.0" stroke="#e3e3e3" stroke-width="1.0" opacity="1.0"/><text x="320.0" y="666.0" font-family="sans-serif" font-size="11" text-anchor="middle" fill="#444" font-weight="normal">60</text><line x1="440.0" y1="554.0" x2="440.0" y2="650.0" stroke="#e3e3e3" stroke-width="1.0" opacity="1.0"/><text x="440.0" y="666.0" font-family="sans-serif" font-size="11" text-anchor="middle" fill="#444" font-weight="normal">90</text><line x1="560.0" y1="554.0" x2="560.0" y2="650.0" stroke="#e3e3e3" stroke-width="1.0" opacity="1.0"/><text x="560.0" y="666.0" font-family="sans-serif" font-size="11" text-anchor="middle" fill="#444" font-weight="normal">120</text><line x1="680.0" y1="554.0" x2="680.0" y2="650.0" stroke="#e3e3e3" stroke-width="1.0" opacity="1.0"/><text x="680.0" y="666.0" font-family="sans-serif" font-size="11" text-anchor="middle" fill="#444" font-weight="normal">150</text><line x1="800.0" y1="554.0" x2="800.0" y2="650.0" stroke="#e3e3e3" stroke-width="1.0" opacity="1.0"/><text x="800.0" y="666.0" font-family="sans-serif" font-size="11" text-anchor="middle" fill="#444" font-weight="normal">180</text><text x="440.0" y="690.0" font-family="sans-serif" font-size="13" text-anchor="middle" fill="#111" font-weight="normal">elapsed time (s)</text><line x1="80.0" y1="562.8" x2="800.0" y2="562.8" stroke="#999" stroke-width="1.0" stroke-dasharray="2,3" opacity="1.0"/><polyline points="81.00,565.14 82.00,566.92 83.00,566.29 84.00,566.19 85.00,567.54 86.00,564.94 87.00,594.51 88.00,631.18 89.00,631.18 90.00,630.70 91.00,565.14 92.00,565.33 93.00,561.78 94.00,560.84 95.00,563.31 96.00,560.72 97.00,599.41 98.00,628.21 99.00,628.30 100.00,612.56 101.00,560.91 102.00,564.70 103.00,564.85 104.00,565.33 105.00,566.86 106.00,565.62 107.00,609.01 108.00,625.04 109.00,624.66 110.00,597.97 111.00,561.90 112.00,562.64 113.00,561.20 114.00,563.89 115.00,561.20 116.00,563.31 117.00,623.79 118.00,623.12 119.00,624.17 120.00,572.34 121.00,560.62 122.00,562.16 123.00,564.46 124.00,567.63 125.00,565.42 126.00,587.89 127.00,631.01 128.00,631.28 129.00,631.47 130.00,570.51 131.00,564.66 132.00,563.31 133.00,560.62 134.00,602.38 135.00,627.73 136.00,627.83 137.00,608.62 138.00,560.72 139.00,561.49 140.00,560.72 141.00,563.02 142.00,560.53 143.00,560.75 144.00,617.74 145.00,623.79 146.00,623.89 147.00,580.40 148.00,560.62 149.00,562.26 150.00,560.55 151.00,562.16 152.00,561.01 153.00,579.73 154.00,623.12 155.00,623.12 156.00,617.26 157.00,560.75 158.00,561.01 159.00,562.83 160.00,560.82 161.00,562.35 162.00,560.72 163.00,609.87 164.00,631.66 165.00,631.40 166.00,614.29 167.00,564.56 168.00,566.29 169.00,564.66 170.00,564.75 171.00,566.96 172.00,564.66 173.00,611.93 174.00,629.74 175.00,629.74 176.00,604.78 177.00,560.91 178.00,563.12 179.00,561.30 180.00,567.44 181.00,622.92 182.00,623.12 183.00,623.12 184.00,569.74 185.00,561.10 186.00,561.58 187.00,560.72 188.00,562.93 189.00,561.52 190.00,591.73 191.00,623.50 192.00,623.22 193.00,607.09 194.00,560.91 195.00,561.52 196.00,560.62 197.00,562.35 198.00,562.06 199.00,560.53 200.00,621.66 201.00,629.36 202.00,629.26 203.00,595.76 204.00,561.20 205.00,566.67 206.00,564.51 207.00,566.29 208.00,562.54 209.00,563.50 210.00,628.40 211.00,628.12 212.00,627.73 213.00,582.80 214.00,561.30 215.00,562.93 216.00,560.82 217.00,563.16 218.00,560.72 219.00,578.00 220.00,623.12 221.00,623.79 222.00,619.86 223.00,563.35 224.00,565.23 225.00,566.77 226.00,564.56 227.00,607.86 228.00,624.66 229.00,624.94 230.00,596.53 231.00,564.46 232.00,564.75 233.00,562.06 234.00,567.63 235.00,564.51 236.00,564.46 237.00,628.78 238.00,630.80 239.00,630.99 240.00,595.64 241.00,565.62 242.00,566.48 243.00,564.56 244.00,568.50 245.00,564.56 246.00,561.97 247.00,629.28 248.00,628.02 249.00,627.73 250.00,583.86 251.00,560.82 252.00,562.29 253.00,560.82 254.00,562.35 255.00,560.72 256.00,578.67 257.00,622.82 258.00,623.12 259.00,619.76 260.00,561.01 261.00,560.62 262.00,562.83 263.00,560.55 264.00,562.93 265.00,560.62 266.00,602.38 267.00,623.70 268.00,623.12 269.00,595.35 270.00,561.30 271.00,562.64 272.00,560.62 273.00,563.31 274.00,560.91 275.00,564.51 276.00,629.74 277.00,629.26 278.00,629.55 279.00,583.47 280.00,560.72 281.00,563.16 282.00,560.82 283.00,588.66 284.00,627.73 285.00,627.73 286.00,622.35 287.00,560.82 288.00,560.94 289.00,561.49 290.00,560.62 291.00,563.22 292.00,560.82 293.00,604.80 294.00,623.41 295.00,624.27 296.00,593.94 297.00,560.91 298.00,562.39 299.00,560.82 300.00,562.54 301.00,560.82 302.00,566.19 303.00,623.22 304.00,623.31 305.00,622.93 306.00,568.75 307.00,563.60 308.00,566.29 309.00,564.75 310.00,567.82 311.00,564.85 312.00,589.90 313.00,630.80 314.00,630.63 315.00,630.51 316.00,565.81 317.00,562.35 318.00,562.83 319.00,560.91 320.00,563.50 321.00,560.84 322.00,595.86 323.00,628.40 324.00,627.73 325.00,615.73 326.00,560.72 327.00,563.60 328.00,565.52 329.00,565.23 330.00,617.90 331.00,625.62 332.00,624.94 333.00,589.04 334.00,562.54 335.00,566.58 336.00,565.33 337.00,567.15 338.00,565.33 339.00,570.39 340.00,625.33 341.00,625.52 342.00,624.75 343.00,573.01 344.00,560.62 345.00,561.58 346.00,561.23 347.00,564.37 348.00,560.62 349.00,589.71 350.00,629.84 351.00,629.94 352.00,627.64 353.00,561.30 354.00,560.82 355.00,562.64 356.00,563.60 357.00,566.96 358.00,565.28 359.00,601.33 360.00,627.73 361.00,629.07 362.00,617.07 363.00,565.52 364.00,567.11 365.00,565.52 366.00,564.66 367.00,566.67 368.00,564.94 369.00,603.82 370.00,625.42 371.00,625.71 372.00,602.58 373.00,562.83 374.00,564.27 375.00,561.58 376.00,567.40 377.00,623.12 378.00,623.12 379.00,623.70 380.00,569.46 381.00,561.30 382.00,562.77 383.00,561.10 384.00,563.98 385.00,561.39 386.00,595.28 387.00,630.80 388.00,630.80 389.00,630.05 390.00,564.85 391.00,561.10 392.00,562.16 393.00,561.10 394.00,563.83 395.00,560.82 396.00,602.00 397.00,628.02 398.00,627.73 399.00,610.93 400.00,564.51 401.00,566.00 402.00,564.46 403.00,564.56 404.00,566.00 405.00,564.66 406.00,610.16 407.00,624.36 408.00,624.37 409.00,592.98 410.00,563.02 411.00,562.26 412.00,561.10 413.00,563.22 414.00,560.72 415.00,566.24 416.00,623.41 417.00,623.31 418.00,623.79 419.00,568.59 420.00,560.72 421.00,562.35 422.00,561.01 423.00,563.45 424.00,560.72 425.00,593.55 426.00,629.46 427.00,629.74 428.00,622.54 429.00,560.62 430.00,563.50 431.00,567.25 432.00,564.51 433.00,615.44 434.00,629.07 435.00,629.17 436.00,602.67 437.00,563.12 438.00,561.87 439.00,560.91 440.00,563.02 441.00,560.65 442.00,561.10 443.00,623.98 444.00,623.70 445.00,623.89 446.00,574.26 447.00,560.91 448.00,562.26 449.00,560.72 450.00,562.77 451.00,560.72 452.00,585.87 453.00,623.02 454.00,622.93 455.00,611.31 456.00,560.72 457.00,562.83 458.00,560.62 459.00,560.75 460.00,563.31 461.00,565.33 462.00,616.59 463.00,631.09 464.00,631.09 465.00,608.82 466.00,565.71 467.00,567.15 468.00,565.18 469.00,564.46 470.00,563.22 471.00,561.78 472.00,616.30 473.00,628.78 474.00,628.11 475.00,595.64 476.00,560.82 477.00,563.31 478.00,560.91 479.00,575.02 480.00,623.12 481.00,623.12 482.00,622.16 483.00,560.72 484.00,560.65 485.00,561.87 486.00,564.66 487.00,567.06 488.00,564.66 489.00,598.53 490.00,625.42 491.00,625.52 492.00,608.05 493.00,565.23 494.00,566.10 495.00,565.47 496.00,564.94 497.00,563.31 498.00,560.53 499.00,616.02 500.00,629.95 501.00,629.55 502.00,601.52 503.00,560.91 504.00,562.74 505.00,561.20 506.00,562.74 507.00,561.10 508.00,561.13 509.00,628.88 510.00,627.73 511.00,627.73 512.00,586.74 513.00,565.62 514.00,566.34 515.00,564.46 516.00,566.67 517.00,564.56 518.00,573.01 519.00,625.42 520.00,625.71 521.00,625.23 522.00,573.68 523.00,565.52 524.00,562.93 525.00,560.53 526.00,595.83 527.00,622.93 528.00,623.02 529.00,601.52 530.00,562.16 531.00,566.10 532.00,565.90 533.00,567.59 534.00,566.38 535.00,566.29 536.00,619.95 537.00,630.42 538.00,629.65 539.00,601.61 540.00,560.62 541.00,561.78 542.00,560.91 543.00,563.22 544.00,561.01 545.00,561.52 546.00,628.69 547.00,628.30 548.00,627.73 549.00,582.32 550.00,560.34 551.00,562.45 552.00,561.04 553.00,562.16 554.00,560.82 555.00,579.92 556.00,623.12 557.00,623.12 558.00,618.42 559.00,560.72 560.00,560.55 561.00,561.97 562.00,561.30 563.00,563.02 564.00,561.20 565.00,603.25 566.00,624.46 567.00,623.31 568.00,595.25 569.00,561.39 570.00,566.29 571.00,561.01 572.00,563.70 573.00,561.01 574.00,563.54 575.00,629.26 576.00,629.74 577.00,630.32 578.00,585.30 579.00,561.39 580.00,564.27 581.00,561.23 582.00,586.45 583.00,627.73 584.00,627.73 585.00,625.04 586.00,560.53 587.00,560.65 588.00,561.49 589.00,560.62 590.00,563.50 591.00,561.87 592.00,604.30 593.00,625.90 594.00,625.62 595.00,604.02 596.00,565.81 597.00,567.25 598.00,564.94 599.00,565.33 600.00,566.77 601.00,565.66 602.00,614.38 603.00,625.62 604.00,625.23 605.00,592.30 606.00,563.31 607.00,562.54 608.00,560.55 609.00,562.64 610.00,560.62 611.00,570.61 612.00,629.46 613.00,629.65 614.00,629.84 615.00,579.15 616.00,560.84 617.00,563.12 618.00,564.56 619.00,566.86 620.00,564.46 621.00,581.74 622.00,629.18 623.00,629.65 624.00,629.26 625.00,568.50 626.00,561.10 627.00,566.58 628.00,565.81 629.00,600.08 630.00,624.94 631.00,624.85 632.00,605.86 633.00,564.37 634.00,565.33 635.00,565.23 636.00,564.46 637.00,567.01 638.00,564.56 639.00,613.04 640.00,625.04 641.00,624.94 642.00,590.67 643.00,560.62 644.00,561.71 645.00,560.62 646.00,563.50 647.00,560.72 648.00,571.57 649.00,629.26 650.00,629.47 651.00,629.65 652.00,577.33 653.00,560.62 654.00,562.45 655.00,563.02 656.00,567.06 657.00,564.31 658.00,584.62 659.00,628.59 660.00,627.63 661.00,627.92 662.00,564.37 663.00,560.72 664.00,562.26 665.00,560.65 666.00,563.22 667.00,560.72 668.00,595.38 669.00,624.27 670.00,623.41 671.00,602.19 672.00,560.94 673.00,563.02 674.00,560.53 675.00,566.10 676.00,623.31 677.00,622.93 678.00,623.59 679.00,568.40 680.00,560.62 681.00,561.49 682.00,560.53 683.00,563.25 684.00,560.62 685.00,595.09 686.00,629.26 687.00,629.26 688.00,622.53 689.00,560.62 690.00,560.62 691.00,561.49 692.00,560.62 693.00,563.16 694.00,560.72 695.00,609.87 696.00,628.11 697.00,627.73 698.00,603.06 699.00,560.84 700.00,562.45 701.00,560.82 702.00,562.26 703.00,560.82 704.00,560.62 705.00,623.01 706.00,623.12 707.00,623.12 708.00,574.83 709.00,560.62 710.00,562.26 711.00,560.62 712.00,563.06 713.00,560.62 714.00,584.62 715.00,623.50 716.00,623.70 717.00,612.85 718.00,560.62 719.00,562.58 720.00,560.72 721.00,560.72 722.00,563.50 723.00,560.62 724.00,614.29 725.00,629.74 726.00,629.08 727.00,602.38 728.00,560.72 729.00,563.31 730.00,561.20 731.00,573.20 732.00,629.26 733.00,629.08 734.00,627.73 735.00,577.14 736.00,561.01 737.00,563.89 738.00,565.08 739.00,567.63 740.00,564.75 741.00,581.36 742.00,625.52 743.00,624.66 744.00,624.75 745.00,564.51 746.00,561.78 747.00,562.74 748.00,563.50 749.00,567.15 750.00,564.41 751.00,596.43 752.00,624.66 753.00,624.66 754.00,607.95 755.00,564.75 756.00,564.80 757.00,562.35 758.00,560.82 759.00,562.35 760.00,560.62 761.00,618.96 762.00,629.74 763.00,629.65 764.00,598.83 765.00,560.62 766.00,562.54 767.00,561.01 768.00,563.22 769.00,560.65 770.00,564.08 771.00,628.21 772.00,627.82 773.00,628.40 774.00,580.02 775.00,560.72 776.00,562.96 777.00,560.72 778.00,590.58 779.00,625.62 780.00,625.14 781.00,609.78 782.00,560.55 783.00,562.06 784.00,561.68 785.00,560.91 786.00,563.31 787.00,560.82 788.00,612.02 789.00,623.70 790.00,623.70 791.00,586.45 792.00,560.91 793.00,561.78 794.00,560.53 795.00,564.12 796.00,561.01 797.00,575.22 798.00,631.95 799.00,630.90" fill="none" stroke="#d62728" stroke-width="1.3" opacity="1.0" stroke-linejoin="round"/><text x="816.0" y="570.0" font-family="sans-serif" font-size="13" text-anchor="start" fill="#d62728" font-weight="bold">RRT=16</text><text x="816.0" y="590.0" font-family="sans-serif" font-size="11" text-anchor="start" fill="#444" font-weight="normal">reclaims/inst: 19,712</text><text x="816.0" y="607.0" font-family="sans-serif" font-size="11" text-anchor="start" fill="#444" font-weight="normal">avg 836.9 MiB/s</text><text x="816.0" y="624.0" font-family="sans-serif" font-size="11" text-anchor="start" fill="#444" font-weight="normal">min(dip) 594.0</text><text x="816.0" y="641.0" font-family="sans-serif" font-size="11" text-anchor="start" fill="#444" font-weight="normal">dips: 304/719 intervals</text><text x="80.0" y="708.0" font-family="sans-serif" font-size="11" text-anchor="start" fill="#666" font-weight="normal">y-axis 500-1000 MiB/s (truncated); dashed grey = OFF baseline avg 954. Lower RRT =&gt; more frequent dips.</text></svg>