<svg xmlns="http://www.w3.org/2000/svg" width="1050" height="720" viewBox="0 0 1050 720"><rect width="1050" height="720" fill="white"/><text x="80.0" y="28.0" font-family="sans-serif" font-size="16" text-anchor="start" fill="#111" font-weight="bold">Read bandwidth vs time, per RRT (small multiples, shared axes)</text><rect x="80.0" y="50.0" width="720.0" height="96.0" fill="#fbfbfb" stroke="#888" stroke-width="1.0" opacity="1.0"/><line x1="80.0" y1="135.3" x2="800.0" y2="135.3" stroke="#e3e3e3" stroke-width="1.0" opacity="1.0"/><text x="74.0" y="139.3" font-family="sans-serif" font-size="11" text-anchor="end" fill="#444" font-weight="normal">600</text><line x1="80.0" y1="114.0" x2="800.0" y2="114.0" stroke="#e3e3e3" stroke-width="1.0" opacity="1.0"/><text x="74.0" y="118.0" font-family="sans-serif" font-size="11" text-anchor="end" fill="#444" font-weight="normal">700</text><line x1="80.0" y1="92.7" x2="800.0" y2="92.7" stroke="#e3e3e3" stroke-width="1.0" opacity="1.0"/><text x="74.0" y="96.7" font-family="sans-serif" font-size="11" text-anchor="end" fill="#444" font-weight="normal">800</text><line x1="80.0" y1="71.3" x2="800.0" y2="71.3" stroke="#e3e3e3" stroke-width="1.0" opacity="1.0"/><text x="74.0" y="75.3" font-family="sans-serif" font-size="11" text-anchor="end" fill="#444" font-weight="normal">900</text><line x1="80.0" y1="50.0" x2="800.0" y2="50.0" stroke="#e3e3e3" stroke-width="1.0" opacity="1.0"/><text x="74.0" y="54.0" font-family="sans-serif" font-size="11" text-anchor="end" fill="#444" font-weight="normal">1000</text><line x1="80.0" y1="50.0" x2="80.0" y2="146.0" stroke="#e3e3e3" stroke-width="1.0" opacity="1.0"/><text x="80.0" y="162.0" font-family="sans-serif" font-size="11" text-anchor="middle" fill="#444" font-weight="normal">0</text><line x1="200.0" y1="50.0" x2="200.0" y2="146.0" stroke="#e3e3e3" stroke-width="1.0" opacity="1.0"/><text x="200.0" y="162.0" font-family="sans-serif" font-size="11" text-anchor="middle" fill="#444" font-weight="normal">30</text><line x1="320.0" y1="50.0" x2="320.0" y2="146.0" stroke="#e3e3e3" stroke-width="1.0" opacity="1.0"/><text x="320.0" y="162.0" font-family="sans-serif" font-size="11" text-anchor="middle" fill="#444" font-weight="normal">60</text><line x1="440.0" y1="50.0" x2="440.0" y2="146.0" stroke="#e3e3e3" stroke-width="1.0" opacity="1.0"/><text x="440.0" y="162.0" font-family="sans-serif" font-size="11" text-anchor="middle" fill="#444" font-weight="normal">90</text><line x1="560.0" y1="50.0" x2="560.0" y2="146.0" stroke="#e3e3e3" stroke-width="1.0" opacity="1.0"/><text x="560.0" y="162.0" font-family="sans-serif" font-size="11" text-anchor="middle" fill="#444" font-weight="normal">120</text><line x1="680.0" y1="50.0" x2="680.0" y2="146.0" stroke="#e3e3e3" stroke-width="1.0" opacity="1.0"/><text x="680.0" y="162.0" font-family="sans-serif" font-size="11" text-anchor="middle" fill="#444" font-weight="normal">150</text><line x1="800.0" y1="50.0" x2="800.0" y2="146.0" stroke="#e3e3e3" stroke-width="1.0" opacity="1.0"/><text x="800.0" y="162.0" font-family="sans-serif" font-size="11" text-anchor="middle" fill="#444" font-weight="normal">180</text><line x1="80.0" y1="59.7" x2="800.0" y2="59.7" stroke="#999" stroke-width="1.2" stroke-dasharray="2,3" opacity="1.0"/><polyline points="81.00,61.58 82.00,56.96 83.00,57.25 84.00,57.15 85.00,57.36 86.00,57.57 87.00,57.60 88.00,57.36 89.00,57.36 90.00,57.68 91.00,57.36 92.00,57.36 93.00,57.36 94.00,57.25 95.00,58.85 96.00,62.05 97.00,57.47 98.00,57.25 99.00,58.43 100.00,62.91 101.00,61.95 102.00,62.05 103.00,61.95 104.00,62.05 105.00,61.95 106.00,62.05 107.00,61.95 108.00,62.05 109.00,61.95 110.00,62.05 111.00,62.27 112.00,61.95 113.00,62.21 114.00,57.79 115.00,58.00 116.00,57.89 117.00,57.89 118.00,57.68 119.00,57.57 120.00,57.57 121.00,57.57 122.00,57.79 123.00,57.57 124.00,58.85 125.00,60.35 126.00,57.57 127.00,57.47 128.00,57.47 129.00,57.47 130.00,57.36 131.00,58.11 132.00,57.57 133.00,57.57 134.00,57.47 135.00,57.47 136.00,57.60 137.00,57.47 138.00,57.57 139.00,57.47 140.00,61.73 141.00,62.59 142.00,60.88 143.00,63.76 144.00,58.75 145.00,57.47 146.00,57.15 147.00,57.68 148.00,57.47 149.00,58.85 150.00,57.36 151.00,58.11 152.00,57.57 153.00,57.68 154.00,57.47 155.00,57.57 156.00,58.21 157.00,59.28 158.00,62.16 159.00,62.16 160.00,62.85 161.00,62.91 162.00,63.33 163.00,62.80 164.00,63.12 165.00,62.05 166.00,61.95 167.00,61.95 168.00,61.95 169.00,61.84 170.00,62.16 171.00,62.16 172.00,61.95 173.00,62.05 174.00,62.05 175.00,62.05 176.00,61.95 177.00,61.09 178.00,57.57 179.00,57.57 180.00,58.11 181.00,58.00 182.00,57.89 183.00,58.75 184.00,63.65 185.00,62.80 186.00,58.96 187.00,57.47 188.00,57.36 189.00,58.11 190.00,57.36 191.00,58.00 192.00,58.14 193.00,61.63 194.00,62.59 195.00,62.69 196.00,63.01 197.00,62.69 198.00,63.33 199.00,63.44 200.00,63.33 201.00,59.39 202.00,57.79 203.00,57.25 204.00,57.25 205.00,57.57 206.00,57.68 207.00,57.47 208.00,62.16 209.00,63.01 210.00,61.95 211.00,61.95 212.00,62.59 213.00,62.37 214.00,62.37 215.00,63.44 216.00,63.44 217.00,63.23 218.00,63.44 219.00,63.12 220.00,62.48 221.00,63.01 222.00,63.76 223.00,62.64 224.00,62.80 225.00,63.12 226.00,62.59 227.00,62.69 228.00,58.11 229.00,57.57 230.00,57.89 231.00,57.47 232.00,57.57 233.00,57.68 234.00,57.57 235.00,57.57 236.00,57.79 237.00,58.11 238.00,57.57 239.00,57.68 240.00,57.68 241.00,57.68 242.00,57.79 243.00,58.00 244.00,57.57 245.00,57.79 246.00,58.11 247.00,57.89 248.00,57.57 249.00,57.57 250.00,57.68 251.00,57.68 252.00,57.57 253.00,57.68 254.00,57.68 255.00,57.68 256.00,57.79 257.00,57.68 258.00,57.68 259.00,57.71 260.00,57.79 261.00,57.68 262.00,57.79 263.00,59.81 264.00,62.91 265.00,62.80 266.00,62.80 267.00,62.91 268.00,62.80 269.00,62.27 270.00,62.05 271.00,62.05 272.00,63.33 273.00,60.99 274.00,57.57 275.00,57.68 276.00,57.57 277.00,57.57 278.00,57.57 279.00,57.68 280.00,57.57 281.00,57.79 282.00,57.79 283.00,57.57 284.00,62.37 285.00,61.95 286.00,60.13 287.00,57.79 288.00,57.89 289.00,57.47 290.00,57.68 291.00,57.50 292.00,57.68 293.00,57.57 294.00,57.57 295.00,57.68 296.00,57.68 297.00,57.57 298.00,57.68 299.00,60.56 300.00,61.95 301.00,58.32 302.00,57.68 303.00,57.57 304.00,58.53 305.00,58.43 306.00,57.57 307.00,57.47 308.00,62.48 309.00,62.80 310.00,62.16 311.00,61.95 312.00,62.16 313.00,62.80 314.00,61.84 315.00,57.68 316.00,57.57 317.00,57.68 318.00,57.68 319.00,58.00 320.00,57.68 321.00,57.57 322.00,57.68 323.00,57.57 324.00,57.68 325.00,58.11 326.00,57.68 327.00,58.14 328.00,57.47 329.00,57.47 330.00,57.47 331.00,57.47 332.00,57.47 333.00,57.47 334.00,59.28 335.00,61.95 336.00,62.27 337.00,62.80 338.00,62.59 339.00,62.59 340.00,62.37 341.00,62.69 342.00,62.69 343.00,60.77 344.00,58.11 345.00,58.00 346.00,58.21 347.00,57.79 348.00,58.32 349.00,57.68 350.00,57.47 351.00,58.21 352.00,59.28 353.00,58.03 354.00,57.25 355.00,57.68 356.00,57.25 357.00,58.00 358.00,57.25 359.00,57.36 360.00,57.47 361.00,57.79 362.00,57.68 363.00,57.25 364.00,59.07 365.00,58.00 366.00,62.59 367.00,60.77 368.00,62.80 369.00,63.12 370.00,62.91 371.00,63.55 372.00,62.80 373.00,62.91 374.00,63.12 375.00,61.95 376.00,62.69 377.00,62.10 378.00,61.95 379.00,62.16 380.00,63.33 381.00,62.59 382.00,61.95 383.00,62.05 384.00,62.16 385.00,62.05 386.00,58.75 387.00,58.11 388.00,57.57 389.00,57.79 390.00,57.47 391.00,57.47 392.00,57.36 393.00,58.00 394.00,57.57 395.00,57.47 396.00,60.77 397.00,62.80 398.00,62.69 399.00,63.65 400.00,62.05 401.00,61.95 402.00,62.16 403.00,61.95 404.00,61.89 405.00,62.05 406.00,61.95 407.00,61.95 408.00,61.95 409.00,61.95 410.00,61.84 411.00,61.84 412.00,61.84 413.00,61.84 414.00,61.95 415.00,61.99 416.00,61.84 417.00,61.84 418.00,61.95 419.00,61.84 420.00,61.84 421.00,61.89 422.00,61.95 423.00,61.95 424.00,61.84 425.00,58.53 426.00,57.68 427.00,59.92 428.00,62.64 429.00,61.84 430.00,60.67 431.00,57.68 432.00,57.36 433.00,57.47 434.00,57.47 435.00,57.39 436.00,57.47 437.00,57.47 438.00,57.47 439.00,57.36 440.00,58.85 441.00,62.37 442.00,63.07 443.00,62.59 444.00,62.91 445.00,62.80 446.00,62.48 447.00,61.09 448.00,58.32 449.00,58.03 450.00,57.79 451.00,57.57 452.00,57.89 453.00,58.00 454.00,57.89 455.00,57.68 456.00,57.68 457.00,57.36 458.00,57.36 459.00,57.68 460.00,58.32 461.00,58.03 462.00,57.89 463.00,57.57 464.00,57.57 465.00,57.68 466.00,57.57 467.00,62.16 468.00,62.59 469.00,58.21 470.00,57.47 471.00,57.89 472.00,57.36 473.00,57.57 474.00,58.00 475.00,57.60 476.00,57.57 477.00,57.79 478.00,57.68 479.00,57.68 480.00,57.68 481.00,57.79 482.00,57.79 483.00,57.68 484.00,57.79 485.00,57.79 486.00,57.68 487.00,57.68 488.00,57.57 489.00,58.00 490.00,57.68 491.00,57.68 492.00,58.32 493.00,60.35 494.00,62.05 495.00,62.27 496.00,62.16 497.00,62.80 498.00,62.80 499.00,62.69 500.00,62.48 501.00,62.80 502.00,62.69 503.00,62.69 504.00,63.33 505.00,62.48 506.00,62.59 507.00,60.45 508.00,57.47 509.00,61.20 510.00,63.55 511.00,62.64 512.00,62.80 513.00,59.28 514.00,57.68 515.00,57.57 516.00,57.68 517.00,57.68 518.00,57.57 519.00,57.79 520.00,59.49 521.00,58.53 522.00,57.57 523.00,57.79 524.00,58.11 525.00,58.85 526.00,57.89 527.00,57.68 528.00,57.57 529.00,57.68 530.00,63.01 531.00,62.69 532.00,62.69 533.00,62.48 534.00,57.47 535.00,57.47 536.00,57.36 537.00,58.53 538.00,57.57 539.00,57.68 540.00,57.57 541.00,57.79 542.00,57.60 543.00,57.68 544.00,59.28 545.00,62.05 546.00,58.21 547.00,57.57 548.00,57.57 549.00,57.47 550.00,58.00 551.00,57.04 552.00,57.25 553.00,57.25 554.00,57.15 555.00,61.20 556.00,62.16 557.00,62.05 558.00,60.03 559.00,57.71 560.00,57.68 561.00,57.47 562.00,57.47 563.00,57.57 564.00,58.21 565.00,61.20 566.00,57.79 567.00,57.25 568.00,58.21 569.00,57.89 570.00,58.00 571.00,58.21 572.00,58.64 573.00,59.17 574.00,57.57 575.00,57.60 576.00,57.57 577.00,57.68 578.00,57.57 579.00,57.57 580.00,57.57 581.00,60.24 582.00,61.95 583.00,61.95 584.00,61.95 585.00,61.95 586.00,61.95 587.00,62.48 588.00,62.80 589.00,59.81 590.00,60.88 591.00,62.16 592.00,59.17 593.00,57.68 594.00,57.57 595.00,57.57 596.00,58.03 597.00,57.57 598.00,57.57 599.00,61.52 600.00,60.35 601.00,63.23 602.00,62.16 603.00,61.95 604.00,61.95 605.00,62.59 606.00,62.80 607.00,63.44 608.00,62.05 609.00,61.95 610.00,61.84 611.00,62.27 612.00,58.00 613.00,57.57 614.00,57.39 615.00,57.57 616.00,58.21 617.00,57.57 618.00,57.47 619.00,58.21 620.00,57.47 621.00,57.89 622.00,57.57 623.00,57.57 624.00,57.57 625.00,61.41 626.00,63.23 627.00,62.05 628.00,62.05 629.00,61.95 630.00,61.95 631.00,62.37 632.00,58.32 633.00,57.36 634.00,57.57 635.00,57.25 636.00,57.47 637.00,57.36 638.00,57.25 639.00,57.25 640.00,57.04 641.00,57.18 642.00,57.57 643.00,58.21 644.00,58.96 645.00,61.95 646.00,61.95 647.00,61.95 648.00,61.95 649.00,62.16 650.00,61.84 651.00,61.95 652.00,61.31 653.00,57.25 654.00,57.47 655.00,57.47 656.00,57.89 657.00,57.25 658.00,58.32 659.00,57.18 660.00,57.57 661.00,58.53 662.00,57.15 663.00,57.25 664.00,57.25 665.00,56.93 666.00,57.04 667.00,57.04 668.00,57.36 669.00,58.85 670.00,61.84 671.00,61.95 672.00,61.95 673.00,62.16 674.00,61.84 675.00,61.95 676.00,61.84 677.00,61.99 678.00,61.95 679.00,61.95 680.00,61.95 681.00,61.95 682.00,61.95 683.00,59.39 684.00,59.17 685.00,63.12 686.00,61.95 687.00,62.05 688.00,62.05 689.00,62.16 690.00,62.27 691.00,61.84 692.00,62.05 693.00,62.59 694.00,62.74 695.00,59.92 696.00,57.47 697.00,58.21 698.00,63.01 699.00,61.84 700.00,61.95 701.00,63.33 702.00,61.95 703.00,62.80 704.00,62.16 705.00,61.95 706.00,62.37 707.00,62.80 708.00,62.48 709.00,62.69 710.00,62.74 711.00,62.59 712.00,63.33 713.00,63.55 714.00,61.95 715.00,62.91 716.00,63.23 717.00,63.33 718.00,61.95 719.00,61.95 720.00,62.37 721.00,61.95 722.00,61.95 723.00,63.12 724.00,62.80 725.00,60.56 726.00,57.57 727.00,57.68 728.00,57.57 729.00,57.57 730.00,57.68 731.00,58.00 732.00,57.68 733.00,57.57 734.00,57.68 735.00,57.68 736.00,57.68 737.00,57.57 738.00,57.57 739.00,57.57 740.00,60.77 741.00,57.68 742.00,57.60 743.00,57.68 744.00,57.57 745.00,58.11 746.00,57.57 747.00,57.57 748.00,57.57 749.00,57.57 750.00,57.47 751.00,57.47 752.00,57.57 753.00,57.57 754.00,57.57 755.00,57.68 756.00,57.68 757.00,59.39 758.00,61.84 759.00,61.84 760.00,61.84 761.00,62.16 762.00,61.84 763.00,62.69 764.00,62.69 765.00,62.05 766.00,62.69 767.00,62.27 768.00,63.23 769.00,62.05 770.00,62.80 771.00,63.44 772.00,63.01 773.00,61.95 774.00,61.95 775.00,62.59 776.00,62.69 777.00,62.05 778.00,61.99 779.00,61.95 780.00,61.95 781.00,62.05 782.00,61.95 783.00,61.95 784.00,62.05 785.00,62.05 786.00,61.95 787.00,61.95 788.00,60.45 789.00,58.11 790.00,57.68 791.00,57.68 792.00,57.57 793.00,57.57 794.00,57.57 795.00,57.47 796.00,61.73 797.00,62.05 798.00,62.59 799.00,62.48" fill="none" stroke="#555555" stroke-width="1.3" opacity="1.0" stroke-linejoin="round"/><text x="816.0" y="66.0" font-family="sans-serif" font-size="13" text-anchor="start" fill="#555555" font-weight="bold">RRT=OFF (1e9)</text><text x="816.0" y="86.0" font-family="sans-serif" font-size="11" text-anchor="start" fill="#444" font-weight="normal">reclaims/inst: 0</text><text x="816.0" y="103.0" font-family="sans-serif" font-size="11" text-anchor="start" fill="#444" font-weight="normal">avg 954.3 MiB/s</text><text x="816.0" y="120.0" font-family="sans-serif" font-size="11" text-anchor="start" fill="#444" font-weight="normal">min(dip) 935.5</text><text x="816.0" y="137.0" font-family="sans-serif" font-size="11" text-anchor="start" fill="#444" font-weight="normal">secs&lt;900: 0/719</text><rect x="80.0" y="176.0" width="720.0" height="96.0" fill="#fbfbfb" stroke="#888" stroke-width="1.0" opacity="1.0"/><line x1="80.0" y1="261.3" x2="800.0" y2="261.3" stroke="#e3e3e3" stroke-width="1.0" opacity="1.0"/><text x="74.0" y="265.3" font-family="sans-serif" font-size="11" text-anchor="end" fill="#444" font-weight="normal">600</text><line x1="80.0" y1="240.0" x2="800.0" y2="240.0" stroke="#e3e3e3" stroke-width="1.0" opacity="1.0"/><text x="74.0" y="244.0" font-family="sans-serif" font-size="11" text-anchor="end" fill="#444" font-weight="normal">700</text><line x1="80.0" y1="218.7" x2="800.0" y2="218.7" stroke="#e3e3e3" stroke-width="1.0" opacity="1.0"/><text x="74.0" y="222.7" font-family="sans-serif" font-size="11" text-anchor="end" fill="#444" font-weight="normal">800</text><line x1="80.0" y1="197.3" x2="800.0" y2="197.3" stroke="#e3e3e3" stroke-width="1.0" opacity="1.0"/><text x="74.0" y="201.3" font-family="sans-serif" font-size="11" text-anchor="end" fill="#444" font-weight="normal">900</text><line x1="80.0" y1="176.0" x2="800.0" y2="176.0" stroke="#e3e3e3" stroke-width="1.0" opacity="1.0"/><text x="74.0" y="180.0" font-family="sans-serif" font-size="11" text-anchor="end" fill="#444" font-weight="normal">1000</text><line x1="80.0" y1="176.0" x2="80.0" y2="272.0" stroke="#e3e3e3" stroke-width="1.0" opacity="1.0"/><text x="80.0" y="288.0" font-family="sans-serif" font-size="11" text-anchor="middle" fill="#444" font-weight="normal">0</text><line x1="200.0" y1="176.0" x2="200.0" y2="272.0" stroke="#e3e3e3" stroke-width="1.0" opacity="1.0"/><text x="200.0" y="288.0" font-family="sans-serif" font-size="11" text-anchor="middle" fill="#444" font-weight="normal">30</text><line x1="320.0" y1="176.0" x2="320.0" y2="272.0" stroke="#e3e3e3" stroke-width="1.0" opacity="1.0"/><text x="320.0" y="288.0" font-family="sans-serif" font-size="11" text-anchor="middle" fill="#444" font-weight="normal">60</text><line x1="440.0" y1="176.0" x2="440.0" y2="272.0" stroke="#e3e3e3" stroke-width="1.0" opacity="1.0"/><text x="440.0" y="288.0" font-family="sans-serif" font-size="11" text-anchor="middle" fill="#444" font-weight="normal">90</text><line x1="560.0" y1="176.0" x2="560.0" y2="272.0" stroke="#e3e3e3" stroke-width="1.0" opacity="1.0"/><text x="560.0" y="288.0" font-family="sans-serif" font-size="11" text-anchor="middle" fill="#444" font-weight="normal">120</text><line x1="680.0" y1="176.0" x2="680.0" y2="272.0" stroke="#e3e3e3" stroke-width="1.0" opacity="1.0"/><text x="680.0" y="288.0" font-family="sans-serif" font-size="11" text-anchor="middle" fill="#444" font-weight="normal">150</text><line x1="800.0" y1="176.0" x2="800.0" y2="272.0" stroke="#e3e3e3" stroke-width="1.0" opacity="1.0"/><text x="800.0" y="288.0" font-family="sans-serif" font-size="11" text-anchor="middle" fill="#444" font-weight="normal">180</text><line x1="80.0" y1="185.7" x2="800.0" y2="185.7" stroke="#999" stroke-width="1.2" stroke-dasharray="2,3" opacity="1.0"/><polyline points="81.00,189.76 82.00,188.85 83.00,188.80 84.00,188.80 85.00,188.48 86.00,188.59 87.00,188.48 88.00,188.53 89.00,188.69 90.00,188.69 91.00,190.40 92.00,187.95 93.00,187.99 94.00,189.01 95.00,188.91 96.00,187.95 97.00,188.05 98.00,188.59 99.00,189.07 100.00,188.91 101.00,185.71 102.00,183.47 103.00,183.25 104.00,182.96 105.00,183.36 106.00,183.36 107.00,183.36 108.00,183.15 109.00,184.00 110.00,184.14 111.00,184.00 112.00,183.25 113.00,183.57 114.00,183.79 115.00,183.79 116.00,183.15 117.00,183.47 118.00,183.60 119.00,183.15 120.00,184.21 121.00,183.57 122.00,183.89 123.00,184.14 124.00,184.11 125.00,183.47 126.00,183.57 127.00,183.89 128.00,183.15 129.00,183.28 130.00,183.47 131.00,183.79 132.00,184.00 133.00,184.75 134.00,183.47 135.00,183.50 136.00,183.47 137.00,183.47 138.00,183.47 139.00,183.57 140.00,183.47 141.00,183.71 142.00,183.47 143.00,183.47 144.00,183.47 145.00,183.36 146.00,183.57 147.00,183.39 148.00,183.36 149.00,183.68 150.00,183.47 151.00,183.47 152.00,183.57 153.00,183.71 154.00,183.47 155.00,183.36 156.00,183.47 157.00,183.57 158.00,188.27 159.00,188.27 160.00,188.53 161.00,188.69 162.00,188.59 163.00,188.59 164.00,188.59 165.00,188.69 166.00,188.74 167.00,189.23 168.00,188.69 169.00,187.73 170.00,184.11 171.00,183.71 172.00,184.00 173.00,187.20 174.00,188.37 175.00,188.80 176.00,188.59 177.00,188.21 178.00,189.33 179.00,189.33 180.00,189.23 181.00,188.48 182.00,186.35 183.00,183.60 184.00,183.47 185.00,183.47 186.00,183.47 187.00,183.47 188.00,183.50 189.00,183.79 190.00,183.57 191.00,184.21 192.00,188.48 193.00,187.95 194.00,183.82 195.00,184.21 196.00,183.36 197.00,183.47 198.00,183.47 199.00,183.89 200.00,183.82 201.00,183.79 202.00,183.47 203.00,183.47 204.00,183.36 205.00,183.71 206.00,184.00 207.00,183.79 208.00,183.68 209.00,183.36 210.00,183.28 211.00,183.04 212.00,183.36 213.00,186.99 214.00,188.48 215.00,183.68 216.00,182.96 217.00,185.92 218.00,188.48 219.00,188.59 220.00,188.59 221.00,188.64 222.00,188.69 223.00,185.81 224.00,183.68 225.00,183.68 226.00,188.64 227.00,188.48 228.00,188.59 229.00,188.69 230.00,188.59 231.00,188.53 232.00,188.59 233.00,188.69 234.00,187.31 235.00,183.04 236.00,182.93 237.00,186.92 238.00,187.09 239.00,183.68 240.00,183.57 241.00,183.39 242.00,183.79 243.00,183.47 244.00,183.47 245.00,183.25 246.00,183.79 247.00,183.71 248.00,183.25 249.00,189.55 250.00,189.23 251.00,186.35 252.00,188.91 253.00,187.78 254.00,187.95 255.00,188.16 256.00,187.84 257.00,187.84 258.00,187.78 259.00,187.84 260.00,188.69 261.00,188.37 262.00,187.95 263.00,187.78 264.00,184.43 265.00,183.68 266.00,184.00 267.00,183.68 268.00,183.60 269.00,183.57 270.00,183.89 271.00,183.57 272.00,183.68 273.00,183.60 274.00,183.79 275.00,185.28 276.00,188.16 277.00,189.01 278.00,188.64 279.00,188.59 280.00,188.37 281.00,188.48 282.00,188.48 283.00,188.59 284.00,188.85 285.00,187.73 286.00,187.73 287.00,187.84 288.00,189.33 289.00,188.05 290.00,185.07 291.00,183.60 292.00,183.57 293.00,183.57 294.00,184.11 295.00,183.57 296.00,183.82 297.00,183.47 298.00,184.00 299.00,183.47 300.00,183.36 301.00,183.50 302.00,187.41 303.00,186.99 304.00,183.57 305.00,183.57 306.00,183.50 307.00,183.47 308.00,183.57 309.00,183.47 310.00,183.68 311.00,183.60 312.00,183.47 313.00,183.47 314.00,183.47 315.00,183.57 316.00,183.60 317.00,183.47 318.00,183.47 319.00,183.57 320.00,183.47 321.00,183.47 322.00,183.47 323.00,183.60 324.00,183.25 325.00,183.36 326.00,183.47 327.00,183.57 328.00,183.36 329.00,183.50 330.00,183.47 331.00,183.36 332.00,183.47 333.00,183.79 334.00,183.50 335.00,184.21 336.00,187.73 337.00,189.55 338.00,187.41 339.00,186.67 340.00,189.33 341.00,188.85 342.00,188.59 343.00,187.73 344.00,185.17 345.00,183.25 346.00,183.39 347.00,183.25 348.00,183.25 349.00,183.36 350.00,183.25 351.00,183.28 352.00,184.32 353.00,187.84 354.00,188.69 355.00,188.91 356.00,189.12 357.00,189.07 358.00,186.35 359.00,183.36 360.00,183.47 361.00,187.63 362.00,188.53 363.00,188.80 364.00,188.48 365.00,188.69 366.00,185.17 367.00,183.50 368.00,183.79 369.00,184.00 370.00,183.79 371.00,183.89 372.00,183.50 373.00,188.05 374.00,189.23 375.00,187.63 376.00,188.80 377.00,188.80 378.00,183.89 379.00,183.93 380.00,183.47 381.00,183.47 382.00,183.79 383.00,183.89 384.00,183.82 385.00,183.47 386.00,184.11 387.00,183.47 388.00,183.47 389.00,183.47 390.00,183.60 391.00,183.36 392.00,183.36 393.00,183.47 394.00,183.47 395.00,183.39 396.00,183.36 397.00,183.47 398.00,185.71 399.00,188.48 400.00,187.84 401.00,187.78 402.00,187.84 403.00,188.48 404.00,189.12 405.00,189.33 406.00,189.12 407.00,189.28 408.00,185.07 409.00,183.36 410.00,183.36 411.00,183.89 412.00,183.71 413.00,183.47 414.00,183.68 415.00,183.57 416.00,183.57 417.00,183.57 418.00,183.82 419.00,183.79 420.00,183.47 421.00,183.36 422.00,183.47 423.00,183.39 424.00,183.36 425.00,183.36 426.00,183.47 427.00,183.47 428.00,183.36 429.00,183.71 430.00,183.79 431.00,183.68 432.00,183.47 433.00,186.50 434.00,185.60 435.00,183.47 436.00,183.25 437.00,184.21 438.00,183.79 439.00,184.57 440.00,183.36 441.00,183.36 442.00,183.25 443.00,183.68 444.00,188.53 445.00,187.95 446.00,189.44 447.00,187.84 448.00,188.05 449.00,187.95 450.00,185.21 451.00,183.68 452.00,183.25 453.00,183.68 454.00,189.01 455.00,188.37 456.00,187.84 457.00,187.78 458.00,187.95 459.00,187.73 460.00,189.44 461.00,188.05 462.00,186.13 463.00,183.93 464.00,183.68 465.00,183.68 466.00,183.68 467.00,183.57 468.00,183.57 469.00,183.93 470.00,183.57 471.00,183.68 472.00,183.47 473.00,183.47 474.00,183.36 475.00,183.93 476.00,183.36 477.00,183.57 478.00,183.68 479.00,183.47 480.00,183.68 481.00,183.39 482.00,183.89 483.00,183.47 484.00,183.47 485.00,183.50 486.00,183.57 487.00,184.64 488.00,183.36 489.00,183.47 490.00,183.57 491.00,183.39 492.00,183.57 493.00,183.57 494.00,183.47 495.00,183.47 496.00,183.50 497.00,183.47 498.00,183.79 499.00,183.57 500.00,183.57 501.00,183.68 502.00,183.50 503.00,183.36 504.00,183.89 505.00,183.36 506.00,183.57 507.00,183.50 508.00,183.47 509.00,183.47 510.00,183.47 511.00,183.47 512.00,183.57 513.00,183.50 514.00,183.47 515.00,183.57 516.00,183.57 517.00,183.47 518.00,183.60 519.00,183.47 520.00,183.47 521.00,184.00 522.00,183.57 523.00,183.47 524.00,183.50 525.00,183.47 526.00,183.47 527.00,183.57 528.00,183.39 529.00,183.36 530.00,183.79 531.00,183.47 532.00,183.47 533.00,183.50 534.00,183.36 535.00,183.47 536.00,183.47 537.00,183.57 538.00,187.09 539.00,188.42 540.00,188.59 541.00,189.33 542.00,189.33 543.00,188.27 544.00,183.57 545.00,183.47 546.00,183.50 547.00,183.36 548.00,183.25 549.00,183.36 550.00,183.79 551.00,183.93 552.00,183.36 553.00,186.88 554.00,186.45 555.00,187.41 556.00,188.59 557.00,188.42 558.00,185.39 559.00,183.79 560.00,183.57 561.00,183.57 562.00,184.00 563.00,184.78 564.00,185.17 565.00,183.47 566.00,183.47 567.00,183.36 568.00,183.36 569.00,183.50 570.00,183.57 571.00,183.79 572.00,183.57 573.00,183.57 574.00,183.68 575.00,183.39 576.00,183.36 577.00,183.57 578.00,183.47 579.00,183.36 580.00,183.82 581.00,183.57 582.00,183.89 583.00,183.47 584.00,183.57 585.00,183.36 586.00,183.07 587.00,183.57 588.00,183.79 589.00,183.79 590.00,183.79 591.00,183.36 592.00,183.39 593.00,186.99 594.00,189.12 595.00,187.95 596.00,188.37 597.00,184.75 598.00,183.39 599.00,183.89 600.00,183.47 601.00,183.36 602.00,183.79 603.00,183.50 604.00,183.36 605.00,184.32 606.00,188.69 607.00,188.37 608.00,184.78 609.00,183.25 610.00,183.47 611.00,183.04 612.00,183.47 613.00,186.60 614.00,188.69 615.00,189.23 616.00,188.59 617.00,188.80 618.00,188.80 619.00,188.42 620.00,188.48 621.00,188.59 622.00,187.63 623.00,184.32 624.00,189.01 625.00,183.47 626.00,190.24 627.00,259.63 628.00,259.73 629.00,260.05 630.00,206.61 631.00,188.37 632.00,189.07 633.00,189.65 634.00,188.16 635.00,188.16 636.00,183.47 637.00,183.57 638.00,183.39 639.00,186.67 640.00,188.37 641.00,184.53 642.00,184.00 643.00,184.03 644.00,183.79 645.00,183.36 646.00,183.47 647.00,183.36 648.00,183.36 649.00,183.39 650.00,183.57 651.00,183.36 652.00,183.36 653.00,186.88 654.00,187.73 655.00,188.10 656.00,188.16 657.00,184.00 658.00,184.00 659.00,183.57 660.00,183.57 661.00,183.50 662.00,184.11 663.00,183.47 664.00,184.53 665.00,189.12 666.00,188.80 667.00,187.57 668.00,187.84 669.00,188.59 670.00,188.69 671.00,188.59 672.00,189.65 673.00,186.39 674.00,183.25 675.00,183.04 676.00,183.04 677.00,183.25 678.00,183.25 679.00,183.07 680.00,183.15 681.00,185.28 682.00,188.27 683.00,188.59 684.00,188.74 685.00,189.44 686.00,188.05 687.00,188.37 688.00,188.37 689.00,188.59 690.00,184.67 691.00,183.47 692.00,183.79 693.00,184.32 694.00,183.36 695.00,183.79 696.00,184.14 697.00,183.57 698.00,183.57 699.00,184.00 700.00,183.36 701.00,184.11 702.00,183.50 703.00,183.04 704.00,183.04 705.00,183.57 706.00,184.43 707.00,188.80 708.00,187.78 709.00,188.91 710.00,187.84 711.00,188.59 712.00,188.37 713.00,184.03 714.00,183.36 715.00,183.57 716.00,183.47 717.00,183.57 718.00,183.50 719.00,183.47 720.00,183.57 721.00,183.57 722.00,183.57 723.00,184.03 724.00,183.36 725.00,183.57 726.00,187.63 727.00,189.33 728.00,189.07 729.00,185.17 730.00,183.57 731.00,183.15 732.00,187.52 733.00,188.64 734.00,188.69 735.00,188.37 736.00,187.73 737.00,188.05 738.00,188.05 739.00,188.37 740.00,188.74 741.00,188.69 742.00,188.59 743.00,187.95 744.00,187.63 745.00,189.12 746.00,188.53 747.00,187.84 748.00,187.95 749.00,188.05 750.00,187.73 751.00,187.84 752.00,187.89 753.00,188.48 754.00,189.23 755.00,188.27 756.00,186.45 757.00,183.47 758.00,183.50 759.00,183.47 760.00,183.47 761.00,183.57 762.00,183.36 763.00,183.50 764.00,183.47 765.00,183.57 766.00,183.47 767.00,183.89 768.00,183.50 769.00,184.21 770.00,184.00 771.00,183.68 772.00,183.47 773.00,183.82 774.00,184.11 775.00,183.47 776.00,183.57 777.00,183.79 778.00,183.60 779.00,184.21 780.00,183.47 781.00,183.47 782.00,186.03 783.00,189.33 784.00,188.64 785.00,188.48 786.00,187.84 787.00,187.95 788.00,187.63 789.00,186.35 790.00,184.46 791.00,184.11 792.00,183.68 793.00,183.79 794.00,183.36 795.00,183.36 796.00,183.28 797.00,183.36 798.00,183.57 799.00,183.36" fill="none" stroke="#1f77b4" stroke-width="1.3" opacity="1.0" stroke-linejoin="round"/><text x="816.0" y="192.0" font-family="sans-serif" font-size="13" text-anchor="start" fill="#1f77b4" font-weight="bold">RRT=1024</text><text x="816.0" y="212.0" font-family="sans-serif" font-size="11" text-anchor="start" fill="#444" font-weight="normal">reclaims/inst: 256</text><text x="816.0" y="229.0" font-family="sans-serif" font-size="11" text-anchor="start" fill="#444" font-weight="normal">avg 955.2 MiB/s</text><text x="816.0" y="246.0" font-family="sans-serif" font-size="11" text-anchor="start" fill="#444" font-weight="normal">min(dip) 606.0</text><text x="816.0" y="263.0" font-family="sans-serif" font-size="11" text-anchor="start" fill="#444" font-weight="normal">secs&lt;900: 4/719</text><rect x="80.0" y="302.0" width="720.0" height="96.0" fill="#fbfbfb" stroke="#888" stroke-width="1.0" opacity="1.0"/><line x1="80.0" y1="387.3" x2="800.0" y2="387.3" stroke="#e3e3e3" stroke-width="1.0" opacity="1.0"/><text x="74.0" y="391.3" font-family="sans-serif" font-size="11" text-anchor="end" fill="#444" font-weight="normal">600</text><line x1="80.0" y1="366.0" x2="800.0" y2="366.0" stroke="#e3e3e3" stroke-width="1.0" opacity="1.0"/><text x="74.0" y="370.0" font-family="sans-serif" font-size="11" text-anchor="end" fill="#444" font-weight="normal">700</text><line x1="80.0" y1="344.7" x2="800.0" y2="344.7" stroke="#e3e3e3" stroke-width="1.0" opacity="1.0"/><text x="74.0" y="348.7" font-family="sans-serif" font-size="11" text-anchor="end" fill="#444" font-weight="normal">800</text><line x1="80.0" y1="323.3" x2="800.0" y2="323.3" stroke="#e3e3e3" stroke-width="1.0" opacity="1.0"/><text x="74.0" y="327.3" font-family="sans-serif" font-size="11" text-anchor="end" fill="#444" font-weight="normal">900</text><line x1="80.0" y1="302.0" x2="800.0" y2="302.0" stroke="#e3e3e3" stroke-width="1.0" opacity="1.0"/><text x="74.0" y="306.0" font-family="sans-serif" font-size="11" text-anchor="end" fill="#444" font-weight="normal">1000</text><line x1="80.0" y1="302.0" x2="80.0" y2="398.0" stroke="#e3e3e3" stroke-width="1.0" opacity="1.0"/><text x="80.0" y="414.0" font-family="sans-serif" font-size="11" text-anchor="middle" fill="#444" font-weight="normal">0</text><line x1="200.0" y1="302.0" x2="200.0" y2="398.0" stroke="#e3e3e3" stroke-width="1.0" opacity="1.0"/><text x="200.0" y="414.0" font-family="sans-serif" font-size="11" text-anchor="middle" fill="#444" font-weight="normal">30</text><line x1="320.0" y1="302.0" x2="320.0" y2="398.0" stroke="#e3e3e3" stroke-width="1.0" opacity="1.0"/><text x="320.0" y="414.0" font-family="sans-serif" font-size="11" text-anchor="middle" fill="#444" font-weight="normal">60</text><line x1="440.0" y1="302.0" x2="440.0" y2="398.0" stroke="#e3e3e3" stroke-width="1.0" opacity="1.0"/><text x="440.0" y="414.0" font-family="sans-serif" font-size="11" text-anchor="middle" fill="#444" font-weight="normal">90</text><line x1="560.0" y1="302.0" x2="560.0" y2="398.0" stroke="#e3e3e3" stroke-width="1.0" opacity="1.0"/><text x="560.0" y="414.0" font-family="sans-serif" font-size="11" text-anchor="middle" fill="#444" font-weight="normal">120</text><line x1="680.0" y1="302.0" x2="680.0" y2="398.0" stroke="#e3e3e3" stroke-width="1.0" opacity="1.0"/><text x="680.0" y="414.0" font-family="sans-serif" font-size="11" text-anchor="middle" fill="#444" font-weight="normal">150</text><line x1="800.0" y1="302.0" x2="800.0" y2="398.0" stroke="#e3e3e3" stroke-width="1.0" opacity="1.0"/><text x="800.0" y="414.0" font-family="sans-serif" font-size="11" text-anchor="middle" fill="#444" font-weight="normal">180</text><line x1="80.0" y1="311.7" x2="800.0" y2="311.7" stroke="#999" stroke-width="1.2" stroke-dasharray="2,3" opacity="1.0"/><polyline points="81.00,312.56 82.00,311.17 83.00,316.40 84.00,313.57 85.00,313.73 86.00,313.63 87.00,313.52 88.00,313.63 89.00,315.01 90.00,313.52 91.00,314.27 92.00,314.32 93.00,311.17 94.00,310.00 95.00,309.36 96.00,309.25 97.00,309.25 98.00,313.31 99.00,313.57 100.00,310.85 101.00,310.00 102.00,309.47 103.00,309.25 104.00,309.04 105.00,309.15 106.00,309.89 107.00,308.93 108.00,308.85 109.00,309.47 110.00,309.57 111.00,309.79 112.00,309.04 113.00,310.21 114.00,310.11 115.00,309.18 116.00,309.15 117.00,309.15 118.00,309.79 119.00,309.25 120.00,309.04 121.00,309.47 122.00,309.89 123.00,309.68 124.00,309.50 125.00,313.95 126.00,314.91 127.00,314.69 128.00,314.16 129.00,314.37 130.00,314.37 131.00,310.57 132.00,313.31 133.00,309.36 134.00,309.15 135.00,309.15 136.00,309.28 137.00,309.15 138.00,309.25 139.00,309.57 140.00,309.79 141.00,310.21 142.00,310.14 143.00,309.89 144.00,309.36 145.00,309.68 146.00,309.89 147.00,309.15 148.00,309.04 149.00,311.75 150.00,314.37 151.00,314.27 152.00,312.03 153.00,309.04 154.00,308.93 155.00,309.47 156.00,309.07 157.00,309.15 158.00,310.11 159.00,309.79 160.00,309.57 161.00,309.79 162.00,309.36 163.00,309.18 164.00,309.36 165.00,309.79 166.00,309.68 167.00,309.25 168.00,309.25 169.00,309.25 170.00,309.15 171.00,309.18 172.00,309.15 173.00,309.25 174.00,309.36 175.00,314.27 176.00,310.67 177.00,309.25 178.00,309.04 179.00,309.25 180.00,309.36 181.00,309.15 182.00,309.47 183.00,310.25 184.00,310.00 185.00,314.05 186.00,314.80 187.00,314.91 188.00,313.84 189.00,314.48 190.00,314.48 191.00,309.89 192.00,309.71 193.00,309.04 194.00,309.15 195.00,309.47 196.00,309.47 197.00,309.47 198.00,310.21 199.00,309.04 200.00,309.36 201.00,309.89 202.00,309.57 203.00,309.15 204.00,309.07 205.00,309.57 206.00,309.89 207.00,314.48 208.00,313.63 209.00,313.95 210.00,311.71 211.00,311.07 212.00,308.96 213.00,312.13 214.00,308.93 215.00,342.00 216.00,385.63 217.00,385.73 218.00,383.07 219.00,309.60 220.00,309.25 221.00,309.15 222.00,309.47 223.00,309.04 224.00,309.68 225.00,309.68 226.00,311.71 227.00,313.89 228.00,309.36 229.00,309.57 230.00,310.85 231.00,315.12 232.00,314.48 233.00,314.37 234.00,315.33 235.00,314.05 236.00,313.52 237.00,313.67 238.00,313.52 239.00,313.73 240.00,314.69 241.00,314.37 242.00,311.10 243.00,310.00 244.00,309.47 245.00,309.47 246.00,309.36 247.00,314.16 248.00,314.37 249.00,314.91 250.00,310.21 251.00,309.18 252.00,309.15 253.00,309.25 254.00,309.25 255.00,309.47 256.00,309.25 257.00,309.15 258.00,309.28 259.00,309.15 260.00,309.25 261.00,309.25 262.00,309.25 263.00,309.15 264.00,309.15 265.00,309.15 266.00,309.18 267.00,309.15 268.00,309.15 269.00,315.01 270.00,315.23 271.00,314.48 272.00,315.01 273.00,315.12 274.00,312.28 275.00,309.15 276.00,309.36 277.00,309.79 278.00,309.15 279.00,309.25 280.00,309.25 281.00,309.36 282.00,309.50 283.00,309.25 284.00,309.25 285.00,309.47 286.00,309.57 287.00,309.36 288.00,313.03 289.00,314.05 290.00,313.31 291.00,309.36 292.00,309.25 293.00,309.36 294.00,309.25 295.00,309.36 296.00,309.28 297.00,309.25 298.00,310.00 299.00,309.25 300.00,309.25 301.00,309.36 302.00,309.39 303.00,313.73 304.00,314.37 305.00,314.80 306.00,313.41 307.00,314.80 308.00,314.05 309.00,314.59 310.00,314.59 311.00,315.33 312.00,314.96 313.00,314.91 314.00,315.12 315.00,315.33 316.00,314.69 317.00,314.16 318.00,313.20 319.00,309.25 320.00,309.07 321.00,309.79 322.00,309.89 323.00,309.47 324.00,309.68 325.00,313.52 326.00,314.21 327.00,313.73 328.00,313.63 329.00,314.48 330.00,313.63 331.00,313.52 332.00,313.57 333.00,314.16 334.00,311.07 335.00,309.36 336.00,309.36 337.00,312.99 338.00,313.41 339.00,313.63 340.00,314.48 341.00,313.95 342.00,314.53 343.00,310.85 344.00,309.25 345.00,309.36 346.00,314.37 347.00,314.16 348.00,314.27 349.00,315.17 350.00,314.37 351.00,314.37 352.00,317.57 353.00,314.37 354.00,371.44 355.00,386.39 356.00,386.05 357.00,359.49 358.00,315.12 359.00,311.81 360.00,309.25 361.00,309.28 362.00,309.89 363.00,314.91 364.00,314.80 365.00,309.36 366.00,309.18 367.00,309.25 368.00,309.15 369.00,309.68 370.00,309.47 371.00,309.89 372.00,309.25 373.00,309.47 374.00,309.28 375.00,309.25 376.00,309.36 377.00,309.36 378.00,309.36 379.00,309.15 380.00,309.60 381.00,309.25 382.00,309.25 383.00,309.25 384.00,309.25 385.00,309.60 386.00,309.36 387.00,309.36 388.00,309.36 389.00,309.68 390.00,310.32 391.00,309.28 392.00,309.25 393.00,309.15 394.00,309.36 395.00,309.25 396.00,309.36 397.00,309.71 398.00,309.15 399.00,309.25 400.00,309.15 401.00,309.36 402.00,309.28 403.00,309.25 404.00,309.15 405.00,312.67 406.00,313.63 407.00,313.57 408.00,313.63 409.00,313.63 410.00,313.52 411.00,312.45 412.00,314.91 413.00,314.85 414.00,314.48 415.00,314.59 416.00,314.48 417.00,314.48 418.00,314.37 419.00,314.37 420.00,314.42 421.00,314.37 422.00,314.37 423.00,314.48 424.00,314.27 425.00,314.32 426.00,314.48 427.00,312.56 428.00,314.37 429.00,313.63 430.00,313.41 431.00,313.57 432.00,314.69 433.00,314.37 434.00,315.01 435.00,314.69 436.00,313.20 437.00,309.89 438.00,310.03 439.00,309.79 440.00,309.25 441.00,309.25 442.00,309.47 443.00,309.28 444.00,309.57 445.00,309.57 446.00,309.04 447.00,309.57 448.00,311.64 449.00,313.84 450.00,314.80 451.00,311.17 452.00,315.23 453.00,315.23 454.00,314.37 455.00,310.57 456.00,308.93 457.00,309.25 458.00,309.79 459.00,309.15 460.00,308.93 461.00,309.07 462.00,308.83 463.00,308.93 464.00,308.83 465.00,309.89 466.00,309.39 467.00,309.57 468.00,309.15 469.00,309.36 470.00,309.89 471.00,309.18 472.00,309.89 473.00,309.57 474.00,309.79 475.00,309.36 476.00,309.18 477.00,309.04 478.00,309.04 479.00,312.88 480.00,313.63 481.00,313.89 482.00,309.79 483.00,309.47 484.00,309.36 485.00,309.68 486.00,309.39 487.00,309.25 488.00,310.96 489.00,309.36 490.00,310.96 491.00,309.36 492.00,350.30 493.00,378.69 494.00,378.69 495.00,352.56 496.00,309.15 497.00,309.25 498.00,309.71 499.00,309.36 500.00,309.25 501.00,309.36 502.00,309.25 503.00,309.25 504.00,309.28 505.00,309.68 506.00,309.25 507.00,309.25 508.00,309.36 509.00,309.25 510.00,309.18 511.00,309.25 512.00,309.25 513.00,312.56 514.00,310.75 515.00,309.25 516.00,309.47 517.00,309.82 518.00,309.57 519.00,308.93 520.00,309.25 521.00,309.25 522.00,309.47 523.00,309.57 524.00,308.85 525.00,309.57 526.00,309.25 527.00,309.25 528.00,308.83 529.00,309.07 530.00,309.25 531.00,309.04 532.00,308.93 533.00,309.36 534.00,309.60 535.00,309.15 536.00,309.25 537.00,309.15 538.00,309.04 539.00,309.07 540.00,308.93 541.00,308.93 542.00,309.79 543.00,309.25 544.00,309.18 545.00,308.93 546.00,309.15 547.00,309.57 548.00,308.93 549.00,309.07 550.00,309.47 551.00,309.47 552.00,308.72 553.00,308.93 554.00,309.28 555.00,309.47 556.00,308.93 557.00,308.93 558.00,309.25 559.00,309.60 560.00,308.93 561.00,309.57 562.00,309.57 563.00,310.32 564.00,309.15 565.00,309.15 566.00,309.36 567.00,310.53 568.00,309.15 569.00,309.07 570.00,309.25 571.00,309.04 572.00,308.83 573.00,309.04 574.00,310.96 575.00,314.37 576.00,313.31 577.00,309.39 578.00,309.79 579.00,309.15 580.00,314.05 581.00,314.48 582.00,313.63 583.00,314.69 584.00,313.67 585.00,315.01 586.00,315.23 587.00,313.84 588.00,314.05 589.00,313.84 590.00,313.63 591.00,316.29 592.00,310.57 593.00,314.27 594.00,313.63 595.00,316.61 596.00,314.91 597.00,310.11 598.00,313.20 599.00,313.63 600.00,311.64 601.00,310.00 602.00,309.47 603.00,309.25 604.00,309.25 605.00,309.36 606.00,309.36 607.00,309.28 608.00,309.15 609.00,309.25 610.00,309.47 611.00,309.25 612.00,309.36 613.00,309.25 614.00,309.50 615.00,310.96 616.00,314.37 617.00,313.63 618.00,313.52 619.00,312.24 620.00,313.31 621.00,314.48 622.00,313.57 623.00,314.37 624.00,313.52 625.00,314.37 626.00,313.63 627.00,314.91 628.00,314.59 629.00,314.42 630.00,370.05 631.00,381.15 632.00,381.15 633.00,341.15 634.00,313.52 635.00,313.67 636.00,314.69 637.00,313.41 638.00,313.84 639.00,313.63 640.00,314.48 641.00,315.71 642.00,313.73 643.00,313.84 644.00,315.01 645.00,311.17 646.00,309.68 647.00,310.32 648.00,315.17 649.00,313.95 650.00,314.80 651.00,313.52 652.00,313.63 653.00,313.63 654.00,310.11 655.00,309.28 656.00,311.17 657.00,312.56 658.00,309.36 659.00,310.00 660.00,312.56 661.00,314.91 662.00,314.48 663.00,314.21 664.00,313.63 665.00,313.95 666.00,314.69 667.00,314.27 668.00,313.20 669.00,313.09 670.00,309.39 671.00,309.47 672.00,309.57 673.00,309.57 674.00,309.36 675.00,310.11 676.00,309.47 677.00,309.82 678.00,309.47 679.00,309.47 680.00,309.47 681.00,309.47 682.00,309.36 683.00,309.89 684.00,310.21 685.00,312.56 686.00,313.57 687.00,311.49 688.00,310.11 689.00,309.68 690.00,309.36 691.00,309.15 692.00,309.36 693.00,310.21 694.00,309.68 695.00,309.68 696.00,308.96 697.00,309.79 698.00,309.36 699.00,309.36 700.00,309.36 701.00,309.57 702.00,313.95 703.00,312.77 704.00,315.55 705.00,314.48 706.00,314.42 707.00,314.16 708.00,314.37 709.00,314.48 710.00,314.59 711.00,314.27 712.00,313.95 713.00,313.84 714.00,315.12 715.00,313.89 716.00,314.16 717.00,315.65 718.00,311.71 719.00,309.68 720.00,309.25 721.00,309.57 722.00,309.71 723.00,309.36 724.00,309.57 725.00,309.79 726.00,309.36 727.00,309.36 728.00,310.32 729.00,310.75 730.00,309.39 731.00,309.36 732.00,309.47 733.00,309.36 734.00,309.79 735.00,309.47 736.00,309.36 737.00,310.11 738.00,309.89 739.00,309.36 740.00,309.25 741.00,309.47 742.00,309.68 743.00,309.50 744.00,310.43 745.00,309.47 746.00,309.47 747.00,309.15 748.00,309.79 749.00,309.57 750.00,309.89 751.00,313.41 752.00,314.05 753.00,313.99 754.00,314.91 755.00,314.37 756.00,314.16 757.00,314.59 758.00,314.37 759.00,310.53 760.00,309.47 761.00,308.93 762.00,310.03 763.00,309.04 764.00,310.96 765.00,309.15 766.00,312.03 767.00,309.04 768.00,346.48 769.00,385.63 770.00,385.95 771.00,377.31 772.00,309.36 773.00,309.36 774.00,311.49 775.00,313.95 776.00,309.36 777.00,309.50 778.00,308.83 779.00,310.00 780.00,309.25 781.00,309.79 782.00,309.36 783.00,309.36 784.00,310.53 785.00,314.27 786.00,313.46 787.00,315.23 788.00,314.27 789.00,314.48 790.00,313.73 791.00,314.48 792.00,314.59 793.00,314.21 794.00,314.48 795.00,314.37 796.00,314.37 797.00,310.85 798.00,309.47 799.00,309.57" fill="none" stroke="#2ca02c" stroke-width="1.3" opacity="1.0" stroke-linejoin="round"/><text x="816.0" y="318.0" font-family="sans-serif" font-size="13" text-anchor="start" fill="#2ca02c" font-weight="bold">RRT=256</text><text x="816.0" y="338.0" font-family="sans-serif" font-size="11" text-anchor="start" fill="#444" font-weight="normal">reclaims/inst: 1,280</text><text x="816.0" y="355.0" font-family="sans-serif" font-size="11" text-anchor="start" fill="#444" font-weight="normal">avg 949.3 MiB/s</text><text x="816.0" y="372.0" font-family="sans-serif" font-size="11" text-anchor="start" fill="#444" font-weight="normal">min(dip) 604.4</text><text x="816.0" y="389.0" font-family="sans-serif" font-size="11" text-anchor="start" fill="#444" font-weight="normal">secs&lt;900: 20/719</text><rect x="80.0" y="428.0" width="720.0" height="96.0" fill="#fbfbfb" stroke="#888" stroke-width="1.0" opacity="1.0"/><line x1="80.0" y1="513.3" x2="800.0" y2="513.3" stroke="#e3e3e3" stroke-width="1.0" opacity="1.0"/><text x="74.0" y="517.3" font-family="sans-serif" font-size="11" text-anchor="end" fill="#444" font-weight="normal">600</text><line x1="80.0" y1="492.0" x2="800.0" y2="492.0" stroke="#e3e3e3" stroke-width="1.0" opacity="1.0"/><text x="74.0" y="496.0" font-family="sans-serif" font-size="11" text-anchor="end" fill="#444" font-weight="normal">700</text><line x1="80.0" y1="470.7" x2="800.0" y2="470.7" stroke="#e3e3e3" stroke-width="1.0" opacity="1.0"/><text x="74.0" y="474.7" font-family="sans-serif" font-size="11" text-anchor="end" fill="#444" font-weight="normal">800</text><line x1="80.0" y1="449.3" x2="800.0" y2="449.3" stroke="#e3e3e3" stroke-width="1.0" opacity="1.0"/><text x="74.0" y="453.3" font-family="sans-serif" font-size="11" text-anchor="end" fill="#444" font-weight="normal">900</text><line x1="80.0" y1="428.0" x2="800.0" y2="428.0" stroke="#e3e3e3" stroke-width="1.0" opacity="1.0"/><text x="74.0" y="432.0" font-family="sans-serif" font-size="11" text-anchor="end" fill="#444" font-weight="normal">1000</text><line x1="80.0" y1="428.0" x2="80.0" y2="524.0" stroke="#e3e3e3" stroke-width="1.0" opacity="1.0"/><text x="80.0" y="540.0" font-family="sans-serif" font-size="11" text-anchor="middle" fill="#444" font-weight="normal">0</text><line x1="200.0" y1="428.0" x2="200.0" y2="524.0" stroke="#e3e3e3" stroke-width="1.0" opacity="1.0"/><text x="200.0" y="540.0" font-family="sans-serif" font-size="11" text-anchor="middle" fill="#444" font-weight="normal">30</text><line x1="320.0" y1="428.0" x2="320.0" y2="524.0" stroke="#e3e3e3" stroke-width="1.0" opacity="1.0"/><text x="320.0" y="540.0" font-family="sans-serif" font-size="11" text-anchor="middle" fill="#444" font-weight="normal">60</text><line x1="440.0" y1="428.0" x2="440.0" y2="524.0" stroke="#e3e3e3" stroke-width="1.0" opacity="1.0"/><text x="440.0" y="540.0" font-family="sans-serif" font-size="11" text-anchor="middle" fill="#444" font-weight="normal">90</text><line x1="560.0" y1="428.0" x2="560.0" y2="524.0" stroke="#e3e3e3" stroke-width="1.0" opacity="1.0"/><text x="560.0" y="540.0" font-family="sans-serif" font-size="11" text-anchor="middle" fill="#444" font-weight="normal">120</text><line x1="680.0" y1="428.0" x2="680.0" y2="524.0" stroke="#e3e3e3" stroke-width="1.0" opacity="1.0"/><text x="680.0" y="540.0" font-family="sans-serif" font-size="11" text-anchor="middle" fill="#444" font-weight="normal">150</text><line x1="800.0" y1="428.0" x2="800.0" y2="524.0" stroke="#e3e3e3" stroke-width="1.0" opacity="1.0"/><text x="800.0" y="540.0" font-family="sans-serif" font-size="11" text-anchor="middle" fill="#444" font-weight="normal">180</text><line x1="80.0" y1="437.7" x2="800.0" y2="437.7" stroke="#999" stroke-width="1.2" stroke-dasharray="2,3" opacity="1.0"/><polyline points="81.00,440.05 82.00,440.16 83.00,440.96 84.00,439.52 85.00,436.85 86.00,435.47 87.00,436.00 88.00,435.68 89.00,435.60 90.00,435.68 91.00,435.68 92.00,435.68 93.00,435.68 94.00,435.68 95.00,435.60 96.00,435.68 97.00,438.35 98.00,440.48 99.00,438.99 100.00,435.93 101.00,435.68 102.00,436.00 103.00,435.57 104.00,435.68 105.00,435.57 106.00,435.39 107.00,435.47 108.00,436.53 109.00,435.47 110.00,438.45 111.00,439.03 112.00,439.63 113.00,507.57 114.00,513.33 115.00,514.08 116.00,478.56 117.00,440.37 118.00,440.37 119.00,439.67 120.00,435.79 121.00,435.57 122.00,435.47 123.00,435.47 124.00,435.57 125.00,435.47 126.00,435.50 127.00,435.47 128.00,435.79 129.00,435.57 130.00,436.21 131.00,435.60 132.00,435.57 133.00,436.00 134.00,435.47 135.00,435.39 136.00,435.36 137.00,435.57 138.00,436.11 139.00,435.57 140.00,435.68 141.00,435.71 142.00,435.57 143.00,435.47 144.00,436.43 145.00,435.57 146.00,438.39 147.00,435.47 148.00,473.87 149.00,510.24 150.00,510.45 151.00,497.87 152.00,435.60 153.00,435.36 154.00,438.35 155.00,439.63 156.00,439.95 157.00,439.67 158.00,437.92 159.00,439.52 160.00,440.37 161.00,440.37 162.00,440.48 163.00,441.39 164.00,441.65 165.00,441.01 166.00,441.01 167.00,441.01 168.00,441.23 169.00,441.12 170.00,441.12 171.00,440.96 172.00,439.73 173.00,439.52 174.00,439.63 175.00,439.52 176.00,439.73 177.00,436.78 178.00,435.47 179.00,439.52 180.00,437.92 181.00,435.04 182.00,436.96 183.00,435.39 184.00,487.31 185.00,504.69 186.00,504.80 187.00,467.47 188.00,435.36 189.00,435.18 190.00,434.83 191.00,435.15 192.00,435.25 193.00,435.15 194.00,435.15 195.00,435.39 196.00,435.25 197.00,435.36 198.00,435.04 199.00,436.53 200.00,439.67 201.00,439.52 202.00,440.05 203.00,439.63 204.00,439.95 205.00,440.42 206.00,440.37 207.00,440.48 208.00,440.37 209.00,440.37 210.00,439.20 211.00,436.14 212.00,435.57 213.00,436.43 214.00,435.89 215.00,437.17 216.00,435.68 217.00,438.60 218.00,435.57 219.00,463.63 220.00,505.44 221.00,505.01 222.00,491.72 223.00,435.57 224.00,435.47 225.00,435.47 226.00,435.36 227.00,435.39 228.00,435.47 229.00,435.36 230.00,435.47 231.00,435.79 232.00,435.47 233.00,435.50 234.00,435.36 235.00,435.47 236.00,435.47 237.00,435.47 238.00,435.50 239.00,437.49 240.00,440.27 241.00,439.63 242.00,439.52 243.00,439.84 244.00,441.28 245.00,440.27 246.00,439.63 247.00,439.63 248.00,440.80 249.00,439.67 250.00,441.76 251.00,439.73 252.00,442.72 253.00,439.73 254.00,439.63 255.00,511.86 256.00,513.55 257.00,513.33 258.00,471.63 259.00,439.63 260.00,440.74 261.00,441.33 262.00,438.77 263.00,435.15 264.00,435.57 265.00,435.57 266.00,435.71 267.00,435.04 268.00,435.15 269.00,435.36 270.00,435.15 271.00,435.25 272.00,435.18 273.00,435.25 274.00,435.04 275.00,435.57 276.00,435.57 277.00,435.15 278.00,435.07 279.00,435.36 280.00,435.15 281.00,436.21 282.00,439.73 283.00,440.48 284.00,441.39 285.00,440.37 286.00,443.25 287.00,440.48 288.00,481.65 289.00,511.32 290.00,510.35 291.00,494.35 292.00,435.79 293.00,435.36 294.00,436.00 295.00,435.39 296.00,435.79 297.00,435.68 298.00,435.47 299.00,435.68 300.00,435.68 301.00,435.68 302.00,435.82 303.00,435.04 304.00,435.25 305.00,435.89 306.00,435.47 307.00,435.50 308.00,435.57 309.00,435.57 310.00,439.09 311.00,440.27 312.00,437.17 313.00,435.57 314.00,435.60 315.00,435.68 316.00,435.57 317.00,435.57 318.00,436.32 319.00,440.59 320.00,440.42 321.00,441.12 322.00,436.00 323.00,450.83 324.00,505.23 325.00,506.08 326.00,505.01 327.00,436.46 328.00,436.11 329.00,435.89 330.00,435.47 331.00,435.57 332.00,435.89 333.00,435.71 334.00,435.47 335.00,435.68 336.00,435.79 337.00,435.57 338.00,435.60 339.00,435.57 340.00,435.79 341.00,435.57 342.00,435.47 343.00,439.25 344.00,439.84 345.00,440.37 346.00,440.80 347.00,439.41 348.00,436.00 349.00,435.57 350.00,435.60 351.00,435.57 352.00,435.47 353.00,436.11 354.00,437.17 355.00,435.39 356.00,437.07 357.00,435.47 358.00,435.36 359.00,504.69 360.00,504.36 361.00,504.80 362.00,450.61 363.00,435.47 364.00,435.89 365.00,435.68 366.00,435.50 367.00,435.47 368.00,435.57 369.00,436.21 370.00,436.75 371.00,435.68 372.00,435.71 373.00,435.47 374.00,435.47 375.00,435.47 376.00,435.57 377.00,436.03 378.00,436.11 379.00,438.13 380.00,439.95 381.00,440.16 382.00,440.53 383.00,440.48 384.00,439.84 385.00,440.59 386.00,439.09 387.00,435.82 388.00,435.79 389.00,435.47 390.00,437.07 391.00,436.21 392.00,440.59 393.00,440.96 394.00,488.80 395.00,513.55 396.00,513.55 397.00,495.84 398.00,440.59 399.00,441.17 400.00,440.91 401.00,441.12 402.00,439.95 403.00,435.04 404.00,435.79 405.00,439.14 406.00,440.59 407.00,440.59 408.00,441.12 409.00,438.77 410.00,435.82 411.00,435.25 412.00,435.57 413.00,435.36 414.00,435.47 415.00,435.47 416.00,435.50 417.00,435.36 418.00,435.36 419.00,435.47 420.00,435.36 421.00,435.36 422.00,436.03 423.00,436.21 424.00,435.47 425.00,437.60 426.00,435.57 427.00,438.71 428.00,435.89 429.00,442.40 430.00,510.56 431.00,510.99 432.00,510.04 433.00,453.07 434.00,435.57 435.00,435.57 436.00,435.57 437.00,435.50 438.00,435.57 439.00,435.89 440.00,435.47 441.00,435.47 442.00,435.36 443.00,435.50 444.00,435.57 445.00,435.57 446.00,435.47 447.00,435.47 448.00,435.60 449.00,435.36 450.00,435.36 451.00,435.47 452.00,435.47 453.00,435.39 454.00,435.57 455.00,435.36 456.00,435.47 457.00,435.47 458.00,436.32 459.00,435.50 460.00,438.13 461.00,435.47 462.00,435.47 463.00,505.55 464.00,505.00 465.00,504.80 466.00,449.33 467.00,435.36 468.00,435.47 469.00,435.47 470.00,435.28 471.00,435.47 472.00,435.57 473.00,435.36 474.00,440.05 475.00,437.10 476.00,435.47 477.00,435.36 478.00,435.57 479.00,435.36 480.00,435.50 481.00,435.47 482.00,435.79 483.00,435.57 484.00,436.00 485.00,435.28 486.00,438.03 487.00,436.96 488.00,435.47 489.00,435.25 490.00,435.15 491.00,435.28 492.00,435.57 493.00,436.43 494.00,435.25 495.00,438.03 496.00,436.03 497.00,435.36 498.00,497.12 499.00,504.91 500.00,505.87 501.00,459.04 502.00,435.60 503.00,434.93 504.00,435.36 505.00,435.57 506.00,435.36 507.00,436.35 508.00,437.81 509.00,438.13 510.00,436.21 511.00,435.36 512.00,435.47 513.00,435.82 514.00,435.47 515.00,435.47 516.00,435.79 517.00,435.68 518.00,436.03 519.00,437.60 520.00,439.63 521.00,440.05 522.00,439.52 523.00,435.39 524.00,435.57 525.00,435.89 526.00,435.79 527.00,435.47 528.00,435.39 529.00,436.43 530.00,435.15 531.00,438.45 532.00,435.47 533.00,487.33 534.00,511.84 535.00,512.27 536.00,490.19 537.00,435.15 538.00,435.68 539.00,435.60 540.00,435.36 541.00,435.47 542.00,435.79 543.00,435.79 544.00,436.00 545.00,435.28 546.00,435.15 547.00,435.57 548.00,436.75 549.00,435.36 550.00,435.18 551.00,435.47 552.00,435.47 553.00,435.89 554.00,435.25 555.00,435.39 556.00,435.36 557.00,435.89 558.00,435.36 559.00,435.36 560.00,436.14 561.00,435.57 562.00,435.36 563.00,435.25 564.00,437.42 565.00,435.47 566.00,437.28 567.00,435.15 568.00,466.19 569.00,509.92 570.00,509.93 571.00,505.01 572.00,435.79 573.00,435.25 574.00,435.47 575.00,435.39 576.00,435.57 577.00,435.47 578.00,435.36 579.00,435.79 580.00,435.57 581.00,435.25 582.00,435.28 583.00,435.25 584.00,435.57 585.00,435.25 586.00,439.52 587.00,439.63 588.00,439.84 589.00,435.79 590.00,435.47 591.00,436.21 592.00,435.50 593.00,435.36 594.00,435.57 595.00,435.79 596.00,435.47 597.00,436.53 598.00,435.82 599.00,437.17 600.00,435.47 601.00,438.03 602.00,435.79 603.00,444.00 604.00,505.33 605.00,505.32 606.00,505.44 607.00,441.87 608.00,435.79 609.00,438.56 610.00,439.73 611.00,440.05 612.00,440.69 613.00,440.42 614.00,440.37 615.00,438.35 616.00,435.15 617.00,435.79 618.00,435.36 619.00,435.25 620.00,435.47 621.00,435.28 622.00,435.36 623.00,435.25 624.00,435.36 625.00,435.25 626.00,435.25 627.00,435.28 628.00,435.36 629.00,435.89 630.00,439.95 631.00,440.69 632.00,441.23 633.00,441.01 634.00,442.89 635.00,436.75 636.00,435.47 637.00,497.87 638.00,504.80 639.00,504.69 640.00,457.12 641.00,435.47 642.00,435.39 643.00,435.47 644.00,436.32 645.00,435.68 646.00,439.31 647.00,439.63 648.00,439.73 649.00,440.10 650.00,438.13 651.00,435.36 652.00,435.68 653.00,435.25 654.00,436.32 655.00,439.41 656.00,435.71 657.00,435.57 658.00,435.15 659.00,435.04 660.00,435.25 661.00,436.11 662.00,435.15 663.00,435.89 664.00,435.79 665.00,435.93 666.00,435.57 667.00,435.68 668.00,436.96 669.00,435.57 670.00,438.88 671.00,436.21 672.00,489.23 673.00,514.19 674.00,513.97 675.00,496.37 676.00,440.85 677.00,441.23 678.00,441.01 679.00,440.80 680.00,441.01 681.00,441.01 682.00,441.12 683.00,441.28 684.00,440.91 685.00,441.23 686.00,440.91 687.00,439.73 688.00,439.52 689.00,439.67 690.00,439.63 691.00,439.73 692.00,439.63 693.00,439.52 694.00,440.37 695.00,441.49 696.00,441.23 697.00,435.57 698.00,439.84 699.00,439.73 700.00,439.63 701.00,439.63 702.00,439.57 703.00,439.63 704.00,436.75 705.00,435.25 706.00,438.24 707.00,435.04 708.00,490.19 709.00,510.68 710.00,510.13 711.00,483.79 712.00,439.73 713.00,439.52 714.00,439.73 715.00,436.00 716.00,435.68 717.00,435.15 718.00,435.50 719.00,435.25 720.00,438.35 721.00,439.84 722.00,439.63 723.00,440.05 724.00,436.25 725.00,436.43 726.00,435.89 727.00,436.43 728.00,435.89 729.00,436.11 730.00,436.00 731.00,437.75 732.00,441.23 733.00,440.37 734.00,440.27 735.00,440.37 736.00,440.37 737.00,440.42 738.00,440.27 739.00,442.40 740.00,440.69 741.00,442.40 742.00,440.91 743.00,443.25 744.00,507.57 745.00,506.93 746.00,507.68 747.00,456.27 748.00,441.23 749.00,441.01 750.00,440.48 751.00,440.27 752.00,441.44 753.00,440.42 754.00,440.37 755.00,439.95 756.00,435.57 757.00,436.00 758.00,435.25 759.00,435.15 760.00,435.25 761.00,436.21 762.00,435.25 763.00,435.47 764.00,435.36 765.00,435.60 766.00,435.25 767.00,435.25 768.00,435.57 769.00,435.47 770.00,436.43 771.00,435.15 772.00,436.00 773.00,435.89 774.00,435.07 775.00,436.75 776.00,435.15 777.00,438.13 778.00,435.15 779.00,482.08 780.00,505.44 781.00,505.76 782.00,472.16 783.00,435.36 784.00,435.47 785.00,435.71 786.00,435.89 787.00,435.57 788.00,435.57 789.00,435.57 790.00,435.68 791.00,435.04 792.00,435.68 793.00,436.53 794.00,436.11 795.00,435.57 796.00,435.68 797.00,435.68 798.00,435.57 799.00,435.57" fill="none" stroke="#ff7f0e" stroke-width="1.3" opacity="1.0" stroke-linejoin="round"/><text x="816.0" y="444.0" font-family="sans-serif" font-size="13" text-anchor="start" fill="#ff7f0e" font-weight="bold">RRT=64</text><text x="816.0" y="464.0" font-family="sans-serif" font-size="11" text-anchor="start" fill="#444" font-weight="normal">reclaims/inst: 5,120</text><text x="816.0" y="481.0" font-family="sans-serif" font-size="11" text-anchor="start" fill="#444" font-weight="normal">avg 927.0 MiB/s</text><text x="816.0" y="498.0" font-family="sans-serif" font-size="11" text-anchor="start" fill="#444" font-weight="normal">min(dip) 596.0</text><text x="816.0" y="515.0" font-family="sans-serif" font-size="11" text-anchor="start" fill="#444" font-weight="normal">secs&lt;900: 78/719</text><rect x="80.0" y="554.0" width="720.0" height="96.0" fill="#fbfbfb" stroke="#888" stroke-width="1.0" opacity="1.0"/><line x1="80.0" y1="639.3" x2="800.0" y2="639.3" stroke="#e3e3e3" stroke-width="1.0" opacity="1.0"/><text x="74.0" y="643.3" font-family="sans-serif" font-size="11" text-anchor="end" fill="#444" font-weight="normal">600</text><line x1="80.0" y1="618.0" x2="800.0" y2="618.0" stroke="#e3e3e3" stroke-width="1.0" opacity="1.0"/><text x="74.0" y="622.0" font-family="sans-serif" font-size="11" text-anchor="end" fill="#444" font-weight="normal">700</text><line x1="80.0" y1="596.7" x2="800.0" y2="596.7" stroke="#e3e3e3" stroke-width="1.0" opacity="1.0"/><text x="74.0" y="600.7" font-family="sans-serif" font-size="11" text-anchor="end" fill="#444" font-weight="normal">800</text><line x1="80.0" y1="575.3" x2="800.0" y2="575.3" stroke="#e3e3e3" stroke-width="1.0" opacity="1.0"/><text x="74.0" y="579.3" font-family="sans-serif" font-size="11" text-anchor="end" fill="#444" font-weight="normal">900</text><line x1="80.0" y1="554.0" x2="800.0" y2="554.0" stroke="#e3e3e3" stroke-width="1.0" opacity="1.0"/><text x="74.0" y="558.0" font-family="sans-serif" font-size="11" text-anchor="end" fill="#444" font-weight="normal">1000</text><line x1="80.0" y1="554.0" x2="80.0" y2="650.0" stroke="#e3e3e3" stroke-width="1.0" opacity="1.0"/><text x="80.0" y="666.0" font-family="sans-serif" font-size="11" text-anchor="middle" fill="#444" font-weight="normal">0</text><line x1="200.0" y1="554.0" x2="200.0" y2="650.0" stroke="#e3e3e3" stroke-width="1.0" opacity="1.0"/><text x="200.0" y="666.0" font-family="sans-serif" font-size="11" text-anchor="middle" fill="#444" font-weight="normal">30</text><line x1="320.0" y1="554.0" x2="320.0" y2="650.0" stroke="#e3e3e3" stroke-width="1.0" opacity="1.0"/><text x="320.0" y="666.0" font-family="sans-serif" font-size="11" text-anchor="middle" fill="#444" font-weight="normal">60</text><line x1="440.0" y1="554.0" x2="440.0" y2="650.0" stroke="#e3e3e3" stroke-width="1.0" opacity="1.0"/><text x="440.0" y="666.0" font-family="sans-serif" font-size="11" text-anchor="middle" fill="#444" font-weight="normal">90</text><line x1="560.0" y1="554.0" x2="560.0" y2="650.0" stroke="#e3e3e3" stroke-width="1.0" opacity="1.0"/><text x="560.0" y="666.0" font-family="sans-serif" font-size="11" text-anchor="middle" fill="#444" font-weight="normal">120</text><line x1="680.0" y1="554.0" x2="680.0" y2="650.0" stroke="#e3e3e3" stroke-width="1.0" opacity="1.0"/><text x="680.0" y="666.0" font-family="sans-serif" font-size="11" text-anchor="middle" fill="#444" font-weight="normal">150</text><line x1="800.0" y1="554.0" x2="800.0" y2="650.0" stroke="#e3e3e3" stroke-width="1.0" opacity="1.0"/><text x="800.0" y="666.0" font-family="sans-serif" font-size="11" text-anchor="middle" fill="#444" font-weight="normal">180</text><line x1="80.0" y1="563.7" x2="800.0" y2="563.7" stroke="#999" stroke-width="1.2" stroke-dasharray="2,3" opacity="1.0"/><text x="440.0" y="690.0" font-family="sans-serif" font-size="13" text-anchor="middle" fill="#111" font-weight="normal">elapsed time (s)</text><polyline points="81.00,566.37 82.00,568.35 83.00,567.65 84.00,567.55 85.00,569.04 86.00,566.16 87.00,599.01 88.00,639.76 89.00,639.76 90.00,639.23 91.00,566.37 92.00,566.59 93.00,562.64 94.00,561.60 95.00,564.35 96.00,561.47 97.00,604.45 98.00,636.45 99.00,636.56 100.00,619.07 101.00,561.68 102.00,565.89 103.00,566.05 104.00,566.59 105.00,568.29 106.00,566.91 107.00,615.12 108.00,632.93 109.00,632.51 110.00,602.85 111.00,562.78 112.00,563.60 113.00,562.00 114.00,564.99 115.00,562.00 116.00,564.35 117.00,631.55 118.00,630.80 119.00,631.97 120.00,574.37 121.00,561.36 122.00,563.07 123.00,565.63 124.00,569.15 125.00,566.69 126.00,591.65 127.00,639.57 128.00,639.87 129.00,640.08 130.00,572.35 131.00,565.84 132.00,564.35 133.00,561.36 134.00,607.76 135.00,635.92 136.00,636.03 137.00,614.69 138.00,561.47 139.00,562.32 140.00,561.47 141.00,564.03 142.00,561.25 143.00,561.50 144.00,624.83 145.00,631.55 146.00,631.65 147.00,583.33 148.00,561.36 149.00,563.17 150.00,561.28 151.00,563.07 152.00,561.79 153.00,582.59 154.00,630.80 155.00,630.80 156.00,624.29 157.00,561.50 158.00,561.79 159.00,563.81 160.00,561.57 161.00,563.28 162.00,561.47 163.00,616.08 164.00,640.29 165.00,640.00 166.00,620.99 167.00,565.73 168.00,567.65 169.00,565.84 170.00,565.95 171.00,568.40 172.00,565.84 173.00,618.36 174.00,638.16 175.00,638.16 176.00,610.43 177.00,561.68 178.00,564.13 179.00,562.11 180.00,568.93 181.00,630.57 182.00,630.80 183.00,630.80 184.00,571.49 185.00,561.89 186.00,562.43 187.00,561.47 188.00,563.92 189.00,562.35 190.00,595.92 191.00,631.23 192.00,630.91 193.00,612.99 194.00,561.68 195.00,562.35 196.00,561.36 197.00,563.28 198.00,562.96 199.00,561.25 200.00,629.18 201.00,637.73 202.00,637.63 203.00,600.40 204.00,562.00 205.00,568.08 206.00,565.67 207.00,567.65 208.00,563.49 209.00,564.56 210.00,636.67 211.00,636.36 212.00,635.92 213.00,586.00 214.00,562.11 215.00,563.92 216.00,561.57 217.00,564.17 218.00,561.47 219.00,580.67 220.00,630.80 221.00,631.55 222.00,627.17 223.00,564.39 224.00,566.48 225.00,568.19 226.00,565.73 227.00,613.84 228.00,632.51 229.00,632.82 230.00,601.25 231.00,565.63 232.00,565.95 233.00,562.96 234.00,569.15 235.00,565.67 236.00,565.63 237.00,637.09 238.00,639.33 239.00,639.55 240.00,600.27 241.00,566.91 242.00,567.87 243.00,565.73 244.00,570.11 245.00,565.73 246.00,562.85 247.00,637.64 248.00,636.24 249.00,635.92 250.00,587.17 251.00,561.57 252.00,563.21 253.00,561.57 254.00,563.28 255.00,561.47 256.00,581.41 257.00,630.47 258.00,630.80 259.00,627.07 260.00,561.79 261.00,561.36 262.00,563.81 263.00,561.28 264.00,563.92 265.00,561.36 266.00,607.76 267.00,631.44 268.00,630.80 269.00,599.94 270.00,562.11 271.00,563.60 272.00,561.36 273.00,564.35 274.00,561.68 275.00,565.67 276.00,638.16 277.00,637.63 278.00,637.95 279.00,586.75 280.00,561.47 281.00,564.17 282.00,561.57 283.00,592.51 284.00,635.92 285.00,635.92 286.00,629.95 287.00,561.57 288.00,561.71 289.00,562.32 290.00,561.36 291.00,564.24 292.00,561.57 293.00,610.44 294.00,631.12 295.00,632.08 296.00,598.37 297.00,561.68 298.00,563.32 299.00,561.57 300.00,563.49 301.00,561.57 302.00,567.55 303.00,630.91 304.00,631.01 305.00,630.59 306.00,570.39 307.00,564.67 308.00,567.65 309.00,565.95 310.00,569.36 311.00,566.05 312.00,593.89 313.00,639.33 314.00,639.14 315.00,639.01 316.00,567.12 317.00,563.28 318.00,563.81 319.00,561.68 320.00,564.56 321.00,561.60 322.00,600.51 323.00,636.67 324.00,635.92 325.00,622.59 326.00,561.47 327.00,564.67 328.00,566.80 329.00,566.48 330.00,625.00 331.00,633.57 332.00,632.83 333.00,592.93 334.00,563.49 335.00,567.97 336.00,566.59 337.00,568.61 338.00,566.59 339.00,572.21 340.00,633.25 341.00,633.47 342.00,632.61 343.00,575.12 344.00,561.36 345.00,562.43 346.00,562.03 347.00,565.52 348.00,561.36 349.00,593.68 350.00,638.27 351.00,638.37 352.00,635.82 353.00,562.11 354.00,561.57 355.00,563.60 356.00,564.67 357.00,568.40 358.00,566.53 359.00,606.59 360.00,635.92 361.00,637.41 362.00,624.08 363.00,566.80 364.00,568.57 365.00,566.80 366.00,565.84 367.00,568.08 368.00,566.16 369.00,609.36 370.00,633.36 371.00,633.68 372.00,607.97 373.00,563.81 374.00,565.41 375.00,562.43 376.00,568.89 377.00,630.80 378.00,630.80 379.00,631.44 380.00,571.17 381.00,562.11 382.00,563.75 383.00,561.89 384.00,565.09 385.00,562.21 386.00,599.87 387.00,639.33 388.00,639.33 389.00,638.50 390.00,566.05 391.00,561.89 392.00,563.07 393.00,561.89 394.00,564.92 395.00,561.57 396.00,607.33 397.00,636.24 398.00,635.92 399.00,617.25 400.00,565.67 401.00,567.33 402.00,565.63 403.00,565.73 404.00,567.33 405.00,565.84 406.00,616.40 407.00,632.18 408.00,632.19 409.00,597.31 410.00,564.03 411.00,563.17 412.00,561.89 413.00,564.24 414.00,561.47 415.00,567.60 416.00,631.12 417.00,631.01 418.00,631.55 419.00,570.21 420.00,561.47 421.00,563.28 422.00,561.79 423.00,564.50 424.00,561.47 425.00,597.95 426.00,637.84 427.00,638.16 428.00,630.16 429.00,561.36 430.00,564.56 431.00,568.72 432.00,565.67 433.00,622.27 434.00,637.41 435.00,637.52 436.00,608.08 437.00,564.13 438.00,562.75 439.00,561.68 440.00,564.03 441.00,561.39 442.00,561.89 443.00,631.76 444.00,631.44 445.00,631.65 446.00,576.51 447.00,561.68 448.00,563.17 449.00,561.47 450.00,563.75 451.00,561.47 452.00,589.41 453.00,630.69 454.00,630.59 455.00,617.68 456.00,561.47 457.00,563.81 458.00,561.36 459.00,561.50 460.00,564.35 461.00,566.59 462.00,623.55 463.00,639.65 464.00,639.65 465.00,614.91 466.00,567.01 467.00,568.61 468.00,566.42 469.00,565.63 470.00,564.24 471.00,562.64 472.00,623.23 473.00,637.09 474.00,636.35 475.00,600.27 476.00,561.57 477.00,564.35 478.00,561.68 479.00,577.36 480.00,630.80 481.00,630.80 482.00,629.73 483.00,561.47 484.00,561.39 485.00,562.75 486.00,565.84 487.00,568.51 488.00,565.84 489.00,603.48 490.00,633.36 491.00,633.47 492.00,614.05 493.00,566.48 494.00,567.44 495.00,566.74 496.00,566.16 497.00,564.35 498.00,561.25 499.00,622.91 500.00,638.39 501.00,637.95 502.00,606.80 503.00,561.68 504.00,563.71 505.00,562.00 506.00,563.71 507.00,561.89 508.00,561.93 509.00,637.20 510.00,635.92 511.00,635.92 512.00,590.37 513.00,566.91 514.00,567.71 515.00,565.63 516.00,568.08 517.00,565.73 518.00,575.12 519.00,633.36 520.00,633.68 521.00,633.15 522.00,575.87 523.00,566.80 524.00,563.92 525.00,561.25 526.00,600.48 527.00,630.59 528.00,630.69 529.00,606.80 530.00,563.07 531.00,567.44 532.00,567.23 533.00,569.10 534.00,567.76 535.00,567.65 536.00,627.28 537.00,638.91 538.00,638.05 539.00,606.90 540.00,561.36 541.00,562.64 542.00,561.68 543.00,564.24 544.00,561.79 545.00,562.35 546.00,636.99 547.00,636.56 548.00,635.92 549.00,585.47 550.00,561.04 551.00,563.39 552.00,561.82 553.00,563.07 554.00,561.57 555.00,582.80 556.00,630.80 557.00,630.80 558.00,625.57 559.00,561.47 560.00,561.28 561.00,562.85 562.00,562.11 563.00,564.03 564.00,562.00 565.00,608.72 566.00,632.29 567.00,631.01 568.00,599.84 569.00,562.21 570.00,567.65 571.00,561.79 572.00,564.77 573.00,561.79 574.00,564.60 575.00,637.63 576.00,638.16 577.00,638.80 578.00,588.77 579.00,562.21 580.00,565.41 581.00,562.03 582.00,590.05 583.00,635.92 584.00,635.92 585.00,632.93 586.00,561.25 587.00,561.39 588.00,562.32 589.00,561.36 590.00,564.56 591.00,562.75 592.00,609.89 593.00,633.89 594.00,633.57 595.00,609.57 596.00,567.12 597.00,568.72 598.00,566.16 599.00,566.59 600.00,568.19 601.00,566.96 602.00,621.09 603.00,633.57 604.00,633.15 605.00,596.56 606.00,564.35 607.00,563.49 608.00,561.28 609.00,563.60 610.00,561.36 611.00,572.45 612.00,637.84 613.00,638.05 614.00,638.27 615.00,581.95 616.00,561.60 617.00,564.13 618.00,565.73 619.00,568.29 620.00,565.63 621.00,584.83 622.00,637.53 623.00,638.05 624.00,637.63 625.00,570.11 626.00,561.89 627.00,567.97 628.00,567.12 629.00,605.20 630.00,632.83 631.00,632.72 632.00,611.62 633.00,565.52 634.00,566.59 635.00,566.48 636.00,565.63 637.00,568.46 638.00,565.73 639.00,619.60 640.00,632.93 641.00,632.83 642.00,594.75 643.00,561.36 644.00,562.57 645.00,561.36 646.00,564.56 647.00,561.47 648.00,573.52 649.00,637.63 650.00,637.86 651.00,638.05 652.00,579.92 653.00,561.36 654.00,563.39 655.00,564.03 656.00,568.51 657.00,565.46 658.00,588.03 659.00,636.88 660.00,635.81 661.00,636.13 662.00,565.52 663.00,561.47 664.00,563.17 665.00,561.39 666.00,564.24 667.00,561.47 668.00,599.97 669.00,632.08 670.00,631.12 671.00,607.55 672.00,561.71 673.00,564.03 674.00,561.25 675.00,567.44 676.00,631.01 677.00,630.59 678.00,631.32 679.00,570.00 680.00,561.36 681.00,562.32 682.00,561.25 683.00,564.28 684.00,561.36 685.00,599.65 686.00,637.63 687.00,637.63 688.00,630.14 689.00,561.36 690.00,561.36 691.00,562.32 692.00,561.36 693.00,564.17 694.00,561.47 695.00,616.08 696.00,636.35 697.00,635.92 698.00,608.51 699.00,561.60 700.00,563.39 701.00,561.57 702.00,563.17 703.00,561.57 704.00,561.36 705.00,630.68 706.00,630.80 707.00,630.80 708.00,577.15 709.00,561.36 710.00,563.17 711.00,561.36 712.00,564.07 713.00,561.36 714.00,588.03 715.00,631.23 716.00,631.44 717.00,619.39 718.00,561.36 719.00,563.53 720.00,561.47 721.00,561.47 722.00,564.56 723.00,561.36 724.00,620.99 725.00,638.16 726.00,637.43 727.00,607.76 728.00,561.47 729.00,564.35 730.00,562.00 731.00,575.33 732.00,637.63 733.00,637.43 734.00,635.92 735.00,579.71 736.00,561.79 737.00,564.99 738.00,566.32 739.00,569.15 740.00,565.95 741.00,584.40 742.00,633.47 743.00,632.51 744.00,632.61 745.00,565.67 746.00,562.64 747.00,563.71 748.00,564.56 749.00,568.61 750.00,565.57 751.00,601.15 752.00,632.51 753.00,632.51 754.00,613.95 755.00,565.95 756.00,565.99 757.00,563.28 758.00,561.57 759.00,563.28 760.00,561.36 761.00,626.18 762.00,638.16 763.00,638.05 764.00,603.81 765.00,561.36 766.00,563.49 767.00,561.79 768.00,564.24 769.00,561.39 770.00,565.20 771.00,636.45 772.00,636.03 773.00,636.67 774.00,582.91 775.00,561.47 776.00,563.96 777.00,561.47 778.00,594.64 779.00,633.57 780.00,633.04 781.00,615.97 782.00,561.28 783.00,562.96 784.00,562.53 785.00,561.68 786.00,564.35 787.00,561.57 788.00,618.47 789.00,631.44 790.00,631.44 791.00,590.05 792.00,561.68 793.00,562.64 794.00,561.25 795.00,565.25 796.00,561.79 797.00,577.57 798.00,640.61 799.00,639.44" fill="none" stroke="#d62728" stroke-width="1.3" opacity="1.0" stroke-linejoin="round"/><text x="816.0" y="570.0" font-family="sans-serif" font-size="13" text-anchor="start" fill="#d62728" font-weight="bold">RRT=16</text><text x="816.0" y="590.0" font-family="sans-serif" font-size="11" text-anchor="start" fill="#444" font-weight="normal">reclaims/inst: 19,712</text><text x="816.0" y="607.0" font-family="sans-serif" font-size="11" text-anchor="start" fill="#444" font-weight="normal">avg 836.9 MiB/s</text><text x="816.0" y="624.0" font-family="sans-serif" font-size="11" text-anchor="start" fill="#444" font-weight="normal">min(dip) 594.0</text><text x="816.0" y="641.0" font-family="sans-serif" font-size="11" text-anchor="start" fill="#444" font-weight="normal">secs&lt;900: 300/719</text><text x="80.0" y="708.0" font-family="sans-serif" font-size="11" text-anchor="start" fill="#666" font-weight="normal">y-axis 550-1000 MiB/s (truncated); dashed grey = OFF baseline avg 954 MiB/s. Lower RRT =&gt; more frequent dips.</text></svg>