<svg xmlns="http://www.w3.org/2000/svg" width="1040" height="600" viewBox="0 0 1040 600"><rect width="1040" height="600" fill="white"/><rect x="70.0" y="56.0" width="700.0" height="470.0" fill="#fbfbfb" stroke="#888" stroke-width="1.0" opacity="1.0"/><line x1="70.0" y1="526.0" x2="770.0" y2="526.0" stroke="#e3e3e3" stroke-width="1.0" opacity="1.0"/><text x="64.0" y="530.0" font-family="sans-serif" font-size="11" text-anchor="end" fill="#444" font-weight="normal">550</text><line x1="70.0" y1="473.8" x2="770.0" y2="473.8" stroke="#e3e3e3" stroke-width="1.0" opacity="1.0"/><text x="64.0" y="477.8" font-family="sans-serif" font-size="11" text-anchor="end" fill="#444" font-weight="normal">600</text><line x1="70.0" y1="421.6" x2="770.0" y2="421.6" stroke="#e3e3e3" stroke-width="1.0" opacity="1.0"/><text x="64.0" y="425.6" font-family="sans-serif" font-size="11" text-anchor="end" fill="#444" font-weight="normal">650</text><line x1="70.0" y1="369.3" x2="770.0" y2="369.3" stroke="#e3e3e3" stroke-width="1.0" opacity="1.0"/><text x="64.0" y="373.3" font-family="sans-serif" font-size="11" text-anchor="end" fill="#444" font-weight="normal">700</text><line x1="70.0" y1="317.1" x2="770.0" y2="317.1" stroke="#e3e3e3" stroke-width="1.0" opacity="1.0"/><text x="64.0" y="321.1" font-family="sans-serif" font-size="11" text-anchor="end" fill="#444" font-weight="normal">750</text><line x1="70.0" y1="264.9" x2="770.0" y2="264.9" stroke="#e3e3e3" stroke-width="1.0" opacity="1.0"/><text x="64.0" y="268.9" font-family="sans-serif" font-size="11" text-anchor="end" fill="#444" font-weight="normal">800</text><line x1="70.0" y1="212.7" x2="770.0" y2="212.7" stroke="#e3e3e3" stroke-width="1.0" opacity="1.0"/><text x="64.0" y="216.7" font-family="sans-serif" font-size="11" text-anchor="end" fill="#444" font-weight="normal">850</text><line x1="70.0" y1="160.4" x2="770.0" y2="160.4" stroke="#e3e3e3" stroke-width="1.0" opacity="1.0"/><text x="64.0" y="164.4" font-family="sans-serif" font-size="11" text-anchor="end" fill="#444" font-weight="normal">900</text><line x1="70.0" y1="108.2" x2="770.0" y2="108.2" stroke="#e3e3e3" stroke-width="1.0" opacity="1.0"/><text x="64.0" y="112.2" font-family="sans-serif" font-size="11" text-anchor="end" fill="#444" font-weight="normal">950</text><line x1="70.0" y1="56.0" x2="770.0" y2="56.0" stroke="#e3e3e3" stroke-width="1.0" opacity="1.0"/><text x="64.0" y="60.0" font-family="sans-serif" font-size="11" text-anchor="end" fill="#444" font-weight="normal">1000</text><line x1="70.0" y1="56.0" x2="70.0" y2="526.0" stroke="#e3e3e3" stroke-width="1.0" opacity="1.0"/><text x="70.0" y="542.0" font-family="sans-serif" font-size="11" text-anchor="middle" fill="#444" font-weight="normal">0</text><line x1="186.7" y1="56.0" x2="186.7" y2="526.0" stroke="#e3e3e3" stroke-width="1.0" opacity="1.0"/><text x="186.7" y="542.0" font-family="sans-serif" font-size="11" text-anchor="middle" fill="#444" font-weight="normal">30</text><line x1="303.3" y1="56.0" x2="303.3" y2="526.0" stroke="#e3e3e3" stroke-width="1.0" opacity="1.0"/><text x="303.3" y="542.0" font-family="sans-serif" font-size="11" text-anchor="middle" fill="#444" font-weight="normal">60</text><line x1="420.0" y1="56.0" x2="420.0" y2="526.0" stroke="#e3e3e3" stroke-width="1.0" opacity="1.0"/><text x="420.0" y="542.0" font-family="sans-serif" font-size="11" text-anchor="middle" fill="#444" font-weight="normal">90</text><line x1="536.7" y1="56.0" x2="536.7" y2="526.0" stroke="#e3e3e3" stroke-width="1.0" opacity="1.0"/><text x="536.7" y="542.0" font-family="sans-serif" font-size="11" text-anchor="middle" fill="#444" font-weight="normal">120</text><line x1="653.3" y1="56.0" x2="653.3" y2="526.0" stroke="#e3e3e3" stroke-width="1.0" opacity="1.0"/><text x="653.3" y="542.0" font-family="sans-serif" font-size="11" text-anchor="middle" fill="#444" font-weight="normal">150</text><line x1="770.0" y1="56.0" x2="770.0" y2="526.0" stroke="#e3e3e3" stroke-width="1.0" opacity="1.0"/><text x="770.0" y="542.0" font-family="sans-serif" font-size="11" text-anchor="middle" fill="#444" font-weight="normal">180</text><line x1="70.0" y1="103.7" x2="770.0" y2="103.7" stroke="#999" stroke-width="1.2" stroke-dasharray="2,3" opacity="1.0"/><text x="70.0" y="44.0" font-family="sans-serif" font-size="15" text-anchor="start" fill="#111" font-weight="bold">Read bandwidth vs time across RRT sweep (16 GiB device)</text><text x="420.0" y="566.0" font-family="sans-serif" font-size="13" text-anchor="middle" fill="#111" font-weight="normal">elapsed time (s)</text><text x="24.0" y="291.0" font-family="sans-serif" font-size="13" text-anchor="middle" fill="#111" font-weight="normal" transform="rotate(-90 24.0 291.0)">read bandwidth (MiB/s)</text><text x="70.0" y="584.0" font-family="sans-serif" font-size="11" text-anchor="start" fill="#666" font-weight="normal">y-axis truncated at 550 MiB/s to make reclaim dips legible; dashed grey = OFF baseline avg 954 MiB/s; BW-log resolution 250 ms</text><polyline points="70.98,112.70 71.94,90.08 72.92,91.51 73.89,90.99 74.86,92.03 75.84,93.08 76.81,93.23 77.78,92.03 78.75,92.03 79.72,93.60 80.69,92.03 81.67,92.03 82.64,92.03 83.61,91.51 84.58,99.34 85.56,115.01 86.53,92.56 87.50,91.51 88.47,97.26 89.44,119.19 90.42,114.49 91.39,115.01 92.36,114.49 93.33,115.01 94.31,114.49 95.28,115.01 96.25,114.49 97.22,115.01 98.19,114.49 99.17,115.01 100.14,116.06 101.11,114.49 102.08,115.77 103.06,94.12 104.03,95.17 105.00,94.64 105.97,94.64 106.94,93.60 107.92,93.08 108.89,93.08 109.86,93.08 110.83,94.12 111.81,93.08 112.78,99.34 113.75,106.66 114.72,93.08 115.69,92.56 116.67,92.56 117.64,92.56 118.61,92.03 119.58,95.69 120.56,93.08 121.53,93.08 122.50,92.56 123.47,92.56 124.44,93.23 125.42,92.56 126.39,93.08 127.36,92.56 128.33,113.44 129.31,117.62 130.28,109.27 131.25,123.37 132.22,98.82 133.19,92.56 134.17,90.99 135.14,93.60 136.11,92.56 137.08,99.34 138.06,92.03 139.03,95.69 140.00,93.08 140.97,93.60 141.94,92.56 142.92,93.08 143.89,96.21 144.86,101.43 145.83,115.53 146.81,115.53 147.78,118.92 148.75,119.19 149.72,121.28 150.69,118.67 151.67,120.23 152.64,115.01 153.61,114.49 154.58,114.49 155.56,114.49 156.53,113.97 157.50,115.53 158.47,115.53 159.44,114.49 160.42,115.01 161.39,115.01 162.36,115.01 163.33,114.49 164.31,110.31 165.28,93.08 166.25,93.08 167.22,95.69 168.19,95.17 169.17,94.64 170.14,98.82 171.11,122.84 172.08,118.67 173.06,99.87 174.03,92.56 175.00,92.03 175.97,95.69 176.94,92.03 177.92,95.17 178.89,95.85 179.86,112.92 180.83,117.62 181.81,118.14 182.78,119.71 183.75,118.14 184.72,121.28 185.69,121.80 186.67,121.28 187.64,101.96 188.61,94.12 189.58,91.51 190.56,91.51 191.53,93.08 192.50,93.60 193.47,92.56 194.44,115.53 195.42,119.71 196.39,114.49 197.36,114.49 198.33,117.62 199.31,116.58 200.28,116.58 201.25,121.80 202.22,121.80 203.19,120.76 204.17,121.80 205.14,120.23 206.11,117.10 207.08,119.71 208.06,123.37 209.03,117.87 210.00,118.67 210.97,120.23 211.94,117.62 212.92,118.14 213.89,95.69 214.86,93.08 215.83,94.64 216.81,92.56 217.78,93.08 218.75,93.60 219.72,93.08 220.69,93.08 221.67,94.12 222.64,95.69 223.61,93.08 224.58,93.60 225.56,93.60 226.53,93.60 227.50,94.12 228.47,95.17 229.44,93.08 230.42,94.12 231.39,95.69 232.36,94.64 233.33,93.08 234.31,93.08 235.28,93.60 236.25,93.60 237.22,93.08 238.19,93.60 239.17,93.60 240.14,93.60 241.11,94.12 242.08,93.60 243.06,93.60 244.03,93.75 245.00,94.12 245.97,93.60 246.94,94.12 247.92,104.04 248.89,119.19 249.86,118.67 250.83,118.67 251.81,119.19 252.78,118.67 253.75,116.06 254.72,115.01 255.69,115.01 256.67,121.28 257.64,109.79 258.61,93.08 259.58,93.60 260.56,93.08 261.53,93.08 262.50,93.08 263.47,93.60 264.44,93.08 265.42,94.12 266.39,94.12 267.36,93.08 268.33,116.58 269.31,114.49 270.28,105.61 271.25,94.12 272.22,94.64 273.19,92.56 274.17,93.60 275.14,92.70 276.11,93.60 277.08,93.08 278.06,93.08 279.03,93.60 280.00,93.60 280.97,93.08 281.94,93.60 282.92,107.70 283.89,114.49 284.86,96.73 285.83,93.60 286.81,93.08 287.78,97.78 288.75,97.26 289.72,93.08 290.69,92.56 291.67,117.10 292.64,118.67 293.61,115.53 294.58,114.49 295.56,115.53 296.53,118.67 297.50,113.97 298.47,93.60 299.44,93.08 300.42,93.60 301.39,93.60 302.36,95.17 303.33,93.60 304.31,93.08 305.28,93.60 306.25,93.08 307.22,93.60 308.19,95.69 309.17,93.60 310.14,95.85 311.11,92.56 312.08,92.56 313.06,92.56 314.03,92.56 315.00,92.56 315.97,92.56 316.94,101.43 317.92,114.49 318.89,116.06 319.86,118.67 320.83,117.62 321.81,117.62 322.78,116.58 323.75,118.14 324.72,118.14 325.69,108.74 326.67,95.69 327.64,95.17 328.61,96.21 329.58,94.12 330.56,96.73 331.53,93.60 332.50,92.56 333.47,96.21 334.44,101.43 335.42,95.32 336.39,91.51 337.36,93.60 338.33,91.51 339.31,95.17 340.28,91.51 341.25,92.03 342.22,92.56 343.19,94.12 344.17,93.60 345.14,91.51 346.11,100.39 347.08,95.17 348.06,117.62 349.03,108.74 350.00,118.67 350.97,120.23 351.94,119.19 352.92,122.32 353.89,118.67 354.86,119.19 355.83,120.23 356.81,114.49 357.78,118.14 358.75,115.25 359.72,114.49 360.69,115.53 361.67,121.28 362.64,117.62 363.61,114.49 364.58,115.01 365.56,115.53 366.53,115.01 367.50,98.82 368.47,95.69 369.44,93.08 370.42,94.12 371.39,92.56 372.36,92.56 373.33,92.03 374.31,95.17 375.28,93.08 376.25,92.56 377.22,108.74 378.19,118.67 379.17,118.14 380.14,122.84 381.11,115.01 382.08,114.49 383.06,115.53 384.03,114.49 385.00,114.20 385.97,115.01 386.94,114.49 387.92,114.49 388.89,114.49 389.86,114.49 390.83,113.97 391.81,113.97 392.78,113.97 393.75,113.97 394.73,114.49 395.69,114.72 396.67,113.97 397.64,113.97 398.61,114.49 399.58,113.97 400.56,113.97 401.53,114.20 402.50,114.49 403.47,114.49 404.44,113.97 405.42,97.78 406.39,93.60 407.36,104.57 408.33,117.87 409.31,113.97 410.28,108.22 411.25,93.60 412.22,92.03 413.19,92.56 414.17,92.56 415.14,92.18 416.11,92.56 417.08,92.56 418.06,92.56 419.03,92.03 420.00,99.34 420.98,116.58 421.94,119.97 422.92,117.62 423.89,119.19 424.86,118.67 425.83,117.10 426.81,110.31 427.78,96.73 428.75,95.32 429.72,94.12 430.69,93.08 431.67,94.64 432.64,95.17 433.61,94.64 434.58,93.60 435.56,93.60 436.53,92.03 437.50,92.03 438.47,93.60 439.44,96.73 440.42,95.32 441.39,94.64 442.36,93.08 443.33,93.08 444.31,93.60 445.28,93.08 446.25,115.53 447.22,117.62 448.19,96.21 449.17,92.56 450.14,94.64 451.11,92.03 452.08,93.08 453.06,95.17 454.03,93.23 455.00,93.08 455.97,94.12 456.94,93.60 457.92,93.60 458.89,93.60 459.86,94.12 460.83,94.12 461.81,93.60 462.78,94.12 463.75,94.12 464.72,93.60 465.69,93.60 466.67,93.08 467.64,95.17 468.61,93.60 469.58,93.60 470.56,96.73 471.53,106.66 472.50,115.01 473.47,116.06 474.44,115.53 475.42,118.67 476.39,118.67 477.36,118.14 478.33,117.10 479.31,118.67 480.28,118.14 481.25,118.14 482.22,121.28 483.19,117.10 484.17,117.62 485.14,107.18 486.11,92.56 487.08,110.83 488.06,122.32 489.03,117.87 490.00,118.67 490.97,101.43 491.94,93.60 492.92,93.08 493.89,93.60 494.86,93.60 495.83,93.08 496.81,94.12 497.78,102.48 498.75,97.78 499.72,93.08 500.69,94.12 501.67,95.69 502.64,99.34 503.61,94.64 504.58,93.60 505.56,93.08 506.53,93.60 507.50,119.71 508.47,118.14 509.44,118.14 510.42,117.10 511.39,92.56 512.36,92.56 513.33,92.03 514.31,97.78 515.28,93.08 516.25,93.60 517.22,93.08 518.19,94.12 519.17,93.23 520.14,93.60 521.11,101.43 522.08,115.01 523.06,96.21 524.03,93.08 525.00,93.08 525.97,92.56 526.94,95.17 527.92,90.47 528.89,91.51 529.86,91.51 530.83,90.99 531.81,110.83 532.78,115.53 533.75,115.01 534.73,105.09 535.69,93.75 536.67,93.60 537.64,92.56 538.61,92.56 539.58,93.08 540.56,96.21 541.53,110.83 542.50,94.12 543.47,91.51 544.44,96.21 545.42,94.64 546.39,95.17 547.36,96.21 548.33,98.30 549.31,100.91 550.28,93.08 551.25,93.23 552.22,93.08 553.19,93.60 554.17,93.08 555.14,93.08 556.11,93.08 557.08,106.13 558.06,114.49 559.03,114.49 560.00,114.49 560.97,114.49 561.94,114.49 562.92,117.10 563.89,118.67 564.86,104.04 565.83,109.27 566.81,115.53 567.78,100.91 568.75,93.60 569.72,93.08 570.70,93.08 571.67,95.32 572.64,93.08 573.61,93.08 574.58,112.40 575.56,106.66 576.53,120.76 577.50,115.53 578.47,114.49 579.44,114.49 580.42,117.62 581.39,118.67 582.36,121.80 583.33,115.01 584.31,114.49 585.28,113.97 586.25,116.06 587.22,95.17 588.19,93.08 589.17,92.18 590.14,93.08 591.11,96.21 592.08,93.08 593.06,92.56 594.03,96.21 595.00,92.56 595.97,94.64 596.94,93.08 597.92,93.08 598.89,93.08 599.86,111.88 600.83,120.76 601.81,115.01 602.78,115.01 603.75,114.49 604.72,114.49 605.69,116.58 606.67,96.73 607.64,92.03 608.61,93.08 609.58,91.51 610.56,92.56 611.53,92.03 612.50,91.51 613.47,91.51 614.44,90.47 615.42,91.13 616.39,93.08 617.36,96.21 618.33,99.87 619.31,114.49 620.28,114.49 621.25,114.49 622.22,114.49 623.19,115.53 624.17,113.97 625.14,114.49 626.11,111.36 627.08,91.51 628.06,92.56 629.03,92.56 630.00,94.64 630.97,91.51 631.94,96.73 632.92,91.13 633.89,93.08 634.86,97.78 635.83,90.99 636.81,91.51 637.78,91.51 638.75,89.94 639.72,90.47 640.69,90.47 641.67,92.03 642.64,99.34 643.61,113.97 644.58,114.49 645.56,114.49 646.53,115.53 647.50,113.97 648.47,114.49 649.44,113.97 650.42,114.72 651.39,114.49 652.36,114.49 653.33,114.49 654.31,114.49 655.28,114.49 656.25,101.96 657.22,100.91 658.19,120.23 659.17,114.49 660.14,115.01 661.11,115.01 662.08,115.53 663.06,116.06 664.03,113.97 665.00,115.01 665.97,117.62 666.94,118.39 667.92,104.57 668.89,92.56 669.86,96.21 670.83,119.71 671.81,113.97 672.78,114.49 673.75,121.28 674.72,114.49 675.69,118.67 676.67,115.53 677.64,114.49 678.61,116.58 679.58,118.67 680.56,117.10 681.53,118.14 682.50,118.39 683.47,117.62 684.44,121.28 685.42,122.32 686.39,114.49 687.36,119.19 688.33,120.76 689.31,121.28 690.28,114.49 691.25,114.49 692.22,116.58 693.19,114.49 694.17,114.49 695.14,120.23 696.11,118.67 697.08,107.70 698.06,93.08 699.03,93.60 700.00,93.08 700.97,93.08 701.94,93.60 702.92,95.17 703.89,93.60 704.86,93.08 705.83,93.60 706.81,93.60 707.78,93.60 708.75,93.08 709.72,93.08 710.69,93.08 711.67,108.74 712.64,93.60 713.61,93.23 714.58,93.60 715.56,93.08 716.53,95.69 717.50,93.08 718.47,93.08 719.44,93.08 720.42,93.08 721.39,92.56 722.36,92.56 723.33,93.08 724.31,93.08 725.28,93.08 726.25,93.60 727.22,93.60 728.19,101.96 729.17,113.97 730.14,113.97 731.11,113.97 732.08,115.53 733.06,113.97 734.03,118.14 735.00,118.14 735.97,115.01 736.94,118.14 737.92,116.06 738.89,120.76 739.86,115.01 740.83,118.67 741.81,121.80 742.78,119.71 743.75,114.49 744.72,114.49 745.69,117.62 746.67,118.14 747.64,115.01 748.61,114.72 749.58,114.49 750.56,114.49 751.53,115.01 752.50,114.49 753.47,114.49 754.44,115.01 755.42,115.01 756.39,114.49 757.36,114.49 758.33,107.18 759.31,95.69 760.28,93.60 761.25,93.60 762.22,93.08 763.19,93.08 764.17,93.08 765.14,92.56 766.11,113.44 767.08,115.01 768.06,117.62 769.03,117.10" fill="none" stroke="#555555" stroke-width="1.2" opacity="0.55" stroke-linejoin="round"/><polyline points="70.97,123.37 71.94,118.92 72.92,118.67 73.89,118.67 74.86,117.10 75.83,117.62 76.81,117.10 77.78,117.35 78.75,118.14 79.72,118.14 80.69,126.50 81.67,114.49 82.64,114.72 83.61,119.71 84.58,119.19 85.56,114.49 86.53,115.01 87.50,117.62 88.47,119.97 89.44,119.19 90.42,103.52 91.39,92.56 92.36,91.51 93.33,90.08 94.31,92.03 95.28,92.03 96.25,92.03 97.22,90.99 98.19,95.17 99.17,95.85 100.14,95.17 101.11,91.51 102.08,93.08 103.06,94.12 104.03,94.12 105.00,90.99 105.98,92.56 106.94,93.23 107.92,90.99 108.89,96.21 109.86,93.08 110.83,94.64 111.81,95.85 112.78,95.69 113.75,92.56 114.72,93.08 115.69,94.64 116.67,90.99 117.64,91.65 118.61,92.56 119.58,94.12 120.56,95.17 121.53,98.82 122.50,92.56 123.47,92.70 124.44,92.56 125.42,92.56 126.39,92.56 127.36,93.08 128.33,92.56 129.31,93.75 130.28,92.56 131.25,92.56 132.22,92.56 133.19,92.03 134.17,93.08 135.14,92.18 136.11,92.03 137.08,93.60 138.06,92.56 139.03,92.56 140.00,93.08 140.97,93.75 141.94,92.56 142.92,92.03 143.89,92.56 144.86,93.08 145.83,116.06 146.81,116.06 147.78,117.35 148.75,118.14 149.72,117.62 150.69,117.62 151.67,117.62 152.64,118.14 153.61,118.39 154.58,120.76 155.56,118.14 156.53,113.44 157.50,95.69 158.47,93.75 159.44,95.17 160.42,110.83 161.39,116.58 162.36,118.67 163.33,117.62 164.31,115.77 165.28,121.28 166.25,121.28 167.22,120.76 168.19,117.10 169.17,106.66 170.14,93.23 171.11,92.56 172.08,92.56 173.06,92.56 174.03,92.56 175.00,92.70 175.97,94.12 176.94,93.08 177.92,96.21 178.89,117.10 179.86,114.49 180.83,94.28 181.81,96.21 182.78,92.03 183.75,92.56 184.72,92.56 185.69,94.64 186.67,94.28 187.64,94.12 188.61,92.56 189.58,92.56 190.56,92.03 191.53,93.75 192.50,95.17 193.47,94.12 194.44,93.60 195.42,92.03 196.39,91.65 197.36,90.47 198.33,92.03 199.31,109.79 200.28,117.10 201.25,93.60 202.22,90.08 203.19,104.57 204.17,117.10 205.14,117.62 206.11,117.62 207.08,117.87 208.06,118.14 209.03,104.04 210.00,93.60 210.97,93.60 211.94,117.87 212.92,117.10 213.89,117.62 214.86,118.14 215.83,117.62 216.81,117.35 217.78,117.62 218.75,118.14 219.72,111.36 220.69,90.47 221.67,89.94 222.64,109.48 223.61,110.31 224.58,93.60 225.56,93.08 226.53,92.18 227.50,94.12 228.47,92.56 229.44,92.56 230.42,91.51 231.39,94.12 232.36,93.75 233.33,91.51 234.31,122.32 235.28,120.76 236.25,106.66 237.23,119.19 238.19,113.68 239.17,114.49 240.14,115.53 241.11,113.97 242.08,113.97 243.06,113.68 244.03,113.97 245.00,118.14 245.97,116.58 246.95,114.49 247.92,113.68 248.89,97.26 249.86,93.60 250.83,95.17 251.81,93.60 252.78,93.23 253.75,93.08 254.72,94.64 255.69,93.08 256.67,93.60 257.64,93.23 258.61,94.12 259.58,101.43 260.56,115.53 261.53,119.71 262.50,117.87 263.47,117.62 264.44,116.58 265.42,117.10 266.39,117.10 267.36,117.62 268.33,118.92 269.31,113.44 270.28,113.44 271.25,113.97 272.22,121.28 273.19,115.01 274.17,100.39 275.14,93.23 276.11,93.08 277.08,93.08 278.06,95.69 279.03,93.08 280.00,94.28 280.97,92.56 281.94,95.17 282.92,92.56 283.89,92.03 284.86,92.70 285.83,111.88 286.81,109.79 287.78,93.08 288.75,93.08 289.72,92.70 290.69,92.56 291.67,93.08 292.64,92.56 293.61,93.60 294.58,93.23 295.56,92.56 296.53,92.56 297.50,92.56 298.47,93.08 299.44,93.23 300.42,92.56 301.39,92.56 302.36,93.08 303.33,92.56 304.31,92.56 305.28,92.56 306.25,93.23 307.22,91.51 308.19,92.03 309.17,92.56 310.14,93.08 311.12,92.03 312.08,92.70 313.06,92.56 314.03,92.03 315.00,92.56 315.97,94.12 316.94,92.70 317.92,96.21 318.89,113.44 319.86,122.32 320.83,111.88 321.81,108.22 322.78,121.28 323.75,118.92 324.72,117.62 325.69,113.44 326.67,100.91 327.64,91.51 328.61,92.18 329.58,91.51 330.56,91.51 331.53,92.03 332.50,91.51 333.47,91.65 334.44,96.73 335.42,113.97 336.39,118.14 337.36,119.19 338.33,120.23 339.31,119.97 340.28,106.66 341.25,92.03 342.22,92.56 343.19,112.92 344.17,117.35 345.14,118.67 346.11,117.10 347.08,118.14 348.06,100.91 349.03,92.70 350.00,94.12 350.97,95.17 351.94,94.12 352.92,94.64 353.89,92.70 354.86,115.01 355.83,120.76 356.81,112.92 357.78,118.67 358.75,118.67 359.73,94.64 360.69,94.80 361.67,92.56 362.64,92.56 363.61,94.12 364.58,94.64 365.56,94.28 366.53,92.56 367.50,95.69 368.47,92.56 369.44,92.56 370.42,92.56 371.39,93.23 372.36,92.03 373.33,92.03 374.31,92.56 375.28,92.56 376.25,92.18 377.22,92.03 378.19,92.56 379.17,103.52 380.14,117.10 381.12,113.97 382.08,113.68 383.06,113.97 384.03,117.10 385.00,120.23 385.97,121.28 386.94,120.23 387.92,121.02 388.89,100.39 389.86,92.03 390.83,92.03 391.81,94.64 392.78,93.75 393.75,92.56 394.72,93.60 395.69,93.08 396.67,93.08 397.64,93.08 398.61,94.28 399.58,94.12 400.56,92.56 401.53,92.03 402.50,92.56 403.47,92.18 404.44,92.03 405.42,92.03 406.39,92.56 407.36,92.56 408.34,92.03 409.31,93.75 410.28,94.12 411.25,93.60 412.22,92.56 413.19,107.38 414.17,103.00 415.14,92.56 416.11,91.51 417.08,96.21 418.06,94.12 419.03,97.95 420.00,92.03 420.97,92.03 421.94,91.51 422.92,93.60 423.89,117.35 424.86,114.49 425.83,121.80 426.81,113.97 427.78,115.01 428.75,114.49 429.72,101.09 430.69,93.60 431.67,91.51 432.64,93.60 433.61,119.71 434.58,116.58 435.56,113.97 436.53,113.68 437.50,114.49 438.47,113.44 439.44,121.80 440.42,115.01 441.39,105.61 442.36,94.80 443.33,93.60 444.31,93.60 445.28,93.60 446.25,93.08 447.22,93.08 448.19,94.80 449.17,93.08 450.14,93.60 451.11,92.56 452.08,92.56 453.06,92.03 454.03,94.80 455.00,92.03 455.97,93.08 456.94,93.60 457.92,92.56 458.89,93.60 459.86,92.18 460.83,94.64 461.81,92.56 462.78,92.56 463.75,92.70 464.72,93.08 465.69,98.30 466.67,92.03 467.64,92.56 468.61,93.08 469.58,92.18 470.56,93.08 471.53,93.08 472.50,92.56 473.47,92.56 474.44,92.70 475.42,92.56 476.39,94.12 477.36,93.08 478.33,93.08 479.31,93.60 480.28,92.70 481.25,92.03 482.22,94.64 483.19,92.03 484.17,93.08 485.14,92.70 486.11,92.56 487.08,92.56 488.06,92.56 489.03,92.56 490.00,93.08 490.97,92.70 491.94,92.56 492.92,93.08 493.89,93.08 494.86,92.56 495.83,93.23 496.81,92.56 497.78,92.56 498.75,95.17 499.72,93.08 500.70,92.56 501.67,92.70 502.64,92.56 503.61,92.56 504.58,93.08 505.56,92.18 506.53,92.03 507.50,94.12 508.47,92.56 509.44,92.56 510.42,92.70 511.39,92.03 512.36,92.56 513.33,92.56 514.31,93.08 515.28,110.31 516.25,116.82 517.22,117.62 518.19,121.28 519.17,121.28 520.14,116.06 521.11,93.08 522.09,92.56 523.06,92.70 524.03,92.03 525.00,91.51 525.97,92.03 526.94,94.12 527.92,94.80 528.89,92.03 529.86,109.27 530.83,107.18 531.81,111.88 532.78,117.62 533.75,116.82 534.72,101.96 535.69,94.12 536.67,93.08 537.64,93.08 538.61,95.17 539.58,98.99 540.56,100.91 541.53,92.56 542.50,92.56 543.47,92.03 544.45,92.03 545.42,92.70 546.39,93.08 547.36,94.12 548.33,93.08 549.31,93.08 550.28,93.60 551.25,92.18 552.22,92.03 553.19,93.08 554.17,92.56 555.14,92.03 556.11,94.28 557.08,93.08 558.06,94.64 559.03,92.56 560.00,93.08 560.97,92.03 561.94,90.61 562.92,93.08 563.89,94.12 564.86,94.12 565.83,94.12 566.81,92.03 567.78,92.18 568.75,109.79 569.72,120.23 570.69,114.49 571.67,116.58 572.64,98.82 573.61,92.18 574.58,94.64 575.56,92.56 576.53,92.03 577.50,94.12 578.47,92.70 579.44,92.03 580.42,96.73 581.39,118.14 582.37,116.58 583.33,98.99 584.31,91.51 585.28,92.56 586.25,90.47 587.23,92.56 588.19,107.91 589.17,118.14 590.14,120.76 591.11,117.62 592.08,118.67 593.06,118.67 594.03,116.82 595.00,117.10 595.97,117.62 596.94,112.92 597.92,96.73 598.89,119.71 599.87,92.56 600.83,125.74 601.81,465.42 602.78,465.94 603.75,467.51 604.72,205.88 605.69,116.58 606.67,119.97 607.64,122.84 608.61,115.53 609.58,115.53 610.56,92.56 611.53,93.08 612.50,92.18 613.47,108.22 614.44,116.58 615.42,97.78 616.39,95.17 617.36,95.32 618.33,94.12 619.31,92.03 620.28,92.56 621.25,92.03 622.22,92.03 623.19,92.18 624.17,93.08 625.14,92.03 626.11,92.03 627.08,109.27 628.06,113.44 629.03,115.25 630.00,115.53 630.97,95.17 631.94,95.17 632.92,93.08 633.89,93.08 634.86,92.70 635.83,95.69 636.81,92.56 637.78,97.78 638.75,120.23 639.73,118.67 640.69,112.63 641.67,113.97 642.64,117.62 643.61,118.14 644.58,117.62 645.56,122.84 646.53,106.86 647.50,91.51 648.47,90.47 649.44,90.47 650.42,91.51 651.39,91.51 652.36,90.61 653.33,90.99 654.31,101.43 655.28,116.06 656.25,117.62 657.22,118.39 658.19,121.80 659.17,115.01 660.14,116.58 661.11,116.58 662.08,117.62 663.06,98.47 664.03,92.56 665.00,94.12 665.97,96.73 666.94,92.03 667.92,94.12 668.89,95.85 669.86,93.08 670.83,93.08 671.81,95.17 672.78,92.03 673.75,95.69 674.72,92.70 675.69,90.47 676.67,90.47 677.64,93.08 678.61,97.26 679.58,118.67 680.56,113.68 681.53,119.19 682.50,113.97 683.47,117.62 684.45,116.58 685.42,95.32 686.39,92.03 687.36,93.08 688.33,92.56 689.31,93.08 690.28,92.70 691.25,92.56 692.22,93.08 693.19,93.08 694.17,93.08 695.14,95.32 696.11,92.03 697.08,93.08 698.06,112.92 699.03,121.28 700.00,119.97 700.97,100.91 701.94,93.08 702.92,90.99 703.89,112.40 704.86,117.87 705.83,118.14 706.81,116.58 707.78,113.44 708.75,115.01 709.72,115.01 710.70,116.58 711.67,118.39 712.64,118.14 713.61,117.62 714.58,114.49 715.56,112.92 716.53,120.23 717.50,117.35 718.47,113.97 719.44,114.49 720.42,115.01 721.39,113.44 722.36,113.97 723.33,114.20 724.31,117.10 725.28,120.76 726.25,116.06 727.22,107.18 728.19,92.56 729.17,92.70 730.14,92.56 731.11,92.56 732.08,93.08 733.06,92.03 734.03,92.70 735.00,92.56 735.97,93.08 736.94,92.56 737.92,94.64 738.89,92.70 739.86,96.21 740.83,95.17 741.81,93.60 742.78,92.56 743.75,94.28 744.72,95.69 745.69,92.56 746.67,93.08 747.64,94.12 748.61,93.23 749.58,96.21 750.56,92.56 751.53,92.56 752.50,105.09 753.47,121.28 754.44,117.87 755.42,117.10 756.39,113.97 757.36,114.49 758.33,112.92 759.31,106.66 760.28,97.42 761.25,95.69 762.22,93.60 763.19,94.12 764.17,92.03 765.14,92.03 766.11,91.65 767.08,92.03 768.06,93.08 769.03,92.03" fill="none" stroke="#1f77b4" stroke-width="1.4" opacity="0.9" stroke-linejoin="round"/><polyline points="70.97,107.70 71.94,100.91 72.92,126.50 73.89,112.63 74.86,113.44 75.83,112.92 76.81,112.40 77.78,112.92 78.75,119.71 79.72,112.40 80.69,116.06 81.67,116.30 82.64,100.91 83.61,95.17 84.58,92.03 85.56,91.51 86.53,91.51 87.50,111.36 88.47,112.63 89.44,99.34 90.42,95.17 91.39,92.56 92.36,91.51 93.33,90.47 94.31,90.99 95.28,94.64 96.25,89.94 97.22,89.56 98.19,92.56 99.17,93.08 100.14,94.12 101.11,90.47 102.08,96.21 103.06,95.69 104.03,91.13 105.00,90.99 105.97,90.99 106.94,94.12 107.92,91.51 108.89,90.47 109.86,92.56 110.83,94.64 111.81,93.60 112.78,92.70 113.75,114.49 114.72,119.19 115.69,118.14 116.67,115.53 117.64,116.58 118.61,116.58 119.58,97.95 120.56,111.36 121.53,92.03 122.50,90.99 123.47,90.99 124.44,91.65 125.42,90.99 126.39,91.51 127.36,93.08 128.33,94.12 129.31,96.21 130.28,95.85 131.25,94.64 132.22,92.03 133.19,93.60 134.17,94.64 135.14,90.99 136.11,90.47 137.08,103.71 138.06,116.58 139.03,116.06 140.00,105.09 140.97,90.47 141.94,89.94 142.92,92.56 143.89,90.61 144.86,90.99 145.83,95.69 146.81,94.12 147.78,93.08 148.75,94.12 149.72,92.03 150.69,91.13 151.67,92.03 152.64,94.12 153.61,93.60 154.58,91.51 155.56,91.51 156.53,91.51 157.50,90.99 158.47,91.13 159.44,90.99 160.42,91.51 161.39,92.03 162.36,116.06 163.33,98.47 164.31,91.51 165.28,90.47 166.25,91.51 167.22,92.03 168.19,90.99 169.17,92.56 170.14,96.37 171.11,95.17 172.08,115.01 173.06,118.67 174.03,119.19 175.00,113.97 175.97,117.10 176.94,117.10 177.92,94.64 178.89,93.75 179.86,90.47 180.83,90.99 181.81,92.56 182.78,92.56 183.75,92.56 184.72,96.21 185.69,90.47 186.67,92.03 187.64,94.64 188.61,93.08 189.58,90.99 190.56,90.61 191.53,93.08 192.50,94.64 193.47,117.10 194.44,112.92 195.42,114.49 196.39,103.52 197.37,100.39 198.33,90.08 199.31,105.61 200.28,89.94 201.25,251.83 202.22,465.42 203.19,465.94 204.17,452.89 205.14,93.23 206.11,91.51 207.08,90.99 208.06,92.56 209.03,90.47 210.00,93.60 210.97,93.60 211.94,103.52 212.92,114.20 213.89,92.03 214.86,93.08 215.83,99.34 216.81,120.23 217.78,117.10 218.75,116.58 219.72,121.28 220.69,115.01 221.67,112.40 222.64,113.15 223.61,112.40 224.58,113.44 225.56,118.14 226.53,116.58 227.50,100.57 228.47,95.17 229.44,92.56 230.42,92.56 231.39,92.03 232.36,115.53 233.33,116.58 234.31,119.19 235.28,96.21 236.25,91.13 237.22,90.99 238.19,91.51 239.17,91.51 240.14,92.56 241.11,91.51 242.08,90.99 243.06,91.65 244.03,90.99 245.00,91.51 245.97,91.51 246.94,91.51 247.92,90.99 248.89,90.99 249.87,90.99 250.83,91.13 251.81,90.99 252.78,90.99 253.75,119.71 254.72,120.76 255.69,117.10 256.67,119.71 257.64,120.23 258.61,106.34 259.58,90.99 260.56,92.03 261.53,94.12 262.50,90.99 263.47,91.51 264.44,91.51 265.42,92.03 266.39,92.70 267.36,91.51 268.33,91.51 269.31,92.56 270.28,93.08 271.25,92.03 272.22,110.01 273.19,115.01 274.17,111.36 275.14,92.03 276.11,91.51 277.08,92.03 278.06,91.51 279.03,92.03 280.00,91.65 280.97,91.51 281.94,95.17 282.92,91.51 283.89,91.51 284.86,92.03 285.83,92.18 286.81,113.44 287.78,116.58 288.75,118.67 289.72,111.88 290.69,118.67 291.67,115.01 292.64,117.62 293.61,117.62 294.58,121.28 295.56,119.44 296.53,119.19 297.50,120.23 298.47,121.28 299.44,118.14 300.42,115.53 301.39,110.83 302.37,91.51 303.33,90.61 304.31,94.12 305.28,94.64 306.25,92.56 307.22,93.60 308.19,112.40 309.17,115.77 310.14,113.44 311.11,112.92 312.08,117.10 313.06,112.92 314.03,112.40 315.00,112.63 315.97,115.53 316.94,100.39 317.92,92.03 318.89,92.03 319.86,109.79 320.83,111.88 321.81,112.92 322.78,117.10 323.75,114.49 324.72,117.35 325.69,99.34 326.67,91.51 327.64,92.03 328.61,116.58 329.58,115.53 330.56,116.06 331.53,120.49 332.50,116.58 333.47,116.58 334.44,132.24 335.42,116.58 336.39,395.97 337.36,469.16 338.33,467.51 339.31,337.48 340.28,120.23 341.25,104.04 342.23,91.51 343.19,91.65 344.17,94.64 345.14,119.19 346.11,118.67 347.08,92.03 348.06,91.13 349.03,91.51 350.00,90.99 350.97,93.60 351.94,92.56 352.92,94.64 353.89,91.51 354.87,92.56 355.83,91.65 356.81,91.51 357.78,92.03 358.75,92.03 359.72,92.03 360.69,90.99 361.67,93.23 362.64,91.51 363.61,91.51 364.58,91.51 365.56,91.51 366.53,93.23 367.50,92.03 368.47,92.03 369.44,92.03 370.42,93.60 371.39,96.73 372.36,91.65 373.33,91.51 374.31,90.99 375.28,92.03 376.25,91.51 377.23,92.03 378.19,93.75 379.17,90.99 380.14,91.51 381.11,90.99 382.08,92.03 383.06,91.65 384.03,91.51 385.00,90.99 385.97,108.22 386.94,112.92 387.92,112.63 388.89,112.92 389.86,112.92 390.83,112.40 391.81,107.18 392.78,119.19 393.75,118.92 394.72,117.10 395.69,117.62 396.67,117.10 397.64,117.10 398.61,116.58 399.59,116.58 400.56,116.82 401.53,116.58 402.50,116.58 403.47,117.10 404.44,116.06 405.42,116.30 406.39,117.10 407.36,107.70 408.33,116.58 409.31,112.92 410.28,111.88 411.25,112.63 412.22,118.14 413.19,116.58 414.17,119.71 415.14,118.14 416.11,110.83 417.09,94.64 418.06,95.32 419.03,94.12 420.00,91.51 420.97,91.51 421.94,92.56 422.92,91.65 423.89,93.08 424.86,93.08 425.83,90.47 426.81,93.08 427.78,103.19 428.75,113.97 429.72,118.67 430.69,100.91 431.67,120.76 432.64,120.76 433.61,116.58 434.58,97.95 435.56,89.94 436.53,91.51 437.50,94.12 438.47,90.99 439.44,89.94 440.42,90.61 441.39,89.42 442.36,89.94 443.33,89.42 444.31,94.64 445.28,92.18 446.25,93.08 447.22,90.99 448.19,92.03 449.17,94.64 450.14,91.13 451.11,94.64 452.08,93.08 453.06,94.12 454.03,92.03 455.00,91.13 455.97,90.47 456.94,90.47 457.92,109.27 458.89,112.92 459.86,114.20 460.83,94.12 461.81,92.56 462.78,92.03 463.75,93.60 464.72,92.18 465.69,91.51 466.67,99.87 467.64,92.03 468.61,99.87 469.58,92.03 470.56,292.47 471.53,431.48 472.50,431.48 473.47,303.53 474.44,90.99 475.42,91.51 476.39,93.75 477.36,92.03 478.33,91.51 479.31,92.03 480.28,91.51 481.25,91.51 482.22,91.65 483.19,93.60 484.17,91.51 485.14,91.51 486.11,92.03 487.08,91.51 488.06,91.13 489.03,91.51 490.00,91.51 490.97,107.70 491.94,98.82 492.92,91.51 493.89,92.56 494.86,94.28 495.83,93.08 496.81,89.94 497.78,91.51 498.75,91.51 499.72,92.56 500.69,93.08 501.67,89.56 502.64,93.08 503.61,91.51 504.58,91.51 505.56,89.42 506.53,90.61 507.50,91.51 508.47,90.47 509.44,89.94 510.42,92.03 511.39,93.23 512.36,90.99 513.33,91.51 514.31,90.99 515.28,90.47 516.25,90.61 517.22,89.94 518.19,89.94 519.17,94.12 520.14,91.51 521.11,91.13 522.08,89.94 523.06,90.99 524.03,93.08 525.00,89.94 525.97,90.61 526.94,92.56 527.92,92.56 528.89,88.90 529.86,89.94 530.83,91.65 531.81,92.56 532.78,89.94 533.75,89.94 534.72,91.51 535.69,93.23 536.67,89.94 537.64,93.08 538.61,93.08 539.58,96.73 540.56,90.99 541.53,90.99 542.50,92.03 543.47,97.78 544.44,90.99 545.42,90.61 546.39,91.51 547.36,90.47 548.33,89.42 549.31,90.47 550.28,99.87 551.25,116.58 552.23,111.36 553.19,92.18 554.17,94.12 555.14,90.99 556.11,115.01 557.08,117.10 558.06,112.92 559.03,118.14 560.00,113.15 560.97,119.71 561.94,120.76 562.92,113.97 563.89,115.01 564.86,113.97 565.83,112.92 566.81,125.98 567.78,97.95 568.75,116.06 569.72,112.92 570.69,127.54 571.67,119.19 572.64,95.69 573.61,110.83 574.58,112.92 575.56,103.19 576.53,95.17 577.50,92.56 578.47,91.51 579.44,91.51 580.42,92.03 581.39,92.03 582.36,91.65 583.33,90.99 584.31,91.51 585.28,92.56 586.25,91.51 587.22,92.03 588.19,91.51 589.17,92.70 590.14,99.87 591.11,116.58 592.08,112.92 593.06,112.40 594.03,106.13 595.00,111.36 595.98,117.10 596.94,112.63 597.92,116.58 598.89,112.40 599.86,116.58 600.83,112.92 601.81,119.19 602.78,117.62 603.75,116.82 604.72,389.18 605.69,443.49 606.67,443.49 607.64,247.66 608.61,112.40 609.58,113.15 610.56,118.14 611.53,111.88 612.50,113.97 613.47,112.92 614.45,117.10 615.42,123.11 616.39,113.44 617.36,113.97 618.33,119.71 619.31,100.91 620.28,93.60 621.25,96.73 622.22,120.49 623.19,114.49 624.17,118.67 625.14,112.40 626.11,112.92 627.08,112.92 628.06,95.69 629.03,91.65 630.00,100.91 630.97,107.70 631.94,92.03 632.92,95.17 633.89,107.70 634.86,119.19 635.84,117.10 636.81,115.77 637.78,112.92 638.75,114.49 639.72,118.14 640.69,116.06 641.67,110.83 642.64,110.31 643.61,92.18 644.58,92.56 645.56,93.08 646.53,93.08 647.50,92.03 648.47,95.69 649.44,92.56 650.42,94.28 651.39,92.56 652.36,92.56 653.33,92.56 654.31,92.56 655.28,92.03 656.25,94.64 657.22,96.21 658.19,107.70 659.17,112.63 660.14,102.48 661.11,95.69 662.08,93.60 663.06,92.03 664.03,90.99 665.00,92.03 665.97,96.21 666.94,93.60 667.92,93.60 668.89,90.08 669.86,94.12 670.83,92.03 671.81,92.03 672.78,92.03 673.75,93.08 674.72,114.49 675.69,108.74 676.67,122.32 677.64,117.10 678.61,116.82 679.58,115.53 680.56,116.58 681.53,117.10 682.50,117.62 683.47,116.06 684.44,114.49 685.42,113.97 686.39,120.23 687.36,114.20 688.33,115.53 689.31,122.84 690.28,103.52 691.25,93.60 692.22,91.51 693.19,93.08 694.17,93.75 695.14,92.03 696.11,93.08 697.08,94.12 698.06,92.03 699.03,92.03 700.00,96.73 700.98,98.82 701.94,92.18 702.92,92.03 703.89,92.56 704.86,92.03 705.83,94.12 706.81,92.56 707.78,92.03 708.75,95.69 709.72,94.64 710.69,92.03 711.67,91.51 712.64,92.56 713.62,93.60 714.58,92.70 715.56,97.26 716.53,92.56 717.50,92.56 718.47,90.99 719.44,94.12 720.42,93.08 721.39,94.64 722.36,111.88 723.34,115.01 724.31,114.72 725.28,119.19 726.25,116.58 727.22,115.53 728.19,117.62 729.17,116.58 730.14,97.78 731.11,92.56 732.08,89.94 733.06,95.32 734.03,90.47 735.00,99.87 735.97,90.99 736.94,105.09 737.92,90.47 738.89,273.77 739.86,465.42 740.83,466.99 741.81,424.69 742.78,92.03 743.75,92.03 744.72,102.48 745.69,114.49 746.67,92.03 747.64,92.70 748.61,89.42 749.58,95.17 750.56,91.51 751.53,94.12 752.50,92.03 753.47,92.03 754.44,97.78 755.42,116.06 756.39,112.10 757.36,120.76 758.33,116.06 759.31,117.10 760.28,113.44 761.25,117.10 762.22,117.62 763.19,115.77 764.17,117.10 765.14,116.58 766.11,116.58 767.08,99.34 768.06,92.56 769.03,93.08" fill="none" stroke="#2ca02c" stroke-width="1.4" opacity="0.9" stroke-linejoin="round"/><polyline points="70.97,115.01 71.94,115.53 72.92,119.44 73.89,112.40 74.86,99.34 75.83,92.56 76.81,95.17 77.78,93.60 78.75,93.23 79.72,93.60 80.69,93.60 81.67,93.60 82.64,93.60 83.61,93.60 84.58,93.23 85.56,93.60 86.53,106.66 87.50,117.10 88.47,109.79 89.44,94.80 90.42,93.60 91.39,95.17 92.36,93.08 93.33,93.60 94.31,93.08 95.28,92.18 96.25,92.56 97.22,97.78 98.19,92.56 99.17,107.18 100.14,110.01 101.11,112.92 102.08,445.58 103.06,473.78 104.03,477.43 105.00,303.53 105.97,116.58 106.94,116.58 107.92,113.15 108.89,94.12 109.86,93.08 110.83,92.56 111.81,92.56 112.78,93.08 113.75,92.56 114.72,92.70 115.69,92.56 116.67,94.12 117.64,93.08 118.62,96.21 119.58,93.23 120.56,93.08 121.53,95.17 122.50,92.56 123.47,92.18 124.44,92.03 125.42,93.08 126.39,95.69 127.36,93.08 128.33,93.60 129.31,93.75 130.28,93.08 131.25,92.56 132.22,97.26 133.19,93.08 134.17,106.86 135.14,92.56 136.11,280.56 137.08,458.63 138.06,459.68 139.03,398.06 140.00,93.23 140.97,92.03 141.94,106.66 142.92,112.92 143.89,114.49 144.86,113.15 145.83,104.57 146.81,112.40 147.78,116.58 148.75,116.58 149.73,117.10 150.69,121.54 151.67,122.84 152.64,119.71 153.61,119.71 154.58,119.71 155.56,120.76 156.53,120.23 157.50,120.23 158.47,119.44 159.44,113.44 160.42,112.40 161.39,112.92 162.36,112.40 163.33,113.44 164.31,98.99 165.28,92.56 166.25,112.40 167.22,104.57 168.19,90.47 169.17,99.87 170.14,92.18 171.11,346.36 172.08,431.48 173.06,432.00 174.03,249.22 175.00,92.03 175.97,91.13 176.94,89.42 177.92,90.99 178.89,91.51 179.86,90.99 180.84,90.99 181.81,92.18 182.78,91.51 183.75,92.03 184.72,90.47 185.69,97.78 186.67,113.15 187.64,112.40 188.61,115.01 189.58,112.92 190.56,114.49 191.53,116.82 192.50,116.58 193.47,117.10 194.44,116.58 195.42,116.58 196.39,110.83 197.36,95.85 198.33,93.08 199.31,97.26 200.28,94.64 201.25,100.91 202.23,93.60 203.19,107.91 204.17,93.08 205.14,230.42 206.11,435.13 207.09,433.04 208.06,367.97 209.03,93.08 210.00,92.56 210.97,92.56 211.94,92.03 212.92,92.18 213.89,92.56 214.86,92.03 215.83,92.56 216.81,94.12 217.78,92.56 218.75,92.70 219.72,92.03 220.69,92.56 221.67,92.56 222.64,92.56 223.61,92.70 224.58,102.48 225.56,116.06 226.53,112.92 227.50,112.40 228.47,113.97 229.44,121.02 230.42,116.06 231.39,112.92 232.36,112.92 233.33,118.67 234.31,113.15 235.28,123.37 236.25,113.44 237.22,128.07 238.19,113.44 239.17,112.92 240.14,466.54 241.11,474.82 242.08,473.78 243.06,269.59 244.03,112.92 245.00,118.39 245.97,121.28 246.94,108.74 247.92,90.99 248.89,93.08 249.87,93.08 250.83,93.75 251.81,90.47 252.78,90.99 253.75,92.03 254.72,90.99 255.70,91.51 256.67,91.13 257.64,91.51 258.61,90.47 259.58,93.08 260.56,93.08 261.53,90.99 262.50,90.61 263.47,92.03 264.44,90.99 265.42,96.21 266.39,113.44 267.37,117.10 268.33,121.54 269.31,116.58 270.28,130.68 271.25,117.10 272.22,318.68 273.19,463.92 274.17,459.16 275.14,380.82 276.11,94.12 277.08,92.03 278.06,95.17 279.03,92.18 280.00,94.12 280.97,93.60 281.94,92.56 282.92,93.60 283.89,93.60 284.87,93.60 285.83,94.28 286.81,90.47 287.78,91.51 288.75,94.64 289.72,92.56 290.69,92.70 291.67,93.08 292.64,93.08 293.61,110.31 294.58,116.06 295.56,100.91 296.53,93.08 297.50,93.23 298.47,93.60 299.44,93.08 300.42,93.08 301.39,96.73 302.36,117.62 303.33,116.82 304.31,120.23 305.28,95.17 306.25,167.76 307.22,434.09 308.19,438.27 309.17,433.04 310.14,97.42 311.11,95.69 312.08,94.64 313.06,92.56 314.03,93.08 315.00,94.64 315.97,93.75 316.94,92.56 317.92,93.60 318.89,94.12 319.86,93.08 320.83,93.23 321.81,93.08 322.78,94.12 323.75,93.08 324.72,92.56 325.69,111.05 326.67,113.97 327.64,116.58 328.61,118.67 329.58,111.88 330.56,95.17 331.53,93.08 332.50,93.23 333.47,93.08 334.44,92.56 335.42,95.69 336.39,100.91 337.36,92.18 338.33,100.39 339.31,92.56 340.28,92.03 341.25,431.48 342.22,429.84 343.19,432.00 344.17,166.71 345.14,92.56 346.11,94.64 347.08,93.60 348.06,92.70 349.03,92.56 350.00,93.08 350.97,96.21 351.94,98.82 352.92,93.60 353.89,93.75 354.86,92.56 355.83,92.56 356.81,92.56 357.78,93.08 358.75,95.32 359.72,95.69 360.69,105.61 361.67,114.49 362.64,115.53 363.61,117.35 364.58,117.10 365.56,113.97 366.53,117.62 367.50,110.31 368.47,94.28 369.44,94.12 370.42,92.56 371.39,100.39 372.36,96.21 373.33,117.62 374.31,119.44 375.28,353.67 376.25,474.82 377.22,474.82 378.19,388.13 379.17,117.62 380.14,120.49 381.11,119.19 382.08,120.23 383.06,114.49 384.03,90.47 385.00,94.12 385.97,110.53 386.94,117.62 387.92,117.62 388.89,120.23 389.86,108.74 390.83,94.28 391.81,91.51 392.78,93.08 393.75,92.03 394.72,92.56 395.69,92.56 396.67,92.70 397.64,92.03 398.61,92.03 399.58,92.56 400.56,92.03 401.53,92.03 402.50,95.32 403.47,96.21 404.44,92.56 405.42,103.00 406.39,93.08 407.36,108.43 408.33,94.64 409.31,126.50 410.28,460.20 411.25,462.29 412.22,457.63 413.19,178.72 414.17,93.08 415.14,93.08 416.11,93.08 417.08,92.70 418.06,93.08 419.03,94.64 420.00,92.56 420.97,92.56 421.94,92.03 422.92,92.70 423.89,93.08 424.86,93.08 425.83,92.56 426.81,92.56 427.78,93.23 428.75,92.03 429.72,92.03 430.69,92.56 431.67,92.56 432.64,92.18 433.61,93.08 434.58,92.03 435.56,92.56 436.53,92.56 437.50,96.73 438.47,92.70 439.44,105.61 440.42,92.56 441.39,92.56 442.36,435.66 443.33,432.99 444.31,432.00 445.28,160.44 446.25,92.03 447.22,92.56 448.20,92.56 449.17,91.65 450.14,92.56 451.11,93.08 452.08,92.03 453.06,115.01 454.03,100.57 455.00,92.56 455.97,92.03 456.94,93.08 457.92,92.03 458.89,92.70 459.86,92.56 460.83,94.12 461.81,93.08 462.78,95.17 463.75,91.65 464.72,105.09 465.69,99.87 466.67,92.56 467.64,91.51 468.61,90.99 469.58,91.65 470.56,93.08 471.53,97.26 472.50,91.51 473.47,105.09 474.44,95.32 475.42,92.03 476.39,394.40 477.36,432.52 478.33,437.22 479.31,207.97 480.28,93.23 481.25,89.94 482.22,92.03 483.19,93.08 484.17,92.03 485.14,96.90 486.11,104.04 487.08,105.61 488.06,96.21 489.03,92.03 490.00,92.56 490.97,94.28 491.94,92.56 492.92,92.56 493.89,94.12 494.87,93.60 495.83,95.32 496.81,103.00 497.78,112.92 498.75,115.01 499.72,112.40 500.69,92.18 501.67,93.08 502.64,94.64 503.61,94.12 504.58,92.56 505.56,92.18 506.53,97.26 507.50,90.99 508.47,107.18 509.44,92.56 510.42,346.47 511.39,466.47 512.36,468.56 513.33,360.46 514.31,90.99 515.28,93.60 516.25,93.23 517.22,92.03 518.19,92.56 519.17,94.12 520.14,94.12 521.12,95.17 522.08,91.65 523.06,90.99 524.03,93.08 525.00,98.82 525.98,92.03 526.94,91.13 527.92,92.56 528.89,92.56 529.86,94.64 530.84,91.51 531.81,92.18 532.78,92.03 533.75,94.64 534.72,92.03 535.69,92.03 536.67,95.85 537.64,93.08 538.61,92.03 539.58,91.51 540.56,102.14 541.53,92.56 542.50,101.43 543.47,90.99 544.44,242.96 545.42,457.07 546.39,457.11 547.36,433.04 548.33,94.12 549.31,91.51 550.28,92.56 551.25,92.18 552.22,93.08 553.19,92.56 554.17,92.03 555.14,94.12 556.11,93.08 557.08,91.51 558.06,91.65 559.03,91.51 560.00,93.08 560.97,91.51 561.94,112.40 562.92,112.92 563.89,113.97 564.86,94.12 565.83,92.56 566.81,96.21 567.78,92.70 568.75,92.03 569.72,93.08 570.69,94.12 571.67,92.56 572.64,97.78 573.61,94.28 574.58,100.91 575.56,92.56 576.53,105.09 577.50,94.12 578.47,134.33 579.45,434.61 580.42,434.56 581.39,435.13 582.36,123.89 583.33,94.12 584.31,107.70 585.28,113.44 586.25,115.01 587.23,118.14 588.19,116.82 589.17,116.58 590.14,106.66 591.11,90.99 592.08,94.12 593.06,92.03 594.03,91.51 595.00,92.56 595.97,91.65 596.94,92.03 597.92,91.51 598.89,92.03 599.86,91.51 600.83,91.51 601.81,91.65 602.78,92.03 603.75,94.64 604.72,114.49 605.69,118.14 606.67,120.76 607.64,119.71 608.61,128.88 609.58,98.82 610.56,92.56 611.53,398.06 612.50,432.00 613.47,431.48 614.44,198.57 615.42,92.56 616.39,92.18 617.36,92.56 618.33,96.73 619.31,93.60 620.28,111.36 621.25,112.92 622.22,113.44 623.19,115.25 624.17,105.61 625.14,92.03 626.11,93.60 627.08,91.51 628.06,96.73 629.03,111.88 630.00,93.75 630.97,93.08 631.94,90.99 632.92,90.47 633.89,91.51 634.86,95.69 635.83,90.99 636.81,94.64 637.78,94.12 638.75,94.80 639.72,93.08 640.69,93.60 641.67,99.87 642.64,93.08 643.61,109.27 644.58,96.21 645.56,355.76 646.53,477.96 647.50,476.91 648.47,390.74 649.44,118.92 650.42,120.76 651.39,119.71 652.36,118.67 653.33,119.71 654.31,119.71 655.28,120.23 656.25,121.02 657.22,119.19 658.19,120.76 659.17,119.19 660.14,113.44 661.11,112.40 662.08,113.15 663.06,112.92 664.03,113.44 665.00,112.92 665.97,112.40 666.94,116.58 667.92,122.07 668.89,120.76 669.86,93.08 670.83,113.97 671.81,113.44 672.78,112.92 673.75,112.92 674.72,112.63 675.69,112.92 676.67,98.82 677.64,91.51 678.61,106.13 679.58,90.47 680.56,360.46 681.53,460.78 682.50,458.11 683.47,329.12 684.44,113.44 685.42,112.40 686.39,113.44 687.36,95.17 688.33,93.60 689.31,90.99 690.28,92.70 691.25,91.51 692.22,106.66 693.19,113.97 694.17,112.92 695.14,115.01 696.11,96.37 697.08,97.26 698.06,94.64 699.03,97.26 700.00,94.64 700.97,95.69 701.94,95.17 702.92,103.71 703.89,120.76 704.86,116.58 705.83,116.06 706.81,116.58 707.78,116.58 708.75,116.82 709.72,116.06 710.69,126.50 711.67,118.14 712.64,126.50 713.61,119.19 714.58,130.68 715.56,445.58 716.53,442.42 717.50,446.10 718.47,194.39 719.44,120.76 720.42,119.71 721.39,117.10 722.36,116.06 723.33,121.80 724.31,116.82 725.28,116.58 726.25,114.49 727.22,93.08 728.19,95.17 729.17,91.51 730.14,90.99 731.11,91.51 732.08,96.21 733.06,91.51 734.03,92.56 735.00,92.03 735.97,93.23 736.94,91.51 737.92,91.51 738.89,93.08 739.86,92.56 740.83,97.26 741.81,90.99 742.78,95.17 743.75,94.64 744.72,90.61 745.69,98.82 746.67,90.99 747.64,105.61 748.61,90.99 749.58,320.77 750.56,435.13 751.53,436.70 752.50,272.20 753.47,92.03 754.44,92.56 755.42,93.75 756.39,94.64 757.36,93.08 758.33,93.08 759.31,93.08 760.28,93.60 761.25,90.47 762.22,93.60 763.19,97.78 764.17,95.69 765.14,93.08 766.11,93.60 767.08,93.60 768.06,93.08 769.03,93.08" fill="none" stroke="#ff7f0e" stroke-width="1.4" opacity="0.9" stroke-linejoin="round"/><polyline points="70.97,116.58 71.94,126.26 72.92,122.84 73.89,122.32 74.86,129.63 75.83,115.53 76.81,276.38 77.78,475.87 78.75,475.87 79.72,473.26 80.69,116.58 81.67,117.62 82.64,98.30 83.61,93.23 84.58,106.66 85.56,92.56 86.53,303.01 87.50,459.68 88.47,460.20 89.44,374.56 90.42,93.60 91.39,114.20 92.36,115.01 93.33,117.62 94.31,125.98 95.28,119.19 96.25,355.23 97.22,442.44 98.19,440.36 99.17,295.18 100.14,98.99 101.11,103.00 102.08,95.17 103.06,109.79 104.03,95.17 105.00,106.66 105.97,435.66 106.95,432.00 107.92,437.70 108.89,155.74 109.86,92.03 110.83,100.39 111.81,112.92 112.78,130.16 113.75,118.14 114.72,240.34 115.69,474.93 116.67,476.39 117.64,477.43 118.61,145.82 119.58,113.97 120.56,106.66 121.53,92.03 122.50,319.20 123.48,457.07 124.44,457.63 125.42,353.14 126.39,92.56 127.36,96.73 128.33,92.56 129.31,105.09 130.28,91.51 131.25,92.70 132.22,402.76 133.19,435.66 134.17,436.18 135.14,199.61 136.11,92.03 137.08,100.91 138.06,91.65 139.03,100.39 140.00,94.12 140.97,195.96 141.94,432.00 142.92,432.00 143.89,400.14 144.86,92.70 145.83,94.12 146.81,104.04 147.78,93.08 148.75,101.43 149.72,92.56 150.69,359.93 151.67,478.48 152.64,477.03 153.61,383.96 154.58,113.44 155.56,122.84 156.53,113.97 157.50,114.49 158.47,126.50 159.45,113.97 160.42,371.12 161.39,468.03 162.36,468.03 163.33,332.26 164.31,93.60 165.28,105.61 166.25,95.69 167.22,129.11 168.19,430.89 169.17,432.00 170.14,432.00 171.11,141.64 172.08,94.64 173.06,97.26 174.03,92.56 175.00,104.57 175.97,96.90 176.94,261.23 177.92,434.09 178.89,432.52 179.86,344.79 180.83,93.60 181.81,96.90 182.78,92.03 183.75,101.43 184.72,99.87 185.69,91.51 186.67,424.07 187.64,465.94 188.61,465.42 189.58,283.17 190.56,95.17 191.53,124.93 192.50,113.15 193.47,122.84 194.44,102.48 195.42,107.70 196.39,460.72 197.36,459.20 198.33,457.07 199.31,212.67 200.28,95.69 201.25,104.57 202.22,93.08 203.19,105.81 204.17,92.56 205.14,186.56 206.11,432.00 207.08,435.66 208.06,414.24 209.03,106.86 210.00,117.10 210.97,125.46 211.94,113.44 212.92,348.97 213.89,440.36 214.86,441.90 215.83,287.34 216.81,112.92 217.78,114.49 218.75,99.87 219.73,130.16 220.69,113.15 221.67,112.92 222.64,462.81 223.61,473.78 224.58,474.82 225.56,282.51 226.53,119.19 227.50,123.89 228.47,113.44 229.44,134.86 230.42,113.44 231.39,99.34 232.36,465.49 233.33,458.63 234.31,457.07 235.28,218.41 236.25,93.08 237.22,101.09 238.19,93.08 239.17,101.43 240.14,92.56 241.11,190.21 242.08,430.36 243.06,432.00 244.03,413.72 245.00,94.12 245.97,92.03 246.94,104.04 247.92,91.65 248.89,104.57 249.86,92.03 250.83,319.20 251.81,435.13 252.78,432.00 253.75,280.93 254.72,95.69 255.69,103.00 256.67,92.03 257.64,106.66 258.62,93.60 259.58,113.15 260.56,468.03 261.53,465.42 262.50,466.99 263.47,216.32 264.44,92.56 265.42,105.81 266.39,93.08 267.36,244.52 268.33,457.07 269.31,457.07 270.28,427.82 271.25,93.08 272.22,93.75 273.19,96.73 274.17,92.03 275.14,106.13 276.12,93.08 277.08,332.32 278.06,433.57 279.03,438.27 280.00,273.24 280.97,93.60 281.94,101.62 282.92,93.08 283.89,102.48 284.86,93.08 285.83,122.32 286.81,432.52 287.78,433.04 288.75,430.96 289.72,136.22 290.69,108.22 291.67,122.84 292.64,114.49 293.61,131.20 294.58,115.01 295.56,251.31 296.53,473.78 297.50,472.83 298.47,472.21 299.44,120.23 300.42,101.43 301.39,104.04 302.36,93.60 303.34,107.70 304.31,93.23 305.28,283.69 306.25,460.72 307.22,457.07 308.19,391.79 309.17,92.56 310.14,108.22 311.11,118.67 312.09,117.10 313.06,403.62 314.03,445.58 315.00,441.92 315.97,246.61 316.94,102.48 317.92,124.41 318.89,117.62 319.86,127.54 320.83,117.62 321.81,145.13 322.78,444.01 323.75,445.06 324.72,440.88 325.69,159.40 326.67,92.03 327.64,97.26 328.61,95.32 329.58,112.40 330.56,92.03 331.53,250.27 332.50,468.56 333.47,469.08 334.44,456.58 335.42,95.69 336.39,93.08 337.36,103.00 338.33,108.22 339.31,126.50 340.28,117.35 341.25,313.46 342.22,457.07 343.19,464.38 344.17,399.10 345.14,118.67 346.11,127.31 347.08,118.67 348.06,113.97 349.03,124.93 350.00,115.53 350.97,327.03 351.94,444.52 352.92,446.10 353.89,320.24 354.86,104.04 355.83,111.88 356.81,97.26 357.78,128.88 358.75,432.00 359.72,432.00 360.69,435.13 361.67,140.08 362.64,95.69 363.61,103.71 364.58,94.64 365.56,110.31 366.53,96.21 367.50,280.56 368.47,473.78 369.45,473.78 370.42,469.69 371.39,115.01 372.36,94.64 373.33,100.39 374.31,94.64 375.28,109.48 376.25,93.08 377.22,317.11 378.19,458.63 379.17,457.07 380.14,365.68 381.11,113.15 382.08,121.28 383.06,112.92 384.03,113.44 385.00,121.28 385.97,113.97 386.94,361.50 387.92,438.75 388.89,438.79 389.86,268.02 390.83,105.09 391.81,100.91 392.78,94.64 393.75,106.13 394.73,92.56 395.69,122.59 396.67,433.57 397.64,433.04 398.61,435.66 399.58,135.38 400.56,92.56 401.53,101.43 402.50,94.12 403.47,107.38 404.44,92.56 405.42,271.16 406.39,466.47 407.36,468.03 408.33,428.87 409.31,92.03 410.28,107.70 411.25,128.07 412.22,113.15 413.19,390.22 414.17,464.38 415.14,464.90 416.11,320.77 417.08,105.61 418.06,98.82 419.03,93.60 420.00,105.09 420.97,92.18 421.94,94.64 422.92,436.70 423.89,435.13 424.86,436.18 425.83,166.19 426.81,93.60 427.78,100.91 428.75,92.56 429.72,103.71 430.69,92.56 431.67,229.38 432.64,431.48 433.61,430.96 434.58,367.77 435.56,92.56 436.53,104.04 437.50,92.03 438.47,92.70 439.44,106.66 440.42,117.62 441.39,396.49 442.36,475.34 443.33,475.34 444.31,354.19 445.28,119.71 446.25,127.54 447.22,116.82 448.19,112.92 449.17,106.13 450.14,98.30 451.11,394.92 452.08,462.81 453.06,459.16 454.03,282.51 455.00,93.08 455.97,106.66 456.94,93.60 457.92,170.37 458.89,432.00 459.86,432.00 460.83,426.78 461.81,92.56 462.78,92.18 463.75,98.82 464.72,113.97 465.69,127.02 466.67,113.97 467.64,298.24 468.61,444.53 469.58,445.06 470.56,350.01 471.53,117.10 472.50,121.80 473.47,118.39 474.44,115.53 475.42,106.66 476.39,91.51 477.36,393.36 478.33,469.16 479.31,466.99 480.28,314.50 481.25,93.60 482.22,103.52 483.19,95.17 484.17,103.52 485.14,94.64 486.11,94.80 487.08,463.33 488.06,457.07 489.03,457.07 490.00,234.08 490.97,119.19 491.94,123.11 492.92,112.92 493.89,124.93 494.86,113.44 495.83,159.40 496.81,444.53 497.78,446.09 498.75,443.49 499.72,163.06 500.69,118.67 501.67,104.57 502.64,91.51 503.61,283.56 504.58,430.96 505.56,431.48 506.53,314.50 507.50,100.39 508.47,121.80 509.45,120.76 510.42,129.93 511.39,123.37 512.36,122.84 513.33,414.77 514.31,471.69 515.28,467.51 516.25,315.01 517.22,92.03 518.19,98.30 519.17,93.60 520.14,106.13 521.12,94.12 522.08,96.90 523.06,462.29 524.03,460.20 525.00,457.07 525.97,210.06 526.94,90.47 527.92,101.96 528.89,94.28 529.86,100.39 530.83,93.08 531.81,197.00 532.78,432.00 533.75,432.00 534.72,406.41 535.70,92.56 536.67,91.65 537.64,99.34 538.61,95.69 539.58,105.09 540.56,95.17 541.53,323.90 542.50,439.31 543.48,433.04 544.44,280.41 545.42,96.21 546.39,122.84 547.36,94.12 548.33,108.74 549.31,94.12 550.28,107.91 551.25,465.42 552.22,468.03 553.19,471.17 554.17,226.24 555.14,96.21 556.12,111.88 557.08,95.32 558.06,232.51 559.03,457.07 560.00,457.07 560.97,442.44 561.94,91.51 562.92,92.18 563.89,96.73 564.86,92.03 565.83,107.70 566.81,98.82 567.78,329.64 568.75,447.14 569.72,445.58 570.69,328.08 571.67,120.23 572.64,128.07 573.61,115.53 574.58,117.62 575.56,125.46 576.53,119.44 577.50,384.48 578.47,445.58 579.44,443.49 580.42,264.37 581.39,106.66 582.36,102.48 583.33,91.65 584.31,103.00 585.28,92.03 586.25,146.34 587.22,466.47 588.19,467.51 589.17,468.56 590.14,192.82 591.11,93.23 592.08,105.61 593.06,113.44 594.03,125.98 595.00,112.92 595.97,206.92 596.94,464.97 597.92,467.51 598.89,465.42 599.86,134.86 600.83,94.64 601.81,124.41 602.78,120.23 603.75,306.67 604.72,441.92 605.70,441.40 606.67,338.08 607.64,112.40 608.61,117.62 609.58,117.10 610.56,112.92 611.53,126.78 612.50,113.44 613.47,377.17 614.44,442.44 615.42,441.92 616.39,255.49 617.37,92.03 618.33,97.95 619.31,92.03 620.28,107.70 621.25,92.56 622.22,151.57 623.19,465.42 624.17,466.54 625.14,467.51 626.11,182.90 627.08,92.03 628.06,101.96 629.03,105.09 630.00,127.02 630.97,112.10 631.94,222.59 632.92,461.77 633.89,456.54 634.86,458.11 635.83,112.40 636.81,92.56 637.78,100.91 638.75,92.18 639.72,106.13 640.69,92.56 641.67,281.08 642.64,438.27 643.61,433.57 644.58,318.16 645.56,93.75 646.53,105.09 647.50,91.51 648.47,121.80 649.44,433.04 650.42,430.96 651.39,434.56 652.36,134.33 653.33,92.03 654.31,96.73 655.28,91.51 656.25,106.34 657.22,92.03 658.19,279.51 659.17,465.42 660.14,465.42 661.11,428.79 662.08,92.03 663.06,92.03 664.03,96.73 665.00,92.03 665.97,105.81 666.94,92.56 667.92,359.93 668.89,459.16 669.86,457.07 670.83,322.86 671.81,93.23 672.78,101.96 673.75,93.08 674.72,100.91 675.69,93.08 676.67,92.03 677.64,431.41 678.61,432.00 679.58,432.00 680.56,169.32 681.53,92.03 682.50,100.91 683.48,92.03 684.44,105.29 685.42,92.03 686.39,222.59 687.36,434.09 688.33,435.13 689.31,376.12 690.28,92.03 691.25,102.67 692.22,92.56 693.19,92.56 694.17,107.70 695.14,92.03 696.11,383.96 697.09,468.03 698.06,464.45 699.03,319.20 700.00,92.56 700.97,106.66 701.94,95.17 702.92,160.44 703.89,465.42 704.86,464.45 705.83,457.07 706.81,181.86 707.78,94.12 708.75,109.79 709.72,116.30 710.69,130.16 711.67,114.49 712.64,204.83 713.61,445.06 714.58,440.36 715.56,440.88 716.53,113.15 717.50,98.30 718.47,103.52 719.44,107.70 720.42,127.54 721.39,112.63 722.36,286.82 723.33,440.36 724.31,440.36 725.28,349.49 726.25,114.49 727.22,114.72 728.19,101.43 729.17,93.08 730.14,101.43 731.11,92.03 732.08,409.39 733.06,468.03 734.03,467.51 735.00,299.88 735.97,92.03 736.94,102.48 737.92,94.12 738.89,106.13 739.86,92.18 740.83,110.83 741.81,459.68 742.78,457.59 743.75,460.72 744.72,197.52 745.69,92.56 746.67,104.76 747.64,92.56 748.61,254.97 749.58,445.58 750.56,442.97 751.53,359.41 752.50,91.65 753.47,99.87 754.44,97.78 755.42,93.60 756.39,106.66 757.37,93.08 758.33,371.64 759.31,435.13 760.28,435.13 761.25,232.51 762.22,93.60 763.19,98.30 764.17,91.51 765.14,111.05 766.11,94.12 767.08,171.41 768.06,480.04 769.03,474.30" fill="none" stroke="#d62728" stroke-width="1.4" opacity="0.9" stroke-linejoin="round"/><text x="794.0" y="62.0" font-family="sans-serif" font-size="12" text-anchor="start" fill="#111" font-weight="bold">RRT  (reclaims/inst)</text><line x1="794.0" y1="80.0" x2="820.0" y2="80.0" stroke="#555555" stroke-width="3.0" opacity="1.0"/><text x="826.0" y="84.0" font-family="sans-serif" font-size="12" text-anchor="start" fill="#111" font-weight="normal">OFF (1e9)  (0)</text><text x="826.0" y="101.0" font-family="sans-serif" font-size="10" text-anchor="start" fill="#666" font-weight="normal">avg 954  min 936</text><line x1="794.0" y1="119.0" x2="820.0" y2="119.0" stroke="#1f77b4" stroke-width="3.0" opacity="1.0"/><text x="826.0" y="123.0" font-family="sans-serif" font-size="12" text-anchor="start" fill="#111" font-weight="normal">1024  (256)</text><text x="826.0" y="140.0" font-family="sans-serif" font-size="10" text-anchor="start" fill="#666" font-weight="normal">avg 955  min 606</text><line x1="794.0" y1="158.0" x2="820.0" y2="158.0" stroke="#2ca02c" stroke-width="3.0" opacity="1.0"/><text x="826.0" y="162.0" font-family="sans-serif" font-size="12" text-anchor="start" fill="#111" font-weight="normal">256  (1,280)</text><text x="826.0" y="179.0" font-family="sans-serif" font-size="10" text-anchor="start" fill="#666" font-weight="normal">avg 949  min 604</text><line x1="794.0" y1="197.0" x2="820.0" y2="197.0" stroke="#ff7f0e" stroke-width="3.0" opacity="1.0"/><text x="826.0" y="201.0" font-family="sans-serif" font-size="12" text-anchor="start" fill="#111" font-weight="normal">64  (5,120)</text><text x="826.0" y="218.0" font-family="sans-serif" font-size="10" text-anchor="start" fill="#666" font-weight="normal">avg 927  min 596</text><line x1="794.0" y1="236.0" x2="820.0" y2="236.0" stroke="#d62728" stroke-width="3.0" opacity="1.0"/><text x="826.0" y="240.0" font-family="sans-serif" font-size="12" text-anchor="start" fill="#111" font-weight="normal">16  (19,712)</text><text x="826.0" y="257.0" font-family="sans-serif" font-size="10" text-anchor="start" fill="#666" font-weight="normal">avg 837  min 594</text></svg>