<svg xmlns="http://www.w3.org/2000/svg" width="1050" height="720" viewBox="0 0 1050 720"><rect width="1050" height="720" fill="white"/><text x="80.0" y="28.0" font-family="sans-serif" font-size="16" text-anchor="start" fill="#111" font-weight="bold">Read bandwidth vs time, per RRT — libaio iodepth=16 (small multiples)</text><rect x="80.0" y="50.0" width="720.0" height="96.0" fill="#fbfbfb" stroke="#888" stroke-width="1.0" opacity="1.0"/><line x1="80.0" y1="146.0" x2="800.0" y2="146.0" stroke="#e3e3e3" stroke-width="1.0" opacity="1.0"/><text x="74.0" y="150.0" font-family="sans-serif" font-size="11" text-anchor="end" fill="#444" font-weight="normal">1000</text><line x1="80.0" y1="126.8" x2="800.0" y2="126.8" stroke="#e3e3e3" stroke-width="1.0" opacity="1.0"/><text x="74.0" y="130.8" font-family="sans-serif" font-size="11" text-anchor="end" fill="#444" font-weight="normal">1500</text><line x1="80.0" y1="107.6" x2="800.0" y2="107.6" stroke="#e3e3e3" stroke-width="1.0" opacity="1.0"/><text x="74.0" y="111.6" font-family="sans-serif" font-size="11" text-anchor="end" fill="#444" font-weight="normal">2000</text><line x1="80.0" y1="88.4" x2="800.0" y2="88.4" stroke="#e3e3e3" stroke-width="1.0" opacity="1.0"/><text x="74.0" y="92.4" font-family="sans-serif" font-size="11" text-anchor="end" fill="#444" font-weight="normal">2500</text><line x1="80.0" y1="69.2" x2="800.0" y2="69.2" stroke="#e3e3e3" stroke-width="1.0" opacity="1.0"/><text x="74.0" y="73.2" font-family="sans-serif" font-size="11" text-anchor="end" fill="#444" font-weight="normal">3000</text><line x1="80.0" y1="50.0" x2="800.0" y2="50.0" stroke="#e3e3e3" stroke-width="1.0" opacity="1.0"/><text x="74.0" y="54.0" font-family="sans-serif" font-size="11" text-anchor="end" fill="#444" font-weight="normal">3500</text><line x1="80.0" y1="50.0" x2="80.0" y2="146.0" stroke="#e3e3e3" stroke-width="1.0" opacity="1.0"/><text x="80.0" y="162.0" font-family="sans-serif" font-size="11" text-anchor="middle" fill="#444" font-weight="normal">0</text><line x1="200.0" y1="50.0" x2="200.0" y2="146.0" stroke="#e3e3e3" stroke-width="1.0" opacity="1.0"/><text x="200.0" y="162.0" font-family="sans-serif" font-size="11" text-anchor="middle" fill="#444" font-weight="normal">30</text><line x1="320.0" y1="50.0" x2="320.0" y2="146.0" stroke="#e3e3e3" stroke-width="1.0" opacity="1.0"/><text x="320.0" y="162.0" font-family="sans-serif" font-size="11" text-anchor="middle" fill="#444" font-weight="normal">60</text><line x1="440.0" y1="50.0" x2="440.0" y2="146.0" stroke="#e3e3e3" stroke-width="1.0" opacity="1.0"/><text x="440.0" y="162.0" font-family="sans-serif" font-size="11" text-anchor="middle" fill="#444" font-weight="normal">90</text><line x1="560.0" y1="50.0" x2="560.0" y2="146.0" stroke="#e3e3e3" stroke-width="1.0" opacity="1.0"/><text x="560.0" y="162.0" font-family="sans-serif" font-size="11" text-anchor="middle" fill="#444" font-weight="normal">120</text><line x1="680.0" y1="50.0" x2="680.0" y2="146.0" stroke="#e3e3e3" stroke-width="1.0" opacity="1.0"/><text x="680.0" y="162.0" font-family="sans-serif" font-size="11" text-anchor="middle" fill="#444" font-weight="normal">150</text><line x1="800.0" y1="50.0" x2="800.0" y2="146.0" stroke="#e3e3e3" stroke-width="1.0" opacity="1.0"/><text x="800.0" y="162.0" font-family="sans-serif" font-size="11" text-anchor="middle" fill="#444" font-weight="normal">180</text><line x1="80.0" y1="55.4" x2="800.0" y2="55.4" stroke="#999" stroke-width="1.0" stroke-dasharray="2,3" opacity="1.0"/><polyline points="81.00,55.53 82.00,55.38 83.00,55.44 84.00,55.41 85.00,55.40 86.00,55.40 87.00,55.45 88.00,55.45 89.00,55.38 90.00,55.40 91.00,55.41 92.00,55.45 93.00,55.41 94.00,55.41 95.00,55.41 96.00,55.44 97.00,55.41 98.00,55.43 99.00,55.40 100.00,55.41 101.00,55.38 102.00,55.44 103.00,55.41 104.00,55.41 105.00,55.38 106.00,55.45 107.00,55.41 108.00,55.44 109.00,55.41 110.00,55.45 111.00,55.45 112.00,55.45 113.00,55.38 114.00,55.40 115.00,55.38 116.00,55.41 117.00,55.38 118.00,55.38 119.00,55.40 120.00,55.42 121.00,55.40 122.00,55.38 123.00,55.45 124.00,55.38 125.00,55.38 126.00,55.44 127.00,55.41 128.00,55.38 129.00,55.41 130.00,55.38 131.00,55.40 132.00,55.38 133.00,55.41 134.00,55.41 135.00,55.38 136.00,55.44 137.00,55.41 138.00,55.41 139.00,55.38 140.00,55.41 141.00,55.38 142.00,55.40 143.00,55.38 144.00,55.38 145.00,55.45 146.00,55.38 147.00,55.47 148.00,55.41 149.00,55.41 150.00,55.41 151.00,55.45 152.00,55.41 153.00,55.38 154.00,55.47 155.00,55.41 156.00,55.45 157.00,55.41 158.00,55.38 159.00,55.38 160.00,55.42 161.00,55.45 162.00,55.45 163.00,55.45 164.00,55.43 165.00,55.40 166.00,55.38 167.00,55.44 168.00,55.45 169.00,55.41 170.00,55.43 171.00,55.43 172.00,55.40 173.00,55.41 174.00,55.40 175.00,55.41 176.00,55.38 177.00,55.41 178.00,55.38 179.00,55.42 180.00,55.41 181.00,55.38 182.00,55.40 183.00,55.38 184.00,55.38 185.00,55.38 186.00,55.41 187.00,55.43 188.00,55.40 189.00,55.40 190.00,55.44 191.00,55.41 192.00,55.41 193.00,55.45 194.00,55.41 195.00,55.38 196.00,55.42 197.00,55.43 198.00,55.41 199.00,55.43 200.00,55.43 201.00,55.43 202.00,55.41 203.00,55.41 204.00,55.40 205.00,55.41 206.00,55.40 207.00,55.43 208.00,55.43 209.00,55.38 210.00,55.43 211.00,55.47 212.00,55.41 213.00,55.41 214.00,55.41 215.00,55.38 216.00,55.40 217.00,55.38 218.00,55.43 219.00,55.38 220.00,55.43 221.00,55.43 222.00,55.42 223.00,55.43 224.00,55.41 225.00,55.41 226.00,55.38 227.00,55.41 228.00,55.42 229.00,55.41 230.00,55.43 231.00,55.40 232.00,55.41 233.00,55.40 234.00,55.38 235.00,55.41 236.00,55.43 237.00,55.38 238.00,55.47 239.00,55.41 240.00,55.40 241.00,55.38 242.00,55.38 243.00,55.41 244.00,55.38 245.00,55.44 246.00,55.45 247.00,55.43 248.00,55.47 249.00,55.41 250.00,55.38 251.00,55.41 252.00,55.44 253.00,55.41 254.00,55.43 255.00,55.40 256.00,55.41 257.00,55.40 258.00,55.38 259.00,55.38 260.00,55.41 261.00,55.38 262.00,55.40 263.00,55.42 264.00,55.45 265.00,55.38 266.00,55.38 267.00,55.41 268.00,55.41 269.00,55.40 270.00,55.43 271.00,55.40 272.00,55.41 273.00,55.38 274.00,55.38 275.00,55.43 276.00,55.45 277.00,55.41 278.00,55.38 279.00,55.41 280.00,55.40 281.00,55.43 282.00,55.40 283.00,55.43 284.00,55.43 285.00,55.41 286.00,55.38 287.00,55.44 288.00,55.43 289.00,55.40 290.00,55.40 291.00,55.41 292.00,55.41 293.00,55.44 294.00,55.41 295.00,55.41 296.00,55.41 297.00,55.40 298.00,55.43 299.00,55.40 300.00,55.43 301.00,55.38 302.00,55.43 303.00,55.40 304.00,55.45 305.00,55.41 306.00,55.40 307.00,55.41 308.00,55.41 309.00,55.38 310.00,55.38 311.00,55.40 312.00,55.41 313.00,55.47 314.00,55.43 315.00,55.38 316.00,55.41 317.00,55.44 318.00,55.41 319.00,55.41 320.00,55.45 321.00,55.45 322.00,55.38 323.00,55.38 324.00,55.44 325.00,55.38 326.00,55.41 327.00,55.41 328.00,55.41 329.00,55.41 330.00,55.40 331.00,55.45 332.00,55.43 333.00,55.43 334.00,55.45 335.00,55.40 336.00,55.43 337.00,55.40 338.00,55.41 339.00,55.45 340.00,55.41 341.00,55.45 342.00,55.41 343.00,55.41 344.00,55.44 345.00,55.45 346.00,55.41 347.00,55.47 348.00,55.43 349.00,55.43 350.00,55.45 351.00,55.41 352.00,55.40 353.00,55.40 354.00,55.40 355.00,55.41 356.00,55.41 357.00,55.41 358.00,55.42 359.00,55.45 360.00,55.40 361.00,55.40 362.00,55.41 363.00,55.45 364.00,55.40 365.00,55.47 366.00,55.41 367.00,55.41 368.00,55.45 369.00,55.41 370.00,55.41 371.00,55.41 372.00,55.42 373.00,55.41 374.00,55.41 375.00,55.41 376.00,55.43 377.00,55.41 378.00,55.40 379.00,55.47 380.00,55.41 381.00,55.41 382.00,55.45 383.00,55.45 384.00,55.41 385.00,55.45 386.00,55.42 387.00,55.45 388.00,55.43 389.00,55.41 390.00,55.41 391.00,55.41 392.00,55.41 393.00,55.40 394.00,55.41 395.00,55.41 396.00,55.41 397.00,55.41 398.00,55.41 399.00,55.44 400.00,56.78 401.00,55.41 402.00,55.40 403.00,55.45 404.00,55.45 405.00,55.41 406.00,55.44 407.00,55.41 408.00,55.47 409.00,55.41 410.00,55.49 411.00,55.41 412.00,55.40 413.00,55.43 414.00,55.42 415.00,55.43 416.00,55.41 417.00,55.43 418.00,55.38 419.00,55.41 420.00,55.43 421.00,55.40 422.00,55.41 423.00,55.43 424.00,55.41 425.00,55.40 426.00,55.38 427.00,55.44 428.00,55.43 429.00,55.45 430.00,55.47 431.00,55.43 432.00,55.41 433.00,55.43 434.00,55.40 435.00,55.44 436.00,55.43 437.00,55.43 438.00,55.49 439.00,55.41 440.00,55.38 441.00,55.41 442.00,55.40 443.00,55.45 444.00,55.43 445.00,55.43 446.00,55.40 447.00,55.45 448.00,55.43 449.00,55.40 450.00,55.45 451.00,55.43 452.00,55.45 453.00,55.45 454.00,55.40 455.00,55.47 456.00,55.45 457.00,55.44 458.00,55.40 459.00,55.45 460.00,55.45 461.00,55.45 462.00,55.41 463.00,55.41 464.00,55.41 465.00,55.44 466.00,55.38 467.00,55.45 468.00,55.41 469.00,55.43 470.00,55.43 471.00,55.41 472.00,55.40 473.00,55.47 474.00,55.43 475.00,55.41 476.00,55.41 477.00,55.38 478.00,55.36 479.00,55.41 480.00,55.45 481.00,55.41 482.00,55.38 483.00,55.43 484.00,55.42 485.00,55.45 486.00,55.36 487.00,55.41 488.00,55.43 489.00,55.38 490.00,55.40 491.00,55.38 492.00,55.41 493.00,55.41 494.00,55.40 495.00,55.38 496.00,55.47 497.00,55.43 498.00,55.41 499.00,55.40 500.00,55.40 501.00,55.40 502.00,55.43 503.00,55.43 504.00,55.43 505.00,55.40 506.00,55.41 507.00,55.41 508.00,55.44 509.00,55.41 510.00,55.38 511.00,55.41 512.00,55.41 513.00,55.41 514.00,55.40 515.00,55.38 516.00,55.41 517.00,55.38 518.00,55.41 519.00,55.40 520.00,55.40 521.00,55.43 522.00,55.38 523.00,55.41 524.00,55.38 525.00,55.44 526.00,55.40 527.00,55.40 528.00,55.43 529.00,55.41 530.00,55.40 531.00,55.40 532.00,55.47 533.00,55.38 534.00,55.41 535.00,55.45 536.00,55.42 537.00,55.38 538.00,55.38 539.00,55.41 540.00,55.38 541.00,55.45 542.00,55.40 543.00,55.40 544.00,55.38 545.00,55.40 546.00,55.38 547.00,55.46 548.00,55.45 549.00,55.40 550.00,55.40 551.00,55.43 552.00,55.38 553.00,55.38 554.00,55.38 555.00,55.41 556.00,55.41 557.00,55.38 558.00,55.44 559.00,55.41 560.00,55.41 561.00,55.38 562.00,55.41 563.00,55.41 564.00,55.40 565.00,55.41 566.00,55.40 567.00,55.43 568.00,55.38 569.00,55.40 570.00,55.43 571.00,55.40 572.00,55.41 573.00,55.38 574.00,55.45 575.00,55.38 576.00,55.38 577.00,55.38 578.00,55.38 579.00,55.41 580.00,55.44 581.00,55.38 582.00,55.45 583.00,55.43 584.00,55.38 585.00,55.38 586.00,55.38 587.00,55.38 588.00,55.45 589.00,55.38 590.00,55.40 591.00,55.40 592.00,55.41 593.00,55.43 594.00,55.38 595.00,55.38 596.00,55.40 597.00,55.41 598.00,55.38 599.00,55.38 600.00,55.41 601.00,55.40 602.00,55.41 603.00,55.43 604.00,55.41 605.00,55.38 606.00,55.43 607.00,55.38 608.00,55.38 609.00,55.41 610.00,55.38 611.00,55.40 612.00,55.38 613.00,55.40 614.00,55.63 615.00,55.38 616.00,55.38 617.00,55.38 618.00,55.43 619.00,55.38 620.00,55.41 621.00,55.38 622.00,55.40 623.00,55.38 624.00,55.41 625.00,55.38 626.00,55.38 627.00,55.44 628.00,55.38 629.00,55.38 630.00,55.41 631.00,55.43 632.00,55.42 633.00,55.41 634.00,55.41 635.00,55.40 636.00,55.41 637.00,55.38 638.00,55.40 639.00,55.41 640.00,55.41 641.00,55.38 642.00,55.38 643.00,55.38 644.00,55.47 645.00,55.41 646.00,55.38 647.00,55.45 648.00,55.45 649.00,55.38 650.00,55.40 651.00,55.41 652.00,55.41 653.00,55.41 654.00,55.41 655.00,55.40 656.00,55.45 657.00,55.38 658.00,55.41 659.00,55.45 660.00,55.43 661.00,55.38 662.00,55.38 663.00,55.43 664.00,55.43 665.00,55.38 666.00,55.41 667.00,55.36 668.00,55.38 669.00,55.43 670.00,55.40 671.00,55.41 672.00,55.41 673.00,55.40 674.00,55.38 675.00,55.40 676.00,55.43 677.00,55.40 678.00,55.40 679.00,55.41 680.00,55.41 681.00,55.43 682.00,55.41 683.00,55.36 684.00,55.42 685.00,55.41 686.00,55.43 687.00,55.40 688.00,55.38 689.00,55.44 690.00,55.38 691.00,55.40 692.00,55.41 693.00,55.38 694.00,55.40 695.00,55.41 696.00,55.41 697.00,55.38 698.00,55.41 699.00,55.38 700.00,55.44 701.00,55.38 702.00,55.41 703.00,55.38 704.00,55.41 705.00,55.36 706.00,55.41 707.00,55.41 708.00,55.38 709.00,55.41 710.00,55.40 711.00,55.41 712.00,55.40 713.00,55.41 714.00,55.38 715.00,55.40 716.00,55.45 717.00,55.38 718.00,55.38 719.00,55.38 720.00,55.44 721.00,55.38 722.00,55.38 723.00,55.41 724.00,55.41 725.00,55.38 726.00,55.46 727.00,55.38 728.00,55.38 729.00,55.43 730.00,55.41 731.00,55.41 732.00,55.42 733.00,55.43 734.00,55.38 735.00,55.41 736.00,55.45 737.00,55.38 738.00,55.38 739.00,55.41 740.00,55.43 741.00,55.34 742.00,55.41 743.00,55.38 744.00,55.43 745.00,55.38 746.00,55.40 747.00,55.41 748.00,55.40 749.00,55.45 750.00,55.43 751.00,55.47 752.00,55.41 753.00,55.40 754.00,55.38 755.00,55.42 756.00,55.41 757.00,55.41 758.00,55.45 759.00,55.43 760.00,55.38 761.00,55.40 762.00,55.43 763.00,55.38 764.00,55.47 765.00,55.41 766.00,55.41 767.00,55.43 768.00,55.42 769.00,55.41 770.00,55.41 771.00,55.45 772.00,55.45 773.00,55.38 774.00,55.44 775.00,55.36 776.00,55.41 777.00,55.43 778.00,55.40 779.00,55.40 780.00,55.40 781.00,55.41 782.00,55.45 783.00,55.43 784.00,55.43 785.00,55.40 786.00,55.43 787.00,55.40 788.00,55.43 789.00,55.43 790.00,55.41 791.00,55.41 792.00,55.41 793.00,55.40 794.00,55.41 795.00,55.40 796.00,55.41 797.00,55.38 798.00,55.40 799.00,55.41 800.00,55.59" fill="none" stroke="#555555" stroke-width="1.3" opacity="1.0" stroke-linejoin="round"/><text x="816.0" y="66.0" font-family="sans-serif" font-size="13" text-anchor="start" fill="#555555" font-weight="bold">RRT=OFF (1e9)</text><text x="816.0" y="86.0" font-family="sans-serif" font-size="11" text-anchor="start" fill="#444" font-weight="normal">reclaims/inst: 0</text><text x="816.0" y="103.0" font-family="sans-serif" font-size="11" text-anchor="start" fill="#444" font-weight="normal">avg 3359.0 MiB/s</text><text x="816.0" y="120.0" font-family="sans-serif" font-size="11" text-anchor="start" fill="#444" font-weight="normal">min(dip) 3323.5</text><text x="816.0" y="137.0" font-family="sans-serif" font-size="11" text-anchor="start" fill="#444" font-weight="normal">dips: 0/720 intervals</text><rect x="80.0" y="176.0" width="720.0" height="96.0" fill="#fbfbfb" stroke="#888" stroke-width="1.0" opacity="1.0"/><line x1="80.0" y1="272.0" x2="800.0" y2="272.0" stroke="#e3e3e3" stroke-width="1.0" opacity="1.0"/><text x="74.0" y="276.0" font-family="sans-serif" font-size="11" text-anchor="end" fill="#444" font-weight="normal">1000</text><line x1="80.0" y1="252.8" x2="800.0" y2="252.8" stroke="#e3e3e3" stroke-width="1.0" opacity="1.0"/><text x="74.0" y="256.8" font-family="sans-serif" font-size="11" text-anchor="end" fill="#444" font-weight="normal">1500</text><line x1="80.0" y1="233.6" x2="800.0" y2="233.6" stroke="#e3e3e3" stroke-width="1.0" opacity="1.0"/><text x="74.0" y="237.6" font-family="sans-serif" font-size="11" text-anchor="end" fill="#444" font-weight="normal">2000</text><line x1="80.0" y1="214.4" x2="800.0" y2="214.4" stroke="#e3e3e3" stroke-width="1.0" opacity="1.0"/><text x="74.0" y="218.4" font-family="sans-serif" font-size="11" text-anchor="end" fill="#444" font-weight="normal">2500</text><line x1="80.0" y1="195.2" x2="800.0" y2="195.2" stroke="#e3e3e3" stroke-width="1.0" opacity="1.0"/><text x="74.0" y="199.2" font-family="sans-serif" font-size="11" text-anchor="end" fill="#444" font-weight="normal">3000</text><line x1="80.0" y1="176.0" x2="800.0" y2="176.0" stroke="#e3e3e3" stroke-width="1.0" opacity="1.0"/><text x="74.0" y="180.0" font-family="sans-serif" font-size="11" text-anchor="end" fill="#444" font-weight="normal">3500</text><line x1="80.0" y1="176.0" x2="80.0" y2="272.0" stroke="#e3e3e3" stroke-width="1.0" opacity="1.0"/><text x="80.0" y="288.0" font-family="sans-serif" font-size="11" text-anchor="middle" fill="#444" font-weight="normal">0</text><line x1="200.0" y1="176.0" x2="200.0" y2="272.0" stroke="#e3e3e3" stroke-width="1.0" opacity="1.0"/><text x="200.0" y="288.0" font-family="sans-serif" font-size="11" text-anchor="middle" fill="#444" font-weight="normal">30</text><line x1="320.0" y1="176.0" x2="320.0" y2="272.0" stroke="#e3e3e3" stroke-width="1.0" opacity="1.0"/><text x="320.0" y="288.0" font-family="sans-serif" font-size="11" text-anchor="middle" fill="#444" font-weight="normal">60</text><line x1="440.0" y1="176.0" x2="440.0" y2="272.0" stroke="#e3e3e3" stroke-width="1.0" opacity="1.0"/><text x="440.0" y="288.0" font-family="sans-serif" font-size="11" text-anchor="middle" fill="#444" font-weight="normal">90</text><line x1="560.0" y1="176.0" x2="560.0" y2="272.0" stroke="#e3e3e3" stroke-width="1.0" opacity="1.0"/><text x="560.0" y="288.0" font-family="sans-serif" font-size="11" text-anchor="middle" fill="#444" font-weight="normal">120</text><line x1="680.0" y1="176.0" x2="680.0" y2="272.0" stroke="#e3e3e3" stroke-width="1.0" opacity="1.0"/><text x="680.0" y="288.0" font-family="sans-serif" font-size="11" text-anchor="middle" fill="#444" font-weight="normal">150</text><line x1="800.0" y1="176.0" x2="800.0" y2="272.0" stroke="#e3e3e3" stroke-width="1.0" opacity="1.0"/><text x="800.0" y="288.0" font-family="sans-serif" font-size="11" text-anchor="middle" fill="#444" font-weight="normal">180</text><line x1="80.0" y1="181.4" x2="800.0" y2="181.4" stroke="#999" stroke-width="1.0" stroke-dasharray="2,3" opacity="1.0"/><polyline points="81.00,181.41 82.00,181.45 83.00,181.44 84.00,181.41 85.00,181.49 86.00,181.43 87.00,181.45 88.00,181.47 89.00,181.43 90.00,181.45 91.00,181.47 92.00,181.43 93.00,181.45 94.00,181.44 95.00,181.45 96.00,181.45 97.00,181.45 98.00,181.41 99.00,181.41 100.00,181.45 101.00,181.45 102.00,181.45 103.00,181.36 104.00,181.41 105.00,181.41 106.00,181.49 107.00,181.38 108.00,181.45 109.00,181.45 110.00,181.45 111.00,181.44 112.00,181.41 113.00,181.45 114.00,181.41 115.00,181.41 116.00,181.41 117.00,181.40 118.00,181.41 119.00,181.38 120.00,181.41 121.00,181.43 122.00,181.41 123.00,181.42 124.00,181.43 125.00,181.40 126.00,181.41 127.00,181.41 128.00,181.41 129.00,181.45 130.00,181.44 131.00,181.41 132.00,181.36 133.00,181.41 134.00,181.43 135.00,181.45 136.00,181.47 137.00,181.40 138.00,181.41 139.00,181.38 140.00,181.38 141.00,181.43 142.00,181.41 143.00,181.38 144.00,181.40 145.00,181.41 146.00,181.47 147.00,181.41 148.00,181.40 149.00,181.40 150.00,181.41 151.00,181.41 152.00,181.38 153.00,181.41 154.00,181.45 155.00,181.40 156.00,181.40 157.00,181.40 158.00,181.66 159.00,181.38 160.00,181.44 161.00,181.38 162.00,181.41 163.00,181.40 164.00,181.41 165.00,181.43 166.00,181.40 167.00,181.38 168.00,181.41 169.00,181.43 170.00,181.41 171.00,181.47 172.00,181.40 173.00,181.41 174.00,181.41 175.00,181.40 176.00,181.45 177.00,181.38 178.00,181.40 179.00,181.45 180.00,181.41 181.00,181.43 182.00,181.40 183.00,181.41 184.00,181.45 185.00,181.44 186.00,181.41 187.00,181.40 188.00,181.40 189.00,181.45 190.00,181.41 191.00,181.42 192.00,181.47 193.00,181.41 194.00,181.41 195.00,181.40 196.00,181.41 197.00,181.43 198.00,181.40 199.00,181.43 200.00,181.43 201.00,181.41 202.00,181.40 203.00,181.43 204.00,181.41 205.00,181.44 206.00,181.38 207.00,181.40 208.00,181.41 209.00,181.41 210.00,181.40 211.00,181.45 212.00,181.43 213.00,181.41 214.00,181.45 215.00,181.41 216.00,181.45 217.00,181.45 218.00,181.41 219.00,181.46 220.00,181.47 221.00,181.41 222.00,181.41 223.00,181.41 224.00,181.40 225.00,181.47 226.00,181.40 227.00,181.38 228.00,181.45 229.00,181.41 230.00,181.45 231.00,181.47 232.00,181.43 233.00,181.41 234.00,181.44 235.00,181.99 236.00,214.71 237.00,262.48 238.00,198.81 239.00,181.43 240.00,181.41 241.00,181.41 242.00,181.47 243.00,181.41 244.00,181.47 245.00,181.43 246.00,181.47 247.00,181.38 248.00,181.38 249.00,181.45 250.00,181.43 251.00,181.45 252.00,181.44 253.00,181.47 254.00,181.41 255.00,181.36 256.00,181.41 257.00,181.45 258.00,181.44 259.00,181.38 260.00,181.41 261.00,181.47 262.00,181.41 263.00,181.43 264.00,181.41 265.00,181.41 266.00,181.44 267.00,181.41 268.00,181.51 269.00,181.41 270.00,181.43 271.00,181.45 272.00,181.45 273.00,181.45 274.00,181.43 275.00,181.44 276.00,181.43 277.00,181.40 278.00,181.41 279.00,181.40 280.00,181.41 281.00,181.45 282.00,181.44 283.00,181.38 284.00,181.41 285.00,181.41 286.00,181.40 287.00,181.38 288.00,181.43 289.00,181.40 290.00,181.41 291.00,181.41 292.00,181.41 293.00,181.45 294.00,181.44 295.00,181.47 296.00,181.43 297.00,181.41 298.00,181.47 299.00,181.41 300.00,181.41 301.00,181.41 302.00,181.42 303.00,181.43 304.00,181.41 305.00,181.41 306.00,181.41 307.00,181.45 308.00,181.41 309.00,181.46 310.00,181.43 311.00,181.45 312.00,181.38 313.00,181.41 314.00,181.45 315.00,181.41 316.00,181.40 317.00,181.49 318.00,181.40 319.00,181.43 320.00,181.45 321.00,181.43 322.00,181.43 323.00,181.43 324.00,181.47 325.00,181.44 326.00,181.40 327.00,181.43 328.00,181.41 329.00,181.47 330.00,181.38 331.00,181.41 332.00,181.40 333.00,181.41 334.00,181.41 335.00,181.41 336.00,181.45 337.00,181.40 338.00,181.40 339.00,181.41 340.00,181.41 341.00,181.41 342.00,181.40 343.00,181.41 344.00,181.47 345.00,181.38 346.00,181.41 347.00,181.41 348.00,181.41 349.00,181.41 350.00,181.41 351.00,181.42 352.00,181.41 353.00,181.41 354.00,181.40 355.00,181.41 356.00,181.40 357.00,181.41 358.00,181.41 359.00,181.41 360.00,181.41 361.00,181.41 362.00,181.40 363.00,181.43 364.00,181.45 365.00,181.41 366.00,181.41 367.00,181.41 368.00,181.40 369.00,181.41 370.00,181.47 371.00,181.41 372.00,181.43 373.00,181.40 374.00,181.41 375.00,181.45 376.00,181.40 377.00,181.45 378.00,181.40 379.00,181.43 380.00,181.43 381.00,181.45 382.00,181.40 383.00,181.44 384.00,181.43 385.00,181.43 386.00,181.41 387.00,181.43 388.00,181.41 389.00,181.43 390.00,181.42 391.00,181.40 392.00,181.64 393.00,198.12 394.00,261.40 395.00,212.40 396.00,181.41 397.00,181.42 398.00,181.43 399.00,181.41 400.00,181.43 401.00,181.45 402.00,181.41 403.00,181.40 404.00,181.44 405.00,181.40 406.00,181.41 407.00,181.45 408.00,181.41 409.00,181.43 410.00,181.43 411.00,181.47 412.00,181.45 413.00,181.43 414.00,181.41 415.00,181.38 416.00,181.43 417.00,181.43 418.00,181.44 419.00,181.45 420.00,181.40 421.00,181.43 422.00,181.45 423.00,181.40 424.00,181.43 425.00,181.45 426.00,181.44 427.00,181.41 428.00,181.41 429.00,181.41 430.00,181.41 431.00,181.41 432.00,181.41 433.00,181.40 434.00,181.41 435.00,181.47 436.00,181.40 437.00,181.45 438.00,181.41 439.00,181.41 440.00,181.46 441.00,181.43 442.00,181.41 443.00,181.40 444.00,181.41 445.00,181.45 446.00,181.41 447.00,181.40 448.00,181.41 449.00,181.41 450.00,181.40 451.00,181.41 452.00,181.41 453.00,181.47 454.00,181.41 455.00,181.41 456.00,181.43 457.00,181.43 458.00,181.40 459.00,181.45 460.00,181.45 461.00,181.40 462.00,181.47 463.00,181.41 464.00,181.47 465.00,181.41 466.00,181.43 467.00,181.41 468.00,181.45 469.00,181.42 470.00,181.45 471.00,181.41 472.00,181.41 473.00,181.41 474.00,181.41 475.00,181.36 476.00,181.43 477.00,181.43 478.00,181.38 479.00,181.41 480.00,181.38 481.00,181.40 482.00,181.38 483.00,181.38 484.00,181.38 485.00,181.45 486.00,181.40 487.00,181.41 488.00,181.43 489.00,181.40 490.00,181.45 491.00,181.38 492.00,181.40 493.00,181.43 494.00,181.40 495.00,181.41 496.00,181.41 497.00,181.41 498.00,181.40 499.00,181.40 500.00,181.41 501.00,181.43 502.00,181.43 503.00,181.41 504.00,181.42 505.00,181.40 506.00,181.43 507.00,181.38 508.00,181.41 509.00,181.43 510.00,181.44 511.00,181.43 512.00,181.43 513.00,181.38 514.00,181.45 515.00,181.40 516.00,181.38 517.00,181.41 518.00,181.47 519.00,181.40 520.00,181.43 521.00,181.41 522.00,181.47 523.00,181.43 524.00,181.42 525.00,181.38 526.00,181.43 527.00,181.34 528.00,181.41 529.00,181.44 530.00,181.41 531.00,181.38 532.00,181.43 533.00,181.40 534.00,181.47 535.00,181.41 536.00,181.40 537.00,181.41 538.00,181.43 539.00,181.41 540.00,181.45 541.00,181.43 542.00,181.43 543.00,181.45 544.00,181.38 545.00,181.41 546.00,181.40 547.00,181.45 548.00,181.43 549.00,181.61 550.00,184.00 551.00,261.36 552.00,226.84 553.00,181.41 554.00,181.45 555.00,181.40 556.00,181.40 557.00,181.44 558.00,181.41 559.00,181.38 560.00,181.41 561.00,181.41 562.00,181.41 563.00,181.44 564.00,181.45 565.00,181.41 566.00,181.38 567.00,181.41 568.00,181.41 569.00,181.36 570.00,181.45 571.00,181.40 572.00,181.40 573.00,181.41 574.00,181.45 575.00,181.41 576.00,181.44 577.00,181.38 578.00,181.43 579.00,181.38 580.00,181.95 581.00,181.40 582.00,181.43 583.00,181.38 584.00,181.45 585.00,181.41 586.00,181.38 587.00,181.40 588.00,181.41 589.00,181.38 590.00,181.66 591.00,181.38 592.00,181.43 593.00,181.40 594.00,181.40 595.00,181.41 596.00,181.36 597.00,181.41 598.00,181.44 599.00,181.41 600.00,181.43 601.00,181.38 602.00,181.40 603.00,181.45 604.00,181.42 605.00,181.45 606.00,181.41 607.00,181.43 608.00,181.38 609.00,181.47 610.00,181.41 611.00,181.40 612.00,181.41 613.00,181.41 614.00,181.41 615.00,181.38 616.00,181.41 617.00,181.44 618.00,181.41 619.00,181.40 620.00,181.38 621.00,181.45 622.00,181.41 623.00,181.41 624.00,181.40 625.00,181.41 626.00,181.40 627.00,181.38 628.00,181.45 629.00,181.43 630.00,181.46 631.00,181.38 632.00,181.41 633.00,181.41 634.00,181.41 635.00,181.40 636.00,181.40 637.00,181.43 638.00,181.43 639.00,181.40 640.00,181.38 641.00,181.46 642.00,181.45 643.00,181.34 644.00,181.38 645.00,181.40 646.00,181.40 647.00,181.42 648.00,181.43 649.00,181.41 650.00,181.43 651.00,181.38 652.00,181.38 653.00,181.43 654.00,181.40 655.00,181.38 656.00,181.43 657.00,181.40 658.00,181.42 659.00,181.38 660.00,181.41 661.00,181.40 662.00,181.38 663.00,181.38 664.00,181.43 665.00,181.41 666.00,181.41 667.00,181.40 668.00,181.41 669.00,181.40 670.00,181.41 671.00,181.41 672.00,181.38 673.00,181.40 674.00,181.42 675.00,181.49 676.00,181.40 677.00,181.41 678.00,181.41 679.00,181.41 680.00,181.43 681.00,181.38 682.00,181.41 683.00,181.41 684.00,181.40 685.00,181.38 686.00,181.41 687.00,181.42 688.00,181.36 689.00,181.38 690.00,181.41 691.00,181.43 692.00,181.42 693.00,181.43 694.00,181.43 695.00,181.38 696.00,181.38 697.00,181.38 698.00,181.40 699.00,181.41 700.00,181.45 701.00,181.38 702.00,181.45 703.00,181.41 704.00,181.40 705.00,181.47 706.00,181.59 707.00,182.51 708.00,249.94 709.00,248.27 710.00,181.40 711.00,181.45 712.00,181.40 713.00,181.43 714.00,181.41 715.00,181.38 716.00,181.47 717.00,181.42 718.00,181.38 719.00,181.40 720.00,181.36 721.00,181.38 722.00,181.47 723.00,181.41 724.00,181.41 725.00,181.40 726.00,181.38 727.00,181.36 728.00,181.41 729.00,181.41 730.00,181.43 731.00,181.40 732.00,181.45 733.00,181.45 734.00,181.42 735.00,181.43 736.00,181.40 737.00,181.38 738.00,181.41 739.00,181.36 740.00,181.38 741.00,181.45 742.00,181.38 743.00,181.38 744.00,181.40 745.00,181.43 746.00,181.40 747.00,181.38 748.00,181.38 749.00,181.40 750.00,181.45 751.00,181.38 752.00,181.41 753.00,181.38 754.00,181.43 755.00,181.40 756.00,181.38 757.00,181.40 758.00,181.40 759.00,181.38 760.00,181.44 761.00,181.38 762.00,181.47 763.00,181.40 764.00,181.40 765.00,181.41 766.00,181.44 767.00,181.40 768.00,181.45 769.00,181.40 770.00,181.38 771.00,181.43 772.00,181.42 773.00,181.38 774.00,181.40 775.00,181.41 776.00,181.41 777.00,181.41 778.00,181.40 779.00,181.38 780.00,181.36 781.00,181.43 782.00,181.38 783.00,181.47 784.00,181.41 785.00,181.41 786.00,181.38 787.00,181.38 788.00,181.38 789.00,181.40 790.00,181.41 791.00,181.43 792.00,181.38 793.00,181.38 794.00,181.46 795.00,181.38 796.00,181.41 797.00,181.38 798.00,181.40 799.00,181.42 800.00,181.55" fill="none" stroke="#1f77b4" stroke-width="1.3" opacity="1.0" stroke-linejoin="round"/><text x="816.0" y="192.0" font-family="sans-serif" font-size="13" text-anchor="start" fill="#1f77b4" font-weight="bold">RRT=1024</text><text x="816.0" y="212.0" font-family="sans-serif" font-size="11" text-anchor="start" fill="#444" font-weight="normal">reclaims/inst: 1,024</text><text x="816.0" y="229.0" font-family="sans-serif" font-size="11" text-anchor="start" fill="#444" font-weight="normal">avg 3339.9 MiB/s</text><text x="816.0" y="246.0" font-family="sans-serif" font-size="11" text-anchor="start" fill="#444" font-weight="normal">min(dip) 1248.0</text><text x="816.0" y="263.0" font-family="sans-serif" font-size="11" text-anchor="start" fill="#444" font-weight="normal">dips: 10/720 intervals</text><rect x="80.0" y="302.0" width="720.0" height="96.0" fill="#fbfbfb" stroke="#888" stroke-width="1.0" opacity="1.0"/><line x1="80.0" y1="398.0" x2="800.0" y2="398.0" stroke="#e3e3e3" stroke-width="1.0" opacity="1.0"/><text x="74.0" y="402.0" font-family="sans-serif" font-size="11" text-anchor="end" fill="#444" font-weight="normal">1000</text><line x1="80.0" y1="378.8" x2="800.0" y2="378.8" stroke="#e3e3e3" stroke-width="1.0" opacity="1.0"/><text x="74.0" y="382.8" font-family="sans-serif" font-size="11" text-anchor="end" fill="#444" font-weight="normal">1500</text><line x1="80.0" y1="359.6" x2="800.0" y2="359.6" stroke="#e3e3e3" stroke-width="1.0" opacity="1.0"/><text x="74.0" y="363.6" font-family="sans-serif" font-size="11" text-anchor="end" fill="#444" font-weight="normal">2000</text><line x1="80.0" y1="340.4" x2="800.0" y2="340.4" stroke="#e3e3e3" stroke-width="1.0" opacity="1.0"/><text x="74.0" y="344.4" font-family="sans-serif" font-size="11" text-anchor="end" fill="#444" font-weight="normal">2500</text><line x1="80.0" y1="321.2" x2="800.0" y2="321.2" stroke="#e3e3e3" stroke-width="1.0" opacity="1.0"/><text x="74.0" y="325.2" font-family="sans-serif" font-size="11" text-anchor="end" fill="#444" font-weight="normal">3000</text><line x1="80.0" y1="302.0" x2="800.0" y2="302.0" stroke="#e3e3e3" stroke-width="1.0" opacity="1.0"/><text x="74.0" y="306.0" font-family="sans-serif" font-size="11" text-anchor="end" fill="#444" font-weight="normal">3500</text><line x1="80.0" y1="302.0" x2="80.0" y2="398.0" stroke="#e3e3e3" stroke-width="1.0" opacity="1.0"/><text x="80.0" y="414.0" font-family="sans-serif" font-size="11" text-anchor="middle" fill="#444" font-weight="normal">0</text><line x1="200.0" y1="302.0" x2="200.0" y2="398.0" stroke="#e3e3e3" stroke-width="1.0" opacity="1.0"/><text x="200.0" y="414.0" font-family="sans-serif" font-size="11" text-anchor="middle" fill="#444" font-weight="normal">30</text><line x1="320.0" y1="302.0" x2="320.0" y2="398.0" stroke="#e3e3e3" stroke-width="1.0" opacity="1.0"/><text x="320.0" y="414.0" font-family="sans-serif" font-size="11" text-anchor="middle" fill="#444" font-weight="normal">60</text><line x1="440.0" y1="302.0" x2="440.0" y2="398.0" stroke="#e3e3e3" stroke-width="1.0" opacity="1.0"/><text x="440.0" y="414.0" font-family="sans-serif" font-size="11" text-anchor="middle" fill="#444" font-weight="normal">90</text><line x1="560.0" y1="302.0" x2="560.0" y2="398.0" stroke="#e3e3e3" stroke-width="1.0" opacity="1.0"/><text x="560.0" y="414.0" font-family="sans-serif" font-size="11" text-anchor="middle" fill="#444" font-weight="normal">120</text><line x1="680.0" y1="302.0" x2="680.0" y2="398.0" stroke="#e3e3e3" stroke-width="1.0" opacity="1.0"/><text x="680.0" y="414.0" font-family="sans-serif" font-size="11" text-anchor="middle" fill="#444" font-weight="normal">150</text><line x1="800.0" y1="302.0" x2="800.0" y2="398.0" stroke="#e3e3e3" stroke-width="1.0" opacity="1.0"/><text x="800.0" y="414.0" font-family="sans-serif" font-size="11" text-anchor="middle" fill="#444" font-weight="normal">180</text><line x1="80.0" y1="307.4" x2="800.0" y2="307.4" stroke="#999" stroke-width="1.0" stroke-dasharray="2,3" opacity="1.0"/><polyline points="81.00,308.34 82.00,307.36 83.00,307.40 84.00,307.36 85.00,307.41 86.00,307.40 87.00,307.38 88.00,307.43 89.00,307.40 90.00,307.41 91.00,307.41 92.00,307.41 93.00,307.36 94.00,307.40 95.00,307.38 96.00,307.34 97.00,307.42 98.00,307.41 99.00,307.43 100.00,307.38 101.00,307.43 102.00,307.41 103.00,307.38 104.00,307.38 105.00,307.40 106.00,307.41 107.00,307.42 108.00,307.40 109.00,307.41 110.00,307.41 111.00,307.34 112.00,307.41 113.00,307.44 114.00,307.45 115.00,307.38 116.00,307.38 117.00,307.38 118.00,307.90 119.00,351.48 120.00,388.48 121.00,313.42 122.00,307.41 123.00,307.38 124.00,307.38 125.00,307.40 126.00,307.38 127.00,307.41 128.00,307.38 129.00,307.36 130.00,307.40 131.00,307.40 132.00,307.38 133.00,307.38 134.00,307.41 135.00,307.38 136.00,307.38 137.00,307.38 138.00,307.44 139.00,307.38 140.00,307.38 141.00,307.43 142.00,307.43 143.00,307.36 144.00,307.41 145.00,307.41 146.00,307.38 147.00,307.41 148.00,307.43 149.00,307.42 150.00,307.43 151.00,307.38 152.00,307.41 153.00,307.38 154.00,307.40 155.00,307.45 156.00,307.36 157.00,307.38 158.00,307.89 159.00,346.26 160.00,389.40 161.00,321.28 162.00,307.38 163.00,307.40 164.00,307.41 165.00,307.42 166.00,307.43 167.00,307.38 168.00,307.38 169.00,307.38 170.00,307.40 171.00,307.38 172.00,307.43 173.00,307.38 174.00,307.40 175.00,307.41 176.00,307.38 177.00,307.38 178.00,307.41 179.00,307.38 180.00,307.40 181.00,307.41 182.00,307.45 183.00,307.38 184.00,307.41 185.00,307.40 186.00,307.41 187.00,307.38 188.00,307.41 189.00,307.38 190.00,307.41 191.00,308.00 192.00,307.40 193.00,307.38 194.00,307.41 195.00,307.41 196.00,307.40 197.00,307.45 198.00,307.61 199.00,338.25 200.00,387.36 201.00,324.27 202.00,307.40 203.00,307.41 204.00,307.88 205.00,307.45 206.00,307.41 207.00,307.45 208.00,307.36 209.00,307.41 210.00,307.41 211.00,307.38 212.00,307.38 213.00,307.44 214.00,307.43 215.00,307.40 216.00,307.36 217.00,307.40 218.00,307.38 219.00,307.40 220.00,307.38 221.00,307.40 222.00,307.45 223.00,307.38 224.00,307.40 225.00,307.45 226.00,307.40 227.00,307.36 228.00,307.40 229.00,307.44 230.00,307.43 231.00,307.45 232.00,307.38 233.00,307.38 234.00,307.40 235.00,307.38 236.00,307.38 237.00,307.38 238.00,307.64 239.00,335.79 240.00,389.25 241.00,334.16 242.00,307.38 243.00,307.43 244.00,307.38 245.00,307.43 246.00,307.43 247.00,307.42 248.00,307.40 249.00,307.40 250.00,307.38 251.00,307.38 252.00,307.44 253.00,307.38 254.00,307.38 255.00,307.40 256.00,307.38 257.00,307.38 258.00,307.47 259.00,307.38 260.00,307.41 261.00,307.41 262.00,307.45 263.00,307.44 264.00,307.38 265.00,307.40 266.00,307.41 267.00,307.38 268.00,307.38 269.00,307.40 270.00,307.38 271.00,307.41 272.00,307.41 273.00,307.36 274.00,307.41 275.00,307.40 276.00,307.38 277.00,307.64 278.00,307.67 279.00,326.35 280.00,387.56 281.00,336.73 282.00,307.40 283.00,307.38 284.00,307.41 285.00,307.40 286.00,307.40 287.00,307.38 288.00,307.43 289.00,307.40 290.00,307.40 291.00,307.43 292.00,307.45 293.00,307.40 294.00,307.41 295.00,307.38 296.00,307.44 297.00,307.41 298.00,307.43 299.00,307.40 300.00,307.38 301.00,307.40 302.00,307.42 303.00,307.38 304.00,307.43 305.00,307.41 306.00,307.47 307.00,307.38 308.00,307.40 309.00,307.38 310.00,307.38 311.00,307.38 312.00,307.42 313.00,307.43 314.00,307.45 315.00,307.41 316.00,307.41 317.00,307.57 318.00,307.68 319.00,372.65 320.00,378.19 321.00,307.45 322.00,307.38 323.00,307.40 324.00,307.38 325.00,307.42 326.00,307.41 327.00,307.38 328.00,307.41 329.00,307.38 330.00,307.36 331.00,307.38 332.00,307.38 333.00,307.38 334.00,307.41 335.00,307.40 336.00,307.38 337.00,307.43 338.00,307.40 339.00,307.40 340.00,307.36 341.00,307.41 342.00,307.43 343.00,307.40 344.00,307.41 345.00,307.45 346.00,307.44 347.00,307.41 348.00,307.40 349.00,307.43 350.00,307.38 351.00,307.41 352.00,307.36 353.00,307.41 354.00,307.45 355.00,307.36 356.00,307.41 357.00,307.40 358.00,307.91 359.00,363.36 360.00,381.76 361.00,307.41 362.00,307.40 363.00,307.38 364.00,307.36 365.00,307.41 366.00,307.41 367.00,307.38 368.00,307.40 369.00,307.40 370.00,307.47 371.00,307.41 372.00,307.36 373.00,307.40 374.00,307.44 375.00,307.38 376.00,307.40 377.00,307.38 378.00,307.45 379.00,307.40 380.00,307.42 381.00,307.41 382.00,307.38 383.00,307.38 384.00,307.43 385.00,307.42 386.00,307.45 387.00,307.38 388.00,307.40 389.00,307.40 390.00,307.45 391.00,307.41 392.00,307.44 393.00,307.41 394.00,307.38 395.00,307.40 396.00,307.43 397.00,307.40 398.00,307.99 399.00,359.10 400.00,388.32 401.00,307.84 402.00,307.38 403.00,307.40 404.00,307.47 405.00,307.40 406.00,307.41 407.00,307.38 408.00,307.38 409.00,307.41 410.00,307.40 411.00,307.45 412.00,307.45 413.00,307.38 414.00,307.41 415.00,307.38 416.00,307.40 417.00,307.41 418.00,307.38 419.00,307.38 420.00,307.41 421.00,307.44 422.00,307.45 423.00,307.41 424.00,307.38 425.00,307.41 426.00,307.41 427.00,307.45 428.00,307.47 429.00,307.45 430.00,307.43 431.00,307.41 432.00,307.43 433.00,307.43 434.00,307.41 435.00,307.38 436.00,307.40 437.00,307.41 438.00,307.89 439.00,351.80 440.00,387.56 441.00,311.33 442.00,307.45 443.00,307.36 444.00,307.41 445.00,307.41 446.00,307.40 447.00,307.41 448.00,307.36 449.00,307.38 450.00,307.41 451.00,307.38 452.00,307.38 453.00,307.40 454.00,307.45 455.00,307.41 456.00,307.38 457.00,307.38 458.00,307.44 459.00,307.41 460.00,307.43 461.00,307.40 462.00,307.43 463.00,307.40 464.00,307.42 465.00,307.41 466.00,307.45 467.00,307.38 468.00,307.40 469.00,307.38 470.00,307.44 471.00,307.40 472.00,307.47 473.00,307.40 474.00,307.41 475.00,307.41 476.00,307.41 477.00,307.47 478.00,307.89 479.00,347.95 480.00,387.52 481.00,314.75 482.00,307.43 483.00,307.38 484.00,307.47 485.00,307.40 486.00,307.43 487.00,307.40 488.00,307.45 489.00,307.43 490.00,307.43 491.00,307.43 492.00,307.40 493.00,307.41 494.00,307.41 495.00,307.40 496.00,307.45 497.00,307.43 498.00,307.44 499.00,307.41 500.00,307.43 501.00,307.45 502.00,307.41 503.00,307.40 504.00,307.43 505.00,307.45 506.00,307.44 507.00,307.41 508.00,307.38 509.00,307.38 510.00,307.41 511.00,307.72 512.00,307.40 513.00,307.38 514.00,307.45 515.00,307.38 516.00,307.41 517.00,307.64 518.00,308.77 519.00,343.89 520.00,387.90 521.00,320.16 522.00,307.40 523.00,307.40 524.00,307.41 525.00,307.40 526.00,307.41 527.00,307.41 528.00,307.45 529.00,307.41 530.00,307.45 531.00,307.47 532.00,307.40 533.00,307.43 534.00,307.41 535.00,307.41 536.00,307.40 537.00,307.45 538.00,307.43 539.00,307.47 540.00,307.47 541.00,307.47 542.00,307.49 543.00,307.47 544.00,307.47 545.00,307.45 546.00,307.49 547.00,307.45 548.00,307.49 549.00,307.49 550.00,307.49 551.00,307.45 552.00,307.49 553.00,307.47 554.00,307.47 555.00,307.49 556.00,307.47 557.00,307.68 558.00,308.68 559.00,370.62 560.00,370.05 561.00,309.35 562.00,307.41 563.00,307.45 564.00,307.38 565.00,307.43 566.00,307.41 567.00,307.40 568.00,307.45 569.00,307.45 570.00,307.45 571.00,307.51 572.00,307.47 573.00,307.45 574.00,307.51 575.00,307.47 576.00,307.47 577.00,307.49 578.00,307.47 579.00,307.47 580.00,307.45 581.00,307.45 582.00,307.41 583.00,307.44 584.00,307.43 585.00,307.43 586.00,307.43 587.00,307.40 588.00,307.43 589.00,307.45 590.00,307.40 591.00,307.46 592.00,307.43 593.00,307.41 594.00,307.40 595.00,307.43 596.00,307.41 597.00,307.64 598.00,307.69 599.00,384.35 600.00,358.18 601.00,307.45 602.00,307.41 603.00,307.41 604.00,307.41 605.00,307.47 606.00,307.41 607.00,307.41 608.00,307.41 609.00,307.43 610.00,307.41 611.00,307.45 612.00,307.41 613.00,307.47 614.00,307.40 615.00,307.43 616.00,307.43 617.00,307.43 618.00,307.47 619.00,307.45 620.00,307.49 621.00,307.49 622.00,307.47 623.00,307.47 624.00,307.49 625.00,307.49 626.00,307.47 627.00,307.51 628.00,307.44 629.00,307.49 630.00,307.47 631.00,307.47 632.00,307.49 633.00,307.51 634.00,307.45 635.00,307.49 636.00,307.45 637.00,307.68 638.00,307.80 639.00,382.54 640.00,367.20 641.00,307.45 642.00,307.49 643.00,307.49 644.00,307.47 645.00,307.49 646.00,307.47 647.00,307.49 648.00,307.49 649.00,307.49 650.00,307.49 651.00,307.45 652.00,307.47 653.00,307.49 654.00,307.47 655.00,307.49 656.00,307.47 657.00,307.47 658.00,307.49 659.00,307.49 660.00,307.47 661.00,307.47 662.00,307.49 663.00,307.47 664.00,307.49 665.00,307.49 666.00,307.47 667.00,307.49 668.00,307.47 669.00,307.47 670.00,307.49 671.00,307.47 672.00,307.51 673.00,307.49 674.00,307.45 675.00,307.49 676.00,307.47 677.00,307.68 678.00,307.76 679.00,373.90 680.00,369.51 681.00,307.47 682.00,307.51 683.00,307.47 684.00,307.47 685.00,307.47 686.00,307.49 687.00,307.47 688.00,307.47 689.00,307.49 690.00,307.49 691.00,307.49 692.00,307.47 693.00,307.47 694.00,307.43 695.00,307.43 696.00,307.47 697.00,307.45 698.00,307.49 699.00,307.47 700.00,307.47 701.00,307.49 702.00,307.47 703.00,307.47 704.00,307.49 705.00,307.49 706.00,307.45 707.00,307.49 708.00,307.47 709.00,307.51 710.00,307.49 711.00,307.47 712.00,307.47 713.00,307.47 714.00,307.47 715.00,307.51 716.00,307.47 717.00,307.80 718.00,307.64 719.00,369.87 720.00,373.23 721.00,307.49 722.00,307.49 723.00,307.45 724.00,307.49 725.00,307.49 726.00,307.49 727.00,307.49 728.00,307.45 729.00,307.49 730.00,307.49 731.00,307.47 732.00,307.49 733.00,307.51 734.00,307.47 735.00,307.45 736.00,307.51 737.00,307.45 738.00,307.49 739.00,307.49 740.00,307.49 741.00,307.47 742.00,307.47 743.00,307.49 744.00,307.49 745.00,307.45 746.00,307.49 747.00,307.49 748.00,307.49 749.00,307.47 750.00,307.49 751.00,307.47 752.00,307.47 753.00,307.47 754.00,307.47 755.00,307.49 756.00,307.49 757.00,307.64 758.00,318.55 759.00,356.26 760.00,378.95 761.00,307.49 762.00,307.45 763.00,307.49 764.00,307.47 765.00,307.51 766.00,307.45 767.00,307.47 768.00,307.47 769.00,307.47 770.00,307.49 771.00,307.45 772.00,307.47 773.00,307.40 774.00,307.43 775.00,307.41 776.00,307.43 777.00,307.45 778.00,307.38 779.00,307.45 780.00,307.42 781.00,307.47 782.00,307.40 783.00,307.40 784.00,307.41 785.00,307.41 786.00,307.41 787.00,307.40 788.00,307.41 789.00,307.38 790.00,307.41 791.00,307.41 792.00,307.40 793.00,307.41 794.00,307.40 795.00,307.41 796.00,307.40 797.00,307.64 798.00,329.16 799.00,367.32 800.00,354.59" fill="none" stroke="#2ca02c" stroke-width="1.3" opacity="1.0" stroke-linejoin="round"/><text x="816.0" y="318.0" font-family="sans-serif" font-size="13" text-anchor="start" fill="#2ca02c" font-weight="bold">RRT=256</text><text x="816.0" y="338.0" font-family="sans-serif" font-size="11" text-anchor="start" fill="#444" font-weight="normal">reclaims/inst: 4,608</text><text x="816.0" y="355.0" font-family="sans-serif" font-size="11" text-anchor="start" fill="#444" font-weight="normal">avg 3273.2 MiB/s</text><text x="816.0" y="372.0" font-family="sans-serif" font-size="11" text-anchor="start" fill="#444" font-weight="normal">min(dip) 1224.0</text><text x="816.0" y="389.0" font-family="sans-serif" font-size="11" text-anchor="start" fill="#444" font-weight="normal">dips: 44/720 intervals</text><rect x="80.0" y="428.0" width="720.0" height="96.0" fill="#fbfbfb" stroke="#888" stroke-width="1.0" opacity="1.0"/><line x1="80.0" y1="524.0" x2="800.0" y2="524.0" stroke="#e3e3e3" stroke-width="1.0" opacity="1.0"/><text x="74.0" y="528.0" font-family="sans-serif" font-size="11" text-anchor="end" fill="#444" font-weight="normal">1000</text><line x1="80.0" y1="504.8" x2="800.0" y2="504.8" stroke="#e3e3e3" stroke-width="1.0" opacity="1.0"/><text x="74.0" y="508.8" font-family="sans-serif" font-size="11" text-anchor="end" fill="#444" font-weight="normal">1500</text><line x1="80.0" y1="485.6" x2="800.0" y2="485.6" stroke="#e3e3e3" stroke-width="1.0" opacity="1.0"/><text x="74.0" y="489.6" font-family="sans-serif" font-size="11" text-anchor="end" fill="#444" font-weight="normal">2000</text><line x1="80.0" y1="466.4" x2="800.0" y2="466.4" stroke="#e3e3e3" stroke-width="1.0" opacity="1.0"/><text x="74.0" y="470.4" font-family="sans-serif" font-size="11" text-anchor="end" fill="#444" font-weight="normal">2500</text><line x1="80.0" y1="447.2" x2="800.0" y2="447.2" stroke="#e3e3e3" stroke-width="1.0" opacity="1.0"/><text x="74.0" y="451.2" font-family="sans-serif" font-size="11" text-anchor="end" fill="#444" font-weight="normal">3000</text><line x1="80.0" y1="428.0" x2="800.0" y2="428.0" stroke="#e3e3e3" stroke-width="1.0" opacity="1.0"/><text x="74.0" y="432.0" font-family="sans-serif" font-size="11" text-anchor="end" fill="#444" font-weight="normal">3500</text><line x1="80.0" y1="428.0" x2="80.0" y2="524.0" stroke="#e3e3e3" stroke-width="1.0" opacity="1.0"/><text x="80.0" y="540.0" font-family="sans-serif" font-size="11" text-anchor="middle" fill="#444" font-weight="normal">0</text><line x1="200.0" y1="428.0" x2="200.0" y2="524.0" stroke="#e3e3e3" stroke-width="1.0" opacity="1.0"/><text x="200.0" y="540.0" font-family="sans-serif" font-size="11" text-anchor="middle" fill="#444" font-weight="normal">30</text><line x1="320.0" y1="428.0" x2="320.0" y2="524.0" stroke="#e3e3e3" stroke-width="1.0" opacity="1.0"/><text x="320.0" y="540.0" font-family="sans-serif" font-size="11" text-anchor="middle" fill="#444" font-weight="normal">60</text><line x1="440.0" y1="428.0" x2="440.0" y2="524.0" stroke="#e3e3e3" stroke-width="1.0" opacity="1.0"/><text x="440.0" y="540.0" font-family="sans-serif" font-size="11" text-anchor="middle" fill="#444" font-weight="normal">90</text><line x1="560.0" y1="428.0" x2="560.0" y2="524.0" stroke="#e3e3e3" stroke-width="1.0" opacity="1.0"/><text x="560.0" y="540.0" font-family="sans-serif" font-size="11" text-anchor="middle" fill="#444" font-weight="normal">120</text><line x1="680.0" y1="428.0" x2="680.0" y2="524.0" stroke="#e3e3e3" stroke-width="1.0" opacity="1.0"/><text x="680.0" y="540.0" font-family="sans-serif" font-size="11" text-anchor="middle" fill="#444" font-weight="normal">150</text><line x1="800.0" y1="428.0" x2="800.0" y2="524.0" stroke="#e3e3e3" stroke-width="1.0" opacity="1.0"/><text x="800.0" y="540.0" font-family="sans-serif" font-size="11" text-anchor="middle" fill="#444" font-weight="normal">180</text><line x1="80.0" y1="433.4" x2="800.0" y2="433.4" stroke="#999" stroke-width="1.0" stroke-dasharray="2,3" opacity="1.0"/><polyline points="81.00,433.45 82.00,433.41 83.00,433.36 84.00,433.38 85.00,433.38 86.00,433.38 87.00,433.42 88.00,433.59 89.00,433.72 90.00,501.17 91.00,496.83 92.00,433.41 93.00,433.38 94.00,433.40 95.00,433.45 96.00,433.43 97.00,433.36 98.00,433.41 99.00,434.75 100.00,437.60 101.00,515.13 102.00,483.33 103.00,433.38 104.00,433.41 105.00,433.40 106.00,433.38 107.00,433.38 108.00,433.41 109.00,433.40 110.00,433.63 111.00,452.17 112.00,513.36 113.00,462.16 114.00,433.36 115.00,433.38 116.00,433.41 117.00,433.40 118.00,433.36 119.00,433.40 120.00,433.40 121.00,433.88 122.00,472.64 123.00,515.33 124.00,448.31 125.00,433.38 126.00,433.38 127.00,433.38 128.00,433.44 129.00,433.41 130.00,433.38 131.00,433.59 132.00,434.60 133.00,485.77 134.00,508.72 135.00,433.40 136.00,433.41 137.00,433.36 138.00,433.40 139.00,433.38 140.00,433.36 141.00,433.38 142.00,433.84 143.00,441.65 144.00,515.07 145.00,479.69 146.00,433.34 147.00,433.40 148.00,433.36 149.00,433.38 150.00,433.38 151.00,433.40 152.00,433.36 153.00,433.86 154.00,486.10 155.00,508.60 156.00,433.41 157.00,433.40 158.00,433.38 159.00,433.38 160.00,433.41 161.00,433.40 162.00,433.40 163.00,433.57 164.00,433.64 165.00,508.64 166.00,487.87 167.00,433.38 168.00,433.41 169.00,433.38 170.00,433.41 171.00,433.36 172.00,433.40 173.00,433.38 174.00,433.61 175.00,446.72 176.00,513.94 177.00,469.24 178.00,433.41 179.00,433.38 180.00,433.38 181.00,433.44 182.00,433.38 183.00,433.38 184.00,433.41 185.00,433.91 186.00,464.82 187.00,513.84 188.00,451.87 189.00,433.36 190.00,433.38 191.00,433.38 192.00,433.38 193.00,433.38 194.00,433.40 195.00,433.43 196.00,434.67 197.00,482.45 198.00,513.59 199.00,433.38 200.00,433.38 201.00,433.40 202.00,433.38 203.00,433.41 204.00,433.41 205.00,433.38 206.00,433.67 207.00,436.66 208.00,502.00 209.00,489.15 210.00,433.40 211.00,433.42 212.00,433.41 213.00,433.41 214.00,433.36 215.00,433.41 216.00,433.46 217.00,433.86 218.00,486.79 219.00,505.97 220.00,434.20 221.00,433.42 222.00,433.40 223.00,433.36 224.00,433.38 225.00,433.43 226.00,433.44 227.00,433.63 228.00,433.70 229.00,510.52 230.00,489.63 231.00,433.43 232.00,433.40 233.00,433.42 234.00,433.41 235.00,433.41 236.00,433.47 237.00,433.41 238.00,433.64 239.00,445.89 240.00,513.71 241.00,469.48 242.00,433.47 243.00,433.43 244.00,433.41 245.00,433.41 246.00,433.43 247.00,433.43 248.00,433.44 249.00,434.03 250.00,464.52 251.00,514.36 252.00,453.00 253.00,433.41 254.00,433.47 255.00,433.43 256.00,433.44 257.00,433.41 258.00,433.45 259.00,433.41 260.00,433.91 261.00,481.74 262.00,513.67 263.00,433.57 264.00,433.40 265.00,433.41 266.00,433.41 267.00,433.41 268.00,433.40 269.00,433.43 270.00,433.71 271.00,434.45 272.00,500.38 273.00,495.97 274.00,433.40 275.00,433.45 276.00,433.40 277.00,433.45 278.00,433.44 279.00,433.47 280.00,433.41 281.00,433.91 282.00,459.95 283.00,493.22 284.00,474.73 285.00,433.38 286.00,433.47 287.00,433.43 288.00,433.41 289.00,433.43 290.00,433.45 291.00,433.64 292.00,433.72 293.00,506.76 294.00,480.24 295.00,440.92 296.00,433.40 297.00,433.41 298.00,433.38 299.00,433.44 300.00,433.41 301.00,433.41 302.00,433.64 303.00,447.01 304.00,513.75 305.00,469.59 306.00,433.44 307.00,433.41 308.00,433.41 309.00,433.41 310.00,433.43 311.00,433.47 312.00,433.43 313.00,433.91 314.00,464.96 315.00,513.36 316.00,450.12 317.00,433.41 318.00,433.41 319.00,433.40 320.00,433.43 321.00,433.41 322.00,433.40 323.00,433.41 324.00,434.72 325.00,483.72 326.00,510.98 327.00,433.45 328.00,433.45 329.00,433.45 330.00,433.43 331.00,433.46 332.00,433.45 333.00,433.43 334.00,433.95 335.00,434.49 336.00,503.55 337.00,495.32 338.00,433.41 339.00,433.38 340.00,433.41 341.00,433.41 342.00,433.41 343.00,433.41 344.00,433.41 345.00,433.94 346.00,452.71 347.00,499.64 348.00,475.46 349.00,433.41 350.00,433.45 351.00,433.40 352.00,433.47 353.00,433.42 354.00,433.38 355.00,433.63 356.00,433.70 357.00,494.22 358.00,478.48 359.00,455.89 360.00,433.43 361.00,433.45 362.00,433.45 363.00,433.43 364.00,433.41 365.00,433.43 366.00,433.65 367.00,447.24 368.00,513.84 369.00,464.94 370.00,437.54 371.00,433.41 372.00,433.38 373.00,433.44 374.00,433.41 375.00,433.40 376.00,433.40 377.00,433.99 378.00,465.52 379.00,514.32 380.00,452.33 381.00,433.45 382.00,433.38 383.00,433.45 384.00,433.41 385.00,433.45 386.00,433.41 387.00,433.43 388.00,433.94 389.00,482.76 390.00,513.82 391.00,434.30 392.00,433.38 393.00,433.47 394.00,433.40 395.00,433.42 396.00,433.41 397.00,433.45 398.00,433.72 399.00,438.87 400.00,495.93 401.00,497.58 402.00,433.41 403.00,433.44 404.00,433.41 405.00,433.41 406.00,433.45 407.00,433.41 408.00,433.45 409.00,433.72 410.00,448.80 411.00,501.63 412.00,478.04 413.00,433.43 414.00,433.38 415.00,433.41 416.00,433.41 417.00,433.40 418.00,433.45 419.00,433.61 420.00,433.72 421.00,494.49 422.00,475.42 423.00,458.95 424.00,433.40 425.00,433.41 426.00,433.45 427.00,433.41 428.00,433.40 429.00,433.41 430.00,433.63 431.00,444.29 432.00,513.48 433.00,465.71 434.00,439.48 435.00,433.41 436.00,433.38 437.00,433.44 438.00,433.38 439.00,433.45 440.00,433.41 441.00,433.68 442.00,463.58 443.00,514.04 444.00,454.32 445.00,433.44 446.00,433.38 447.00,433.41 448.00,433.41 449.00,433.45 450.00,433.38 451.00,433.44 452.00,433.95 453.00,479.97 454.00,514.40 455.00,436.52 456.00,433.38 457.00,433.41 458.00,433.42 459.00,433.40 460.00,433.41 461.00,433.41 462.00,433.68 463.00,438.80 464.00,493.07 465.00,500.77 466.00,433.41 467.00,433.41 468.00,433.38 469.00,433.45 470.00,433.40 471.00,433.41 472.00,433.38 473.00,433.80 474.00,455.57 475.00,492.90 476.00,480.45 477.00,433.42 478.00,433.41 479.00,433.43 480.00,433.41 481.00,433.43 482.00,433.41 483.00,433.61 484.00,433.73 485.00,492.11 486.00,475.40 487.00,462.66 488.00,433.45 489.00,433.41 490.00,433.41 491.00,433.44 492.00,433.41 493.00,433.41 494.00,433.66 495.00,440.96 496.00,513.08 497.00,471.74 498.00,435.12 499.00,433.43 500.00,433.40 501.00,433.41 502.00,433.43 503.00,433.47 504.00,433.41 505.00,433.66 506.00,461.35 507.00,514.71 508.00,458.61 509.00,433.45 510.00,433.43 511.00,433.41 512.00,433.45 513.00,433.41 514.00,433.45 515.00,433.41 516.00,433.98 517.00,476.15 518.00,513.31 519.00,438.46 520.00,433.45 521.00,433.41 522.00,433.41 523.00,433.41 524.00,433.44 525.00,433.43 526.00,433.72 527.00,439.33 528.00,490.86 529.00,503.28 530.00,433.45 531.00,433.47 532.00,433.44 533.00,433.41 534.00,433.41 535.00,433.41 536.00,433.40 537.00,433.80 538.00,454.84 539.00,490.65 540.00,482.99 541.00,433.47 542.00,433.45 543.00,433.41 544.00,433.43 545.00,433.40 546.00,433.41 547.00,433.61 548.00,433.74 549.00,457.55 550.00,508.41 551.00,464.60 552.00,433.41 553.00,433.40 554.00,433.42 555.00,433.45 556.00,433.38 557.00,433.41 558.00,433.72 559.00,438.64 560.00,494.12 561.00,484.06 562.00,443.81 563.00,433.41 564.00,433.40 565.00,433.40 566.00,433.41 567.00,433.41 568.00,433.42 569.00,433.64 570.00,458.72 571.00,509.93 572.00,460.12 573.00,433.40 574.00,433.45 575.00,433.44 576.00,433.45 577.00,433.41 578.00,433.41 579.00,433.41 580.00,433.91 581.00,478.05 582.00,513.29 583.00,437.56 584.00,433.41 585.00,433.38 586.00,433.41 587.00,433.41 588.00,433.38 589.00,433.40 590.00,433.80 591.00,433.64 592.00,497.54 593.00,502.50 594.00,433.41 595.00,433.41 596.00,433.42 597.00,433.40 598.00,433.41 599.00,433.41 600.00,433.45 601.00,433.78 602.00,452.69 603.00,493.83 604.00,481.72 605.00,433.45 606.00,433.41 607.00,433.41 608.00,433.41 609.00,433.41 610.00,433.41 611.00,433.40 612.00,433.76 613.00,463.14 614.00,502.84 615.00,463.77 616.00,433.43 617.00,433.44 618.00,433.40 619.00,433.41 620.00,433.40 621.00,433.41 622.00,433.59 623.00,439.91 624.00,465.77 625.00,512.56 626.00,443.94 627.00,433.41 628.00,433.40 629.00,433.40 630.00,433.44 631.00,433.41 632.00,433.43 633.00,433.63 634.00,459.20 635.00,473.10 636.00,496.43 637.00,433.40 638.00,433.45 639.00,433.41 640.00,433.43 641.00,433.40 642.00,433.43 643.00,433.42 644.00,433.91 645.00,478.61 646.00,508.18 647.00,443.09 648.00,433.38 649.00,433.41 650.00,433.41 651.00,433.40 652.00,433.41 653.00,433.38 654.00,433.68 655.00,433.64 656.00,497.03 657.00,500.04 658.00,433.41 659.00,433.41 660.00,433.38 661.00,433.41 662.00,433.44 663.00,433.38 664.00,433.45 665.00,433.74 666.00,452.10 667.00,496.18 668.00,480.55 669.00,433.41 670.00,433.40 671.00,433.41 672.00,433.41 673.00,433.41 674.00,433.41 675.00,433.41 676.00,433.74 677.00,456.67 678.00,511.21 679.00,462.12 680.00,433.41 681.00,433.43 682.00,433.40 683.00,433.45 684.00,433.40 685.00,433.41 686.00,433.43 687.00,441.54 688.00,465.42 689.00,512.72 690.00,442.65 691.00,433.41 692.00,433.41 693.00,433.41 694.00,433.43 695.00,433.41 696.00,433.43 697.00,433.61 698.00,460.74 699.00,470.72 700.00,495.01 701.00,433.41 702.00,433.43 703.00,433.40 704.00,433.47 705.00,433.45 706.00,433.41 707.00,433.41 708.00,433.95 709.00,481.32 710.00,502.42 711.00,444.03 712.00,433.45 713.00,433.44 714.00,433.41 715.00,433.43 716.00,433.38 717.00,433.41 718.00,433.68 719.00,433.67 720.00,501.31 721.00,498.50 722.00,433.45 723.00,433.41 724.00,433.41 725.00,433.41 726.00,433.41 727.00,433.44 728.00,433.47 729.00,433.78 730.00,452.08 731.00,498.58 732.00,477.73 733.00,433.43 734.00,433.43 735.00,433.44 736.00,433.41 737.00,433.40 738.00,433.40 739.00,433.41 740.00,433.82 741.00,456.65 742.00,514.32 743.00,461.54 744.00,433.41 745.00,433.41 746.00,433.41 747.00,433.44 748.00,433.43 749.00,433.45 750.00,433.40 751.00,442.46 752.00,464.98 753.00,512.65 754.00,440.40 755.00,433.47 756.00,433.43 757.00,433.45 758.00,433.49 759.00,433.34 760.00,433.41 761.00,433.38 762.00,463.16 763.00,465.02 764.00,504.57 765.00,433.45 766.00,433.38 767.00,433.38 768.00,433.40 769.00,433.41 770.00,433.41 771.00,433.38 772.00,433.88 773.00,478.91 774.00,465.86 775.00,482.45 776.00,433.40 777.00,433.40 778.00,433.38 779.00,433.44 780.00,433.40 781.00,433.41 782.00,433.66 783.00,433.70 784.00,499.79 785.00,494.85 786.00,434.28 787.00,433.38 788.00,433.38 789.00,433.45 790.00,433.41 791.00,433.38 792.00,433.40 793.00,433.80 794.00,452.12 795.00,499.77 796.00,477.69 797.00,433.38 798.00,433.44 799.00,433.38 800.00,433.68" fill="none" stroke="#ff7f0e" stroke-width="1.3" opacity="1.0" stroke-linejoin="round"/><text x="816.0" y="444.0" font-family="sans-serif" font-size="13" text-anchor="start" fill="#ff7f0e" font-weight="bold">RRT=64</text><text x="816.0" y="464.0" font-family="sans-serif" font-size="11" text-anchor="start" fill="#444" font-weight="normal">reclaims/inst: 17,152</text><text x="816.0" y="481.0" font-family="sans-serif" font-size="11" text-anchor="start" fill="#444" font-weight="normal">avg 3043.5 MiB/s</text><text x="816.0" y="498.0" font-family="sans-serif" font-size="11" text-anchor="start" fill="#444" font-weight="normal">min(dip) 1225.9</text><text x="816.0" y="515.0" font-family="sans-serif" font-size="11" text-anchor="start" fill="#444" font-weight="normal">dips: 180/720 intervals</text><rect x="80.0" y="554.0" width="720.0" height="96.0" fill="#fbfbfb" stroke="#888" stroke-width="1.0" opacity="1.0"/><line x1="80.0" y1="650.0" x2="800.0" y2="650.0" stroke="#e3e3e3" stroke-width="1.0" opacity="1.0"/><text x="74.0" y="654.0" font-family="sans-serif" font-size="11" text-anchor="end" fill="#444" font-weight="normal">1000</text><line x1="80.0" y1="630.8" x2="800.0" y2="630.8" stroke="#e3e3e3" stroke-width="1.0" opacity="1.0"/><text x="74.0" y="634.8" font-family="sans-serif" font-size="11" text-anchor="end" fill="#444" font-weight="normal">1500</text><line x1="80.0" y1="611.6" x2="800.0" y2="611.6" stroke="#e3e3e3" stroke-width="1.0" opacity="1.0"/><text x="74.0" y="615.6" font-family="sans-serif" font-size="11" text-anchor="end" fill="#444" font-weight="normal">2000</text><line x1="80.0" y1="592.4" x2="800.0" y2="592.4" stroke="#e3e3e3" stroke-width="1.0" opacity="1.0"/><text x="74.0" y="596.4" font-family="sans-serif" font-size="11" text-anchor="end" fill="#444" font-weight="normal">2500</text><line x1="80.0" y1="573.2" x2="800.0" y2="573.2" stroke="#e3e3e3" stroke-width="1.0" opacity="1.0"/><text x="74.0" y="577.2" font-family="sans-serif" font-size="11" text-anchor="end" fill="#444" font-weight="normal">3000</text><line x1="80.0" y1="554.0" x2="800.0" y2="554.0" stroke="#e3e3e3" stroke-width="1.0" opacity="1.0"/><text x="74.0" y="558.0" font-family="sans-serif" font-size="11" text-anchor="end" fill="#444" font-weight="normal">3500</text><line x1="80.0" y1="554.0" x2="80.0" y2="650.0" stroke="#e3e3e3" stroke-width="1.0" opacity="1.0"/><text x="80.0" y="666.0" font-family="sans-serif" font-size="11" text-anchor="middle" fill="#444" font-weight="normal">0</text><line x1="200.0" y1="554.0" x2="200.0" y2="650.0" stroke="#e3e3e3" stroke-width="1.0" opacity="1.0"/><text x="200.0" y="666.0" font-family="sans-serif" font-size="11" text-anchor="middle" fill="#444" font-weight="normal">30</text><line x1="320.0" y1="554.0" x2="320.0" y2="650.0" stroke="#e3e3e3" stroke-width="1.0" opacity="1.0"/><text x="320.0" y="666.0" font-family="sans-serif" font-size="11" text-anchor="middle" fill="#444" font-weight="normal">60</text><line x1="440.0" y1="554.0" x2="440.0" y2="650.0" stroke="#e3e3e3" stroke-width="1.0" opacity="1.0"/><text x="440.0" y="666.0" font-family="sans-serif" font-size="11" text-anchor="middle" fill="#444" font-weight="normal">90</text><line x1="560.0" y1="554.0" x2="560.0" y2="650.0" stroke="#e3e3e3" stroke-width="1.0" opacity="1.0"/><text x="560.0" y="666.0" font-family="sans-serif" font-size="11" text-anchor="middle" fill="#444" font-weight="normal">120</text><line x1="680.0" y1="554.0" x2="680.0" y2="650.0" stroke="#e3e3e3" stroke-width="1.0" opacity="1.0"/><text x="680.0" y="666.0" font-family="sans-serif" font-size="11" text-anchor="middle" fill="#444" font-weight="normal">150</text><line x1="800.0" y1="554.0" x2="800.0" y2="650.0" stroke="#e3e3e3" stroke-width="1.0" opacity="1.0"/><text x="800.0" y="666.0" font-family="sans-serif" font-size="11" text-anchor="middle" fill="#444" font-weight="normal">180</text><text x="440.0" y="690.0" font-family="sans-serif" font-size="13" text-anchor="middle" fill="#111" font-weight="normal">elapsed time (s)</text><line x1="80.0" y1="559.4" x2="800.0" y2="559.4" stroke="#999" stroke-width="1.0" stroke-dasharray="2,3" opacity="1.0"/><polyline points="81.00,559.72 82.00,572.89 83.00,640.48 84.00,597.58 85.00,559.94 86.00,614.44 87.00,631.64 88.00,559.64 89.00,580.57 90.00,640.34 91.00,589.71 92.00,559.73 93.00,622.68 94.00,623.89 95.00,559.70 96.00,588.60 97.00,639.25 98.00,579.19 99.00,560.49 100.00,634.27 101.00,621.16 102.00,561.41 103.00,639.52 104.00,605.40 105.00,559.91 106.00,606.86 107.00,640.19 108.00,562.51 109.00,570.05 110.00,640.05 111.00,599.01 112.00,559.91 113.00,613.27 114.00,633.99 115.00,559.66 116.00,578.73 117.00,640.02 118.00,591.02 119.00,571.66 120.00,610.20 121.00,628.06 122.00,559.64 123.00,609.64 124.00,620.28 125.00,575.20 126.00,599.81 127.00,640.13 128.00,569.67 129.00,562.60 130.00,639.57 131.00,605.86 132.00,559.91 133.00,607.45 134.00,640.55 135.00,563.35 136.00,569.23 137.00,639.25 138.00,598.36 139.00,560.70 140.00,613.98 141.00,637.90 142.00,559.70 143.00,582.93 144.00,637.87 145.00,584.12 146.00,573.70 147.00,615.13 148.00,619.24 149.00,559.76 150.00,629.07 151.00,602.65 152.00,573.47 153.00,600.85 154.00,640.40 155.00,568.21 156.00,564.12 157.00,639.53 158.00,604.67 159.00,560.74 160.00,607.41 161.00,640.13 162.00,560.84 163.00,572.66 164.00,638.79 165.00,597.70 166.00,573.55 167.00,607.15 168.00,623.81 169.00,559.74 170.00,596.62 171.00,630.42 172.00,579.59 173.00,594.80 174.00,605.49 175.00,604.92 176.00,561.37 177.00,639.88 178.00,608.55 179.00,559.93 180.00,604.25 181.00,640.32 182.00,564.79 183.00,568.00 184.00,639.21 185.00,600.20 186.00,563.10 187.00,609.80 188.00,640.28 189.00,559.63 190.00,585.40 191.00,633.53 192.00,584.80 193.00,581.44 194.00,606.07 195.00,620.51 196.00,559.74 197.00,633.16 198.00,597.74 199.00,576.23 200.00,597.81 201.00,640.05 202.00,570.51 203.00,562.10 204.00,639.71 205.00,606.88 206.00,560.72 207.00,605.57 208.00,640.05 209.00,564.02 210.00,569.74 211.00,638.71 212.00,599.47 213.00,572.55 214.00,606.49 215.00,628.11 216.00,559.71 217.00,625.39 218.00,597.43 219.00,581.76 220.00,592.86 221.00,628.65 222.00,588.04 223.00,559.76 224.00,635.48 225.00,608.07 226.00,562.03 227.00,602.12 228.00,640.90 229.00,569.09 230.00,563.18 231.00,639.21 232.00,603.96 233.00,560.70 234.00,608.55 235.00,640.86 236.00,562.87 237.00,573.49 238.00,635.48 239.00,597.08 240.00,574.62 241.00,607.61 242.00,626.86 243.00,559.78 244.00,626.38 245.00,597.05 246.00,580.50 247.00,594.28 248.00,639.29 249.00,575.25 250.00,559.68 251.00,637.65 252.00,610.79 253.00,559.93 254.00,601.62 255.00,640.48 256.00,567.40 257.00,572.57 258.00,633.25 259.00,602.77 260.00,573.28 261.00,596.39 262.00,638.15 263.00,559.74 264.00,588.46 265.00,631.47 266.00,585.22 267.00,588.35 268.00,638.21 269.00,579.00 270.00,559.70 271.00,634.31 272.00,613.25 273.00,559.91 274.00,599.27 275.00,640.92 276.00,572.32 277.00,569.85 278.00,629.78 279.00,606.80 280.00,572.87 281.00,596.49 282.00,640.55 283.00,561.73 284.00,578.98 285.00,633.30 286.00,593.13 287.00,581.65 288.00,639.05 289.00,586.68 290.00,559.70 291.00,626.36 292.00,622.35 293.00,559.64 294.00,590.78 295.00,640.05 296.00,580.02 297.00,569.49 298.00,622.70 299.00,614.17 300.00,567.09 301.00,591.20 302.00,640.21 303.00,572.34 304.00,573.72 305.00,625.96 306.00,606.72 307.00,573.74 308.00,598.43 309.00,635.54 310.00,559.95 311.00,618.15 312.00,616.48 313.00,568.44 314.00,585.75 315.00,640.53 316.00,584.72 317.00,564.98 318.00,622.28 319.00,619.97 320.00,561.48 321.00,591.15 322.00,640.61 323.00,577.94 324.00,572.30 325.00,622.66 326.00,613.30 327.00,567.75 328.00,590.90 329.00,639.52 330.00,569.51 331.00,588.10 332.00,624.36 333.00,590.29 334.00,579.57 335.00,634.95 336.00,590.10 337.00,559.68 338.00,626.17 339.00,622.39 340.00,560.07 341.00,589.73 342.00,639.77 343.00,579.54 344.00,569.88 345.00,623.24 346.00,614.52 347.00,566.60 348.00,590.98 349.00,639.53 350.00,571.11 351.00,576.58 352.00,624.43 353.00,605.26 354.00,575.70 355.00,601.04 356.00,628.80 357.00,559.91 358.00,621.24 359.00,612.48 360.00,570.01 361.00,588.43 362.00,639.63 363.00,579.99 364.00,559.68 365.00,632.59 366.00,614.81 367.00,566.29 368.00,590.86 369.00,639.90 370.00,571.48 371.00,574.85 372.00,625.39 373.00,605.71 374.00,575.47 375.00,602.02 376.00,627.79 377.00,559.88 378.00,620.70 379.00,612.25 380.00,570.05 381.00,588.74 382.00,640.30 383.00,582.03 384.00,559.68 385.00,630.24 386.00,616.59 387.00,561.18 388.00,594.71 389.00,640.75 390.00,574.58 391.00,571.82 392.00,625.35 393.00,609.22 394.00,571.39 395.00,591.75 396.00,640.25 397.00,567.06 398.00,586.81 399.00,619.86 400.00,599.26 401.00,580.04 402.00,636.66 403.00,589.81 404.00,559.66 405.00,624.98 406.00,622.35 407.00,560.41 408.00,589.67 409.00,640.02 410.00,580.57 411.00,562.03 412.00,630.13 413.00,615.92 414.00,565.40 415.00,591.21 416.00,640.78 417.00,573.51 418.00,583.86 419.00,616.38 420.00,606.42 421.00,572.70 422.00,627.40 423.00,606.11 424.00,559.95 425.00,615.73 426.00,624.89 427.00,566.29 428.00,583.30 429.00,640.28 430.00,587.41 431.00,559.67 432.00,625.31 433.00,622.93 434.00,559.64 435.00,590.15 436.00,640.21 437.00,579.11 438.00,583.38 439.00,615.09 440.00,607.26 441.00,567.44 442.00,618.32 443.00,619.86 444.00,560.26 445.00,602.90 446.00,627.23 447.00,574.70 448.00,579.15 449.00,637.10 450.00,593.44 451.00,559.72 452.00,622.32 453.00,625.16 454.00,560.09 455.00,586.70 456.00,640.02 457.00,581.65 458.00,562.39 459.00,628.78 460.00,617.21 461.00,563.70 462.00,610.10 463.00,630.76 464.00,561.37 465.00,598.97 466.00,626.92 467.00,578.19 468.00,575.96 469.00,628.53 470.00,603.98 471.00,559.88 472.00,619.01 473.00,627.48 474.00,560.39 475.00,584.72 476.00,639.90 477.00,583.99 478.00,561.76 479.00,626.75 480.00,619.24 481.00,561.64 482.00,604.76 483.00,636.21 484.00,563.68 485.00,590.70 486.00,624.27 487.00,590.40 488.00,572.68 489.00,628.05 490.00,604.65 491.00,559.91 492.00,608.48 493.00,629.30 494.00,568.63 495.00,583.72 496.00,637.10 497.00,586.64 498.00,560.09 499.00,627.73 500.00,620.85 501.00,560.72 502.00,590.54 503.00,639.94 504.00,575.78 505.00,583.63 506.00,623.20 507.00,597.16 508.00,571.93 509.00,619.83 510.00,615.48 511.00,559.93 512.00,606.65 513.00,629.05 514.00,569.76 515.00,582.95 516.00,630.03 517.00,597.55 518.00,559.72 519.00,624.73 520.00,621.97 521.00,559.99 522.00,590.20 523.00,640.78 524.00,580.05 525.00,573.85 526.00,618.51 527.00,615.36 528.00,565.41 529.00,607.53 530.00,631.97 531.00,559.80 532.00,596.62 533.00,624.69 534.00,583.49 535.00,577.65 536.00,629.80 537.00,600.23 538.00,559.76 539.00,612.60 540.00,629.42 541.00,564.72 542.00,586.85 543.00,639.75 544.00,581.17 545.00,573.72 546.00,617.51 547.00,616.80 548.00,564.31 549.00,605.11 550.00,636.02 551.00,561.05 552.00,588.33 553.00,626.04 554.00,589.93 555.00,575.73 556.00,618.28 557.00,611.68 558.00,559.72 559.00,611.87 560.00,629.26 561.00,565.25 562.00,584.64 563.00,632.07 564.00,591.32 565.00,559.71 566.00,630.90 567.00,616.67 568.00,564.69 569.00,590.90 570.00,639.94 571.00,573.05 572.00,584.80 573.00,618.01 574.00,603.11 575.00,573.64 576.00,603.09 577.00,629.90 578.00,559.80 579.00,593.80 580.00,629.51 581.00,580.69 582.00,584.99 583.00,630.30 584.00,592.86 585.00,559.82 586.00,619.38 587.00,626.46 588.00,560.70 589.00,594.57 590.00,634.77 591.00,581.57 592.00,584.87 593.00,611.83 594.00,610.37 595.00,570.63 596.00,595.40 597.00,636.12 598.00,566.98 599.00,589.35 600.00,627.96 601.00,587.02 602.00,580.71 603.00,621.74 604.00,603.57 605.00,559.84 606.00,616.28 607.00,629.15 608.00,561.18 609.00,585.18 610.00,636.14 611.00,587.25 612.00,568.94 613.00,615.86 614.00,621.85 615.00,569.05 616.00,594.99 617.00,635.48 618.00,568.80 619.00,587.33 620.00,627.96 621.00,589.60 622.00,578.84 623.00,604.30 624.00,624.07 625.00,559.82 626.00,599.96 627.00,628.76 628.00,574.28 629.00,586.10 630.00,628.65 631.00,593.74 632.00,567.53 633.00,616.48 634.00,622.04 635.00,569.13 636.00,581.61 637.00,632.36 638.00,585.26 639.00,585.80 640.00,626.87 641.00,594.97 642.00,577.44 643.00,603.79 644.00,626.88 645.00,559.82 646.00,595.40 647.00,629.69 648.00,579.87 649.00,584.12 650.00,628.15 651.00,595.66 652.00,567.36 653.00,613.85 654.00,624.25 655.00,566.63 656.00,581.65 657.00,634.99 658.00,585.18 659.00,584.12 660.00,617.00 661.00,606.93 662.00,574.41 663.00,600.56 664.00,630.22 665.00,562.64 666.00,592.44 667.00,630.01 668.00,583.26 669.00,584.07 670.00,629.21 671.00,593.13 672.00,567.40 673.00,611.89 674.00,626.83 675.00,564.14 676.00,581.84 677.00,636.79 678.00,585.32 679.00,575.15 680.00,616.63 681.00,614.02 682.00,573.55 683.00,590.71 684.00,639.80 685.00,563.62 686.00,591.42 687.00,630.05 688.00,585.10 689.00,582.95 690.00,613.94 691.00,609.30 692.00,559.84 693.00,615.52 694.00,627.80 695.00,564.62 696.00,582.67 697.00,638.75 698.00,585.03 699.00,568.94 700.00,618.27 701.00,618.44 702.00,569.86 703.00,587.25 704.00,635.25 705.00,575.20 706.00,584.99 707.00,616.57 708.00,605.72 709.00,581.38 710.00,603.04 711.00,621.85 712.00,559.80 713.00,602.08 714.00,629.65 715.00,573.68 716.00,585.53 717.00,623.35 718.00,595.95 719.00,567.46 720.00,616.52 721.00,619.24 722.00,571.86 723.00,585.18 724.00,630.80 725.00,585.14 726.00,575.86 727.00,622.51 728.00,605.88 729.00,576.16 730.00,597.78 731.00,634.72 732.00,560.52 733.00,597.81 734.00,629.57 735.00,577.65 736.00,586.06 737.00,611.12 738.00,610.79 739.00,559.76 740.00,620.16 741.00,621.76 742.00,563.79 743.00,588.85 744.00,629.60 745.00,591.44 746.00,568.63 747.00,624.92 748.00,611.48 749.00,569.51 750.00,594.24 751.00,629.87 752.00,576.39 753.00,576.85 754.00,633.56 755.00,594.32 756.00,576.77 757.00,604.56 758.00,627.48 759.00,559.80 760.00,608.80 761.00,626.00 762.00,570.55 763.00,584.46 764.00,626.96 765.00,593.97 766.00,563.98 767.00,624.33 768.00,616.50 769.00,568.98 770.00,587.96 771.00,629.92 772.00,581.11 773.00,574.16 774.00,631.89 775.00,600.11 776.00,574.43 777.00,605.38 778.00,625.00 779.00,560.53 780.00,608.03 781.00,628.85 782.00,569.48 783.00,586.37 784.00,625.96 785.00,593.90 786.00,564.41 787.00,622.54 788.00,617.09 789.00,560.72 790.00,597.10 791.00,627.94 792.00,579.73 793.00,576.67 794.00,631.91 795.00,597.16 796.00,573.97 797.00,607.34 798.00,624.86 799.00,560.59 800.00,607.82" fill="none" stroke="#d62728" stroke-width="1.3" opacity="1.0" stroke-linejoin="round"/><text x="816.0" y="570.0" font-family="sans-serif" font-size="13" text-anchor="start" fill="#d62728" font-weight="bold">RRT=16</text><text x="816.0" y="590.0" font-family="sans-serif" font-size="11" text-anchor="start" fill="#444" font-weight="normal">reclaims/inst: 54,886</text><text x="816.0" y="607.0" font-family="sans-serif" font-size="11" text-anchor="start" fill="#444" font-weight="normal">avg 2356.4 MiB/s</text><text x="816.0" y="624.0" font-family="sans-serif" font-size="11" text-anchor="start" fill="#444" font-weight="normal">min(dip) 1236.5</text><text x="816.0" y="641.0" font-family="sans-serif" font-size="11" text-anchor="start" fill="#444" font-weight="normal">dips: 608/720 intervals</text><text x="80.0" y="708.0" font-family="sans-serif" font-size="11" text-anchor="start" fill="#666" font-weight="normal">y-axis 1000-3500 MiB/s (truncated); dashed grey = OFF baseline avg 3359. Lower RRT =&gt; more frequent dips.</text></svg>