<svg xmlns="http://www.w3.org/2000/svg" width="1040" height="600" viewBox="0 0 1040 600"><rect width="1040" height="600" fill="white"/><rect x="70.0" y="56.0" width="700.0" height="470.0" fill="#fbfbfb" stroke="#888" stroke-width="1.0" opacity="1.0"/><line x1="70.0" y1="526.0" x2="770.0" y2="526.0" stroke="#e3e3e3" stroke-width="1.0" opacity="1.0"/><text x="64.0" y="530.0" font-family="sans-serif" font-size="11" text-anchor="end" fill="#444" font-weight="normal">1000</text><line x1="70.0" y1="432.0" x2="770.0" y2="432.0" stroke="#e3e3e3" stroke-width="1.0" opacity="1.0"/><text x="64.0" y="436.0" font-family="sans-serif" font-size="11" text-anchor="end" fill="#444" font-weight="normal">1500</text><line x1="70.0" y1="338.0" x2="770.0" y2="338.0" stroke="#e3e3e3" stroke-width="1.0" opacity="1.0"/><text x="64.0" y="342.0" font-family="sans-serif" font-size="11" text-anchor="end" fill="#444" font-weight="normal">2000</text><line x1="70.0" y1="244.0" x2="770.0" y2="244.0" stroke="#e3e3e3" stroke-width="1.0" opacity="1.0"/><text x="64.0" y="248.0" font-family="sans-serif" font-size="11" text-anchor="end" fill="#444" font-weight="normal">2500</text><line x1="70.0" y1="150.0" x2="770.0" y2="150.0" stroke="#e3e3e3" stroke-width="1.0" opacity="1.0"/><text x="64.0" y="154.0" font-family="sans-serif" font-size="11" text-anchor="end" fill="#444" font-weight="normal">3000</text><line x1="70.0" y1="56.0" x2="770.0" y2="56.0" stroke="#e3e3e3" stroke-width="1.0" opacity="1.0"/><text x="64.0" y="60.0" font-family="sans-serif" font-size="11" text-anchor="end" fill="#444" font-weight="normal">3500</text><line x1="70.0" y1="56.0" x2="70.0" y2="526.0" stroke="#e3e3e3" stroke-width="1.0" opacity="1.0"/><text x="70.0" y="542.0" font-family="sans-serif" font-size="11" text-anchor="middle" fill="#444" font-weight="normal">0</text><line x1="186.7" y1="56.0" x2="186.7" y2="526.0" stroke="#e3e3e3" stroke-width="1.0" opacity="1.0"/><text x="186.7" y="542.0" font-family="sans-serif" font-size="11" text-anchor="middle" fill="#444" font-weight="normal">30</text><line x1="303.3" y1="56.0" x2="303.3" y2="526.0" stroke="#e3e3e3" stroke-width="1.0" opacity="1.0"/><text x="303.3" y="542.0" font-family="sans-serif" font-size="11" text-anchor="middle" fill="#444" font-weight="normal">60</text><line x1="420.0" y1="56.0" x2="420.0" y2="526.0" stroke="#e3e3e3" stroke-width="1.0" opacity="1.0"/><text x="420.0" y="542.0" font-family="sans-serif" font-size="11" text-anchor="middle" fill="#444" font-weight="normal">90</text><line x1="536.7" y1="56.0" x2="536.7" y2="526.0" stroke="#e3e3e3" stroke-width="1.0" opacity="1.0"/><text x="536.7" y="542.0" font-family="sans-serif" font-size="11" text-anchor="middle" fill="#444" font-weight="normal">120</text><line x1="653.3" y1="56.0" x2="653.3" y2="526.0" stroke="#e3e3e3" stroke-width="1.0" opacity="1.0"/><text x="653.3" y="542.0" font-family="sans-serif" font-size="11" text-anchor="middle" fill="#444" font-weight="normal">150</text><line x1="770.0" y1="56.0" x2="770.0" y2="526.0" stroke="#e3e3e3" stroke-width="1.0" opacity="1.0"/><text x="770.0" y="542.0" font-family="sans-serif" font-size="11" text-anchor="middle" fill="#444" font-weight="normal">180</text><line x1="70.0" y1="82.5" x2="770.0" y2="82.5" stroke="#999" stroke-width="1.2" stroke-dasharray="2,3" opacity="1.0"/><text x="70.0" y="44.0" font-family="sans-serif" font-size="15" text-anchor="start" fill="#111" font-weight="bold">Read bandwidth vs time across RRT sweep (16 GiB, libaio iodepth=16)</text><text x="420.0" y="566.0" font-family="sans-serif" font-size="13" text-anchor="middle" fill="#111" font-weight="normal">elapsed time (s)</text><text x="24.0" y="291.0" font-family="sans-serif" font-size="13" text-anchor="middle" fill="#111" font-weight="normal" transform="rotate(-90 24.0 291.0)">read bandwidth (MiB/s)</text><text x="70.0" y="584.0" font-family="sans-serif" font-size="11" text-anchor="start" fill="#666" font-weight="normal">y-axis truncated at 1000 MiB/s to make reclaim dips legible; dashed grey = OFF baseline avg 3359 MiB/s; libaio iodepth=16, 250 ms resolution</text><polyline points="70.97,83.07 71.94,82.32 72.92,82.61 73.89,82.51 74.86,82.41 75.83,82.41 76.81,82.70 77.78,82.70 78.75,82.32 79.72,82.43 80.69,82.51 81.67,82.70 82.64,82.51 83.61,82.51 84.58,82.51 85.56,82.61 86.53,82.51 87.50,82.60 88.47,82.41 89.44,82.51 90.42,82.32 91.39,82.61 92.36,82.51 93.33,82.51 94.31,82.32 95.28,82.70 96.25,82.51 97.22,82.61 98.19,82.51 99.17,82.70 100.14,82.70 101.11,82.70 102.08,82.32 103.06,82.41 104.03,82.33 105.00,82.51 105.97,82.32 106.94,82.32 107.92,82.41 108.89,82.52 109.86,82.41 110.83,82.32 111.81,82.70 112.78,82.32 113.75,82.32 114.72,82.61 115.69,82.51 116.67,82.32 117.64,82.51 118.61,82.32 119.58,82.43 120.56,82.32 121.53,82.51 122.50,82.51 123.47,82.32 124.44,82.61 125.42,82.51 126.39,82.51 127.36,82.32 128.33,82.51 129.31,82.32 130.28,82.43 131.25,82.32 132.22,82.32 133.19,82.70 134.17,82.32 135.14,82.80 136.11,82.51 137.08,82.51 138.06,82.51 139.03,82.70 140.00,82.51 140.98,82.32 141.94,82.80 142.92,82.51 143.89,82.70 144.86,82.51 145.83,82.32 146.81,82.32 147.78,82.52 148.75,82.70 149.72,82.70 150.69,82.70 151.67,82.60 152.64,82.41 153.61,82.32 154.58,82.61 155.56,82.70 156.53,82.51 157.50,82.60 158.47,82.60 159.44,82.41 160.42,82.51 161.39,82.43 162.36,82.51 163.33,82.32 164.31,82.51 165.28,82.32 166.25,82.52 167.22,82.51 168.19,82.32 169.17,82.41 170.14,82.32 171.12,82.32 172.08,82.33 173.06,82.51 174.03,82.60 175.00,82.41 175.97,82.41 176.94,82.61 177.92,82.51 178.89,82.51 179.86,82.70 180.83,82.51 181.81,82.32 182.78,82.52 183.75,82.60 184.72,82.51 185.69,82.60 186.67,82.60 187.64,82.60 188.61,82.51 189.59,82.51 190.56,82.43 191.53,82.51 192.50,82.41 193.47,82.60 194.44,82.60 195.42,82.33 196.39,82.60 197.36,82.79 198.33,82.51 199.31,82.51 200.28,82.51 201.25,82.32 202.22,82.43 203.19,82.32 204.17,82.60 205.14,82.32 206.11,82.60 207.08,82.60 208.06,82.52 209.03,82.60 210.00,82.51 210.97,82.51 211.94,82.32 212.92,82.51 213.89,82.52 214.86,82.51 215.83,82.60 216.81,82.41 217.78,82.51 218.75,82.41 219.72,82.33 220.69,82.51 221.67,82.60 222.64,82.32 223.61,82.79 224.58,82.51 225.56,82.43 226.53,82.32 227.50,82.32 228.47,82.51 229.44,82.32 230.42,82.61 231.39,82.70 232.36,82.60 233.33,82.79 234.31,82.51 235.28,82.32 236.25,82.51 237.22,82.61 238.19,82.51 239.17,82.60 240.14,82.41 241.11,82.51 242.08,82.41 243.06,82.33 244.03,82.32 245.00,82.51 245.97,82.32 246.94,82.41 247.92,82.52 248.89,82.70 249.86,82.32 250.83,82.32 251.81,82.51 252.78,82.51 253.75,82.43 254.72,82.60 255.69,82.41 256.67,82.51 257.64,82.32 258.61,82.33 259.58,82.60 260.56,82.70 261.53,82.51 262.50,82.32 263.47,82.51 264.44,82.43 265.42,82.60 266.39,82.41 267.36,82.60 268.33,82.60 269.31,82.51 270.28,82.32 271.25,82.61 272.22,82.60 273.19,82.41 274.17,82.41 275.14,82.51 276.11,82.51 277.08,82.61 278.06,82.51 279.03,82.51 280.00,82.51 280.97,82.41 281.94,82.60 282.92,82.43 283.89,82.60 284.86,82.32 285.83,82.60 286.81,82.41 287.78,82.70 288.75,82.51 289.72,82.43 290.69,82.51 291.67,82.51 292.64,82.32 293.61,82.32 294.58,82.43 295.56,82.51 296.53,82.79 297.50,82.60 298.47,82.32 299.44,82.51 300.42,82.61 301.39,82.51 302.36,82.51 303.33,82.70 304.31,82.70 305.28,82.32 306.25,82.32 307.22,82.61 308.19,82.32 309.17,82.51 310.14,82.51 311.11,82.51 312.09,82.51 313.06,82.43 314.03,82.70 315.00,82.60 315.97,82.60 316.94,82.70 317.92,82.41 318.89,82.60 319.86,82.43 320.83,82.51 321.81,82.70 322.78,82.51 323.75,82.70 324.72,82.51 325.69,82.51 326.67,82.61 327.64,82.70 328.61,82.51 329.58,82.79 330.56,82.60 331.53,82.60 332.50,82.70 333.47,82.51 334.44,82.43 335.42,82.41 336.39,82.41 337.36,82.51 338.33,82.51 339.31,82.51 340.28,82.52 341.25,82.70 342.22,82.41 343.19,82.41 344.17,82.51 345.14,82.70 346.12,82.41 347.08,82.80 348.06,82.51 349.03,82.51 350.00,82.70 350.97,82.51 351.94,82.51 352.92,82.51 353.89,82.52 354.86,82.51 355.83,82.51 356.81,82.51 357.78,82.60 358.75,82.51 359.72,82.43 360.69,82.79 361.67,82.51 362.64,82.51 363.61,82.70 364.58,82.70 365.56,82.51 366.53,82.70 367.50,82.52 368.47,82.70 369.44,82.60 370.42,82.51 371.39,82.51 372.36,82.51 373.33,82.51 374.31,82.43 375.28,82.51 376.25,82.51 377.22,82.51 378.19,82.51 379.17,82.51 380.14,82.61 381.11,89.18 382.08,82.51 383.06,82.41 384.03,82.70 385.00,82.70 385.97,82.51 386.94,82.61 387.92,82.51 388.89,82.79 389.86,82.51 390.83,82.88 391.81,82.51 392.78,82.41 393.75,82.60 394.72,82.52 395.69,82.60 396.67,82.51 397.64,82.60 398.61,82.32 399.58,82.51 400.56,82.60 401.53,82.43 402.50,82.51 403.47,82.60 404.44,82.51 405.42,82.41 406.39,82.32 407.36,82.61 408.33,82.60 409.31,82.70 410.28,82.79 411.25,82.60 412.22,82.51 413.19,82.60 414.17,82.41 415.14,82.61 416.11,82.60 417.08,82.60 418.06,82.88 419.03,82.51 420.00,82.32 420.97,82.51 421.94,82.43 422.92,82.70 423.89,82.60 424.86,82.60 425.83,82.41 426.81,82.70 427.78,82.60 428.75,82.43 429.72,82.70 430.69,82.60 431.67,82.70 432.64,82.70 433.61,82.41 434.58,82.79 435.56,82.70 436.53,82.61 437.50,82.41 438.47,82.70 439.44,82.70 440.42,82.70 441.39,82.51 442.36,82.51 443.33,82.51 444.31,82.61 445.28,82.32 446.25,82.70 447.22,82.51 448.19,82.60 449.17,82.60 450.14,82.51 451.11,82.43 452.08,82.79 453.06,82.60 454.03,82.51 455.00,82.51 455.97,82.32 456.94,82.24 457.92,82.51 458.89,82.70 459.86,82.51 460.83,82.32 461.81,82.60 462.78,82.52 463.75,82.70 464.72,82.23 465.69,82.51 466.67,82.60 467.64,82.32 468.61,82.43 469.58,82.32 470.56,82.51 471.53,82.51 472.50,82.41 473.47,82.33 474.44,82.79 475.42,82.60 476.39,82.51 477.36,82.41 478.33,82.41 479.31,82.43 480.28,82.60 481.25,82.60 482.22,82.60 483.19,82.41 484.17,82.51 485.14,82.51 486.11,82.61 487.08,82.51 488.06,82.32 489.03,82.51 490.00,82.51 490.97,82.51 491.94,82.43 492.92,82.32 493.89,82.51 494.86,82.32 495.83,82.51 496.81,82.43 497.78,82.41 498.75,82.60 499.72,82.32 500.69,82.51 501.67,82.32 502.64,82.61 503.61,82.41 504.58,82.41 505.56,82.60 506.53,82.51 507.50,82.43 508.47,82.41 509.44,82.79 510.42,82.32 511.39,82.51 512.36,82.70 513.33,82.52 514.31,82.32 515.28,82.32 516.25,82.51 517.22,82.32 518.19,82.70 519.17,82.43 520.14,82.41 521.11,82.32 522.08,82.41 523.06,82.32 524.03,82.71 525.00,82.70 525.97,82.41 526.94,82.41 527.92,82.60 528.89,82.32 529.86,82.33 530.83,82.32 531.81,82.51 532.78,82.51 533.75,82.32 534.72,82.61 535.69,82.51 536.67,82.51 537.64,82.32 538.61,82.51 539.58,82.51 540.56,82.43 541.53,82.51 542.50,82.41 543.47,82.60 544.44,82.32 545.42,82.43 546.39,82.60 547.36,82.41 548.33,82.51 549.31,82.32 550.28,82.70 551.25,82.33 552.22,82.32 553.19,82.32 554.17,82.32 555.14,82.51 556.11,82.61 557.08,82.32 558.06,82.70 559.03,82.60 560.00,82.32 560.98,82.32 561.94,82.33 562.92,82.32 563.89,82.70 564.86,82.32 565.83,82.41 566.81,82.43 567.78,82.51 568.75,82.60 569.72,82.32 570.69,82.32 571.67,82.43 572.64,82.51 573.61,82.32 574.58,82.32 575.56,82.51 576.53,82.43 577.50,82.51 578.47,82.60 579.44,82.51 580.42,82.32 581.39,82.60 582.36,82.33 583.33,82.32 584.31,82.51 585.28,82.32 586.25,82.41 587.22,82.33 588.19,82.41 589.17,83.54 590.14,82.32 591.12,82.32 592.08,82.33 593.06,82.60 594.03,82.32 595.00,82.51 595.98,82.32 596.94,82.43 597.92,82.32 598.89,82.51 599.86,82.32 600.84,82.32 601.81,82.61 602.78,82.32 603.75,82.32 604.72,82.51 605.69,82.60 606.67,82.52 607.64,82.51 608.61,82.51 609.58,82.41 610.56,82.51 611.53,82.32 612.50,82.43 613.47,82.51 614.44,82.51 615.42,82.32 616.39,82.32 617.36,82.33 618.33,82.79 619.31,82.51 620.28,82.32 621.25,82.70 622.22,82.70 623.20,82.32 624.17,82.43 625.14,82.51 626.11,82.51 627.08,82.51 628.06,82.51 629.03,82.43 630.00,82.70 630.97,82.32 631.94,82.51 632.92,82.70 633.89,82.60 634.87,82.32 635.83,82.33 636.81,82.60 637.78,82.60 638.75,82.32 639.72,82.51 640.69,82.24 641.67,82.32 642.64,82.60 643.61,82.41 644.58,82.51 645.56,82.51 646.53,82.43 647.50,82.32 648.47,82.41 649.44,82.60 650.42,82.41 651.39,82.43 652.36,82.51 653.33,82.51 654.31,82.60 655.28,82.51 656.25,82.23 657.22,82.52 658.19,82.51 659.17,82.60 660.14,82.41 661.11,82.32 662.08,82.61 663.06,82.32 664.03,82.41 665.00,82.51 665.97,82.32 666.94,82.43 667.92,82.51 668.89,82.51 669.86,82.32 670.83,82.51 671.81,82.32 672.78,82.61 673.75,82.32 674.72,82.51 675.69,82.32 676.67,82.51 677.64,82.24 678.61,82.51 679.58,82.51 680.56,82.32 681.53,82.51 682.50,82.43 683.47,82.51 684.44,82.41 685.42,82.51 686.39,82.32 687.36,82.43 688.33,82.70 689.31,82.32 690.28,82.32 691.25,82.32 692.22,82.61 693.19,82.32 694.17,82.32 695.14,82.51 696.11,82.51 697.09,82.32 698.06,82.71 699.03,82.32 700.00,82.32 700.97,82.60 701.94,82.51 702.92,82.51 703.89,82.52 704.86,82.60 705.83,82.32 706.81,82.51 707.78,82.70 708.75,82.32 709.72,82.33 710.69,82.51 711.67,82.60 712.64,82.13 713.62,82.51 714.58,82.33 715.56,82.60 716.53,82.32 717.50,82.41 718.48,82.51 719.44,82.43 720.42,82.70 721.39,82.60 722.36,82.79 723.33,82.51 724.31,82.41 725.28,82.32 726.25,82.52 727.22,82.51 728.19,82.51 729.17,82.70 730.14,82.60 731.11,82.32 732.08,82.43 733.06,82.60 734.03,82.32 735.00,82.79 735.97,82.51 736.94,82.51 737.92,82.60 738.89,82.52 739.86,82.51 740.83,82.51 741.81,82.70 742.78,82.70 743.75,82.32 744.72,82.61 745.69,82.23 746.67,82.51 747.64,82.60 748.61,82.41 749.59,82.41 750.56,82.43 751.53,82.51 752.50,82.70 753.47,82.60 754.44,82.60 755.42,82.41 756.39,82.60 757.36,82.43 758.33,82.60 759.31,82.60 760.28,82.51 761.25,82.51 762.22,82.51 763.19,82.43 764.17,82.51 765.14,82.41 766.11,82.51 767.08,82.32 768.06,82.43 769.03,82.51 770.00,83.35" fill="none" stroke="#555555" stroke-width="1.2" opacity="0.55" stroke-linejoin="round"/><polyline points="70.97,82.51 71.94,82.70 72.92,82.61 73.89,82.51 74.86,82.88 75.83,82.60 76.81,82.70 77.78,82.79 78.75,82.60 79.72,82.70 80.69,82.79 81.67,82.60 82.64,82.70 83.61,82.61 84.58,82.70 85.56,82.70 86.53,82.70 87.50,82.51 88.47,82.51 89.44,82.70 90.42,82.70 91.39,82.70 92.36,82.24 93.33,82.51 94.31,82.51 95.28,82.88 96.25,82.32 97.22,82.70 98.19,82.70 99.17,82.70 100.14,82.61 101.11,82.51 102.08,82.70 103.06,82.51 104.03,82.51 105.00,82.51 105.97,82.43 106.94,82.51 107.92,82.32 108.89,82.51 109.86,82.60 110.83,82.51 111.81,82.52 112.78,82.60 113.75,82.41 114.72,82.51 115.69,82.51 116.67,82.51 117.64,82.70 118.61,82.61 119.58,82.51 120.56,82.23 121.53,82.51 122.50,82.60 123.47,82.70 124.44,82.79 125.42,82.43 126.39,82.51 127.36,82.32 128.33,82.32 129.31,82.60 130.28,82.51 131.25,82.33 132.22,82.41 133.19,82.51 134.17,82.79 135.14,82.51 136.12,82.41 137.08,82.43 138.06,82.51 139.03,82.51 140.00,82.32 140.97,82.51 141.95,82.70 142.92,82.43 143.89,82.41 144.86,82.41 145.83,83.73 146.81,82.32 147.78,82.61 148.75,82.32 149.72,82.51 150.69,82.41 151.67,82.51 152.64,82.60 153.61,82.43 154.58,82.32 155.56,82.51 156.53,82.60 157.50,82.51 158.47,82.79 159.44,82.43 160.42,82.51 161.39,82.51 162.36,82.41 163.33,82.70 164.31,82.32 165.28,82.43 166.25,82.70 167.22,82.51 168.19,82.60 169.17,82.41 170.14,82.51 171.11,82.70 172.08,82.61 173.06,82.51 174.03,82.41 175.00,82.41 175.97,82.70 176.94,82.51 177.92,82.52 178.89,82.79 179.86,82.51 180.83,82.51 181.81,82.41 182.78,82.51 183.75,82.60 184.72,82.43 185.69,82.60 186.67,82.60 187.64,82.51 188.61,82.41 189.58,82.60 190.56,82.51 191.53,82.61 192.50,82.32 193.47,82.41 194.44,82.51 195.42,82.51 196.39,82.43 197.36,82.70 198.33,82.60 199.31,82.51 200.28,82.70 201.25,82.51 202.22,82.70 203.19,82.70 204.17,82.51 205.14,82.71 206.11,82.79 207.08,82.51 208.06,82.51 209.03,82.51 210.00,82.41 210.97,82.79 211.94,82.43 212.92,82.32 213.89,82.70 214.86,82.51 215.83,82.70 216.81,82.79 217.78,82.60 218.75,82.51 219.72,82.61 220.69,85.33 221.67,245.50 222.64,479.38 223.61,167.67 224.58,82.60 225.56,82.51 226.53,82.51 227.50,82.79 228.48,82.51 229.44,82.80 230.42,82.60 231.39,82.79 232.36,82.32 233.33,82.32 234.31,82.70 235.28,82.60 236.25,82.70 237.22,82.61 238.19,82.79 239.17,82.51 240.14,82.23 241.11,82.51 242.08,82.70 243.06,82.61 244.03,82.32 245.00,82.51 245.97,82.79 246.94,82.51 247.92,82.60 248.89,82.51 249.87,82.51 250.83,82.61 251.81,82.51 252.78,82.98 253.75,82.51 254.72,82.60 255.69,82.70 256.67,82.70 257.64,82.70 258.61,82.60 259.58,82.61 260.56,82.60 261.53,82.41 262.50,82.51 263.47,82.41 264.44,82.51 265.42,82.70 266.39,82.61 267.36,82.32 268.33,82.51 269.31,82.51 270.28,82.41 271.25,82.33 272.22,82.60 273.19,82.41 274.17,82.51 275.14,82.51 276.11,82.51 277.09,82.70 278.06,82.61 279.03,82.79 280.00,82.60 280.97,82.51 281.94,82.79 282.92,82.51 283.89,82.51 284.86,82.51 285.83,82.52 286.81,82.60 287.78,82.51 288.75,82.51 289.72,82.51 290.69,82.70 291.67,82.51 292.64,82.71 293.61,82.60 294.58,82.70 295.56,82.32 296.53,82.51 297.50,82.70 298.47,82.51 299.44,82.43 300.42,82.88 301.39,82.41 302.36,82.60 303.33,82.70 304.31,82.60 305.28,82.60 306.25,82.60 307.22,82.79 308.19,82.61 309.17,82.41 310.14,82.60 311.11,82.51 312.08,82.79 313.06,82.32 314.03,82.51 315.00,82.43 315.97,82.51 316.94,82.51 317.92,82.51 318.89,82.70 319.86,82.41 320.83,82.43 321.81,82.51 322.78,82.51 323.75,82.51 324.72,82.41 325.70,82.51 326.67,82.80 327.64,82.32 328.61,82.51 329.58,82.51 330.56,82.51 331.53,82.51 332.50,82.51 333.47,82.52 334.44,82.51 335.42,82.51 336.39,82.41 337.36,82.51 338.33,82.43 339.31,82.51 340.28,82.51 341.25,82.51 342.22,82.51 343.19,82.51 344.17,82.43 345.14,82.60 346.11,82.70 347.08,82.51 348.06,82.51 349.03,82.51 350.00,82.43 350.97,82.51 351.94,82.79 352.92,82.51 353.89,82.60 354.86,82.41 355.83,82.51 356.81,82.70 357.78,82.43 358.75,82.70 359.72,82.41 360.69,82.60 361.67,82.60 362.64,82.70 363.62,82.41 364.58,82.61 365.56,82.60 366.53,82.60 367.50,82.51 368.47,82.60 369.44,82.51 370.42,82.60 371.39,82.52 372.36,82.41 373.33,83.64 374.31,164.29 375.28,474.11 376.25,234.22 377.23,82.51 378.19,82.52 379.17,82.60 380.14,82.51 381.11,82.60 382.08,82.70 383.06,82.51 384.03,82.41 385.00,82.61 385.97,82.41 386.94,82.51 387.92,82.70 388.89,82.51 389.86,82.60 390.84,82.60 391.81,82.80 392.78,82.70 393.75,82.60 394.72,82.51 395.69,82.32 396.67,82.60 397.64,82.60 398.61,82.61 399.58,82.70 400.56,82.41 401.53,82.60 402.50,82.70 403.47,82.41 404.44,82.60 405.42,82.70 406.39,82.61 407.36,82.51 408.33,82.51 409.31,82.51 410.28,82.51 411.25,82.51 412.23,82.51 413.19,82.43 414.17,82.51 415.14,82.79 416.11,82.41 417.08,82.70 418.06,82.51 419.03,82.51 420.00,82.71 420.97,82.60 421.94,82.51 422.92,82.41 423.89,82.51 424.86,82.70 425.84,82.51 426.81,82.43 427.78,82.51 428.75,82.51 429.72,82.41 430.69,82.51 431.67,82.51 432.64,82.80 433.61,82.51 434.58,82.51 435.56,82.60 436.53,82.60 437.50,82.41 438.47,82.70 439.45,82.70 440.42,82.43 441.39,82.79 442.36,82.51 443.33,82.79 444.31,82.51 445.28,82.60 446.25,82.51 447.22,82.70 448.19,82.52 449.17,82.70 450.14,82.51 451.11,82.51 452.08,82.51 453.06,82.51 454.03,82.24 455.00,82.60 455.97,82.60 456.94,82.32 457.92,82.51 458.89,82.32 459.86,82.43 460.83,82.32 461.81,82.32 462.78,82.32 463.75,82.70 464.72,82.43 465.69,82.51 466.67,82.60 467.64,82.41 468.61,82.70 469.59,82.32 470.56,82.43 471.53,82.60 472.50,82.41 473.47,82.51 474.44,82.51 475.42,82.51 476.39,82.43 477.36,82.41 478.33,82.51 479.31,82.60 480.28,82.60 481.25,82.51 482.22,82.52 483.19,82.41 484.17,82.60 485.14,82.32 486.11,82.51 487.09,82.60 488.06,82.61 489.03,82.60 490.00,82.60 490.97,82.32 491.94,82.70 492.92,82.41 493.89,82.33 494.86,82.51 495.83,82.79 496.81,82.41 497.78,82.60 498.75,82.51 499.72,82.79 500.69,82.60 501.67,82.52 502.64,82.32 503.61,82.60 504.58,82.13 505.56,82.51 506.53,82.61 507.50,82.51 508.47,82.32 509.44,82.60 510.42,82.41 511.39,82.79 512.37,82.51 513.33,82.43 514.31,82.51 515.28,82.60 516.25,82.51 517.22,82.70 518.19,82.60 519.17,82.60 520.14,82.70 521.11,82.33 522.08,82.51 523.06,82.41 524.03,82.70 525.00,82.60 525.98,83.45 526.94,95.17 527.92,473.92 528.89,304.91 529.86,82.51 530.83,82.70 531.81,82.41 532.78,82.41 533.75,82.61 534.72,82.51 535.69,82.32 536.67,82.51 537.64,82.51 538.61,82.51 539.58,82.61 540.56,82.70 541.53,82.51 542.50,82.32 543.47,82.51 544.44,82.51 545.42,82.24 546.39,82.70 547.36,82.41 548.33,82.41 549.31,82.51 550.28,82.70 551.25,82.51 552.22,82.61 553.19,82.32 554.17,82.60 555.14,82.32 556.11,85.14 557.08,82.43 558.06,82.60 559.03,82.32 560.00,82.70 560.97,82.51 561.94,82.32 562.92,82.43 563.89,82.51 564.86,82.32 565.83,83.73 566.81,82.32 567.78,82.60 568.75,82.43 569.72,82.41 570.69,82.51 571.67,82.23 572.64,82.51 573.61,82.61 574.58,82.51 575.56,82.60 576.53,82.32 577.50,82.41 578.47,82.70 579.44,82.52 580.42,82.70 581.39,82.51 582.36,82.60 583.33,82.32 584.31,82.79 585.28,82.51 586.25,82.43 587.22,82.51 588.19,82.51 589.17,82.51 590.14,82.32 591.11,82.51 592.08,82.61 593.06,82.51 594.03,82.41 595.00,82.32 595.97,82.70 596.94,82.51 597.92,82.51 598.89,82.43 599.86,82.51 600.83,82.41 601.81,82.32 602.78,82.70 603.75,82.60 604.72,82.71 605.69,82.32 606.67,82.51 607.64,82.51 608.61,82.51 609.58,82.43 610.56,82.41 611.53,82.60 612.50,82.60 613.47,82.41 614.44,82.32 615.42,82.71 616.39,82.70 617.36,82.13 618.33,82.32 619.31,82.41 620.28,82.41 621.25,82.52 622.22,82.60 623.19,82.51 624.17,82.60 625.14,82.32 626.11,82.33 627.08,82.60 628.06,82.41 629.03,82.32 630.00,82.60 630.97,82.41 631.94,82.52 632.92,82.32 633.89,82.51 634.86,82.41 635.83,82.32 636.81,82.33 637.78,82.60 638.75,82.51 639.72,82.51 640.69,82.41 641.67,82.51 642.64,82.43 643.61,82.51 644.58,82.51 645.56,82.32 646.53,82.41 647.50,82.52 648.47,82.88 649.44,82.41 650.42,82.51 651.39,82.51 652.36,82.51 653.33,82.60 654.31,82.33 655.28,82.51 656.25,82.51 657.22,82.41 658.19,82.32 659.17,82.51 660.14,82.52 661.11,82.23 662.08,82.32 663.06,82.51 664.03,82.60 665.00,82.52 665.97,82.60 666.94,82.60 667.92,82.32 668.89,82.32 669.87,82.32 670.83,82.43 671.81,82.51 672.78,82.70 673.75,82.32 674.72,82.70 675.70,82.51 676.67,82.43 677.64,82.79 678.61,83.35 679.58,87.87 680.56,417.99 681.53,409.82 682.50,82.43 683.47,82.70 684.44,82.41 685.42,82.60 686.39,82.51 687.36,82.32 688.33,82.79 689.31,82.52 690.28,82.32 691.25,82.41 692.22,82.23 693.20,82.32 694.17,82.80 695.14,82.51 696.11,82.51 697.08,82.41 698.06,82.32 699.03,82.24 700.00,82.51 700.97,82.51 701.94,82.60 702.92,82.41 703.89,82.70 704.86,82.70 705.83,82.52 706.81,82.60 707.78,82.41 708.75,82.32 709.72,82.51 710.69,82.24 711.67,82.32 712.64,82.70 713.61,82.32 714.58,82.32 715.56,82.43 716.53,82.60 717.50,82.41 718.47,82.32 719.44,82.32 720.42,82.43 721.39,82.70 722.36,82.32 723.33,82.51 724.31,82.32 725.28,82.60 726.25,82.43 727.22,82.32 728.19,82.41 729.17,82.41 730.14,82.32 731.11,82.61 732.08,82.32 733.06,82.79 734.03,82.41 735.00,82.41 735.97,82.51 736.94,82.61 737.92,82.41 738.89,82.70 739.86,82.41 740.83,82.32 741.81,82.60 742.78,82.52 743.75,82.32 744.72,82.41 745.69,82.51 746.67,82.51 747.64,82.51 748.61,82.43 749.58,82.32 750.56,82.23 751.53,82.60 752.50,82.32 753.47,82.80 754.44,82.51 755.42,82.51 756.39,82.32 757.36,82.32 758.33,82.33 759.31,82.41 760.28,82.51 761.25,82.60 762.22,82.32 763.20,82.32 764.17,82.71 765.14,82.32 766.11,82.51 767.08,82.32 768.06,82.41 769.03,82.52 770.00,83.17" fill="none" stroke="#1f77b4" stroke-width="1.4" opacity="0.9" stroke-linejoin="round"/><polyline points="70.97,87.02 71.94,82.24 72.92,82.41 73.89,82.23 74.86,82.51 75.83,82.41 76.81,82.33 77.78,82.60 78.75,82.41 79.72,82.51 80.69,82.51 81.67,82.51 82.64,82.24 83.61,82.41 84.58,82.32 85.56,82.13 86.53,82.52 87.50,82.51 88.47,82.60 89.44,82.32 90.42,82.60 91.39,82.51 92.36,82.33 93.33,82.32 94.31,82.41 95.28,82.51 96.25,82.52 97.22,82.41 98.19,82.51 99.17,82.51 100.14,82.13 101.11,82.51 102.08,82.61 103.06,82.70 104.03,82.32 105.00,82.32 105.97,82.32 106.94,84.88 107.92,298.24 108.89,479.38 109.86,111.93 110.83,82.51 111.81,82.32 112.78,82.33 113.75,82.41 114.72,82.32 115.69,82.51 116.67,82.32 117.64,82.24 118.61,82.41 119.58,82.41 120.56,82.32 121.53,82.33 122.50,82.51 123.47,82.32 124.44,82.32 125.42,82.32 126.39,82.61 127.36,82.32 128.33,82.32 129.31,82.60 130.28,82.60 131.25,82.24 132.22,82.51 133.19,82.51 134.17,82.32 135.14,82.51 136.12,82.60 137.08,82.52 138.06,82.60 139.03,82.32 140.00,82.51 140.97,82.32 141.94,82.43 142.92,82.70 143.89,82.23 144.86,82.32 145.83,84.86 146.81,272.69 147.78,483.89 148.75,150.38 149.72,82.32 150.69,82.41 151.67,82.51 152.64,82.52 153.61,82.60 154.58,82.32 155.56,82.32 156.53,82.32 157.50,82.43 158.47,82.32 159.44,82.60 160.42,82.32 161.39,82.43 162.36,82.51 163.33,82.32 164.31,82.32 165.28,82.51 166.25,82.32 167.22,82.43 168.19,82.51 169.17,82.70 170.14,82.32 171.11,82.51 172.08,82.43 173.06,82.51 174.03,82.32 175.00,82.51 175.97,82.32 176.95,82.51 177.92,85.35 178.89,82.41 179.86,82.32 180.83,82.51 181.81,82.51 182.78,82.43 183.75,82.70 184.72,83.45 185.69,233.47 186.67,473.92 187.64,165.04 188.61,82.43 189.58,82.51 190.56,84.76 191.53,82.70 192.50,82.51 193.47,82.70 194.44,82.24 195.42,82.51 196.39,82.51 197.36,82.32 198.33,82.32 199.31,82.61 200.28,82.60 201.25,82.41 202.22,82.23 203.19,82.41 204.17,82.33 205.14,82.41 206.11,82.32 207.08,82.41 208.06,82.70 209.03,82.32 210.00,82.43 210.97,82.70 211.94,82.41 212.92,82.23 213.89,82.41 214.86,82.61 215.83,82.60 216.81,82.70 217.78,82.32 218.75,82.32 219.72,82.41 220.69,82.33 221.67,82.32 222.64,82.32 223.61,83.64 224.58,221.44 225.56,483.15 226.53,213.45 227.50,82.32 228.47,82.60 229.44,82.32 230.42,82.60 231.39,82.60 232.36,82.52 233.33,82.41 234.31,82.41 235.28,82.32 236.25,82.32 237.22,82.61 238.19,82.32 239.17,82.32 240.14,82.41 241.11,82.32 242.08,82.33 243.06,82.79 244.03,82.32 245.00,82.51 245.97,82.51 246.94,82.70 247.92,82.61 248.89,82.32 249.86,82.41 250.83,82.51 251.81,82.32 252.78,82.32 253.75,82.43 254.72,82.32 255.69,82.51 256.67,82.51 257.64,82.24 258.61,82.51 259.58,82.41 260.56,82.32 261.53,83.64 262.50,83.75 263.47,175.19 264.44,474.86 265.42,226.05 266.39,82.41 267.36,82.32 268.34,82.51 269.31,82.43 270.28,82.41 271.25,82.32 272.22,82.60 273.19,82.41 274.17,82.43 275.14,82.60 276.11,82.70 277.08,82.41 278.06,82.51 279.03,82.32 280.00,82.61 280.97,82.51 281.94,82.60 282.92,82.41 283.89,82.32 284.86,82.41 285.83,82.52 286.81,82.32 287.78,82.60 288.75,82.51 289.72,82.79 290.69,82.32 291.67,82.43 292.64,82.32 293.61,82.32 294.58,82.32 295.56,82.52 296.53,82.60 297.50,82.70 298.47,82.51 299.44,82.51 300.42,83.26 301.39,83.82 302.36,401.89 303.33,428.99 304.31,82.70 305.28,82.32 306.25,82.41 307.22,82.32 308.19,82.52 309.17,82.51 310.14,82.32 311.11,82.51 312.08,82.32 313.06,82.24 314.03,82.32 315.00,82.32 315.97,82.32 316.94,82.51 317.92,82.43 318.89,82.32 319.86,82.60 320.83,82.41 321.81,82.41 322.78,82.24 323.75,82.51 324.72,82.60 325.69,82.41 326.67,82.51 327.64,82.70 328.61,82.61 329.58,82.51 330.56,82.41 331.53,82.60 332.50,82.32 333.48,82.51 334.44,82.24 335.42,82.51 336.39,82.70 337.36,82.23 338.33,82.51 339.31,82.43 340.28,84.95 341.25,356.42 342.22,446.48 343.19,82.51 344.17,82.41 345.14,82.32 346.11,82.24 347.08,82.51 348.06,82.51 349.03,82.32 350.00,82.41 350.97,82.43 351.94,82.79 352.92,82.51 353.89,82.23 354.86,82.41 355.83,82.61 356.81,82.32 357.78,82.41 358.75,82.32 359.72,82.70 360.70,82.41 361.67,82.52 362.64,82.51 363.61,82.32 364.58,82.32 365.56,82.60 366.53,82.52 367.50,82.70 368.47,82.32 369.44,82.41 370.42,82.41 371.39,82.70 372.37,82.51 373.33,82.61 374.31,82.51 375.28,82.32 376.25,82.41 377.22,82.60 378.19,82.43 379.17,85.33 380.14,335.56 381.11,478.62 382.08,84.58 383.06,82.32 384.03,82.41 385.00,82.79 385.97,82.43 386.94,82.51 387.92,82.32 388.89,82.32 389.86,82.51 390.83,82.43 391.81,82.70 392.78,82.70 393.75,82.32 394.72,82.51 395.69,82.32 396.67,82.43 397.64,82.51 398.61,82.32 399.58,82.32 400.56,82.51 401.53,82.61 402.50,82.70 403.47,82.51 404.44,82.32 405.42,82.51 406.39,82.51 407.36,82.70 408.33,82.80 409.31,82.70 410.28,82.60 411.25,82.51 412.22,82.60 413.19,82.60 414.17,82.51 415.14,82.32 416.11,82.43 417.08,82.51 418.06,84.86 419.03,299.84 420.00,474.86 420.97,101.68 421.94,82.70 422.92,82.24 423.89,82.51 424.86,82.51 425.83,82.41 426.81,82.51 427.78,82.24 428.75,82.32 429.72,82.51 430.69,82.32 431.67,82.32 432.64,82.43 433.61,82.70 434.58,82.51 435.56,82.32 436.53,82.32 437.50,82.61 438.47,82.51 439.44,82.60 440.42,82.41 441.39,82.60 442.36,82.41 443.33,82.52 444.31,82.51 445.28,82.70 446.25,82.32 447.22,82.41 448.19,82.32 449.17,82.61 450.14,82.41 451.11,82.79 452.08,82.41 453.06,82.51 454.03,82.51 455.00,82.51 455.97,82.80 456.94,84.86 457.92,280.94 458.89,474.68 459.86,118.42 460.83,82.60 461.81,82.32 462.78,82.80 463.75,82.41 464.72,82.60 465.69,82.41 466.67,82.70 467.64,82.60 468.61,82.60 469.59,82.60 470.56,82.43 471.53,82.51 472.50,82.51 473.47,82.41 474.44,82.70 475.42,82.60 476.39,82.61 477.36,82.51 478.33,82.60 479.31,82.70 480.28,82.51 481.25,82.41 482.22,82.60 483.19,82.70 484.17,82.61 485.14,82.51 486.11,82.32 487.08,82.32 488.06,82.51 489.03,84.01 490.00,82.43 490.97,82.32 491.94,82.70 492.92,82.32 493.89,82.51 494.87,83.64 495.83,89.13 496.81,261.11 497.78,476.56 498.75,144.92 499.72,82.41 500.69,82.41 501.67,82.51 502.64,82.43 503.61,82.51 504.58,82.51 505.56,82.70 506.53,82.51 507.50,82.70 508.47,82.79 509.44,82.43 510.42,82.60 511.39,82.51 512.36,82.51 513.33,82.41 514.31,82.70 515.28,82.60 516.25,82.79 517.22,82.79 518.19,82.80 519.17,82.88 520.14,82.79 521.11,82.79 522.08,82.70 523.06,82.88 524.03,82.70 525.00,82.88 525.97,82.88 526.94,82.88 527.92,82.70 528.89,82.88 529.86,82.79 530.83,82.79 531.81,82.88 532.78,82.79 533.75,83.82 534.72,88.71 535.69,391.96 536.67,389.15 537.64,92.00 538.61,82.51 539.58,82.70 540.56,82.32 541.53,82.60 542.50,82.51 543.47,82.43 544.44,82.70 545.42,82.70 546.39,82.70 547.36,82.98 548.33,82.79 549.31,82.70 550.28,82.98 551.25,82.79 552.22,82.79 553.19,82.88 554.17,82.79 555.14,82.79 556.11,82.70 557.08,82.70 558.06,82.51 559.03,82.61 560.00,82.60 560.97,82.60 561.94,82.60 562.92,82.41 563.89,82.60 564.86,82.70 565.84,82.41 566.81,82.71 567.78,82.60 568.75,82.51 569.72,82.41 570.69,82.60 571.67,82.51 572.64,83.64 573.61,83.84 574.58,459.17 575.56,331.04 576.53,82.70 577.50,82.51 578.47,82.51 579.44,82.51 580.42,82.80 581.39,82.51 582.36,82.51 583.33,82.51 584.31,82.60 585.28,82.51 586.25,82.70 587.23,82.51 588.19,82.80 589.17,82.41 590.14,82.60 591.11,82.60 592.08,82.60 593.06,82.79 594.03,82.70 595.00,82.88 595.97,82.88 596.94,82.79 597.92,82.79 598.89,82.88 599.86,82.88 600.83,82.79 601.81,82.98 602.78,82.61 603.75,82.88 604.72,82.79 605.69,82.79 606.67,82.88 607.64,82.98 608.61,82.70 609.58,82.88 610.56,82.70 611.53,83.82 612.50,84.39 613.47,450.33 614.44,375.22 615.42,82.70 616.39,82.88 617.36,82.88 618.33,82.79 619.31,82.88 620.28,82.79 621.25,82.88 622.22,82.88 623.19,82.88 624.17,82.88 625.14,82.70 626.11,82.79 627.08,82.88 628.06,82.79 629.03,82.88 630.00,82.79 630.97,82.79 631.94,82.90 632.92,82.88 633.89,82.79 634.86,82.79 635.83,82.88 636.81,82.79 637.78,82.88 638.75,82.88 639.72,82.79 640.69,82.88 641.67,82.79 642.64,82.79 643.61,82.88 644.58,82.79 645.56,82.98 646.53,82.88 647.50,82.70 648.47,82.88 649.44,82.79 650.42,83.82 651.39,84.20 652.36,408.03 653.33,386.50 654.31,82.79 655.28,82.98 656.25,82.79 657.22,82.79 658.19,82.79 659.17,82.88 660.14,82.79 661.11,82.79 662.08,82.88 663.06,82.88 664.03,82.88 665.00,82.80 665.97,82.79 666.94,82.60 667.92,82.60 668.89,82.79 669.86,82.70 670.83,82.88 671.81,82.79 672.78,82.79 673.75,82.88 674.72,82.79 675.69,82.79 676.67,82.88 677.64,82.88 678.61,82.70 679.58,82.88 680.56,82.79 681.53,82.98 682.50,82.88 683.47,82.79 684.44,82.79 685.42,82.79 686.39,82.80 687.36,82.98 688.33,82.79 689.31,84.39 690.28,83.64 691.25,388.29 692.22,404.74 693.19,82.88 694.17,82.88 695.14,82.70 696.11,82.88 697.08,82.88 698.06,82.88 699.03,82.88 700.00,82.70 700.97,82.88 701.94,82.88 702.92,82.79 703.89,82.88 704.86,82.98 705.83,82.79 706.81,82.70 707.78,82.98 708.75,82.70 709.72,82.88 710.69,82.88 711.67,82.88 712.64,82.79 713.61,82.79 714.58,82.88 715.56,82.88 716.53,82.70 717.50,82.88 718.47,82.88 719.44,82.90 720.42,82.79 721.39,82.88 722.36,82.79 723.33,82.79 724.31,82.79 725.28,82.79 726.25,82.88 727.22,82.88 728.19,83.64 729.17,137.03 730.14,321.64 731.11,432.75 732.08,82.88 733.06,82.70 734.03,82.88 735.00,82.79 735.97,82.98 736.94,82.70 737.92,82.79 738.89,82.79 739.86,82.79 740.83,82.88 741.81,82.70 742.78,82.79 743.75,82.43 744.72,82.60 745.69,82.51 746.67,82.60 747.64,82.70 748.61,82.32 749.58,82.70 750.56,82.52 751.53,82.79 752.50,82.41 753.47,82.41 754.44,82.51 755.42,82.51 756.39,82.51 757.36,82.43 758.33,82.51 759.31,82.32 760.28,82.51 761.25,82.51 762.22,82.43 763.19,82.51 764.17,82.41 765.14,82.51 766.11,82.41 767.09,83.64 768.06,188.98 769.03,375.79 770.00,313.47" fill="none" stroke="#2ca02c" stroke-width="1.4" opacity="0.9" stroke-linejoin="round"/><polyline points="70.97,82.70 71.94,82.51 72.92,82.24 73.89,82.32 74.86,82.32 75.83,82.32 76.81,82.52 77.78,83.35 78.75,84.01 79.72,414.23 80.69,392.99 81.67,82.51 82.64,82.32 83.61,82.43 84.58,82.70 85.56,82.60 86.53,82.23 87.50,82.51 88.47,89.03 89.44,103.00 90.42,482.57 91.39,326.91 92.36,82.32 93.34,82.51 94.31,82.43 95.28,82.32 96.25,82.32 97.22,82.51 98.19,82.43 99.17,83.54 100.14,174.35 101.11,473.92 102.08,223.23 103.06,82.24 104.03,82.32 105.00,82.51 105.97,82.41 106.95,82.23 107.92,82.43 108.89,82.41 109.86,84.76 110.83,274.55 111.81,483.53 112.78,155.45 113.75,82.32 114.72,82.32 115.70,82.32 116.67,82.61 117.64,82.51 118.61,82.32 119.58,83.35 120.56,88.34 121.53,338.85 122.50,451.18 123.47,82.41 124.44,82.51 125.42,82.23 126.39,82.43 127.36,82.32 128.33,82.23 129.31,82.32 130.28,84.60 131.25,122.83 132.22,482.29 133.19,309.05 134.17,82.13 135.14,82.43 136.11,82.23 137.08,82.32 138.06,82.32 139.03,82.41 140.00,82.24 140.97,84.67 141.94,340.44 142.92,450.61 143.89,82.51 144.86,82.43 145.83,82.32 146.81,82.32 147.78,82.51 148.75,82.43 149.72,82.41 150.69,83.26 151.67,83.64 152.64,450.80 153.62,349.09 154.58,82.33 155.56,82.51 156.53,82.32 157.50,82.51 158.48,82.23 159.44,82.43 160.42,82.32 161.39,83.45 162.36,147.65 163.33,476.74 164.31,257.91 165.28,82.51 166.25,82.32 167.22,82.32 168.19,82.61 169.17,82.32 170.14,82.32 171.11,82.51 172.08,84.95 173.06,236.26 174.03,476.27 175.00,172.84 175.97,82.23 176.94,82.32 177.92,82.33 178.89,82.32 179.86,82.32 180.83,82.41 181.81,82.60 182.78,88.65 183.75,322.58 184.72,475.05 185.69,82.32 186.67,82.32 187.64,82.43 188.61,82.32 189.58,82.51 190.56,82.51 191.53,82.32 192.50,83.75 193.47,98.39 194.44,418.28 195.42,355.39 196.39,82.41 197.36,82.52 198.33,82.51 199.31,82.51 200.28,82.23 201.25,82.51 202.22,82.71 203.19,84.67 204.17,343.83 205.14,437.73 206.11,86.36 207.08,82.52 208.06,82.41 209.03,82.23 210.00,82.32 210.97,82.60 211.94,82.61 212.92,83.54 213.89,83.92 214.86,460.01 215.83,357.74 216.81,82.60 217.78,82.41 218.75,82.52 219.72,82.51 220.69,82.51 221.67,82.79 222.64,82.51 223.61,83.64 224.58,143.61 225.56,475.62 226.53,259.10 227.50,82.79 228.47,82.60 229.44,82.51 230.42,82.51 231.39,82.60 232.36,82.60 233.33,82.61 234.31,85.52 235.28,234.79 236.25,478.81 237.22,178.39 238.19,82.51 239.17,82.79 240.14,82.60 241.11,82.61 242.08,82.51 243.06,82.70 244.03,82.51 245.00,84.95 245.97,319.11 246.94,475.43 247.92,83.26 248.89,82.43 249.86,82.51 250.83,82.51 251.81,82.51 252.78,82.41 253.75,82.60 254.72,83.94 255.69,87.58 256.67,410.38 257.64,388.76 258.61,82.41 259.58,82.70 260.56,82.41 261.53,82.70 262.50,82.61 263.47,82.79 264.44,82.51 265.42,84.95 266.39,212.42 267.36,375.32 268.33,284.80 269.31,82.32 270.28,82.80 271.25,82.60 272.22,82.51 273.19,82.60 274.17,82.70 275.14,83.64 276.11,84.01 277.08,441.59 278.06,311.76 279.03,119.26 280.00,82.41 280.97,82.51 281.94,82.32 282.92,82.61 283.89,82.51 284.86,82.51 285.83,83.64 286.81,149.06 287.78,475.80 288.75,259.60 289.72,82.61 290.69,82.51 291.67,82.51 292.64,82.51 293.61,82.60 294.58,82.79 295.56,82.60 296.53,84.95 297.50,236.95 298.47,473.90 299.44,164.29 300.42,82.51 301.39,82.51 302.36,82.41 303.33,82.60 304.31,82.51 305.28,82.43 306.25,82.51 307.22,88.90 308.19,328.79 309.17,462.27 310.14,82.70 311.11,82.70 312.08,82.70 313.06,82.60 314.03,82.71 315.00,82.70 315.97,82.60 316.94,85.14 317.92,87.77 318.89,425.89 319.86,385.56 320.83,82.51 321.81,82.33 322.78,82.51 323.75,82.51 324.72,82.51 325.69,82.51 326.67,82.51 327.64,85.07 328.61,176.98 329.58,406.71 330.56,288.37 331.53,82.51 332.50,82.70 333.47,82.41 334.45,82.79 335.42,82.52 336.39,82.32 337.36,83.54 338.33,83.92 339.31,380.21 340.28,303.13 341.25,192.56 342.22,82.60 343.19,82.70 344.17,82.70 345.14,82.60 346.11,82.51 347.08,82.60 348.06,83.65 349.03,150.19 350.00,476.27 350.97,236.86 351.94,102.72 352.92,82.51 353.89,82.32 354.86,82.61 355.83,82.51 356.81,82.41 357.78,82.41 358.75,85.33 359.72,239.68 360.69,478.62 361.67,175.10 362.64,82.70 363.61,82.32 364.58,82.70 365.56,82.51 366.53,82.70 367.50,82.51 368.48,82.60 369.44,85.07 370.42,324.09 371.39,476.18 372.36,86.83 373.33,82.32 374.31,82.79 375.28,82.41 376.25,82.52 377.22,82.51 378.19,82.70 379.17,84.01 380.14,109.20 381.11,388.57 382.08,396.66 383.06,82.51 384.03,82.61 385.00,82.51 385.97,82.51 386.94,82.70 387.92,82.51 388.89,82.70 389.86,84.01 390.83,157.83 391.81,416.49 392.78,300.96 393.75,82.60 394.72,82.32 395.69,82.51 396.67,82.51 397.64,82.43 398.61,82.70 399.58,83.45 400.56,84.01 401.53,381.52 402.50,288.18 403.47,207.53 404.44,82.43 405.42,82.51 406.39,82.70 407.36,82.51 408.33,82.41 409.31,82.51 410.28,83.54 411.25,135.75 412.22,474.49 413.19,240.62 414.17,112.21 415.14,82.51 416.11,82.32 417.08,82.61 418.06,82.32 419.03,82.70 420.00,82.51 420.97,83.82 421.94,230.18 422.92,477.21 423.89,184.87 424.86,82.61 425.83,82.32 426.81,82.51 427.78,82.51 428.75,82.70 429.73,82.32 430.69,82.61 431.67,85.14 432.64,310.46 433.61,479.00 434.58,97.74 435.56,82.32 436.53,82.51 437.50,82.52 438.47,82.41 439.44,82.51 440.42,82.51 441.39,83.82 442.36,108.85 443.33,374.57 444.31,412.26 445.28,82.51 446.25,82.51 447.22,82.32 448.19,82.70 449.17,82.43 450.14,82.51 451.11,82.32 452.08,84.39 453.06,190.98 454.03,373.72 455.00,312.81 455.97,82.52 456.94,82.51 457.92,82.60 458.89,82.51 459.86,82.60 460.83,82.51 461.81,83.45 462.78,84.03 463.75,369.87 464.72,288.09 465.69,225.67 466.67,82.70 467.64,82.51 468.61,82.51 469.58,82.61 470.56,82.51 471.53,82.51 472.50,83.73 473.47,119.45 474.44,472.51 475.42,270.13 476.39,90.87 477.37,82.60 478.33,82.43 479.31,82.51 480.28,82.60 481.25,82.79 482.22,82.51 483.19,83.73 484.17,219.28 485.14,480.50 486.11,205.87 487.08,82.70 488.06,82.60 489.03,82.51 490.00,82.70 490.97,82.51 491.94,82.70 492.92,82.51 493.89,85.26 494.86,291.75 495.83,473.64 496.81,107.23 497.78,82.70 498.75,82.51 499.72,82.51 500.69,82.51 501.67,82.61 502.64,82.60 503.61,84.01 504.58,111.46 505.56,363.76 506.53,424.57 507.50,82.70 508.47,82.79 509.44,82.61 510.42,82.51 511.39,82.51 512.36,82.51 513.33,82.41 514.31,84.39 515.28,187.41 516.25,362.73 517.22,325.22 518.19,82.79 519.17,82.70 520.14,82.51 521.11,82.60 522.08,82.41 523.06,82.51 524.03,83.45 525.00,84.12 525.97,200.67 526.94,449.67 527.92,235.16 528.89,82.51 529.86,82.41 530.83,82.52 531.81,82.70 532.78,82.32 533.75,82.51 534.72,84.01 535.69,108.08 536.67,379.74 537.64,330.48 538.61,133.39 539.58,82.51 540.56,82.41 541.53,82.41 542.50,82.51 543.47,82.51 544.44,82.52 545.42,83.64 546.39,206.40 547.36,457.10 548.33,213.26 549.31,82.41 550.28,82.70 551.25,82.61 552.22,82.70 553.19,82.51 554.17,82.51 555.14,82.51 556.11,84.95 557.08,301.06 558.06,473.55 559.03,102.81 560.00,82.51 560.97,82.32 561.94,82.51 562.92,82.51 563.89,82.32 564.86,82.43 565.83,84.39 566.81,83.64 567.78,396.47 568.75,420.72 569.72,82.51 570.69,82.51 571.67,82.52 572.64,82.41 573.61,82.51 574.58,82.51 575.56,82.70 576.53,84.29 577.50,176.88 578.47,378.30 579.44,319.01 580.42,82.70 581.39,82.51 582.36,82.51 583.33,82.51 584.31,82.51 585.28,82.51 586.25,82.43 587.22,84.20 588.19,228.02 589.17,422.41 590.14,231.12 591.11,82.60 592.08,82.61 593.06,82.41 594.03,82.51 595.00,82.41 595.97,82.51 596.94,83.35 597.92,114.33 598.89,240.90 599.86,469.98 600.83,134.02 601.81,82.51 602.78,82.41 603.75,82.41 604.72,82.61 605.69,82.51 606.67,82.60 607.64,83.54 608.61,208.75 609.58,276.81 610.56,391.02 611.53,82.43 612.50,82.70 613.47,82.51 614.44,82.60 615.42,82.41 616.39,82.60 617.36,82.52 618.33,84.95 619.31,303.78 620.28,448.54 621.25,129.88 622.22,82.32 623.19,82.51 624.17,82.51 625.14,82.43 626.11,82.51 627.08,82.32 628.06,83.82 629.03,83.64 630.00,393.97 630.97,408.69 631.94,82.51 632.92,82.51 633.89,82.32 634.86,82.51 635.83,82.61 636.81,82.32 637.78,82.70 638.75,84.11 639.72,173.97 640.69,389.79 641.67,313.28 642.64,82.51 643.61,82.43 644.58,82.51 645.56,82.51 646.53,82.51 647.50,82.51 648.48,82.51 649.44,84.12 650.42,196.34 651.39,463.40 652.36,223.04 653.33,82.51 654.31,82.60 655.28,82.43 656.25,82.70 657.22,82.41 658.19,82.51 659.17,82.60 660.14,122.27 661.11,239.21 662.08,470.79 663.06,127.72 664.03,82.51 665.00,82.51 665.97,82.51 666.94,82.60 667.92,82.51 668.89,82.60 669.86,83.46 670.83,216.27 671.81,265.15 672.78,384.06 673.75,82.51 674.72,82.60 675.69,82.41 676.67,82.80 677.64,82.70 678.61,82.51 679.58,82.51 680.56,85.14 681.53,317.04 682.50,420.34 683.47,134.49 684.45,82.70 685.42,82.61 686.39,82.51 687.36,82.60 688.33,82.32 689.31,82.51 690.28,83.82 691.25,83.75 692.22,414.89 693.19,401.17 694.17,82.70 695.14,82.51 696.11,82.51 697.08,82.51 698.06,82.51 699.03,82.61 700.00,82.79 700.97,84.29 701.94,173.88 702.92,401.54 703.89,299.46 704.86,82.60 705.84,82.60 706.81,82.61 707.78,82.51 708.75,82.41 709.72,82.41 710.69,82.51 711.67,84.48 712.64,196.25 713.61,478.62 714.58,220.22 715.56,82.51 716.53,82.51 717.50,82.51 718.47,82.61 719.44,82.60 720.42,82.70 721.39,82.41 722.36,126.78 723.33,237.04 724.31,470.45 725.28,116.72 726.25,82.80 727.22,82.60 728.19,82.70 729.17,82.88 730.14,82.13 731.11,82.51 732.08,82.32 733.06,228.14 734.03,237.23 735.00,430.87 735.97,82.70 736.94,82.32 737.92,82.32 738.89,82.43 739.86,82.51 740.83,82.51 741.81,82.32 742.78,84.76 743.75,305.25 744.72,241.37 745.69,322.58 746.67,82.41 747.64,82.41 748.61,82.32 749.58,82.61 750.56,82.41 751.53,82.51 752.50,83.73 753.47,83.92 754.44,407.47 755.42,383.31 756.39,86.77 757.36,82.32 758.33,82.32 759.31,82.70 760.28,82.51 761.25,82.32 762.22,82.43 763.19,84.39 764.17,174.06 765.14,407.37 766.11,299.27 767.08,82.32 768.06,82.61 769.03,82.32 770.00,83.82" fill="none" stroke="#ff7f0e" stroke-width="1.4" opacity="0.9" stroke-linejoin="round"/><polyline points="70.97,84.01 71.94,148.50 72.92,479.38 73.89,269.38 74.86,85.07 75.83,351.91 76.81,436.14 77.78,83.64 78.75,186.10 79.72,478.72 80.69,230.84 81.67,84.03 82.64,392.24 83.61,398.16 84.58,83.92 85.56,225.39 86.53,473.36 87.50,179.33 88.47,87.77 89.44,448.99 90.42,384.81 91.39,92.28 92.36,474.68 93.33,307.64 94.31,84.95 95.28,314.78 96.25,477.97 97.22,97.64 98.19,134.58 99.17,477.31 100.14,276.37 101.11,84.95 102.08,346.18 103.06,447.60 104.03,83.73 105.00,177.07 105.97,477.12 106.94,237.23 107.92,142.48 108.89,331.14 109.86,418.60 110.83,83.64 111.81,328.41 112.78,380.49 113.75,159.78 114.72,280.28 115.69,477.68 116.67,132.70 117.64,98.09 118.61,474.96 119.58,309.89 120.56,84.95 121.53,317.70 122.50,479.75 123.47,101.78 124.44,130.54 125.42,473.36 126.39,273.16 127.36,88.81 128.33,349.66 129.31,466.78 130.28,83.92 131.25,197.66 132.22,466.59 133.19,203.49 134.17,152.44 135.14,355.27 136.11,375.41 137.08,84.20 138.06,423.54 139.03,294.20 140.00,151.32 140.97,285.36 141.94,479.00 142.92,125.56 143.89,105.54 144.86,474.75 145.83,304.07 146.81,88.99 147.78,317.51 148.75,477.68 149.72,89.46 150.69,147.36 151.67,471.10 152.64,269.94 153.61,151.69 154.58,316.19 155.56,397.78 156.53,84.11 157.50,264.67 158.47,430.12 159.44,181.30 160.42,255.75 161.39,308.11 162.36,305.29 163.34,92.10 164.31,476.45 165.28,323.05 166.25,85.05 167.22,302.00 168.19,478.62 169.17,108.83 170.14,124.52 171.11,473.17 172.08,282.16 173.06,100.56 174.03,329.16 175.00,478.44 175.97,83.54 176.94,209.74 177.92,445.35 178.89,206.78 179.86,190.33 180.83,310.93 181.81,381.62 182.78,84.12 183.75,443.56 184.72,270.13 185.69,164.85 186.67,270.51 187.64,477.31 188.61,136.84 189.58,95.67 190.56,475.62 191.53,314.88 192.50,88.90 193.47,308.48 194.44,477.30 195.42,105.07 196.39,133.08 197.36,470.73 198.33,278.59 199.31,146.80 200.28,313.00 201.25,418.84 202.22,83.94 203.19,405.49 204.17,268.63 205.14,191.92 206.11,246.26 207.08,421.47 208.06,222.67 209.03,84.20 210.00,454.94 210.97,320.70 211.94,95.29 212.92,291.56 213.89,481.44 214.86,129.88 215.83,100.92 216.81,473.17 217.78,300.59 218.75,88.81 219.72,323.05 220.69,481.26 221.67,99.43 222.64,151.41 223.61,454.93 224.58,266.94 225.56,156.96 226.53,318.45 227.50,412.73 228.47,84.29 229.44,410.38 230.42,266.75 231.39,185.72 232.36,253.21 233.33,473.55 234.31,160.06 235.28,83.82 236.25,465.56 237.22,334.04 238.19,85.05 239.17,289.12 240.14,479.38 241.11,121.61 242.09,146.90 243.06,443.99 244.03,294.76 245.00,150.38 245.97,263.55 246.94,468.00 247.92,84.11 248.89,224.73 249.86,435.30 250.83,208.84 251.81,224.17 252.78,468.28 253.75,178.39 254.73,83.92 255.69,449.18 256.67,346.08 257.64,84.95 258.61,277.65 259.58,481.54 260.56,145.68 261.53,133.58 262.50,427.02 263.47,314.50 264.44,148.40 265.42,264.02 266.39,479.75 267.36,93.85 268.33,178.29 269.31,444.22 270.28,247.57 271.25,191.36 272.22,472.39 273.19,215.99 274.17,83.92 275.14,410.29 276.11,390.64 277.09,83.64 278.06,236.07 279.03,477.31 280.00,183.37 280.97,131.86 281.94,392.33 282.92,350.60 283.89,120.11 284.86,238.15 285.83,478.06 286.81,145.77 287.78,152.54 288.75,408.31 289.72,314.12 290.69,152.64 291.67,273.52 292.64,455.22 293.61,85.14 294.58,370.05 295.56,361.88 296.53,126.69 297.50,211.44 298.47,479.66 299.44,206.40 300.42,109.77 301.39,390.26 302.37,378.98 303.33,92.62 304.31,237.89 305.28,480.03 306.25,173.22 307.22,145.58 308.19,392.14 309.17,346.31 310.14,123.30 311.11,236.67 312.08,474.68 313.06,131.95 314.03,222.94 315.00,400.48 315.97,233.66 316.94,181.21 317.92,452.30 318.89,232.72 319.86,83.82 320.83,409.35 321.81,390.83 322.78,85.70 323.75,230.93 324.72,475.90 325.70,181.02 326.67,133.77 327.64,394.96 328.61,352.29 329.58,117.66 330.56,237.04 331.53,474.75 332.50,139.75 333.47,166.54 334.44,400.79 335.42,306.98 336.39,162.22 337.36,286.28 338.33,422.22 339.31,84.95 340.28,385.19 341.25,342.32 342.22,134.40 343.19,224.54 344.17,475.24 345.14,183.22 346.11,83.82 347.08,440.74 348.06,353.70 349.03,116.16 350.00,236.48 350.97,476.56 351.94,141.60 352.92,158.08 353.89,405.49 354.86,309.14 355.83,161.09 356.81,291.09 357.78,417.28 358.75,84.76 359.72,382.56 360.69,341.20 361.67,134.58 362.64,226.07 363.61,478.53 364.58,193.24 365.56,83.82 366.53,429.27 367.50,362.44 368.48,91.16 369.44,255.33 370.42,480.69 371.39,156.77 372.36,143.23 373.33,405.30 374.31,326.34 375.28,141.13 376.25,240.80 377.22,478.25 378.19,119.92 379.17,216.65 380.14,378.42 381.11,277.60 382.08,183.46 383.06,460.67 384.03,231.31 385.00,83.73 385.97,403.50 386.94,390.64 387.92,87.40 388.89,230.65 389.86,477.12 390.83,186.10 391.81,95.29 392.78,428.70 393.75,359.15 394.72,111.84 395.69,238.17 396.67,480.88 397.64,151.50 398.62,202.17 399.58,361.41 400.56,312.62 401.53,147.56 402.50,415.36 403.47,311.12 404.44,85.14 405.42,358.20 406.39,403.05 407.36,116.16 408.33,199.44 409.31,478.44 410.28,219.56 411.25,83.75 412.22,405.12 413.19,393.46 414.17,83.64 415.14,233.00 416.11,478.06 417.08,178.95 418.06,199.83 419.03,355.11 420.00,316.76 420.97,121.80 421.94,370.90 422.92,378.42 423.89,86.64 424.87,295.42 425.83,414.54 426.81,157.33 427.78,179.14 428.75,462.83 429.72,249.08 430.69,84.01 431.67,390.47 432.64,404.36 433.61,85.80 434.58,216.08 435.56,477.12 436.53,191.36 437.50,97.08 438.47,422.09 439.44,365.45 440.42,103.47 441.39,330.67 442.36,431.81 443.33,92.10 444.31,276.18 445.28,413.01 446.25,174.44 447.22,163.54 448.19,420.91 449.17,300.68 450.14,84.76 451.12,374.28 452.08,415.77 453.06,87.30 454.03,206.40 455.00,476.56 455.97,202.83 456.94,93.98 457.92,412.18 458.89,375.41 459.86,93.41 460.83,304.54 461.81,458.51 462.78,103.38 463.75,235.69 464.72,400.04 465.69,234.22 466.67,147.46 467.64,418.56 468.61,303.97 469.58,84.95 470.56,322.71 471.53,424.67 472.50,127.63 473.47,201.51 474.44,462.83 475.42,215.80 476.39,85.82 477.36,416.96 478.33,383.31 479.31,88.90 480.28,234.88 481.25,476.74 482.22,162.65 483.19,201.04 484.17,394.78 485.14,267.31 486.11,143.80 487.08,378.30 488.06,356.99 489.03,85.05 490.00,313.75 490.97,423.45 491.94,133.17 492.92,197.75 493.89,428.22 494.86,269.19 495.83,84.01 496.81,402.30 497.78,388.76 498.75,85.33 499.72,233.24 500.69,480.88 501.67,183.56 502.64,153.20 503.61,371.84 504.58,356.42 505.56,111.87 506.53,318.07 507.50,437.73 508.47,84.39 509.44,264.68 510.42,402.11 511.39,200.40 512.36,171.81 513.33,427.11 514.31,282.35 515.28,84.20 516.25,342.89 517.23,425.23 518.19,108.47 519.17,216.83 520.14,475.80 521.11,189.01 522.08,152.54 523.06,366.95 524.03,363.47 525.00,106.49 525.97,306.23 526.94,457.57 527.92,90.50 528.89,224.07 529.86,408.69 530.83,231.92 531.81,162.41 532.78,370.71 533.75,338.38 534.72,84.01 535.70,339.32 536.67,424.45 537.64,111.08 538.61,206.02 539.58,438.20 540.56,238.74 541.53,83.94 542.50,432.47 543.47,362.82 544.44,108.36 545.42,236.67 546.39,476.74 547.36,149.25 548.33,206.78 549.31,369.40 550.28,296.45 551.25,152.16 552.22,296.36 553.19,427.58 554.17,84.41 555.14,250.86 556.11,425.70 557.08,186.66 558.06,207.72 559.03,429.56 560.00,246.27 560.97,84.48 561.94,376.07 562.92,410.76 563.89,88.81 564.86,254.62 565.83,451.44 566.81,190.98 567.78,207.15 568.75,339.13 569.72,331.98 570.69,137.40 571.67,258.66 572.64,458.05 573.61,119.54 574.58,229.05 575.56,418.09 576.53,217.68 577.50,186.75 578.47,387.64 579.44,298.71 580.42,84.58 581.39,360.94 582.36,423.92 583.33,91.16 584.31,208.66 585.28,458.13 586.25,218.80 587.22,129.13 588.19,358.87 589.17,388.20 590.14,129.70 591.11,256.69 592.08,454.94 593.06,128.48 594.03,219.18 595.00,418.09 595.97,230.28 596.94,177.64 597.92,302.28 598.89,399.06 599.86,84.48 600.83,281.04 601.81,422.04 602.78,155.26 603.75,213.17 604.72,421.47 605.70,250.58 606.67,122.25 607.64,361.88 608.61,389.14 609.58,130.07 610.56,191.17 611.53,439.61 612.50,209.03 613.47,211.66 614.44,412.75 615.42,256.60 616.39,170.77 617.36,299.74 618.33,412.82 619.31,84.48 620.28,258.66 621.25,426.55 622.22,182.65 623.19,203.49 624.17,419.03 625.14,259.98 626.11,121.42 627.08,349.00 628.06,399.91 629.03,117.85 630.00,191.36 630.97,452.49 631.94,208.66 632.92,203.49 633.89,364.43 634.86,315.16 635.83,155.92 636.81,283.95 637.78,429.18 638.75,98.30 639.73,244.19 640.69,428.13 641.67,199.26 642.64,203.20 643.61,424.20 644.58,247.57 645.56,121.61 646.53,339.42 647.50,412.54 648.47,105.63 649.44,192.30 650.42,461.33 651.39,209.31 652.36,159.53 653.33,362.63 654.31,349.84 655.28,151.69 656.25,235.73 657.22,476.09 658.19,103.09 659.17,239.21 660.14,428.32 661.11,208.28 662.08,197.75 663.06,349.47 664.03,326.72 665.00,84.58 665.97,357.18 666.95,417.34 667.92,108.00 668.89,196.34 669.86,470.92 670.83,207.90 671.81,129.13 672.78,370.65 673.75,371.46 674.72,133.64 675.69,218.81 676.67,453.81 677.64,159.78 678.62,207.72 679.58,362.35 680.56,309.24 681.53,190.04 682.50,296.08 683.47,388.20 684.44,84.39 685.42,291.38 686.39,426.36 687.36,152.35 688.33,210.35 689.31,395.53 690.28,261.39 691.25,121.88 692.22,362.06 693.19,375.41 694.17,143.42 695.14,208.66 696.11,432.00 697.08,208.47 698.06,163.02 699.03,391.39 700.00,309.99 700.97,164.48 701.94,270.32 702.92,451.18 703.89,87.90 704.86,270.51 705.83,425.98 706.81,171.81 707.78,212.98 708.75,335.65 709.72,334.04 710.69,84.20 711.67,379.92 712.64,387.73 713.61,103.94 714.58,226.61 715.56,426.15 716.53,239.30 717.50,127.63 718.47,403.24 719.44,337.44 720.42,131.95 721.39,253.02 722.36,427.47 723.33,165.60 724.31,167.86 725.28,445.54 726.25,253.40 727.22,167.48 728.19,303.55 729.17,415.74 730.14,84.39 731.11,324.28 732.08,408.50 733.06,137.03 734.03,205.12 735.00,413.20 735.97,251.71 736.94,104.88 737.92,400.32 738.89,361.97 739.86,129.33 740.83,222.29 741.81,427.68 742.78,188.73 743.75,154.70 744.72,437.36 745.69,281.75 746.67,156.02 747.64,307.54 748.61,403.61 749.58,87.96 750.56,320.52 751.53,422.47 752.50,131.76 753.47,214.48 754.44,408.31 755.42,251.33 756.39,106.96 757.36,391.58 758.33,364.88 759.31,88.90 760.28,267.03 761.25,417.99 762.23,181.96 763.19,166.99 764.17,437.45 765.14,267.31 766.11,153.76 767.08,317.13 768.06,402.93 769.03,88.24 770.00,319.48" fill="none" stroke="#d62728" stroke-width="1.4" opacity="0.9" stroke-linejoin="round"/><text x="794.0" y="62.0" font-family="sans-serif" font-size="12" text-anchor="start" fill="#111" font-weight="bold">RRT  (reclaims/inst)</text><line x1="794.0" y1="80.0" x2="820.0" y2="80.0" stroke="#555555" stroke-width="3.0" opacity="1.0"/><text x="826.0" y="84.0" font-family="sans-serif" font-size="12" text-anchor="start" fill="#111" font-weight="normal">OFF (1e9)  (0)</text><text x="826.0" y="101.0" font-family="sans-serif" font-size="10" text-anchor="start" fill="#666" font-weight="normal">avg 3359  min 3324</text><line x1="794.0" y1="119.0" x2="820.0" y2="119.0" stroke="#1f77b4" stroke-width="3.0" opacity="1.0"/><text x="826.0" y="123.0" font-family="sans-serif" font-size="12" text-anchor="start" fill="#111" font-weight="normal">1024  (1,024)</text><text x="826.0" y="140.0" font-family="sans-serif" font-size="10" text-anchor="start" fill="#666" font-weight="normal">avg 3340  min 1248</text><line x1="794.0" y1="158.0" x2="820.0" y2="158.0" stroke="#2ca02c" stroke-width="3.0" opacity="1.0"/><text x="826.0" y="162.0" font-family="sans-serif" font-size="12" text-anchor="start" fill="#111" font-weight="normal">256  (4,608)</text><text x="826.0" y="179.0" font-family="sans-serif" font-size="10" text-anchor="start" fill="#666" font-weight="normal">avg 3273  min 1224</text><line x1="794.0" y1="197.0" x2="820.0" y2="197.0" stroke="#ff7f0e" stroke-width="3.0" opacity="1.0"/><text x="826.0" y="201.0" font-family="sans-serif" font-size="12" text-anchor="start" fill="#111" font-weight="normal">64  (17,152)</text><text x="826.0" y="218.0" font-family="sans-serif" font-size="10" text-anchor="start" fill="#666" font-weight="normal">avg 3043  min 1226</text><line x1="794.0" y1="236.0" x2="820.0" y2="236.0" stroke="#d62728" stroke-width="3.0" opacity="1.0"/><text x="826.0" y="240.0" font-family="sans-serif" font-size="12" text-anchor="start" fill="#111" font-weight="normal">16  (54,886)</text><text x="826.0" y="257.0" font-family="sans-serif" font-size="10" text-anchor="start" fill="#666" font-weight="normal">avg 2356  min 1236</text></svg>