<svg xmlns="http://www.w3.org/2000/svg" width="1040" height="600" viewBox="0 0 1040 600"><rect width="1040" height="600" fill="white"/><rect x="70.0" y="56.0" width="700.0" height="470.0" fill="#fbfbfb" stroke="#888" stroke-width="1.0" opacity="1.0"/><line x1="70.0" y1="526.0" x2="770.0" y2="526.0" stroke="#e3e3e3" stroke-width="1.0" opacity="1.0"/><text x="64.0" y="530.0" font-family="sans-serif" font-size="11" text-anchor="end" fill="#444" font-weight="normal">500</text><line x1="70.0" y1="432.0" x2="770.0" y2="432.0" stroke="#e3e3e3" stroke-width="1.0" opacity="1.0"/><text x="64.0" y="436.0" font-family="sans-serif" font-size="11" text-anchor="end" fill="#444" font-weight="normal">600</text><line x1="70.0" y1="338.0" x2="770.0" y2="338.0" stroke="#e3e3e3" stroke-width="1.0" opacity="1.0"/><text x="64.0" y="342.0" font-family="sans-serif" font-size="11" text-anchor="end" fill="#444" font-weight="normal">700</text><line x1="70.0" y1="244.0" x2="770.0" y2="244.0" stroke="#e3e3e3" stroke-width="1.0" opacity="1.0"/><text x="64.0" y="248.0" font-family="sans-serif" font-size="11" text-anchor="end" fill="#444" font-weight="normal">800</text><line x1="70.0" y1="150.0" x2="770.0" y2="150.0" stroke="#e3e3e3" stroke-width="1.0" opacity="1.0"/><text x="64.0" y="154.0" font-family="sans-serif" font-size="11" text-anchor="end" fill="#444" font-weight="normal">900</text><line x1="70.0" y1="56.0" x2="770.0" y2="56.0" stroke="#e3e3e3" stroke-width="1.0" opacity="1.0"/><text x="64.0" y="60.0" font-family="sans-serif" font-size="11" text-anchor="end" fill="#444" font-weight="normal">1000</text><line x1="70.0" y1="56.0" x2="70.0" y2="526.0" stroke="#e3e3e3" stroke-width="1.0" opacity="1.0"/><text x="70.0" y="542.0" font-family="sans-serif" font-size="11" text-anchor="middle" fill="#444" font-weight="normal">0</text><line x1="186.7" y1="56.0" x2="186.7" y2="526.0" stroke="#e3e3e3" stroke-width="1.0" opacity="1.0"/><text x="186.7" y="542.0" font-family="sans-serif" font-size="11" text-anchor="middle" fill="#444" font-weight="normal">30</text><line x1="303.3" y1="56.0" x2="303.3" y2="526.0" stroke="#e3e3e3" stroke-width="1.0" opacity="1.0"/><text x="303.3" y="542.0" font-family="sans-serif" font-size="11" text-anchor="middle" fill="#444" font-weight="normal">60</text><line x1="420.0" y1="56.0" x2="420.0" y2="526.0" stroke="#e3e3e3" stroke-width="1.0" opacity="1.0"/><text x="420.0" y="542.0" font-family="sans-serif" font-size="11" text-anchor="middle" fill="#444" font-weight="normal">90</text><line x1="536.7" y1="56.0" x2="536.7" y2="526.0" stroke="#e3e3e3" stroke-width="1.0" opacity="1.0"/><text x="536.7" y="542.0" font-family="sans-serif" font-size="11" text-anchor="middle" fill="#444" font-weight="normal">120</text><line x1="653.3" y1="56.0" x2="653.3" y2="526.0" stroke="#e3e3e3" stroke-width="1.0" opacity="1.0"/><text x="653.3" y="542.0" font-family="sans-serif" font-size="11" text-anchor="middle" fill="#444" font-weight="normal">150</text><line x1="770.0" y1="56.0" x2="770.0" y2="526.0" stroke="#e3e3e3" stroke-width="1.0" opacity="1.0"/><text x="770.0" y="542.0" font-family="sans-serif" font-size="11" text-anchor="middle" fill="#444" font-weight="normal">180</text><line x1="70.0" y1="98.9" x2="770.0" y2="98.9" stroke="#999" stroke-width="1.2" stroke-dasharray="2,3" opacity="1.0"/><text x="70.0" y="44.0" font-family="sans-serif" font-size="15" text-anchor="start" fill="#111" font-weight="bold">Read bandwidth vs time across RRT sweep (16 GiB, QD1/psync)</text><text x="420.0" y="566.0" font-family="sans-serif" font-size="13" text-anchor="middle" fill="#111" font-weight="normal">elapsed time (s)</text><text x="24.0" y="291.0" font-family="sans-serif" font-size="13" text-anchor="middle" fill="#111" font-weight="normal" transform="rotate(-90 24.0 291.0)">read bandwidth (MiB/s)</text><text x="70.0" y="584.0" font-family="sans-serif" font-size="11" text-anchor="start" fill="#666" font-weight="normal">y-axis truncated at 500 MiB/s to make reclaim dips legible; dashed grey = OFF baseline avg 954 MiB/s; QD1/psync, 250 ms resolution</text><polyline points="70.98,107.03 71.94,86.67 72.92,87.96 73.89,87.49 74.86,88.43 75.84,89.37 76.81,89.50 77.78,88.43 78.75,88.43 79.72,89.84 80.69,88.43 81.67,88.43 82.64,88.43 83.61,87.96 84.58,95.01 85.56,109.11 86.53,88.90 87.50,87.96 88.47,93.13 89.44,112.87 90.42,108.64 91.39,109.11 92.36,108.64 93.33,109.11 94.31,108.64 95.28,109.11 96.25,108.64 97.22,109.11 98.19,108.64 99.17,109.11 100.14,110.05 101.11,108.64 102.08,109.80 103.06,90.31 104.03,91.25 105.00,90.78 105.97,90.78 106.94,89.84 107.92,89.37 108.89,89.37 109.86,89.37 110.83,90.31 111.81,89.37 112.78,95.01 113.75,101.59 114.72,89.37 115.69,88.90 116.67,88.90 117.64,88.90 118.61,88.43 119.58,91.72 120.56,89.37 121.53,89.37 122.50,88.90 123.47,88.90 124.44,89.50 125.42,88.90 126.39,89.37 127.36,88.90 128.33,107.70 129.31,111.46 130.28,103.94 131.25,116.63 132.22,94.54 133.19,88.90 134.17,87.49 135.14,89.84 136.11,88.90 137.08,95.01 138.06,88.43 139.03,91.72 140.00,89.37 140.97,89.84 141.94,88.90 142.92,89.37 143.89,92.19 144.86,96.89 145.83,109.58 146.81,109.58 147.78,112.63 148.75,112.87 149.72,114.75 150.69,112.40 151.67,113.81 152.64,109.11 153.61,108.64 154.58,108.64 155.56,108.64 156.53,108.17 157.50,109.58 158.47,109.58 159.44,108.64 160.42,109.11 161.39,109.11 162.36,109.11 163.33,108.64 164.31,104.88 165.28,89.37 166.25,89.37 167.22,91.72 168.19,91.25 169.17,90.78 170.14,94.54 171.11,116.16 172.08,112.40 173.06,95.48 174.03,88.90 175.00,88.43 175.97,91.72 176.94,88.43 177.92,91.25 178.89,91.86 179.86,107.23 180.83,111.46 181.81,111.93 182.78,113.34 183.75,111.93 184.72,114.75 185.69,115.22 186.67,114.75 187.64,97.36 188.61,90.31 189.58,87.96 190.56,87.96 191.53,89.37 192.50,89.84 193.47,88.90 194.44,109.58 195.42,113.34 196.39,108.64 197.36,108.64 198.33,111.46 199.31,110.52 200.28,110.52 201.25,115.22 202.22,115.22 203.19,114.28 204.17,115.22 205.14,113.81 206.11,110.99 207.08,113.34 208.06,116.63 209.03,111.68 210.00,112.40 210.97,113.81 211.94,111.46 212.92,111.93 213.89,91.72 214.86,89.37 215.83,90.78 216.81,88.90 217.78,89.37 218.75,89.84 219.72,89.37 220.69,89.37 221.67,90.31 222.64,91.72 223.61,89.37 224.58,89.84 225.56,89.84 226.53,89.84 227.50,90.31 228.47,91.25 229.44,89.37 230.42,90.31 231.39,91.72 232.36,90.78 233.33,89.37 234.31,89.37 235.28,89.84 236.25,89.84 237.22,89.37 238.19,89.84 239.17,89.84 240.14,89.84 241.11,90.31 242.08,89.84 243.06,89.84 244.03,89.98 245.00,90.31 245.97,89.84 246.94,90.31 247.92,99.24 248.89,112.87 249.86,112.40 250.83,112.40 251.81,112.87 252.78,112.40 253.75,110.05 254.72,109.11 255.69,109.11 256.67,114.75 257.64,104.41 258.61,89.37 259.58,89.84 260.56,89.37 261.53,89.37 262.50,89.37 263.47,89.84 264.44,89.37 265.42,90.31 266.39,90.31 267.36,89.37 268.33,110.52 269.31,108.64 270.28,100.65 271.25,90.31 272.22,90.78 273.19,88.90 274.17,89.84 275.14,89.03 276.11,89.84 277.08,89.37 278.06,89.37 279.03,89.84 280.00,89.84 280.97,89.37 281.94,89.84 282.92,102.53 283.89,108.64 284.86,92.66 285.83,89.84 286.81,89.37 287.78,93.60 288.75,93.13 289.72,89.37 290.69,88.90 291.67,110.99 292.64,112.40 293.61,109.58 294.58,108.64 295.56,109.58 296.53,112.40 297.50,108.17 298.47,89.84 299.44,89.37 300.42,89.84 301.39,89.84 302.36,91.25 303.33,89.84 304.31,89.37 305.28,89.84 306.25,89.37 307.22,89.84 308.19,91.72 309.17,89.84 310.14,91.86 311.11,88.90 312.08,88.90 313.06,88.90 314.03,88.90 315.00,88.90 315.97,88.90 316.94,96.89 317.92,108.64 318.89,110.05 319.86,112.40 320.83,111.46 321.81,111.46 322.78,110.52 323.75,111.93 324.72,111.93 325.69,103.47 326.67,91.72 327.64,91.25 328.61,92.19 329.58,90.31 330.56,92.66 331.53,89.84 332.50,88.90 333.47,92.19 334.44,96.89 335.42,91.39 336.39,87.96 337.36,89.84 338.33,87.96 339.31,91.25 340.28,87.96 341.25,88.43 342.22,88.90 343.19,90.31 344.17,89.84 345.14,87.96 346.11,95.95 347.08,91.25 348.06,111.46 349.03,103.47 350.00,112.40 350.97,113.81 351.94,112.87 352.92,115.69 353.89,112.40 354.86,112.87 355.83,113.81 356.81,108.64 357.78,111.93 358.75,109.32 359.72,108.64 360.69,109.58 361.67,114.75 362.64,111.46 363.61,108.64 364.58,109.11 365.56,109.58 366.53,109.11 367.50,94.54 368.47,91.72 369.44,89.37 370.42,90.31 371.39,88.90 372.36,88.90 373.33,88.43 374.31,91.25 375.28,89.37 376.25,88.90 377.22,103.47 378.19,112.40 379.17,111.93 380.14,116.16 381.11,109.11 382.08,108.64 383.06,109.58 384.03,108.64 385.00,108.38 385.97,109.11 386.94,108.64 387.92,108.64 388.89,108.64 389.86,108.64 390.83,108.17 391.81,108.17 392.78,108.17 393.75,108.17 394.73,108.64 395.69,108.85 396.67,108.17 397.64,108.17 398.61,108.64 399.58,108.17 400.56,108.17 401.53,108.38 402.50,108.64 403.47,108.64 404.44,108.17 405.42,93.60 406.39,89.84 407.36,99.71 408.33,111.68 409.31,108.17 410.28,103.00 411.25,89.84 412.22,88.43 413.19,88.90 414.17,88.90 415.14,88.56 416.11,88.90 417.08,88.90 418.06,88.90 419.03,88.43 420.00,95.01 420.98,110.52 421.94,113.57 422.92,111.46 423.89,112.87 424.86,112.40 425.83,110.99 426.81,104.88 427.78,92.66 428.75,91.39 429.72,90.31 430.69,89.37 431.67,90.78 432.64,91.25 433.61,90.78 434.58,89.84 435.56,89.84 436.53,88.43 437.50,88.43 438.47,89.84 439.44,92.66 440.42,91.39 441.39,90.78 442.36,89.37 443.33,89.37 444.31,89.84 445.28,89.37 446.25,109.58 447.22,111.46 448.19,92.19 449.17,88.90 450.14,90.78 451.11,88.43 452.08,89.37 453.06,91.25 454.03,89.50 455.00,89.37 455.97,90.31 456.94,89.84 457.92,89.84 458.89,89.84 459.86,90.31 460.83,90.31 461.81,89.84 462.78,90.31 463.75,90.31 464.72,89.84 465.69,89.84 466.67,89.37 467.64,91.25 468.61,89.84 469.58,89.84 470.56,92.66 471.53,101.59 472.50,109.11 473.47,110.05 474.44,109.58 475.42,112.40 476.39,112.40 477.36,111.93 478.33,110.99 479.31,112.40 480.28,111.93 481.25,111.93 482.22,114.75 483.19,110.99 484.17,111.46 485.14,102.06 486.11,88.90 487.08,105.35 488.06,115.69 489.03,111.68 490.00,112.40 490.97,96.89 491.94,89.84 492.92,89.37 493.89,89.84 494.86,89.84 495.83,89.37 496.81,90.31 497.78,97.83 498.75,93.60 499.72,89.37 500.69,90.31 501.67,91.72 502.64,95.01 503.61,90.78 504.58,89.84 505.56,89.37 506.53,89.84 507.50,113.34 508.47,111.93 509.44,111.93 510.42,110.99 511.39,88.90 512.36,88.90 513.33,88.43 514.31,93.60 515.28,89.37 516.25,89.84 517.22,89.37 518.19,90.31 519.17,89.50 520.14,89.84 521.11,96.89 522.08,109.11 523.06,92.19 524.03,89.37 525.00,89.37 525.97,88.90 526.94,91.25 527.92,87.02 528.89,87.96 529.86,87.96 530.83,87.49 531.81,105.35 532.78,109.58 533.75,109.11 534.73,100.18 535.69,89.98 536.67,89.84 537.64,88.90 538.61,88.90 539.58,89.37 540.56,92.19 541.53,105.35 542.50,90.31 543.47,87.96 544.44,92.19 545.42,90.78 546.39,91.25 547.36,92.19 548.33,94.07 549.31,96.42 550.28,89.37 551.25,89.50 552.22,89.37 553.19,89.84 554.17,89.37 555.14,89.37 556.11,89.37 557.08,101.12 558.06,108.64 559.03,108.64 560.00,108.64 560.97,108.64 561.94,108.64 562.92,110.99 563.89,112.40 564.86,99.24 565.83,103.94 566.81,109.58 567.78,96.42 568.75,89.84 569.72,89.37 570.70,89.37 571.67,91.39 572.64,89.37 573.61,89.37 574.58,106.76 575.56,101.59 576.53,114.28 577.50,109.58 578.47,108.64 579.44,108.64 580.42,111.46 581.39,112.40 582.36,115.22 583.33,109.11 584.31,108.64 585.28,108.17 586.25,110.05 587.22,91.25 588.19,89.37 589.17,88.56 590.14,89.37 591.11,92.19 592.08,89.37 593.06,88.90 594.03,92.19 595.00,88.90 595.97,90.78 596.94,89.37 597.92,89.37 598.89,89.37 599.86,106.29 600.83,114.28 601.81,109.11 602.78,109.11 603.75,108.64 604.72,108.64 605.69,110.52 606.67,92.66 607.64,88.43 608.61,89.37 609.58,87.96 610.56,88.90 611.53,88.43 612.50,87.96 613.47,87.96 614.44,87.02 615.42,87.62 616.39,89.37 617.36,92.19 618.33,95.48 619.31,108.64 620.28,108.64 621.25,108.64 622.22,108.64 623.19,109.58 624.17,108.17 625.14,108.64 626.11,105.82 627.08,87.96 628.06,88.90 629.03,88.90 630.00,90.78 630.97,87.96 631.94,92.66 632.92,87.62 633.89,89.37 634.86,93.60 635.83,87.49 636.81,87.96 637.78,87.96 638.75,86.55 639.72,87.02 640.69,87.02 641.67,88.43 642.64,95.01 643.61,108.17 644.58,108.64 645.56,108.64 646.53,109.58 647.50,108.17 648.47,108.64 649.44,108.17 650.42,108.85 651.39,108.64 652.36,108.64 653.33,108.64 654.31,108.64 655.28,108.64 656.25,97.36 657.22,96.42 658.19,113.81 659.17,108.64 660.14,109.11 661.11,109.11 662.08,109.58 663.06,110.05 664.03,108.17 665.00,109.11 665.97,111.46 666.94,112.15 667.92,99.71 668.89,88.90 669.86,92.19 670.83,113.34 671.81,108.17 672.78,108.64 673.75,114.75 674.72,108.64 675.69,112.40 676.67,109.58 677.64,108.64 678.61,110.52 679.58,112.40 680.56,110.99 681.53,111.93 682.50,112.15 683.47,111.46 684.44,114.75 685.42,115.69 686.39,108.64 687.36,112.87 688.33,114.28 689.31,114.75 690.28,108.64 691.25,108.64 692.22,110.52 693.19,108.64 694.17,108.64 695.14,113.81 696.11,112.40 697.08,102.53 698.06,89.37 699.03,89.84 700.00,89.37 700.97,89.37 701.94,89.84 702.92,91.25 703.89,89.84 704.86,89.37 705.83,89.84 706.81,89.84 707.78,89.84 708.75,89.37 709.72,89.37 710.69,89.37 711.67,103.47 712.64,89.84 713.61,89.50 714.58,89.84 715.56,89.37 716.53,91.72 717.50,89.37 718.47,89.37 719.44,89.37 720.42,89.37 721.39,88.90 722.36,88.90 723.33,89.37 724.31,89.37 725.28,89.37 726.25,89.84 727.22,89.84 728.19,97.36 729.17,108.17 730.14,108.17 731.11,108.17 732.08,109.58 733.06,108.17 734.03,111.93 735.00,111.93 735.97,109.11 736.94,111.93 737.92,110.05 738.89,114.28 739.86,109.11 740.83,112.40 741.81,115.22 742.78,113.34 743.75,108.64 744.72,108.64 745.69,111.46 746.67,111.93 747.64,109.11 748.61,108.85 749.58,108.64 750.56,108.64 751.53,109.11 752.50,108.64 753.47,108.64 754.44,109.11 755.42,109.11 756.39,108.64 757.36,108.64 758.33,102.06 759.31,91.72 760.28,89.84 761.25,89.84 762.22,89.37 763.19,89.37 764.17,89.37 765.14,88.90 766.11,107.70 767.08,109.11 768.06,111.46 769.03,110.99" fill="none" stroke="#555555" stroke-width="1.2" opacity="0.55" stroke-linejoin="round"/><polyline points="70.97,116.63 71.94,112.63 72.92,112.40 73.89,112.40 74.86,110.99 75.83,111.46 76.81,110.99 77.78,111.21 78.75,111.93 79.72,111.93 80.69,119.45 81.67,108.64 82.64,108.85 83.61,113.34 84.58,112.87 85.56,108.64 86.53,109.11 87.50,111.46 88.47,113.57 89.44,112.87 90.42,98.77 91.39,88.90 92.36,87.96 93.33,86.67 94.31,88.43 95.28,88.43 96.25,88.43 97.22,87.49 98.19,91.25 99.17,91.86 100.14,91.25 101.11,87.96 102.08,89.37 103.06,90.31 104.03,90.31 105.00,87.49 105.98,88.90 106.94,89.50 107.92,87.49 108.89,92.19 109.86,89.37 110.83,90.78 111.81,91.86 112.78,91.72 113.75,88.90 114.72,89.37 115.69,90.78 116.67,87.49 117.64,88.09 118.61,88.90 119.58,90.31 120.56,91.25 121.53,94.54 122.50,88.90 123.47,89.03 124.44,88.90 125.42,88.90 126.39,88.90 127.36,89.37 128.33,88.90 129.31,89.98 130.28,88.90 131.25,88.90 132.22,88.90 133.19,88.43 134.17,89.37 135.14,88.56 136.11,88.43 137.08,89.84 138.06,88.90 139.03,88.90 140.00,89.37 140.97,89.98 141.94,88.90 142.92,88.43 143.89,88.90 144.86,89.37 145.83,110.05 146.81,110.05 147.78,111.21 148.75,111.93 149.72,111.46 150.69,111.46 151.67,111.46 152.64,111.93 153.61,112.15 154.58,114.28 155.56,111.93 156.53,107.70 157.50,91.72 158.47,89.98 159.44,91.25 160.42,105.35 161.39,110.52 162.36,112.40 163.33,111.46 164.31,109.80 165.28,114.75 166.25,114.75 167.22,114.28 168.19,110.99 169.17,101.59 170.14,89.50 171.11,88.90 172.08,88.90 173.06,88.90 174.03,88.90 175.00,89.03 175.97,90.31 176.94,89.37 177.92,92.19 178.89,110.99 179.86,108.64 180.83,90.45 181.81,92.19 182.78,88.43 183.75,88.90 184.72,88.90 185.69,90.78 186.67,90.45 187.64,90.31 188.61,88.90 189.58,88.90 190.56,88.43 191.53,89.98 192.50,91.25 193.47,90.31 194.44,89.84 195.42,88.43 196.39,88.09 197.36,87.02 198.33,88.43 199.31,104.41 200.28,110.99 201.25,89.84 202.22,86.67 203.19,99.71 204.17,110.99 205.14,111.46 206.11,111.46 207.08,111.68 208.06,111.93 209.03,99.24 210.00,89.84 210.97,89.84 211.94,111.68 212.92,110.99 213.89,111.46 214.86,111.93 215.83,111.46 216.81,111.21 217.78,111.46 218.75,111.93 219.72,105.82 220.69,87.02 221.67,86.55 222.64,104.13 223.61,104.88 224.58,89.84 225.56,89.37 226.53,88.56 227.50,90.31 228.47,88.90 229.44,88.90 230.42,87.96 231.39,90.31 232.36,89.98 233.33,87.96 234.31,115.69 235.28,114.28 236.25,101.59 237.23,112.87 238.19,107.91 239.17,108.64 240.14,109.58 241.11,108.17 242.08,108.17 243.06,107.91 244.03,108.17 245.00,111.93 245.97,110.52 246.95,108.64 247.92,107.91 248.89,93.13 249.86,89.84 250.83,91.25 251.81,89.84 252.78,89.50 253.75,89.37 254.72,90.78 255.69,89.37 256.67,89.84 257.64,89.50 258.61,90.31 259.58,96.89 260.56,109.58 261.53,113.34 262.50,111.68 263.47,111.46 264.44,110.52 265.42,110.99 266.39,110.99 267.36,111.46 268.33,112.63 269.31,107.70 270.28,107.70 271.25,108.17 272.22,114.75 273.19,109.11 274.17,95.95 275.14,89.50 276.11,89.37 277.08,89.37 278.06,91.72 279.03,89.37 280.00,90.45 280.97,88.90 281.94,91.25 282.92,88.90 283.89,88.43 284.86,89.03 285.83,106.29 286.81,104.41 287.78,89.37 288.75,89.37 289.72,89.03 290.69,88.90 291.67,89.37 292.64,88.90 293.61,89.84 294.58,89.50 295.56,88.90 296.53,88.90 297.50,88.90 298.47,89.37 299.44,89.50 300.42,88.90 301.39,88.90 302.36,89.37 303.33,88.90 304.31,88.90 305.28,88.90 306.25,89.50 307.22,87.96 308.19,88.43 309.17,88.90 310.14,89.37 311.12,88.43 312.08,89.03 313.06,88.90 314.03,88.43 315.00,88.90 315.97,90.31 316.94,89.03 317.92,92.19 318.89,107.70 319.86,115.69 320.83,106.29 321.81,103.00 322.78,114.75 323.75,112.63 324.72,111.46 325.69,107.70 326.67,96.42 327.64,87.96 328.61,88.56 329.58,87.96 330.56,87.96 331.53,88.43 332.50,87.96 333.47,88.09 334.44,92.66 335.42,108.17 336.39,111.93 337.36,112.87 338.33,113.81 339.31,113.57 340.28,101.59 341.25,88.43 342.22,88.90 343.19,107.23 344.17,111.21 345.14,112.40 346.11,110.99 347.08,111.93 348.06,96.42 349.03,89.03 350.00,90.31 350.97,91.25 351.94,90.31 352.92,90.78 353.89,89.03 354.86,109.11 355.83,114.28 356.81,107.23 357.78,112.40 358.75,112.40 359.73,90.78 360.69,90.92 361.67,88.90 362.64,88.90 363.61,90.31 364.58,90.78 365.56,90.45 366.53,88.90 367.50,91.72 368.47,88.90 369.44,88.90 370.42,88.90 371.39,89.50 372.36,88.43 373.33,88.43 374.31,88.90 375.28,88.90 376.25,88.56 377.22,88.43 378.19,88.90 379.17,98.77 380.14,110.99 381.12,108.17 382.08,107.91 383.06,108.17 384.03,110.99 385.00,113.81 385.97,114.75 386.94,113.81 387.92,114.51 388.89,95.95 389.86,88.43 390.83,88.43 391.81,90.78 392.78,89.98 393.75,88.90 394.72,89.84 395.69,89.37 396.67,89.37 397.64,89.37 398.61,90.45 399.58,90.31 400.56,88.90 401.53,88.43 402.50,88.90 403.47,88.56 404.44,88.43 405.42,88.43 406.39,88.90 407.36,88.90 408.34,88.43 409.31,89.98 410.28,90.31 411.25,89.84 412.22,88.90 413.19,102.25 414.17,98.30 415.14,88.90 416.11,87.96 417.08,92.19 418.06,90.31 419.03,93.75 420.00,88.43 420.97,88.43 421.94,87.96 422.92,89.84 423.89,111.21 424.86,108.64 425.83,115.22 426.81,108.17 427.78,109.11 428.75,108.64 429.72,96.58 430.69,89.84 431.67,87.96 432.64,89.84 433.61,113.34 434.58,110.52 435.56,108.17 436.53,107.91 437.50,108.64 438.47,107.70 439.44,115.22 440.42,109.11 441.39,100.65 442.36,90.92 443.33,89.84 444.31,89.84 445.28,89.84 446.25,89.37 447.22,89.37 448.19,90.92 449.17,89.37 450.14,89.84 451.11,88.90 452.08,88.90 453.06,88.43 454.03,90.92 455.00,88.43 455.97,89.37 456.94,89.84 457.92,88.90 458.89,89.84 459.86,88.56 460.83,90.78 461.81,88.90 462.78,88.90 463.75,89.03 464.72,89.37 465.69,94.07 466.67,88.43 467.64,88.90 468.61,89.37 469.58,88.56 470.56,89.37 471.53,89.37 472.50,88.90 473.47,88.90 474.44,89.03 475.42,88.90 476.39,90.31 477.36,89.37 478.33,89.37 479.31,89.84 480.28,89.03 481.25,88.43 482.22,90.78 483.19,88.43 484.17,89.37 485.14,89.03 486.11,88.90 487.08,88.90 488.06,88.90 489.03,88.90 490.00,89.37 490.97,89.03 491.94,88.90 492.92,89.37 493.89,89.37 494.86,88.90 495.83,89.50 496.81,88.90 497.78,88.90 498.75,91.25 499.72,89.37 500.70,88.90 501.67,89.03 502.64,88.90 503.61,88.90 504.58,89.37 505.56,88.56 506.53,88.43 507.50,90.31 508.47,88.90 509.44,88.90 510.42,89.03 511.39,88.43 512.36,88.90 513.33,88.90 514.31,89.37 515.28,104.88 516.25,110.74 517.22,111.46 518.19,114.75 519.17,114.75 520.14,110.05 521.11,89.37 522.09,88.90 523.06,89.03 524.03,88.43 525.00,87.96 525.97,88.43 526.94,90.31 527.92,90.92 528.89,88.43 529.86,103.94 530.83,102.06 531.81,106.29 532.78,111.46 533.75,110.74 534.72,97.36 535.69,90.31 536.67,89.37 537.64,89.37 538.61,91.25 539.58,94.70 540.56,96.42 541.53,88.90 542.50,88.90 543.47,88.43 544.45,88.43 545.42,89.03 546.39,89.37 547.36,90.31 548.33,89.37 549.31,89.37 550.28,89.84 551.25,88.56 552.22,88.43 553.19,89.37 554.17,88.90 555.14,88.43 556.11,90.45 557.08,89.37 558.06,90.78 559.03,88.90 560.00,89.37 560.97,88.43 561.94,87.14 562.92,89.37 563.89,90.31 564.86,90.31 565.83,90.31 566.81,88.43 567.78,88.56 568.75,104.41 569.72,113.81 570.69,108.64 571.67,110.52 572.64,94.54 573.61,88.56 574.58,90.78 575.56,88.90 576.53,88.43 577.50,90.31 578.47,89.03 579.44,88.43 580.42,92.66 581.39,111.93 582.37,110.52 583.33,94.70 584.31,87.96 585.28,88.90 586.25,87.02 587.23,88.90 588.19,102.72 589.17,111.93 590.14,114.28 591.11,111.46 592.08,112.40 593.06,112.40 594.03,110.74 595.00,110.99 595.97,111.46 596.94,107.23 597.92,92.66 598.89,113.34 599.87,88.90 600.83,118.76 601.81,424.48 602.78,424.95 603.75,426.36 604.72,190.89 605.69,110.52 606.67,113.57 607.64,116.16 608.61,109.58 609.58,109.58 610.56,88.90 611.53,89.37 612.50,88.56 613.47,103.00 614.44,110.52 615.42,93.60 616.39,91.25 617.36,91.39 618.33,90.31 619.31,88.43 620.28,88.90 621.25,88.43 622.22,88.43 623.19,88.56 624.17,89.37 625.14,88.43 626.11,88.43 627.08,103.94 628.06,107.70 629.03,109.32 630.00,109.58 630.97,91.25 631.94,91.25 632.92,89.37 633.89,89.37 634.86,89.03 635.83,91.72 636.81,88.90 637.78,93.60 638.75,113.81 639.73,112.40 640.69,106.96 641.67,108.17 642.64,111.46 643.61,111.93 644.58,111.46 645.56,116.16 646.53,101.77 647.50,87.96 648.47,87.02 649.44,87.02 650.42,87.96 651.39,87.96 652.36,87.14 653.33,87.49 654.31,96.89 655.28,110.05 656.25,111.46 657.22,112.15 658.19,115.22 659.17,109.11 660.14,110.52 661.11,110.52 662.08,111.46 663.06,94.22 664.03,88.90 665.00,90.31 665.97,92.66 666.94,88.43 667.92,90.31 668.89,91.86 669.86,89.37 670.83,89.37 671.81,91.25 672.78,88.43 673.75,91.72 674.72,89.03 675.69,87.02 676.67,87.02 677.64,89.37 678.61,93.13 679.58,112.40 680.56,107.91 681.53,112.87 682.50,108.17 683.47,111.46 684.45,110.52 685.42,91.39 686.39,88.43 687.36,89.37 688.33,88.90 689.31,89.37 690.28,89.03 691.25,88.90 692.22,89.37 693.19,89.37 694.17,89.37 695.14,91.39 696.11,88.43 697.08,89.37 698.06,107.23 699.03,114.75 700.00,113.57 700.97,96.42 701.94,89.37 702.92,87.49 703.89,106.76 704.86,111.68 705.83,111.93 706.81,110.52 707.78,107.70 708.75,109.11 709.72,109.11 710.70,110.52 711.67,112.15 712.64,111.93 713.61,111.46 714.58,108.64 715.56,107.23 716.53,113.81 717.50,111.21 718.47,108.17 719.44,108.64 720.42,109.11 721.39,107.70 722.36,108.17 723.33,108.38 724.31,110.99 725.28,114.28 726.25,110.05 727.22,102.06 728.19,88.90 729.17,89.03 730.14,88.90 731.11,88.90 732.08,89.37 733.06,88.43 734.03,89.03 735.00,88.90 735.97,89.37 736.94,88.90 737.92,90.78 738.89,89.03 739.86,92.19 740.83,91.25 741.81,89.84 742.78,88.90 743.75,90.45 744.72,91.72 745.69,88.90 746.67,89.37 747.64,90.31 748.61,89.50 749.58,92.19 750.56,88.90 751.53,88.90 752.50,100.18 753.47,114.75 754.44,111.68 755.42,110.99 756.39,108.17 757.36,108.64 758.33,107.23 759.31,101.59 760.28,93.28 761.25,91.72 762.22,89.84 763.19,90.31 764.17,88.43 765.14,88.43 766.11,88.09 767.08,88.43 768.06,89.37 769.03,88.43" fill="none" stroke="#1f77b4" stroke-width="1.4" opacity="0.9" stroke-linejoin="round"/><polyline points="70.97,102.53 71.94,96.42 72.92,119.45 73.89,106.96 74.86,107.70 75.83,107.23 76.81,106.76 77.78,107.23 78.75,113.34 79.72,106.76 80.69,110.05 81.67,110.27 82.64,96.42 83.61,91.25 84.58,88.43 85.56,87.96 86.53,87.96 87.50,105.82 88.47,106.96 89.44,95.01 90.42,91.25 91.39,88.90 92.36,87.96 93.33,87.02 94.31,87.49 95.28,90.78 96.25,86.55 97.22,86.20 98.19,88.90 99.17,89.37 100.14,90.31 101.11,87.02 102.08,92.19 103.06,91.72 104.03,87.62 105.00,87.49 105.97,87.49 106.94,90.31 107.92,87.96 108.89,87.02 109.86,88.90 110.83,90.78 111.81,89.84 112.78,89.03 113.75,108.64 114.72,112.87 115.69,111.93 116.67,109.58 117.64,110.52 118.61,110.52 119.58,93.75 120.56,105.82 121.53,88.43 122.50,87.49 123.47,87.49 124.44,88.09 125.42,87.49 126.39,87.96 127.36,89.37 128.33,90.31 129.31,92.19 130.28,91.86 131.25,90.78 132.22,88.43 133.19,89.84 134.17,90.78 135.14,87.49 136.11,87.02 137.08,98.94 138.06,110.52 139.03,110.05 140.00,100.18 140.97,87.02 141.94,86.55 142.92,88.90 143.89,87.14 144.86,87.49 145.83,91.72 146.81,90.31 147.78,89.37 148.75,90.31 149.72,88.43 150.69,87.62 151.67,88.43 152.64,90.31 153.61,89.84 154.58,87.96 155.56,87.96 156.53,87.96 157.50,87.49 158.47,87.62 159.44,87.49 160.42,87.96 161.39,88.43 162.36,110.05 163.33,94.22 164.31,87.96 165.28,87.02 166.25,87.96 167.22,88.43 168.19,87.49 169.17,88.90 170.14,92.34 171.11,91.25 172.08,109.11 173.06,112.40 174.03,112.87 175.00,108.17 175.97,110.99 176.94,110.99 177.92,90.78 178.89,89.98 179.86,87.02 180.83,87.49 181.81,88.90 182.78,88.90 183.75,88.90 184.72,92.19 185.69,87.02 186.67,88.43 187.64,90.78 188.61,89.37 189.58,87.49 190.56,87.14 191.53,89.37 192.50,90.78 193.47,110.99 194.44,107.23 195.42,108.64 196.39,98.77 197.37,95.95 198.33,86.67 199.31,100.65 200.28,86.55 201.25,232.25 202.22,424.48 203.19,424.95 204.17,413.20 205.14,89.50 206.11,87.96 207.08,87.49 208.06,88.90 209.03,87.02 210.00,89.84 210.97,89.84 211.94,98.77 212.92,108.38 213.89,88.43 214.86,89.37 215.83,95.01 216.81,113.81 217.78,110.99 218.75,110.52 219.72,114.75 220.69,109.11 221.67,106.76 222.64,107.44 223.61,106.76 224.58,107.70 225.56,111.93 226.53,110.52 227.50,96.11 228.47,91.25 229.44,88.90 230.42,88.90 231.39,88.43 232.36,109.58 233.33,110.52 234.31,112.87 235.28,92.19 236.25,87.62 237.22,87.49 238.19,87.96 239.17,87.96 240.14,88.90 241.11,87.96 242.08,87.49 243.06,88.09 244.03,87.49 245.00,87.96 245.97,87.96 246.94,87.96 247.92,87.49 248.89,87.49 249.87,87.49 250.83,87.62 251.81,87.49 252.78,87.49 253.75,113.34 254.72,114.28 255.69,110.99 256.67,113.34 257.64,113.81 258.61,101.30 259.58,87.49 260.56,88.43 261.53,90.31 262.50,87.49 263.47,87.96 264.44,87.96 265.42,88.43 266.39,89.03 267.36,87.96 268.33,87.96 269.31,88.90 270.28,89.37 271.25,88.43 272.22,104.60 273.19,109.11 274.17,105.82 275.14,88.43 276.11,87.96 277.08,88.43 278.06,87.96 279.03,88.43 280.00,88.09 280.97,87.96 281.94,91.25 282.92,87.96 283.89,87.96 284.86,88.43 285.83,88.56 286.81,107.70 287.78,110.52 288.75,112.40 289.72,106.29 290.69,112.40 291.67,109.11 292.64,111.46 293.61,111.46 294.58,114.75 295.56,113.10 296.53,112.87 297.50,113.81 298.47,114.75 299.44,111.93 300.42,109.58 301.39,105.35 302.37,87.96 303.33,87.14 304.31,90.31 305.28,90.78 306.25,88.90 307.22,89.84 308.19,106.76 309.17,109.80 310.14,107.70 311.11,107.23 312.08,110.99 313.06,107.23 314.03,106.76 315.00,106.96 315.97,109.58 316.94,95.95 317.92,88.43 318.89,88.43 319.86,104.41 320.83,106.29 321.81,107.23 322.78,110.99 323.75,108.64 324.72,111.21 325.69,95.01 326.67,87.96 327.64,88.43 328.61,110.52 329.58,109.58 330.56,110.05 331.53,114.04 332.50,110.52 333.47,110.52 334.44,124.62 335.42,110.52 336.39,361.97 337.36,427.85 338.33,426.36 339.31,309.33 340.28,113.81 341.25,99.24 342.23,87.96 343.19,88.09 344.17,90.78 345.14,112.87 346.11,112.40 347.08,88.43 348.06,87.62 349.03,87.96 350.00,87.49 350.97,89.84 351.94,88.90 352.92,90.78 353.89,87.96 354.87,88.90 355.83,88.09 356.81,87.96 357.78,88.43 358.75,88.43 359.72,88.43 360.69,87.49 361.67,89.50 362.64,87.96 363.61,87.96 364.58,87.96 365.56,87.96 366.53,89.50 367.50,88.43 368.47,88.43 369.44,88.43 370.42,89.84 371.39,92.66 372.36,88.09 373.33,87.96 374.31,87.49 375.28,88.43 376.25,87.96 377.23,88.43 378.19,89.98 379.17,87.49 380.14,87.96 381.11,87.49 382.08,88.43 383.06,88.09 384.03,87.96 385.00,87.49 385.97,103.00 386.94,107.23 387.92,106.96 388.89,107.23 389.86,107.23 390.83,106.76 391.81,102.06 392.78,112.87 393.75,112.63 394.72,110.99 395.69,111.46 396.67,110.99 397.64,110.99 398.61,110.52 399.59,110.52 400.56,110.74 401.53,110.52 402.50,110.52 403.47,110.99 404.44,110.05 405.42,110.27 406.39,110.99 407.36,102.53 408.33,110.52 409.31,107.23 410.28,106.29 411.25,106.96 412.22,111.93 413.19,110.52 414.17,113.34 415.14,111.93 416.11,105.35 417.09,90.78 418.06,91.39 419.03,90.31 420.00,87.96 420.97,87.96 421.94,88.90 422.92,88.09 423.89,89.37 424.86,89.37 425.83,87.02 426.81,89.37 427.78,98.47 428.75,108.17 429.72,112.40 430.69,96.42 431.67,114.28 432.64,114.28 433.61,110.52 434.58,93.75 435.56,86.55 436.53,87.96 437.50,90.31 438.47,87.49 439.44,86.55 440.42,87.14 441.39,86.08 442.36,86.55 443.33,86.08 444.31,90.78 445.28,88.56 446.25,89.37 447.22,87.49 448.19,88.43 449.17,90.78 450.14,87.62 451.11,90.78 452.08,89.37 453.06,90.31 454.03,88.43 455.00,87.62 455.97,87.02 456.94,87.02 457.92,103.94 458.89,107.23 459.86,108.38 460.83,90.31 461.81,88.90 462.78,88.43 463.75,89.84 464.72,88.56 465.69,87.96 466.67,95.48 467.64,88.43 468.61,95.48 469.58,88.43 470.56,268.82 471.53,393.93 472.50,393.93 473.47,278.78 474.44,87.49 475.42,87.96 476.39,89.98 477.36,88.43 478.33,87.96 479.31,88.43 480.28,87.96 481.25,87.96 482.22,88.09 483.19,89.84 484.17,87.96 485.14,87.96 486.11,88.43 487.08,87.96 488.06,87.62 489.03,87.96 490.00,87.96 490.97,102.53 491.94,94.54 492.92,87.96 493.89,88.90 494.86,90.45 495.83,89.37 496.81,86.55 497.78,87.96 498.75,87.96 499.72,88.90 500.69,89.37 501.67,86.20 502.64,89.37 503.61,87.96 504.58,87.96 505.56,86.08 506.53,87.14 507.50,87.96 508.47,87.02 509.44,86.55 510.42,88.43 511.39,89.50 512.36,87.49 513.33,87.96 514.31,87.49 515.28,87.02 516.25,87.14 517.22,86.55 518.19,86.55 519.17,90.31 520.14,87.96 521.11,87.62 522.08,86.55 523.06,87.49 524.03,89.37 525.00,86.55 525.97,87.14 526.94,88.90 527.92,88.90 528.89,85.61 529.86,86.55 530.83,88.09 531.81,88.90 532.78,86.55 533.75,86.55 534.72,87.96 535.69,89.50 536.67,86.55 537.64,89.37 538.61,89.37 539.58,92.66 540.56,87.49 541.53,87.49 542.50,88.43 543.47,93.60 544.44,87.49 545.42,87.14 546.39,87.96 547.36,87.02 548.33,86.08 549.31,87.02 550.28,95.48 551.25,110.52 552.23,105.82 553.19,88.56 554.17,90.31 555.14,87.49 556.11,109.11 557.08,110.99 558.06,107.23 559.03,111.93 560.00,107.44 560.97,113.34 561.94,114.28 562.92,108.17 563.89,109.11 564.86,108.17 565.83,107.23 566.81,118.98 567.78,93.75 568.75,110.05 569.72,107.23 570.69,120.39 571.67,112.87 572.64,91.72 573.61,105.35 574.58,107.23 575.56,98.47 576.53,91.25 577.50,88.90 578.47,87.96 579.44,87.96 580.42,88.43 581.39,88.43 582.36,88.09 583.33,87.49 584.31,87.96 585.28,88.90 586.25,87.96 587.22,88.43 588.19,87.96 589.17,89.03 590.14,95.48 591.11,110.52 592.08,107.23 593.06,106.76 594.03,101.12 595.00,105.82 595.98,110.99 596.94,106.96 597.92,110.52 598.89,106.76 599.86,110.52 600.83,107.23 601.81,112.87 602.78,111.46 603.75,110.74 604.72,355.86 605.69,404.74 606.67,404.74 607.64,228.49 608.61,106.76 609.58,107.44 610.56,111.93 611.53,106.29 612.50,108.17 613.47,107.23 614.45,110.99 615.42,116.40 616.39,107.70 617.36,108.17 618.33,113.34 619.31,96.42 620.28,89.84 621.25,92.66 622.22,114.04 623.19,108.64 624.17,112.40 625.14,106.76 626.11,107.23 627.08,107.23 628.06,91.72 629.03,88.09 630.00,96.42 630.97,102.53 631.94,88.43 632.92,91.25 633.89,102.53 634.86,112.87 635.84,110.99 636.81,109.80 637.78,107.23 638.75,108.64 639.72,111.93 640.69,110.05 641.67,105.35 642.64,104.88 643.61,88.56 644.58,88.90 645.56,89.37 646.53,89.37 647.50,88.43 648.47,91.72 649.44,88.90 650.42,90.45 651.39,88.90 652.36,88.90 653.33,88.90 654.31,88.90 655.28,88.43 656.25,90.78 657.22,92.19 658.19,102.53 659.17,106.96 660.14,97.83 661.11,91.72 662.08,89.84 663.06,88.43 664.03,87.49 665.00,88.43 665.97,92.19 666.94,89.84 667.92,89.84 668.89,86.67 669.86,90.31 670.83,88.43 671.81,88.43 672.78,88.43 673.75,89.37 674.72,108.64 675.69,103.47 676.67,115.69 677.64,110.99 678.61,110.74 679.58,109.58 680.56,110.52 681.53,110.99 682.50,111.46 683.47,110.05 684.44,108.64 685.42,108.17 686.39,113.81 687.36,108.38 688.33,109.58 689.31,116.16 690.28,98.77 691.25,89.84 692.22,87.96 693.19,89.37 694.17,89.98 695.14,88.43 696.11,89.37 697.08,90.31 698.06,88.43 699.03,88.43 700.00,92.66 700.98,94.54 701.94,88.56 702.92,88.43 703.89,88.90 704.86,88.43 705.83,90.31 706.81,88.90 707.78,88.43 708.75,91.72 709.72,90.78 710.69,88.43 711.67,87.96 712.64,88.90 713.62,89.84 714.58,89.03 715.56,93.13 716.53,88.90 717.50,88.90 718.47,87.49 719.44,90.31 720.42,89.37 721.39,90.78 722.36,106.29 723.34,109.11 724.31,108.85 725.28,112.87 726.25,110.52 727.22,109.58 728.19,111.46 729.17,110.52 730.14,93.60 731.11,88.90 732.08,86.55 733.06,91.39 734.03,87.02 735.00,95.48 735.97,87.49 736.94,100.18 737.92,87.02 738.89,251.99 739.86,424.48 740.83,425.89 741.81,387.82 742.78,88.43 743.75,88.43 744.72,97.83 745.69,108.64 746.67,88.43 747.64,89.03 748.61,86.08 749.58,91.25 750.56,87.96 751.53,90.31 752.50,88.43 753.47,88.43 754.44,93.60 755.42,110.05 756.39,106.49 757.36,114.28 758.33,110.05 759.31,110.99 760.28,107.70 761.25,110.99 762.22,111.46 763.19,109.80 764.17,110.99 765.14,110.52 766.11,110.52 767.08,95.01 768.06,88.90 769.03,89.37" fill="none" stroke="#2ca02c" stroke-width="1.4" opacity="0.9" stroke-linejoin="round"/><polyline points="70.97,109.11 71.94,109.58 72.92,113.10 73.89,106.76 74.86,95.01 75.83,88.90 76.81,91.25 77.78,89.84 78.75,89.50 79.72,89.84 80.69,89.84 81.67,89.84 82.64,89.84 83.61,89.84 84.58,89.50 85.56,89.84 86.53,101.59 87.50,110.99 88.47,104.41 89.44,90.92 90.42,89.84 91.39,91.25 92.36,89.37 93.33,89.84 94.31,89.37 95.28,88.56 96.25,88.90 97.22,93.60 98.19,88.90 99.17,102.06 100.14,104.60 101.11,107.23 102.08,406.62 103.06,432.00 104.03,435.29 105.00,278.78 105.97,110.52 106.94,110.52 107.92,107.44 108.89,90.31 109.86,89.37 110.83,88.90 111.81,88.90 112.78,89.37 113.75,88.90 114.72,89.03 115.69,88.90 116.67,90.31 117.64,89.37 118.62,92.19 119.58,89.50 120.56,89.37 121.53,91.25 122.50,88.90 123.47,88.56 124.44,88.43 125.42,89.37 126.39,91.72 127.36,89.37 128.33,89.84 129.31,89.98 130.28,89.37 131.25,88.90 132.22,93.13 133.19,89.37 134.17,101.77 135.14,88.90 136.11,258.10 137.08,418.37 138.06,419.31 139.03,363.85 140.00,89.50 140.97,88.43 141.94,101.59 142.92,107.23 143.89,108.64 144.86,107.44 145.83,99.71 146.81,106.76 147.78,110.52 148.75,110.52 149.73,110.99 150.69,114.99 151.67,116.16 152.64,113.34 153.61,113.34 154.58,113.34 155.56,114.28 156.53,113.81 157.50,113.81 158.47,113.10 159.44,107.70 160.42,106.76 161.39,107.23 162.36,106.76 163.33,107.70 164.31,94.70 165.28,88.90 166.25,106.76 167.22,99.71 168.19,87.02 169.17,95.48 170.14,88.56 171.11,317.32 172.08,393.93 173.06,394.40 174.03,229.90 175.00,88.43 175.97,87.62 176.94,86.08 177.92,87.49 178.89,87.96 179.86,87.49 180.84,87.49 181.81,88.56 182.78,87.96 183.75,88.43 184.72,87.02 185.69,93.60 186.67,107.44 187.64,106.76 188.61,109.11 189.58,107.23 190.56,108.64 191.53,110.74 192.50,110.52 193.47,110.99 194.44,110.52 195.42,110.52 196.39,105.35 197.36,91.86 198.33,89.37 199.31,93.13 200.28,90.78 201.25,96.42 202.23,89.84 203.19,102.72 204.17,89.37 205.14,212.98 206.11,397.22 207.09,395.34 208.06,336.77 209.03,89.37 210.00,88.90 210.97,88.90 211.94,88.43 212.92,88.56 213.89,88.90 214.86,88.43 215.83,88.90 216.81,90.31 217.78,88.90 218.75,89.03 219.72,88.43 220.69,88.90 221.67,88.90 222.64,88.90 223.61,89.03 224.58,97.83 225.56,110.05 226.53,107.23 227.50,106.76 228.47,108.17 229.44,114.51 230.42,110.05 231.39,107.23 232.36,107.23 233.33,112.40 234.31,107.44 235.28,116.63 236.25,107.70 237.22,120.86 238.19,107.70 239.17,107.23 240.14,425.49 241.11,432.94 242.08,432.00 243.06,248.23 244.03,107.23 245.00,112.15 245.97,114.75 246.94,103.47 247.92,87.49 248.89,89.37 249.87,89.37 250.83,89.98 251.81,87.02 252.78,87.49 253.75,88.43 254.72,87.49 255.70,87.96 256.67,87.62 257.64,87.96 258.61,87.02 259.58,89.37 260.56,89.37 261.53,87.49 262.50,87.14 263.47,88.43 264.44,87.49 265.42,92.19 266.39,107.70 267.37,110.99 268.33,114.99 269.31,110.52 270.28,123.21 271.25,110.99 272.22,292.41 273.19,423.13 274.17,418.84 275.14,348.34 276.11,90.31 277.08,88.43 278.06,91.25 279.03,88.56 280.00,90.31 280.97,89.84 281.94,88.90 282.92,89.84 283.89,89.84 284.87,89.84 285.83,90.45 286.81,87.02 287.78,87.96 288.75,90.78 289.72,88.90 290.69,89.03 291.67,89.37 292.64,89.37 293.61,104.88 294.58,110.05 295.56,96.42 296.53,89.37 297.50,89.50 298.47,89.84 299.44,89.37 300.42,89.37 301.39,92.66 302.36,111.46 303.33,110.74 304.31,113.81 305.28,91.25 306.25,156.58 307.22,396.28 308.19,400.04 309.17,395.34 310.14,93.28 311.11,91.72 312.08,90.78 313.06,88.90 314.03,89.37 315.00,90.78 315.97,89.98 316.94,88.90 317.92,89.84 318.89,90.31 319.86,89.37 320.83,89.50 321.81,89.37 322.78,90.31 323.75,89.37 324.72,88.90 325.69,105.55 326.67,108.17 327.64,110.52 328.61,112.40 329.58,106.29 330.56,91.25 331.53,89.37 332.50,89.50 333.47,89.37 334.44,88.90 335.42,91.72 336.39,96.42 337.36,88.56 338.33,95.95 339.31,88.90 340.28,88.43 341.25,393.93 342.22,392.46 343.19,394.40 344.17,155.64 345.14,88.90 346.11,90.78 347.08,89.84 348.06,89.03 349.03,88.90 350.00,89.37 350.97,92.19 351.94,94.54 352.92,89.84 353.89,89.98 354.86,88.90 355.83,88.90 356.81,88.90 357.78,89.37 358.75,91.39 359.72,91.72 360.69,100.65 361.67,108.64 362.64,109.58 363.61,111.21 364.58,110.99 365.56,108.17 366.53,111.46 367.50,104.88 368.47,90.45 369.44,90.31 370.42,88.90 371.39,95.95 372.36,92.19 373.33,111.46 374.31,113.10 375.28,323.90 376.25,432.94 377.22,432.94 378.19,354.92 379.17,111.46 380.14,114.04 381.11,112.87 382.08,113.81 383.06,108.64 384.03,87.02 385.00,90.31 385.97,105.08 386.94,111.46 387.92,111.46 388.89,113.81 389.86,103.47 390.83,90.45 391.81,87.96 392.78,89.37 393.75,88.43 394.72,88.90 395.69,88.90 396.67,89.03 397.64,88.43 398.61,88.43 399.58,88.90 400.56,88.43 401.53,88.43 402.50,91.39 403.47,92.19 404.44,88.90 405.42,98.30 406.39,89.37 407.36,103.19 408.33,90.78 409.31,119.45 410.28,419.78 411.25,421.66 412.22,417.47 413.19,166.45 414.17,89.37 415.14,89.37 416.11,89.37 417.08,89.03 418.06,89.37 419.03,90.78 420.00,88.90 420.97,88.90 421.94,88.43 422.92,89.03 423.89,89.37 424.86,89.37 425.83,88.90 426.81,88.90 427.78,89.50 428.75,88.43 429.72,88.43 430.69,88.90 431.67,88.90 432.64,88.56 433.61,89.37 434.58,88.43 435.56,88.90 436.53,88.90 437.50,92.66 438.47,89.03 439.44,100.65 440.42,88.90 441.39,88.90 442.36,397.69 443.33,395.29 444.31,394.40 445.28,150.00 446.25,88.43 447.22,88.90 448.20,88.90 449.17,88.09 450.14,88.90 451.11,89.37 452.08,88.43 453.06,109.11 454.03,96.11 455.00,88.90 455.97,88.43 456.94,89.37 457.92,88.43 458.89,89.03 459.86,88.90 460.83,90.31 461.81,89.37 462.78,91.25 463.75,88.09 464.72,100.18 465.69,95.48 466.67,88.90 467.64,87.96 468.61,87.49 469.58,88.09 470.56,89.37 471.53,93.13 472.50,87.96 473.47,100.18 474.44,91.39 475.42,88.43 476.39,360.56 477.36,394.87 478.33,399.10 479.31,192.77 480.28,89.50 481.25,86.55 482.22,88.43 483.19,89.37 484.17,88.43 485.14,92.81 486.11,99.24 487.08,100.65 488.06,92.19 489.03,88.43 490.00,88.90 490.97,90.45 491.94,88.90 492.92,88.90 493.89,90.31 494.87,89.84 495.83,91.39 496.81,98.30 497.78,107.23 498.75,109.11 499.72,106.76 500.69,88.56 501.67,89.37 502.64,90.78 503.61,90.31 504.58,88.90 505.56,88.56 506.53,93.13 507.50,87.49 508.47,102.06 509.44,88.90 510.42,317.43 511.39,425.42 512.36,427.30 513.33,330.01 514.31,87.49 515.28,89.84 516.25,89.50 517.22,88.43 518.19,88.90 519.17,90.31 520.14,90.31 521.12,91.25 522.08,88.09 523.06,87.49 524.03,89.37 525.00,94.54 525.98,88.43 526.94,87.62 527.92,88.90 528.89,88.90 529.86,90.78 530.84,87.96 531.81,88.56 532.78,88.43 533.75,90.78 534.72,88.43 535.69,88.43 536.67,91.86 537.64,89.37 538.61,88.43 539.58,87.96 540.56,97.53 541.53,88.90 542.50,96.89 543.47,87.49 544.44,224.26 545.42,416.96 546.39,416.99 547.36,395.34 548.33,90.31 549.31,87.96 550.28,88.90 551.25,88.56 552.22,89.37 553.19,88.90 554.17,88.43 555.14,90.31 556.11,89.37 557.08,87.96 558.06,88.09 559.03,87.96 560.00,89.37 560.97,87.96 561.94,106.76 562.92,107.23 563.89,108.17 564.86,90.31 565.83,88.90 566.81,92.19 567.78,89.03 568.75,88.43 569.72,89.37 570.69,90.31 571.67,88.90 572.64,93.60 573.61,90.45 574.58,96.42 575.56,88.90 576.53,100.18 577.50,90.31 578.47,126.50 579.45,396.75 580.42,396.70 581.39,397.22 582.36,117.10 583.33,90.31 584.31,102.53 585.28,107.70 586.25,109.11 587.23,111.93 588.19,110.74 589.17,110.52 590.14,101.59 591.11,87.49 592.08,90.31 593.06,88.43 594.03,87.96 595.00,88.90 595.97,88.09 596.94,88.43 597.92,87.96 598.89,88.43 599.86,87.96 600.83,87.96 601.81,88.09 602.78,88.43 603.75,90.78 604.72,108.64 605.69,111.93 606.67,114.28 607.64,113.34 608.61,121.59 609.58,94.54 610.56,88.90 611.53,363.85 612.50,394.40 613.47,393.93 614.44,184.31 615.42,88.90 616.39,88.56 617.36,88.90 618.33,92.66 619.31,89.84 620.28,105.82 621.25,107.23 622.22,107.70 623.19,109.32 624.17,100.65 625.14,88.43 626.11,89.84 627.08,87.96 628.06,92.66 629.03,106.29 630.00,89.98 630.97,89.37 631.94,87.49 632.92,87.02 633.89,87.96 634.86,91.72 635.83,87.49 636.81,90.78 637.78,90.31 638.75,90.92 639.72,89.37 640.69,89.84 641.67,95.48 642.64,89.37 643.61,103.94 644.58,92.19 645.56,325.78 646.53,435.76 647.50,434.82 648.47,357.27 649.44,112.63 650.42,114.28 651.39,113.34 652.36,112.40 653.33,113.34 654.31,113.34 655.28,113.81 656.25,114.51 657.22,112.87 658.19,114.28 659.17,112.87 660.14,107.70 661.11,106.76 662.08,107.44 663.06,107.23 664.03,107.70 665.00,107.23 665.97,106.76 666.94,110.52 667.92,115.46 668.89,114.28 669.86,89.37 670.83,108.17 671.81,107.70 672.78,107.23 673.75,107.23 674.72,106.96 675.69,107.23 676.67,94.54 677.64,87.96 678.61,101.12 679.58,87.02 680.56,330.01 681.53,420.30 682.50,417.90 683.47,301.81 684.44,107.70 685.42,106.76 686.39,107.70 687.36,91.25 688.33,89.84 689.31,87.49 690.28,89.03 691.25,87.96 692.22,101.59 693.19,108.17 694.17,107.23 695.14,109.11 696.11,92.34 697.08,93.13 698.06,90.78 699.03,93.13 700.00,90.78 700.97,91.72 701.94,91.25 702.92,98.94 703.89,114.28 704.86,110.52 705.83,110.05 706.81,110.52 707.78,110.52 708.75,110.74 709.72,110.05 710.69,119.45 711.67,111.93 712.64,119.45 713.61,112.87 714.58,123.21 715.56,406.62 716.53,403.78 717.50,407.09 718.47,180.55 719.44,114.28 720.42,113.34 721.39,110.99 722.36,110.05 723.33,115.22 724.31,110.74 725.28,110.52 726.25,108.64 727.22,89.37 728.19,91.25 729.17,87.96 730.14,87.49 731.11,87.96 732.08,92.19 733.06,87.96 734.03,88.90 735.00,88.43 735.97,89.50 736.94,87.96 737.92,87.96 738.89,89.37 739.86,88.90 740.83,93.13 741.81,87.49 742.78,91.25 743.75,90.78 744.72,87.14 745.69,94.54 746.67,87.49 747.64,100.65 748.61,87.49 749.58,294.29 750.56,397.22 751.53,398.63 752.50,250.58 753.47,88.43 754.44,88.90 755.42,89.98 756.39,90.78 757.36,89.37 758.33,89.37 759.31,89.37 760.28,89.84 761.25,87.02 762.22,89.84 763.19,93.60 764.17,91.72 765.14,89.37 766.11,89.84 767.08,89.84 768.06,89.37 769.03,89.37" fill="none" stroke="#ff7f0e" stroke-width="1.4" opacity="0.9" stroke-linejoin="round"/><polyline points="70.97,110.52 71.94,119.23 72.92,116.16 73.89,115.69 74.86,122.27 75.83,109.58 76.81,254.34 77.78,433.88 78.75,433.88 79.72,431.53 80.69,110.52 81.67,111.46 82.64,94.07 83.61,89.50 84.58,101.59 85.56,88.90 86.53,278.31 87.50,419.31 88.47,419.78 89.44,342.70 90.42,89.84 91.39,108.38 92.36,109.11 93.33,111.46 94.31,118.98 95.28,112.87 96.25,325.31 97.22,403.80 98.19,401.92 99.17,271.26 100.14,94.70 101.11,98.30 102.08,91.25 103.06,104.41 104.03,91.25 105.00,101.59 105.97,397.69 106.95,394.40 107.92,399.53 108.89,145.77 109.86,88.43 110.83,95.95 111.81,107.23 112.78,122.74 113.75,111.93 114.72,221.91 115.69,433.04 116.67,434.35 117.64,435.29 118.61,136.84 119.58,108.17 120.56,101.59 121.53,88.43 122.50,292.88 123.48,416.96 124.44,417.47 125.42,323.43 126.39,88.90 127.36,92.66 128.33,88.90 129.31,100.18 130.28,87.96 131.25,89.03 132.22,368.08 133.19,397.69 134.17,398.16 135.14,185.25 136.11,88.43 137.08,96.42 138.06,88.09 139.03,95.95 140.00,90.31 140.97,181.96 141.94,394.40 142.92,394.40 143.89,365.73 144.86,89.03 145.83,90.31 146.81,99.24 147.78,89.37 148.75,96.89 149.72,88.90 150.69,329.54 151.67,436.23 152.64,434.93 153.61,351.16 154.58,107.70 155.56,116.16 156.53,108.17 157.50,108.64 158.47,119.45 159.45,108.17 160.42,339.60 161.39,426.83 162.36,426.83 163.33,304.63 164.31,89.84 165.28,100.65 166.25,91.72 167.22,121.80 168.19,393.40 169.17,394.40 170.14,394.40 171.11,133.08 172.08,90.78 173.06,93.13 174.03,88.90 175.00,99.71 175.97,92.81 176.94,240.71 177.92,396.28 178.89,394.87 179.86,315.91 180.83,89.84 181.81,92.81 182.78,88.43 183.75,96.89 184.72,95.48 185.69,87.96 186.67,387.27 187.64,424.95 188.61,424.48 189.58,260.45 190.56,91.25 191.53,118.04 192.50,107.44 193.47,116.16 194.44,97.83 195.42,102.53 196.39,420.25 197.36,418.88 198.33,416.96 199.31,197.00 200.28,91.72 201.25,99.71 202.22,89.37 203.19,100.83 204.17,88.90 205.14,173.50 206.11,394.40 207.08,397.69 208.06,378.42 209.03,101.77 210.00,110.99 210.97,118.51 211.94,107.70 212.92,319.67 213.89,401.92 214.86,403.31 215.83,264.21 216.81,107.23 217.78,108.64 218.75,95.48 219.73,122.74 220.69,107.44 221.67,107.23 222.64,422.13 223.61,432.00 224.58,432.94 225.56,259.86 226.53,112.87 227.50,117.10 228.47,107.70 229.44,126.97 230.42,107.70 231.39,95.01 232.36,424.54 233.33,418.37 234.31,416.96 235.28,202.17 236.25,89.37 237.22,96.58 238.19,89.37 239.17,96.89 240.14,88.90 241.11,176.79 242.08,392.93 243.06,394.40 244.03,377.95 245.00,90.31 245.97,88.43 246.94,99.24 247.92,88.09 248.89,99.71 249.86,88.43 250.83,292.88 251.81,397.22 252.78,394.40 253.75,258.44 254.72,91.72 255.69,98.30 256.67,88.43 257.64,101.59 258.62,89.84 259.58,107.44 260.56,426.83 261.53,424.48 262.50,425.89 263.47,200.29 264.44,88.90 265.42,100.83 266.39,89.37 267.36,225.67 268.33,416.96 269.31,416.96 270.28,390.64 271.25,89.37 272.22,89.98 273.19,92.66 274.17,88.43 275.14,101.12 276.12,89.37 277.08,304.69 278.06,395.81 279.03,400.04 280.00,251.52 280.97,89.84 281.94,97.05 282.92,89.37 283.89,97.83 284.86,89.37 285.83,115.69 286.81,394.87 287.78,395.34 288.75,393.46 289.72,128.20 290.69,103.00 291.67,116.16 292.64,108.64 293.61,123.68 294.58,109.11 295.56,231.78 296.53,432.00 297.50,431.15 298.47,430.59 299.44,113.81 300.42,96.89 301.39,99.24 302.36,89.84 303.34,102.53 304.31,89.50 305.28,260.92 306.25,420.25 307.22,416.96 308.19,358.21 309.17,88.90 310.14,103.00 311.11,112.40 312.09,110.99 313.06,368.86 314.03,406.62 315.00,403.33 315.97,227.55 316.94,97.83 317.92,117.57 318.89,111.46 319.86,120.39 320.83,111.46 321.81,136.22 322.78,405.21 323.75,406.15 324.72,402.39 325.69,149.06 326.67,88.43 327.64,93.13 328.61,91.39 329.58,106.76 330.56,88.43 331.53,230.84 332.50,427.30 333.47,427.77 334.44,416.52 335.42,91.72 336.39,89.37 337.36,98.30 338.33,103.00 339.31,119.45 340.28,111.21 341.25,287.71 342.22,416.96 343.19,423.54 344.17,364.79 345.14,112.40 346.11,120.18 347.08,112.40 348.06,108.17 349.03,118.04 350.00,109.58 350.97,299.93 351.94,405.67 352.92,407.09 353.89,293.82 354.86,99.24 355.83,106.29 356.81,93.13 357.78,121.59 358.75,394.40 359.72,394.40 360.69,397.22 361.67,131.67 362.64,91.72 363.61,98.94 364.58,90.78 365.56,104.88 366.53,92.19 367.50,258.10 368.47,432.00 369.45,432.00 370.42,428.32 371.39,109.11 372.36,90.78 373.33,95.95 374.31,90.78 375.28,104.13 376.25,89.37 377.22,291.00 378.19,418.37 379.17,416.96 380.14,334.71 381.11,107.44 382.08,114.75 383.06,107.23 384.03,107.70 385.00,114.75 385.97,108.17 386.94,330.95 387.92,400.48 388.89,400.51 389.86,246.82 390.83,100.18 391.81,96.42 392.78,90.78 393.75,101.12 394.73,88.90 395.69,115.93 396.67,395.81 397.64,395.34 398.61,397.69 399.58,127.44 400.56,88.90 401.53,96.89 402.50,90.31 403.47,102.25 404.44,88.90 405.42,249.64 406.39,425.42 407.36,426.83 408.33,391.58 409.31,88.43 410.28,102.53 411.25,120.86 412.22,107.44 413.19,356.80 414.17,423.54 415.14,424.01 416.11,294.29 417.08,100.65 418.06,94.54 419.03,89.84 420.00,100.18 420.97,88.56 421.94,90.78 422.92,398.63 423.89,397.22 424.86,398.16 425.83,155.17 426.81,89.84 427.78,96.42 428.75,88.90 429.72,98.94 430.69,88.90 431.67,212.04 432.64,393.93 433.61,393.46 434.58,336.59 435.56,88.90 436.53,99.24 437.50,88.43 438.47,89.03 439.44,101.59 440.42,111.46 441.39,362.44 442.36,433.41 443.33,433.41 444.31,324.37 445.28,113.34 446.25,120.39 447.22,110.74 448.19,107.23 449.17,101.12 450.14,94.07 451.11,361.03 452.08,422.13 453.06,418.84 454.03,259.86 455.00,89.37 455.97,101.59 456.94,89.84 457.92,158.93 458.89,394.40 459.86,394.40 460.83,389.70 461.81,88.90 462.78,88.56 463.75,94.54 464.72,108.17 465.69,119.92 466.67,108.17 467.64,274.01 468.61,405.68 469.58,406.15 470.56,320.61 471.53,110.99 472.50,115.22 473.47,112.15 474.44,109.58 475.42,101.59 476.39,87.96 477.36,359.62 478.33,427.85 479.31,425.89 480.28,288.65 481.25,89.84 482.22,98.77 483.19,91.25 484.17,98.77 485.14,90.78 486.11,90.92 487.08,422.60 488.06,416.96 489.03,416.96 490.00,216.27 490.97,112.87 491.94,116.40 492.92,107.23 493.89,118.04 494.86,107.70 495.83,149.06 496.81,405.68 497.78,407.08 498.75,404.74 499.72,152.35 500.69,112.40 501.67,99.71 502.64,87.96 503.61,260.80 504.58,393.46 505.56,393.93 506.53,288.65 507.50,95.95 508.47,115.22 509.45,114.28 510.42,122.54 511.39,116.63 512.36,116.16 513.33,378.89 514.31,430.12 515.28,426.36 516.25,289.11 517.22,88.43 518.19,94.07 519.17,89.84 520.14,101.12 521.12,90.31 522.08,92.81 523.06,421.66 524.03,419.78 525.00,416.96 525.97,194.65 526.94,87.02 527.92,97.36 528.89,90.45 529.86,95.95 530.83,89.37 531.81,182.90 532.78,394.40 533.75,394.40 534.72,371.37 535.70,88.90 536.67,88.09 537.64,95.01 538.61,91.72 539.58,100.18 540.56,91.25 541.53,297.11 542.50,400.98 543.48,395.34 544.44,257.97 545.42,92.19 546.39,116.16 547.36,90.31 548.33,103.47 549.31,90.31 550.28,102.72 551.25,424.48 552.22,426.83 553.19,429.65 554.17,209.22 555.14,92.19 556.12,106.29 557.08,91.39 558.06,214.86 559.03,416.96 560.00,416.96 560.97,403.80 561.94,87.96 562.92,88.56 563.89,92.66 564.86,88.43 565.83,102.53 566.81,94.54 567.78,302.28 568.75,408.03 569.72,406.62 570.69,300.87 571.67,113.81 572.64,120.86 573.61,109.58 574.58,111.46 575.56,118.51 576.53,113.10 577.50,351.63 578.47,406.62 579.44,404.74 580.42,243.53 581.39,101.59 582.36,97.83 583.33,88.09 584.31,98.30 585.28,88.43 586.25,137.31 587.22,425.42 588.19,426.36 589.17,427.30 590.14,179.14 591.11,89.50 592.08,100.65 593.06,107.70 594.03,118.98 595.00,107.23 595.97,191.83 596.94,424.07 597.92,426.36 598.89,424.48 599.86,126.97 600.83,90.78 601.81,117.57 602.78,113.81 603.75,281.60 604.72,403.33 605.70,402.86 606.67,309.88 607.64,106.76 608.61,111.46 609.58,110.99 610.56,107.23 611.53,119.71 612.50,107.70 613.47,345.05 614.44,403.80 615.42,403.33 616.39,235.54 617.37,88.43 618.33,93.75 619.31,88.43 620.28,102.53 621.25,88.90 622.22,142.01 623.19,424.48 624.17,425.49 625.14,426.36 626.11,170.21 627.08,88.43 628.06,97.36 629.03,100.18 630.00,119.92 630.97,106.49 631.94,205.93 632.92,421.19 633.89,416.49 634.86,417.90 635.83,106.76 636.81,88.90 637.78,96.42 638.75,88.56 639.72,101.12 640.69,88.90 641.67,258.57 642.64,400.04 643.61,395.81 644.58,291.94 645.56,89.98 646.53,100.18 647.50,87.96 648.47,115.22 649.44,395.34 650.42,393.46 651.39,396.70 652.36,126.50 653.33,88.43 654.31,92.66 655.28,87.96 656.25,101.30 657.22,88.43 658.19,257.16 659.17,424.48 660.14,424.48 661.11,391.51 662.08,88.43 663.06,88.43 664.03,92.66 665.00,88.43 665.97,100.83 666.94,88.90 667.92,329.54 668.89,418.84 669.86,416.96 670.83,296.17 671.81,89.50 672.78,97.36 673.75,89.37 674.72,96.42 675.69,89.37 676.67,88.43 677.64,393.87 678.61,394.40 679.58,394.40 680.56,157.99 681.53,88.43 682.50,96.42 683.48,88.43 684.44,100.36 685.42,88.43 686.39,205.93 687.36,396.28 688.33,397.22 689.31,344.11 690.28,88.43 691.25,98.00 692.22,88.90 693.19,88.90 694.17,102.53 695.14,88.43 696.11,351.16 697.09,426.83 698.06,423.60 699.03,292.88 700.00,88.90 700.97,101.59 701.94,91.25 702.92,150.00 703.89,424.48 704.86,423.60 705.83,416.96 706.81,169.27 707.78,90.31 708.75,104.41 709.72,110.27 710.69,122.74 711.67,108.64 712.64,189.95 713.61,406.15 714.58,401.92 715.56,402.39 716.53,107.44 717.50,94.07 718.47,98.77 719.44,102.53 720.42,120.39 721.39,106.96 722.36,263.74 723.33,401.92 724.31,401.92 725.28,320.14 726.25,108.64 727.22,108.85 728.19,96.89 729.17,89.37 730.14,96.89 731.11,88.43 732.08,374.05 733.06,426.83 734.03,426.36 735.00,275.49 735.97,88.43 736.94,97.83 737.92,90.31 738.89,101.12 739.86,88.56 740.83,105.35 741.81,419.31 742.78,417.43 743.75,420.25 744.72,183.37 745.69,88.90 746.67,99.89 747.64,88.90 748.61,235.07 749.58,406.62 750.56,404.27 751.53,329.07 752.50,88.09 753.47,95.48 754.44,93.60 755.42,89.84 756.39,101.59 757.37,89.37 758.33,340.08 759.31,397.22 760.28,397.22 761.25,214.86 762.22,89.84 763.19,94.07 764.17,87.96 765.14,105.55 766.11,90.31 767.08,159.87 768.06,437.64 769.03,432.47" fill="none" stroke="#d62728" stroke-width="1.4" opacity="0.9" stroke-linejoin="round"/><text x="794.0" y="62.0" font-family="sans-serif" font-size="12" text-anchor="start" fill="#111" font-weight="bold">RRT  (reclaims/inst)</text><line x1="794.0" y1="80.0" x2="820.0" y2="80.0" stroke="#555555" stroke-width="3.0" opacity="1.0"/><text x="826.0" y="84.0" font-family="sans-serif" font-size="12" text-anchor="start" fill="#111" font-weight="normal">OFF (1e9)  (0)</text><text x="826.0" y="101.0" font-family="sans-serif" font-size="10" text-anchor="start" fill="#666" font-weight="normal">avg 954  min 936</text><line x1="794.0" y1="119.0" x2="820.0" y2="119.0" stroke="#1f77b4" stroke-width="3.0" opacity="1.0"/><text x="826.0" y="123.0" font-family="sans-serif" font-size="12" text-anchor="start" fill="#111" font-weight="normal">1024  (256)</text><text x="826.0" y="140.0" font-family="sans-serif" font-size="10" text-anchor="start" fill="#666" font-weight="normal">avg 955  min 606</text><line x1="794.0" y1="158.0" x2="820.0" y2="158.0" stroke="#2ca02c" stroke-width="3.0" opacity="1.0"/><text x="826.0" y="162.0" font-family="sans-serif" font-size="12" text-anchor="start" fill="#111" font-weight="normal">256  (1,280)</text><text x="826.0" y="179.0" font-family="sans-serif" font-size="10" text-anchor="start" fill="#666" font-weight="normal">avg 949  min 604</text><line x1="794.0" y1="197.0" x2="820.0" y2="197.0" stroke="#ff7f0e" stroke-width="3.0" opacity="1.0"/><text x="826.0" y="201.0" font-family="sans-serif" font-size="12" text-anchor="start" fill="#111" font-weight="normal">64  (5,120)</text><text x="826.0" y="218.0" font-family="sans-serif" font-size="10" text-anchor="start" fill="#666" font-weight="normal">avg 927  min 596</text><line x1="794.0" y1="236.0" x2="820.0" y2="236.0" stroke="#d62728" stroke-width="3.0" opacity="1.0"/><text x="826.0" y="240.0" font-family="sans-serif" font-size="12" text-anchor="start" fill="#111" font-weight="normal">16  (19,712)</text><text x="826.0" y="257.0" font-family="sans-serif" font-size="10" text-anchor="start" fill="#666" font-weight="normal">avg 837  min 594</text></svg>